M48
; DRILL file {KiCad 9.0.6-rc1-2-g790dee114b} date 2025-10-17T23:56:23-0400
; FORMAT={-:-/ absolute / inch / decimal}
; #@! TF.CreationDate,2025-10-17T23:56:23-04:00
; #@! TF.GenerationSoftware,Kicad,Pcbnew,9.0.6-rc1-2-g790dee114b
; #@! TF.FileFunction,Plated,1,2,PTH
FMAT,2
INCH
; #@! TA.AperFunction,Plated,PTH,ViaDrill
T1C0.0079
; #@! TA.AperFunction,Plated,PTH,ViaDrill
T2C0.0118
; #@! TA.AperFunction,Plated,PTH,ComponentDrill
T3C0.0150
; #@! TA.AperFunction,Plated,PTH,ComponentDrill
T4C0.0433
%
G90
G05
T1
X-0.3553Y0.2542
X-0.3283Y0.1962
X-0.3128Y0.2387
X-0.2973Y0.2813
X-0.2702Y0.2232
T2
X-0.9026Y0.6455
X-0.8976Y0.5748
X-0.847Y0.1643
X-0.8455Y0.5994
X-0.8346Y0.0945
X-0.7815Y0.0817
X-0.7391Y1.1582
X-0.7106Y1.122
X-0.6614Y1.1299
X-0.6083Y-0.7313
X-0.5945Y-0.2776
X-0.5945Y-0.6654
X-0.5591Y-0.8071
X-0.4843Y0.0453
X-0.4803Y-0.8701
X-0.4764Y-0.8228
X-0.4734Y0.5059
X-0.4606Y0.1535
X-0.4508Y-0.3602
X-0.4459Y-0.8346
X-0.398Y-0.7878
X-0.3652Y-0.8022
X-0.3327Y-0.3622
X-0.2704Y-0.1211
X-0.2539Y-0.4685
X-0.2323Y-0.1211
X-0.188Y-0.2205
X-0.1506Y-0.2205
X-0.1358Y-0.6063
X-0.1299Y-0.0079
X-0.0886Y-0.0079
X-0.0856Y-0.1398
X-0.0841Y0.6488
X-0.0541Y-0.1486
X-0.0323Y0.5987
X0.0167Y0.123
X0.0512Y0.1142
X0.0561Y-0.0266
X0.064Y0.0089
X0.0911Y0.4876
X0.1368Y0.1348
X0.1496Y0.4291
X0.1654Y0.1575
X0.2028Y0.0463
X0.2205Y0.0778
X0.2864Y-0.0108
X0.372Y-0.1878
X0.3791Y0.0382
X0.4415Y0.1457
X0.5Y0.0866
X0.5039Y-0.2441
X0.561Y-0.1417
X0.6502Y-0.0591
X0.6783Y-0.2315
X0.7087Y-0.1175
X0.7116Y-0.1663
X0.7683Y-0.1772
X0.7736Y-0.2146
X0.8268Y-0.2638
X0.8937Y-0.2323
T3
X0.4912Y-0.3664
X0.5367Y-0.3457
X0.5822Y-0.3249
X0.6277Y-0.3042
X0.6732Y-0.2835
X0.7187Y-0.2627
T4
X0.024Y-0.2815
X0.024Y-0.3815
X0.124Y-0.2815
X0.124Y-0.3815
X0.224Y-0.2815
X0.224Y-0.3815
M30
