%TF.GenerationSoftware,KiCad,Pcbnew,9.0.6-rc1-2-g790dee114b*%
%TF.CreationDate,2025-10-17T23:56:22-04:00*%
%TF.ProjectId,MetamerBoard,4d657461-6d65-4724-926f-6172642e6b69,rev?*%
%TF.SameCoordinates,Original*%
%TF.FileFunction,Copper,L1,Top*%
%TF.FilePolarity,Positive*%
%FSLAX46Y46*%
G04 Gerber Fmt 4.6, Leading zero omitted, Abs format (unit mm)*
G04 Created by KiCad (PCBNEW 9.0.6-rc1-2-g790dee114b) date 2025-10-17 23:56:22*
%MOMM*%
%LPD*%
G01*
G04 APERTURE LIST*
G04 Aperture macros list*
%AMRoundRect*
0 Rectangle with rounded corners*
0 $1 Rounding radius*
0 $2 $3 $4 $5 $6 $7 $8 $9 X,Y pos of 4 corners*
0 Add a 4 corners polygon primitive as box body*
4,1,4,$2,$3,$4,$5,$6,$7,$8,$9,$2,$3,0*
0 Add four circle primitives for the rounded corners*
1,1,$1+$1,$2,$3*
1,1,$1+$1,$4,$5*
1,1,$1+$1,$6,$7*
1,1,$1+$1,$8,$9*
0 Add four rect primitives between the rounded corners*
20,1,$1+$1,$2,$3,$4,$5,0*
20,1,$1+$1,$4,$5,$6,$7,0*
20,1,$1+$1,$6,$7,$8,$9,0*
20,1,$1+$1,$8,$9,$2,$3,0*%
G04 Aperture macros list end*
%TA.AperFunction,ComponentPad*%
%ADD10C,1.016000*%
%TD*%
%TA.AperFunction,SMDPad,CuDef*%
%ADD11RoundRect,0.250000X-0.552211X0.056458X-0.227211X-0.506458X0.552211X-0.056458X0.227211X0.506458X0*%
%TD*%
%TA.AperFunction,SMDPad,CuDef*%
%ADD12RoundRect,0.250000X-0.109125X-0.544258X0.482349X-0.274707X0.109125X0.544258X-0.482349X0.274707X0*%
%TD*%
%TA.AperFunction,SMDPad,CuDef*%
%ADD13RoundRect,0.250000X-0.548008X-0.088388X-0.088388X-0.548008X0.548008X0.088388X0.088388X0.548008X0*%
%TD*%
%TA.AperFunction,SMDPad,CuDef*%
%ADD14RoundRect,0.250000X0.548008X0.088388X0.088388X0.548008X-0.548008X-0.088388X-0.088388X-0.548008X0*%
%TD*%
%TA.AperFunction,SMDPad,CuDef*%
%ADD15RoundRect,0.250000X0.459309X0.311705X-0.151491X0.534018X-0.459309X-0.311705X0.151491X-0.534018X0*%
%TD*%
%TA.AperFunction,SMDPad,CuDef*%
%ADD16RoundRect,0.237500X0.256976X-0.270233X0.216866X0.303367X-0.256976X0.270233X-0.216866X-0.303367X0*%
%TD*%
%TA.AperFunction,SMDPad,CuDef*%
%ADD17RoundRect,0.237500X0.283816X-0.241891X0.183968X0.324374X-0.283816X0.241891X-0.183968X-0.324374X0*%
%TD*%
%TA.AperFunction,SMDPad,CuDef*%
%ADD18RoundRect,0.250000X0.538219X0.135814X0.040290X0.553626X-0.538219X-0.135814X-0.040290X-0.553626X0*%
%TD*%
%TA.AperFunction,SMDPad,CuDef*%
%ADD19RoundRect,0.250000X-0.104372X-0.545189X0.484728X-0.270488X0.104372X0.545189X-0.484728X0.270488X0*%
%TD*%
%TA.AperFunction,SMDPad,CuDef*%
%ADD20RoundRect,0.200000X-0.013870X-0.824504X0.400240X0.720977X0.013870X0.824504X-0.400240X-0.720977X0*%
%TD*%
%TA.AperFunction,SMDPad,CuDef*%
%ADD21RoundRect,0.200000X0.089658X-0.438134X0.296713X0.334607X-0.089658X0.438134X-0.296713X-0.334607X0*%
%TD*%
%TA.AperFunction,SMDPad,CuDef*%
%ADD22RoundRect,0.200000X0.241595X-0.788436X0.157857X0.809371X-0.241595X0.788436X-0.157857X-0.809371X0*%
%TD*%
%TA.AperFunction,SMDPad,CuDef*%
%ADD23RoundRect,0.200000X0.220660X-0.388985X0.178792X0.409919X-0.220660X0.388985X-0.178792X-0.409919X0*%
%TD*%
%TA.AperFunction,SMDPad,CuDef*%
%ADD24RoundRect,0.200000X-0.128484X-0.814550X0.496686X0.658258X0.128484X0.814550X-0.496686X-0.658258X0*%
%TD*%
%TA.AperFunction,SMDPad,CuDef*%
%ADD25RoundRect,0.200000X0.027809X-0.446348X0.340393X0.290056X-0.027809X0.446348X-0.340393X-0.290056X0*%
%TD*%
%TA.AperFunction,ComponentPad*%
%ADD26R,1.650000X1.650000*%
%TD*%
%TA.AperFunction,ComponentPad*%
%ADD27C,1.650000*%
%TD*%
%TA.AperFunction,ViaPad*%
%ADD28C,0.600000*%
%TD*%
%TA.AperFunction,ViaPad*%
%ADD29C,0.500000*%
%TD*%
%TA.AperFunction,Conductor*%
%ADD30C,0.200000*%
%TD*%
%TA.AperFunction,Conductor*%
%ADD31C,0.300000*%
%TD*%
G04 APERTURE END LIST*
D10*
%TO.P,P1,6,Pin_6*%
%TO.N,GND*%
X18255650Y-6673339D03*
%TD*%
D11*
%TO.P,D16,1,K*%
%TO.N,Net-(D16-K)*%
X-6540390Y-4417504D03*
%TO.P,D16,2,A*%
%TO.N,VCC3V3*%
X-5515390Y-6192856D03*
%TD*%
D12*
%TO.P,D12,1,K*%
%TO.N,Net-(D12-K)*%
X21567290Y-7625061D03*
%TO.P,D12,2,A*%
%TO.N,VCC3V3*%
X23432710Y-6774939D03*
%TD*%
D13*
%TO.P,D11,1,K*%
%TO.N,Net-(D11-K)*%
X20375216Y-3675216D03*
%TO.P,D11,2,A*%
%TO.N,VCC3V3*%
X21824784Y-5124784D03*
%TD*%
D14*
%TO.P,D10,1,K*%
%TO.N,Net-(D10-K)*%
X18824784Y-2124784D03*
%TO.P,D10,2,A*%
%TO.N,VCC3V3*%
X17375216Y-675216D03*
%TD*%
%TO.P,D9,1,K*%
%TO.N,Net-(D9-K)*%
X13524784Y3075216D03*
%TO.P,D9,2,A*%
%TO.N,VCC3V3*%
X12075216Y4524784D03*
%TD*%
%TO.P,D8,1,K*%
%TO.N,Net-(D8-K)*%
X4624784Y11775216D03*
%TO.P,D8,2,A*%
%TO.N,VCC3V3*%
X3175216Y13224784D03*
%TD*%
D13*
%TO.P,D7,1,K*%
%TO.N,Net-(D7-K)*%
X-1324784Y17424784D03*
%TO.P,D7,2,A*%
%TO.N,VCC3V3*%
X124784Y15975216D03*
%TD*%
D15*
%TO.P,D6,1,K*%
%TO.N,Net-(D6-K)*%
X-16436815Y29849429D03*
%TO.P,D6,2,A*%
%TO.N,VCC3V3*%
X-18363185Y30550571D03*
%TD*%
D16*
%TO.P,D5,1,K*%
%TO.N,Net-(D5-K)*%
X-23738913Y14527131D03*
%TO.P,D5,2,A*%
%TO.N,VCC3V3*%
X-23860987Y16272869D03*
%TD*%
D17*
%TO.P,D4,1,K*%
%TO.N,Net-(D4-K)*%
X-22148058Y2238293D03*
%TO.P,D4,2,A*%
%TO.N,VCC3V3*%
X-22451942Y3961707D03*
%TD*%
D11*
%TO.P,D3,1,K*%
%TO.N,Net-(D3-K)*%
X-16462500Y-19087324D03*
%TO.P,D3,2,A*%
%TO.N,VCC3V3*%
X-15437500Y-20862676D03*
%TD*%
D18*
%TO.P,D2,1,K*%
%TO.N,Net-(D2-K)*%
X-12914804Y-23058857D03*
%TO.P,D2,2,A*%
%TO.N,VCC3V3*%
X-14485196Y-21741143D03*
%TD*%
D19*
%TO.P,D1,1,K*%
%TO.N,Net-(D1-K)*%
X-10678965Y-22258184D03*
%TO.P,D1,2,A*%
%TO.N,VCC3V3*%
X-8821035Y-21391816D03*
%TD*%
D20*
%TO.P,D14,1,K*%
%TO.N,Net-(D14-K)*%
X916256Y1494802D03*
D21*
%TO.P,D14,2,A*%
%TO.N,VCC3V3*%
X359803Y-581939D03*
%TD*%
D22*
%TO.P,D15,1,K*%
%TO.N,Net-(D15-K)*%
X-3284783Y-1627400D03*
D23*
%TO.P,D15,2,A*%
%TO.N,VCC3V3*%
X-3172253Y-3774450D03*
%TD*%
D24*
%TO.P,D13,1,K*%
%TO.N,Net-(D13-K)*%
X4800876Y3013095D03*
D25*
%TO.P,D13,2,A*%
%TO.N,VCC3V3*%
X3960813Y1034009D03*
%TD*%
D26*
%TO.P,J1,1,Pin_1*%
%TO.N,VCC3V3*%
X610000Y-7150000D03*
D27*
%TO.P,J1,2,Pin_2*%
%TO.N,GND*%
X610000Y-9690000D03*
%TO.P,J1,3,Pin_3*%
%TO.N,/BADGE_SDA*%
X3150000Y-7150000D03*
%TO.P,J1,4,Pin_4*%
%TO.N,/BADGE_SCL*%
X3150000Y-9690000D03*
%TO.P,J1,5,Pin_5*%
%TO.N,/GPIO1*%
X5690000Y-7150000D03*
%TO.P,J1,6,Pin_6*%
%TO.N,/GPIO2*%
X5690000Y-9690000D03*
%TD*%
D28*
%TO.N,GND*%
X-15100000Y-7050000D03*
X-11700000Y3900000D03*
X12800000Y-6200000D03*
X-6450000Y-11900000D03*
%TO.N,VCC3V3*%
X22700000Y-5900000D03*
X1425000Y-675000D03*
X-21512560Y4172660D03*
X5150000Y1175000D03*
X-9275000Y-20375000D03*
X-22925560Y16395620D03*
X-819310Y15207890D03*
X-4775000Y-5600000D03*
X16515080Y-1500000D03*
X-18773360Y29418240D03*
X11215080Y3700000D03*
X2315080Y12384930D03*
X-2175000Y-3550000D03*
X-14200000Y-20500000D03*
%TO.N,GND*%
X7274700Y-274700D03*
X425000Y3125000D03*
X-12025000Y12850000D03*
X14250000Y-3600000D03*
X-3825000Y-5600000D03*
D29*
X-7944710Y6063690D03*
D28*
X-5900000Y-3075000D03*
X-11450000Y-9150000D03*
X-12300000Y1150000D03*
X18075000Y-4225000D03*
X-21475000Y15225000D03*
X3475000Y3425000D03*
X5600000Y1975000D03*
X-3450000Y-15400000D03*
X9630000Y970000D03*
D29*
X-8338030Y4983050D03*
D28*
X-8450000Y-9200000D03*
X-10110000Y-20010000D03*
X19650000Y-5450000D03*
X1625000Y225000D03*
X-2250000Y-200000D03*
D29*
X-9025360Y6457020D03*
D28*
X-12100000Y-20900000D03*
X-18050000Y28500000D03*
X-19850000Y2075000D03*
X-15100000Y-16900000D03*
D29*
X-6864070Y5670370D03*
X-7551390Y7144340D03*
D28*
%TO.N,Net-(D1-K)*%
X-11325000Y-21200000D03*
%TO.N,Net-(D2-K)*%
X-12200000Y-22100000D03*
%TO.N,Net-(D3-K)*%
X-15450000Y-18575000D03*
%TO.N,Net-(D4-K)*%
X-21200000Y2400000D03*
%TO.N,Net-(D5-K)*%
X-22800000Y14600000D03*
%TO.N,Net-(D6-K)*%
X-16800000Y28700000D03*
%TO.N,Net-(D7-K)*%
X-2136220Y16480690D03*
%TO.N,Net-(D8-K)*%
X3800000Y10900000D03*
%TO.N,Net-(D9-K)*%
X12700000Y2200000D03*
%TO.N,Net-(D10-K)*%
X18000000Y-2984930D03*
%TO.N,Net-(D11-K)*%
X19515080Y-4500000D03*
%TO.N,Net-(D12-K)*%
X21000000Y-6700000D03*
%TO.N,Net-(D13-K)*%
X4200000Y4000000D03*
%TO.N,Net-(D14-K)*%
X1300000Y2900000D03*
%TO.N,Net-(D15-K)*%
X-3300000Y-200000D03*
%TO.N,Net-(D16-K)*%
X-6868230Y-3075000D03*
%TO.N,GND*%
X-1375000Y-3775000D03*
X9450000Y-4770000D03*
X17230000Y-5880000D03*
%TD*%
D30*
%TO.N,Net-(D3-K)*%
X-16236605Y-18978585D02*
G75*
G03*
X-15778406Y-18764606I-1002285J2743780D01*
G01*
%TO.N,Net-(D2-K)*%
X-12775066Y-22780536D02*
G75*
G03*
X-12390905Y-22327510I-43481224J37261031D01*
G01*
%TO.N,Net-(D1-K)*%
X-11123944Y-21631160D02*
G75*
G03*
X-10858610Y-22066111I2076554J968355D01*
G01*
%TO.N,VCC3V3*%
X-5500000Y-6075000D02*
X-4775000Y-5600000D01*
X21842460Y-5142460D02*
X22246020Y-5446020D01*
X-23615640Y16347360D02*
X-22925560Y16395620D01*
X4201930Y1563950D02*
X5150000Y1175000D01*
X-14907180Y-20419620D02*
X-14784110Y-20348560D01*
X4175000Y1575000D02*
X4196970Y1565990D01*
X-14427740Y-21789350D02*
X-14031750Y-21336320D01*
X4196970Y1565990D02*
X4201930Y1563950D01*
X-13923090Y-20992360D02*
X-13922960Y-20991810D01*
X-15375000Y-20609330D02*
X-14907180Y-20419620D01*
X22700000Y-5900000D02*
X22948820Y-6445990D01*
X22246020Y-5446020D02*
X22700000Y-5900000D01*
X-3159930Y-3599250D02*
X-2175000Y-3550000D01*
X-18773360Y29418240D02*
X-18532460Y30080090D01*
X-14200000Y-20500000D02*
X-13957120Y-20823840D01*
X-13988310Y-21253200D02*
X-13923090Y-20992360D01*
X11215080Y3700000D02*
X12057540Y4542460D01*
X-14609830Y-20336080D02*
X-14200000Y-20500000D01*
D31*
X-9275000Y-20375000D02*
X-8994630Y-20976250D01*
D30*
X-14031750Y-21336320D02*
X-14031200Y-21335680D01*
X-819310Y15207890D02*
X36400Y16063600D01*
X550000Y-400000D02*
X1425000Y-675000D01*
X16515080Y-1500000D02*
X17357540Y-657540D01*
X-22213490Y4049060D02*
X-21512560Y4172660D01*
X2315080Y12384930D02*
X3157540Y13227390D01*
X-13957121Y-20823835D02*
G75*
G02*
X-13922979Y-20991802I-159969J-119970D01*
G01*
X-13988303Y-21253203D02*
G75*
G02*
X-14031199Y-21335680I-193987J48498D01*
G01*
X-14784112Y-20348554D02*
G75*
G02*
X-14609822Y-20336051I100022J-173251D01*
G01*
%TO.N,Net-(D1-K)*%
X-11123944Y-21631160D02*
X-11325000Y-21200000D01*
%TO.N,Net-(D2-K)*%
X-12390905Y-22327510D02*
X-12200000Y-22100000D01*
%TO.N,Net-(D3-K)*%
X-15450000Y-18575000D02*
X-15778409Y-18764601D01*
%TO.N,Net-(D4-K)*%
X-21900930Y2276410D02*
X-21200000Y2400000D01*
%TO.N,Net-(D5-K)*%
X-23490080Y14551740D02*
X-22800000Y14600000D01*
%TO.N,Net-(D6-K)*%
X-16800000Y28700000D02*
X-16559110Y29361850D01*
%TO.N,Net-(D7-K)*%
X-1296092Y17320809D02*
X-2136220Y16480690D01*
%TO.N,Net-(D8-K)*%
X3800000Y10900000D02*
X4642460Y11742470D01*
%TO.N,Net-(D9-K)*%
X12700000Y2200000D02*
X13542460Y3042470D01*
%TO.N,Net-(D10-K)*%
X18000000Y-2984920D02*
X18842460Y-2142460D01*
%TO.N,Net-(D11-K)*%
X19515080Y-4500000D02*
X20357540Y-3657540D01*
%TO.N,Net-(D12-K)*%
X21000000Y-6700000D02*
X21239280Y-7225070D01*
%TO.N,Net-(D13-K)*%
X4750210Y3766450D02*
X5072910Y3630920D01*
X4200000Y4000000D02*
X4750210Y3766450D01*
%TO.N,Net-(D14-K)*%
X1124880Y2246420D02*
X1300000Y2900000D01*
%TO.N,Net-(D15-K)*%
X-3300000Y-200000D02*
X-3266180Y-845350D01*
%TO.N,Net-(D16-K)*%
X-6868230Y-3549290D02*
X-6868230Y-3075000D01*
X-6427884Y-4612354D02*
G75*
G02*
X-6868200Y-3549290I1063094J1063049D01*
G01*
%TD*%
%TA.AperFunction,Conductor*%
%TO.N,GND*%
G36*
X-19343678Y32244738D02*
G01*
X-18770488Y32194285D01*
X-18754326Y32191780D01*
X-18691157Y32177668D01*
X-18080062Y32041149D01*
X-18068965Y32038122D01*
X-17300076Y31789440D01*
X-17292014Y31786521D01*
X-16572547Y31497493D01*
X-16442318Y31445177D01*
X-16436173Y31442514D01*
X-15517742Y31014595D01*
X-15512895Y31012205D01*
X-14536840Y30503988D01*
X-14532856Y30501819D01*
X-13509805Y29919644D01*
X-13506337Y29917594D01*
X-12446608Y29267798D01*
X-12443511Y29265836D01*
X-11357177Y28554705D01*
X-11354348Y28552797D01*
X-10251336Y27786577D01*
X-10248681Y27784680D01*
X-9865818Y27503500D01*
X-9139017Y26969726D01*
X-9136509Y26967833D01*
X-8622993Y26569897D01*
X-8030058Y26110417D01*
X-8027543Y26108416D01*
X-6934138Y25214816D01*
X-6931611Y25212694D01*
X-5861087Y24289208D01*
X-5858499Y24286911D01*
X-4820766Y23339934D01*
X-4818067Y23337397D01*
X-3819807Y22370245D01*
X-3819161Y22369614D01*
X5678398Y13032987D01*
X7848504Y10899652D01*
X7848505Y10899651D01*
X15925647Y2959247D01*
X25604605Y-6657776D01*
X25604805Y-6658139D01*
X25604888Y-6658057D01*
X26089034Y-7142208D01*
X26122518Y-7203532D01*
X26117534Y-7273223D01*
X26075662Y-7329156D01*
X26052834Y-7342697D01*
X-12912020Y-25125069D01*
X-12943059Y-25129523D01*
X-12973776Y-25135835D01*
X-12978878Y-25134663D01*
X-12981181Y-25134994D01*
X-13008174Y-25127935D01*
X-13189957Y-25057732D01*
X-13193675Y-25056226D01*
X-13258458Y-25028768D01*
X-13264486Y-25026021D01*
X-13467404Y-24926916D01*
X-13472440Y-24924312D01*
X-13615027Y-24846407D01*
X-13618721Y-24844306D01*
X-13789161Y-24743451D01*
X-13792952Y-24741115D01*
X-13986662Y-24616888D01*
X-13990520Y-24614310D01*
X-14204592Y-24465384D01*
X-14208530Y-24462528D01*
X-14440122Y-24287545D01*
X-14444100Y-24284409D01*
X-14621972Y-24138229D01*
X-14690456Y-24081947D01*
X-14694439Y-24078529D01*
X-14952753Y-23847195D01*
X-14956732Y-23843471D01*
X-15224155Y-23581915D01*
X-15228087Y-23577891D01*
X-15229677Y-23576188D01*
X-15501914Y-23284615D01*
X-15505703Y-23280361D01*
X-15544786Y-23234378D01*
X-13906878Y-23234378D01*
X-13894740Y-23284659D01*
X-13875010Y-23366390D01*
X-13805649Y-23483142D01*
X-13805647Y-23483144D01*
X-13784169Y-23504893D01*
X-13203100Y-23992468D01*
X-13177952Y-24009843D01*
X-13050927Y-24057878D01*
X-12915387Y-24066338D01*
X-12783375Y-24034470D01*
X-12666621Y-23965107D01*
X-12644872Y-23943629D01*
X-11996601Y-23171049D01*
X-11979225Y-23145901D01*
X-11931190Y-23018876D01*
X-11922730Y-22883336D01*
X-11954598Y-22751324D01*
X-11985614Y-22699118D01*
X-12002930Y-22631430D01*
X-11980903Y-22565123D01*
X-11941007Y-22528398D01*
X-11892686Y-22500500D01*
X-11799500Y-22407314D01*
X-11733608Y-22293186D01*
X-11683041Y-22244970D01*
X-11614434Y-22231747D01*
X-11549569Y-22257716D01*
X-11513839Y-22302781D01*
X-11460928Y-22416249D01*
X-11179919Y-23018876D01*
X-11168692Y-23042951D01*
X-11153250Y-23069318D01*
X-11153247Y-23069321D01*
X-11058427Y-23166535D01*
X-11058425Y-23166536D01*
X-11058423Y-23166538D01*
X-10939157Y-23231487D01*
X-10873201Y-23244820D01*
X-10806049Y-23258396D01*
X-10806047Y-23258395D01*
X-10806046Y-23258396D01*
X-10670917Y-23244874D01*
X-10642129Y-23234599D01*
X-9954666Y-22914029D01*
X-9928290Y-22898581D01*
X-9831072Y-22803758D01*
X-9766123Y-22684492D01*
X-9743801Y-22574073D01*
X-9739214Y-22551383D01*
X-9744306Y-22500501D01*
X-9752736Y-22416252D01*
X-9763011Y-22387464D01*
X-10189235Y-21473423D01*
X-10189239Y-21473416D01*
X-10204681Y-21447049D01*
X-10204684Y-21447046D01*
X-10299504Y-21349832D01*
X-10299506Y-21349831D01*
X-10299507Y-21349830D01*
X-10399991Y-21295109D01*
X-10418772Y-21284881D01*
X-10551882Y-21257971D01*
X-10551883Y-21257971D01*
X-10688154Y-21271607D01*
X-10756821Y-21258695D01*
X-10807605Y-21210708D01*
X-10824500Y-21148223D01*
X-10824500Y-21134110D01*
X-10824500Y-21134108D01*
X-10858608Y-21006814D01*
X-10924500Y-20892686D01*
X-11017686Y-20799500D01*
X-11090529Y-20757444D01*
X-11131813Y-20733608D01*
X-11243583Y-20703660D01*
X-11259108Y-20699500D01*
X-11390892Y-20699500D01*
X-11518188Y-20733608D01*
X-11632314Y-20799500D01*
X-11632317Y-20799502D01*
X-11725498Y-20892683D01*
X-11725500Y-20892686D01*
X-11791392Y-21006812D01*
X-11806751Y-21064135D01*
X-11825500Y-21134108D01*
X-11825500Y-21265892D01*
X-11821564Y-21280582D01*
X-11791392Y-21393187D01*
X-11768054Y-21433609D01*
X-11725500Y-21507314D01*
X-11632314Y-21600500D01*
X-11632313Y-21600501D01*
X-11632311Y-21600502D01*
X-11610381Y-21613163D01*
X-11605209Y-21618587D01*
X-11598183Y-21621199D01*
X-11581431Y-21643524D01*
X-11562164Y-21663729D01*
X-11560746Y-21671089D01*
X-11556247Y-21677084D01*
X-11554225Y-21704922D01*
X-11548940Y-21732336D01*
X-11551601Y-21741029D01*
X-11551183Y-21746770D01*
X-11563479Y-21779853D01*
X-11575898Y-21802659D01*
X-11625246Y-21852121D01*
X-11693502Y-21867051D01*
X-11758994Y-21842709D01*
X-11792183Y-21805359D01*
X-11799500Y-21792686D01*
X-11892686Y-21699500D01*
X-11955604Y-21663174D01*
X-12006813Y-21633608D01*
X-12083117Y-21613163D01*
X-12134108Y-21599500D01*
X-12265892Y-21599500D01*
X-12393188Y-21633608D01*
X-12507314Y-21699500D01*
X-12507317Y-21699502D01*
X-12600498Y-21792683D01*
X-12600500Y-21792686D01*
X-12666391Y-21906811D01*
X-12682312Y-21966229D01*
X-12718678Y-22025889D01*
X-12781525Y-22056417D01*
X-12809812Y-22057892D01*
X-12857160Y-22054937D01*
X-12914219Y-22051376D01*
X-12914220Y-22051376D01*
X-12914221Y-22051376D01*
X-12997497Y-22071479D01*
X-13046234Y-22083244D01*
X-13162986Y-22152605D01*
X-13184732Y-22174080D01*
X-13833014Y-22946673D01*
X-13850382Y-22971810D01*
X-13898418Y-23098837D01*
X-13906697Y-23231486D01*
X-13906878Y-23234378D01*
X-15544786Y-23234378D01*
X-15783093Y-22953995D01*
X-15786821Y-22949389D01*
X-16029473Y-22634570D01*
X-16064963Y-22588526D01*
X-16068533Y-22583653D01*
X-16347056Y-22183376D01*
X-16348730Y-22180908D01*
X-16351762Y-22176319D01*
X-16354612Y-22171796D01*
X-16355939Y-22169586D01*
X-16358577Y-22164972D01*
X-17058222Y-20877823D01*
X-17087885Y-20823251D01*
X-16444982Y-20823251D01*
X-16444982Y-20823253D01*
X-16419736Y-20956686D01*
X-16406993Y-20984464D01*
X-16406985Y-20984480D01*
X-16027730Y-21641370D01*
X-16027718Y-21641388D01*
X-16010039Y-21666305D01*
X-16010033Y-21666311D01*
X-15988298Y-21685015D01*
X-15907099Y-21754892D01*
X-15782627Y-21809199D01*
X-15737644Y-21814267D01*
X-15647678Y-21824404D01*
X-15647678Y-21824403D01*
X-15647676Y-21824404D01*
X-15621922Y-21819531D01*
X-15552391Y-21826408D01*
X-15497617Y-21869785D01*
X-15478330Y-21912271D01*
X-15477270Y-21916662D01*
X-15477270Y-21916664D01*
X-15465305Y-21966229D01*
X-15445402Y-22048676D01*
X-15376041Y-22165428D01*
X-15376039Y-22165430D01*
X-15354561Y-22187179D01*
X-14773492Y-22674754D01*
X-14748344Y-22692129D01*
X-14621319Y-22740164D01*
X-14485779Y-22748624D01*
X-14353767Y-22716756D01*
X-14237013Y-22647393D01*
X-14215264Y-22625915D01*
X-13566993Y-21853335D01*
X-13549617Y-21828187D01*
X-13501582Y-21701162D01*
X-13493122Y-21565622D01*
X-13524990Y-21433610D01*
X-13594353Y-21316856D01*
X-13615831Y-21295107D01*
X-13616946Y-21294171D01*
X-13617104Y-21293934D01*
X-13617965Y-21293140D01*
X-13617772Y-21292930D01*
X-13625987Y-21280582D01*
X-13638745Y-21270403D01*
X-13644938Y-21252096D01*
X-13655645Y-21236002D01*
X-13656125Y-21219028D01*
X-13661134Y-21204218D01*
X-13657533Y-21169108D01*
X-13645308Y-21120214D01*
X-13644727Y-21118477D01*
X-13642719Y-21110352D01*
X-13640582Y-21103509D01*
X-13639750Y-21099986D01*
X-13639748Y-21099984D01*
X-13631262Y-21064076D01*
X-13630974Y-21062885D01*
X-13621968Y-21026872D01*
X-13621973Y-21026611D01*
X-13620174Y-21019360D01*
X-13619970Y-21018542D01*
X-13619963Y-21018530D01*
X-13619953Y-21018471D01*
X-13617825Y-21009924D01*
X-13615495Y-20898639D01*
X-13637668Y-20789561D01*
X-13683259Y-20688017D01*
X-13683260Y-20688016D01*
X-13683260Y-20688015D01*
X-13686775Y-20682064D01*
X-13685640Y-20681393D01*
X-13707615Y-20622894D01*
X-13703727Y-20581666D01*
X-13703463Y-20580681D01*
X-13699500Y-20565892D01*
X-13699500Y-20434108D01*
X-13732993Y-20309108D01*
X-9775500Y-20309108D01*
X-9775500Y-20440892D01*
X-9742006Y-20565892D01*
X-9741392Y-20568185D01*
X-9741391Y-20568188D01*
X-9697886Y-20643542D01*
X-9691034Y-20655409D01*
X-9682471Y-20673604D01*
X-9663381Y-20699447D01*
X-9660762Y-20703660D01*
X-9652697Y-20732737D01*
X-9642335Y-20761068D01*
X-9643455Y-20766058D01*
X-9642087Y-20770987D01*
X-9651021Y-20799805D01*
X-9657622Y-20829245D01*
X-9662443Y-20836649D01*
X-9662776Y-20837724D01*
X-9663586Y-20838404D01*
X-9667219Y-20843985D01*
X-9668927Y-20846240D01*
X-9733877Y-20965506D01*
X-9760787Y-21098616D01*
X-9747265Y-21233748D01*
X-9747264Y-21233750D01*
X-9736994Y-21262523D01*
X-9736991Y-21262532D01*
X-9657216Y-21433609D01*
X-9315090Y-22167303D01*
X-9310762Y-22176583D01*
X-9295320Y-22202950D01*
X-9295317Y-22202953D01*
X-9200497Y-22300167D01*
X-9200495Y-22300168D01*
X-9200493Y-22300170D01*
X-9081227Y-22365119D01*
X-9015271Y-22378452D01*
X-8948119Y-22392028D01*
X-8948117Y-22392027D01*
X-8948116Y-22392028D01*
X-8812987Y-22378506D01*
X-8784199Y-22368231D01*
X-8096736Y-22047661D01*
X-8070360Y-22032213D01*
X-7973142Y-21937390D01*
X-7908193Y-21818124D01*
X-7888066Y-21718561D01*
X-7881284Y-21685015D01*
X-7882078Y-21677084D01*
X-7894806Y-21549884D01*
X-7905081Y-21521096D01*
X-8331305Y-20607055D01*
X-8331309Y-20607048D01*
X-8346751Y-20580681D01*
X-8346754Y-20580678D01*
X-8441574Y-20483464D01*
X-8441576Y-20483463D01*
X-8441577Y-20483462D01*
X-8532202Y-20434110D01*
X-8560842Y-20418513D01*
X-8678825Y-20394661D01*
X-8690622Y-20388443D01*
X-8703855Y-20386768D01*
X-8720932Y-20372468D01*
X-8740635Y-20362083D01*
X-8748386Y-20349477D01*
X-8757423Y-20341910D01*
X-8765377Y-20321845D01*
X-8772625Y-20310057D01*
X-8775369Y-20301266D01*
X-8775563Y-20299889D01*
X-8776387Y-20294574D01*
X-8776489Y-20293968D01*
X-8781990Y-20280047D01*
X-8783352Y-20275681D01*
X-8783363Y-20275053D01*
X-8784756Y-20270835D01*
X-8785155Y-20269347D01*
X-8808608Y-20181814D01*
X-8874500Y-20067686D01*
X-8967686Y-19974500D01*
X-9029271Y-19938944D01*
X-9081813Y-19908608D01*
X-9147704Y-19890953D01*
X-9209108Y-19874500D01*
X-9340892Y-19874500D01*
X-9468188Y-19908608D01*
X-9582314Y-19974500D01*
X-9582317Y-19974502D01*
X-9675498Y-20067683D01*
X-9675500Y-20067686D01*
X-9741392Y-20181812D01*
X-9755513Y-20234514D01*
X-9775500Y-20309108D01*
X-13732993Y-20309108D01*
X-13733608Y-20306814D01*
X-13799500Y-20192686D01*
X-13892686Y-20099500D01*
X-13949750Y-20066554D01*
X-14006813Y-20033608D01*
X-14070461Y-20016554D01*
X-14134108Y-19999500D01*
X-14265892Y-19999500D01*
X-14265894Y-19999500D01*
X-14273950Y-20000560D01*
X-14274000Y-20000183D01*
X-14281085Y-20001395D01*
X-14374446Y-20008639D01*
X-14403293Y-20007507D01*
X-14471788Y-19996738D01*
X-14475915Y-19996017D01*
X-14530139Y-19985584D01*
X-14545246Y-19983258D01*
X-14546961Y-19983059D01*
X-14562291Y-19981857D01*
X-14622759Y-19979384D01*
X-14647387Y-19979856D01*
X-14647402Y-19979857D01*
X-14647414Y-19979857D01*
X-14647417Y-19979858D01*
X-14650200Y-19980079D01*
X-14650205Y-19980079D01*
X-14650209Y-19980080D01*
X-14674636Y-19983506D01*
X-14674639Y-19983506D01*
X-14674642Y-19983507D01*
X-14734993Y-19995704D01*
X-14743962Y-19997517D01*
X-14743979Y-19997521D01*
X-14766140Y-20003305D01*
X-14766184Y-20003318D01*
X-14768612Y-20004098D01*
X-14768624Y-20004103D01*
X-14790023Y-20012329D01*
X-14802927Y-20018135D01*
X-14872140Y-20027690D01*
X-14934687Y-19999043D01*
X-14967901Y-19970460D01*
X-15069356Y-19926195D01*
X-15092375Y-19916152D01*
X-15227324Y-19900947D01*
X-15227325Y-19900947D01*
X-15360758Y-19926193D01*
X-15388536Y-19938936D01*
X-15388552Y-19938944D01*
X-16261948Y-20443199D01*
X-16261966Y-20443211D01*
X-16286883Y-20460890D01*
X-16286889Y-20460896D01*
X-16375467Y-20563827D01*
X-16375470Y-20563831D01*
X-16429777Y-20688299D01*
X-16429778Y-20688305D01*
X-16444982Y-20823251D01*
X-17087885Y-20823251D01*
X-17228897Y-20563830D01*
X-17502659Y-20060186D01*
X-17506755Y-20051928D01*
X-17906877Y-19163885D01*
X-17938279Y-19094190D01*
X-17959136Y-19047899D01*
X-17469982Y-19047899D01*
X-17469982Y-19047901D01*
X-17444736Y-19181334D01*
X-17431993Y-19209112D01*
X-17431985Y-19209128D01*
X-17052730Y-19866018D01*
X-17052718Y-19866036D01*
X-17035039Y-19890953D01*
X-17035033Y-19890959D01*
X-17023425Y-19900948D01*
X-16932099Y-19979540D01*
X-16807627Y-20033847D01*
X-16740152Y-20041449D01*
X-16672677Y-20049052D01*
X-16672676Y-20049052D01*
X-16539243Y-20023806D01*
X-16539242Y-20023805D01*
X-16539240Y-20023805D01*
X-16511457Y-20011060D01*
X-15638043Y-19506794D01*
X-15613114Y-19489106D01*
X-15524531Y-19386170D01*
X-15470223Y-19261697D01*
X-15460891Y-19178868D01*
X-15454596Y-19163885D01*
X-15453195Y-19147693D01*
X-15441339Y-19132336D01*
X-15433825Y-19114454D01*
X-15419994Y-19104687D01*
X-15410497Y-19092388D01*
X-15386263Y-19080872D01*
X-15379271Y-19075936D01*
X-15373253Y-19073792D01*
X-15372300Y-19073648D01*
X-15365775Y-19071129D01*
X-15364296Y-19070603D01*
X-15363783Y-19070573D01*
X-15354816Y-19067650D01*
X-15256814Y-19041392D01*
X-15142686Y-18975500D01*
X-15049500Y-18882314D01*
X-14983608Y-18768186D01*
X-14949500Y-18640892D01*
X-14949500Y-18509108D01*
X-14983608Y-18381814D01*
X-15049500Y-18267686D01*
X-15142686Y-18174500D01*
X-15227390Y-18125596D01*
X-15256813Y-18108608D01*
X-15320461Y-18091554D01*
X-15384108Y-18074500D01*
X-15515892Y-18074500D01*
X-15643188Y-18108608D01*
X-15757314Y-18174500D01*
X-15757318Y-18174503D01*
X-15796003Y-18213187D01*
X-15857327Y-18246671D01*
X-15927018Y-18241685D01*
X-15964565Y-18219493D01*
X-15992900Y-18195109D01*
X-15992901Y-18195108D01*
X-16040134Y-18174500D01*
X-16117375Y-18140800D01*
X-16252324Y-18125595D01*
X-16252325Y-18125595D01*
X-16385758Y-18150841D01*
X-16413536Y-18163584D01*
X-16413552Y-18163592D01*
X-17286948Y-18667847D01*
X-17286966Y-18667859D01*
X-17311883Y-18685538D01*
X-17311889Y-18685544D01*
X-17400467Y-18788475D01*
X-17400470Y-18788479D01*
X-17454777Y-18912947D01*
X-17454778Y-18912953D01*
X-17469982Y-19047899D01*
X-17959136Y-19047899D01*
X-18560498Y-17713218D01*
X-18563317Y-17706433D01*
X-18832015Y-17001276D01*
X-19531530Y-15165497D01*
X-19533516Y-15159882D01*
X-20417468Y-12455896D01*
X-20418891Y-12451229D01*
X-21220200Y-9623232D01*
X-21221253Y-9619261D01*
X-21228738Y-9588997D01*
X-21235168Y-9563000D01*
X-462335Y-9563000D01*
X74628Y-9563000D01*
X60000Y-9617591D01*
X60000Y-9762409D01*
X74628Y-9817000D01*
X-462335Y-9817000D01*
X-442432Y-9942662D01*
X-442432Y-9942663D01*
X-389947Y-10104194D01*
X-312841Y-10255522D01*
X-213021Y-10392914D01*
X-213017Y-10392919D01*
X-92920Y-10513016D01*
X-92915Y-10513020D01*
X44477Y-10612840D01*
X195803Y-10689946D01*
X357334Y-10742430D01*
X483000Y-10762334D01*
X483000Y-10225372D01*
X537591Y-10240000D01*
X682409Y-10240000D01*
X737000Y-10225372D01*
X737000Y-10762333D01*
X862665Y-10742430D01*
X1024196Y-10689946D01*
X1175522Y-10612840D01*
X1312914Y-10513020D01*
X1312919Y-10513016D01*
X1433016Y-10392919D01*
X1433020Y-10392914D01*
X1532840Y-10255522D01*
X1609946Y-10104194D01*
X1662431Y-9942663D01*
X1662431Y-9942662D01*
X1682335Y-9817000D01*
X1145372Y-9817000D01*
X1160000Y-9762409D01*
X1160000Y-9617591D01*
X1152337Y-9588992D01*
X2124500Y-9588992D01*
X2124500Y-9791007D01*
X2163907Y-9989119D01*
X2163909Y-9989127D01*
X2241212Y-10175752D01*
X2241217Y-10175762D01*
X2353441Y-10343718D01*
X2496281Y-10486558D01*
X2664237Y-10598782D01*
X2664241Y-10598784D01*
X2664244Y-10598786D01*
X2850873Y-10676091D01*
X3048992Y-10715499D01*
X3048996Y-10715500D01*
X3048997Y-10715500D01*
X3251004Y-10715500D01*
X3251005Y-10715499D01*
X3449127Y-10676091D01*
X3635756Y-10598786D01*
X3803718Y-10486558D01*
X3946558Y-10343718D01*
X4058786Y-10175756D01*
X4136091Y-9989127D01*
X4175500Y-9791003D01*
X4175500Y-9588997D01*
X4175499Y-9588992D01*
X4664500Y-9588992D01*
X4664500Y-9791007D01*
X4703907Y-9989119D01*
X4703909Y-9989127D01*
X4781212Y-10175752D01*
X4781217Y-10175762D01*
X4893441Y-10343718D01*
X5036281Y-10486558D01*
X5204237Y-10598782D01*
X5204246Y-10598787D01*
X5274922Y-10628062D01*
X5329325Y-10671903D01*
X5351390Y-10738197D01*
X5334111Y-10805897D01*
X5296360Y-10845725D01*
X5203137Y-10908015D01*
X5203133Y-10908018D01*
X5088018Y-11023133D01*
X5088015Y-11023137D01*
X4997563Y-11158507D01*
X4997562Y-11158509D01*
X4935262Y-11308917D01*
X4935259Y-11308926D01*
X4903500Y-11468592D01*
X4903500Y-11631407D01*
X4935259Y-11791073D01*
X4935262Y-11791082D01*
X4997562Y-11941490D01*
X4997563Y-11941492D01*
X5088015Y-12076862D01*
X5088018Y-12076866D01*
X5203133Y-12191981D01*
X5203137Y-12191984D01*
X5338505Y-12282435D01*
X5338506Y-12282435D01*
X5338507Y-12282436D01*
X5338509Y-12282437D01*
X5438781Y-12323970D01*
X5488919Y-12344738D01*
X5488921Y-12344738D01*
X5488926Y-12344740D01*
X5648592Y-12376499D01*
X5648595Y-12376500D01*
X5648597Y-12376500D01*
X5811405Y-12376500D01*
X5811406Y-12376499D01*
X5864629Y-12365912D01*
X5971073Y-12344740D01*
X5971076Y-12344738D01*
X5971081Y-12344738D01*
X6121495Y-12282435D01*
X6256863Y-12191984D01*
X6371984Y-12076863D01*
X6462435Y-11941495D01*
X6524738Y-11791081D01*
X6556500Y-11631403D01*
X6556500Y-11468597D01*
X6556500Y-11468594D01*
X6556499Y-11468592D01*
X6524740Y-11308926D01*
X6524737Y-11308917D01*
X6462437Y-11158509D01*
X6462436Y-11158507D01*
X6371984Y-11023137D01*
X6371981Y-11023133D01*
X6256866Y-10908018D01*
X6256862Y-10908015D01*
X6163639Y-10845725D01*
X6133023Y-10825267D01*
X6088219Y-10771657D01*
X6079512Y-10702332D01*
X6109666Y-10639304D01*
X6154462Y-10607606D01*
X6175756Y-10598786D01*
X6343718Y-10486558D01*
X6486558Y-10343718D01*
X6598786Y-10175756D01*
X6676091Y-9989127D01*
X6715500Y-9791003D01*
X6715500Y-9588997D01*
X6676091Y-9390873D01*
X6617151Y-9248581D01*
X12036390Y-9248581D01*
X12036390Y-9364699D01*
X12055853Y-9437336D01*
X12066444Y-9476861D01*
X12066445Y-9476862D01*
X12124499Y-9577416D01*
X12124501Y-9577419D01*
X12124502Y-9577420D01*
X12206610Y-9659528D01*
X12307170Y-9717586D01*
X12419331Y-9747640D01*
X12419333Y-9747640D01*
X12535447Y-9747640D01*
X12535449Y-9747640D01*
X12647610Y-9717586D01*
X12748170Y-9659528D01*
X12830278Y-9577420D01*
X12888336Y-9476860D01*
X12918390Y-9364699D01*
X12918390Y-9248581D01*
X12888336Y-9136420D01*
X12838881Y-9050761D01*
X12830280Y-9035863D01*
X12830276Y-9035858D01*
X12748171Y-8953753D01*
X12748166Y-8953749D01*
X12647612Y-8895695D01*
X12647611Y-8895694D01*
X12610223Y-8885676D01*
X12535449Y-8865640D01*
X12419331Y-8865640D01*
X12363250Y-8880667D01*
X12307168Y-8895694D01*
X12307167Y-8895695D01*
X12206613Y-8953749D01*
X12206608Y-8953753D01*
X12124503Y-9035858D01*
X12124499Y-9035863D01*
X12066445Y-9136417D01*
X12066444Y-9136418D01*
X12055441Y-9177482D01*
X12036390Y-9248581D01*
X6617151Y-9248581D01*
X6598786Y-9204244D01*
X6598785Y-9204243D01*
X6598782Y-9204237D01*
X6486558Y-9036281D01*
X6343721Y-8893444D01*
X6343717Y-8893441D01*
X6229158Y-8816895D01*
X6175760Y-8781216D01*
X6175752Y-8781212D01*
X6032612Y-8721921D01*
X13192040Y-8721921D01*
X13192040Y-8838039D01*
X13206886Y-8893444D01*
X13222094Y-8950201D01*
X13222095Y-8950202D01*
X13280149Y-9050756D01*
X13280151Y-9050759D01*
X13280152Y-9050760D01*
X13362260Y-9132868D01*
X13362261Y-9132869D01*
X13362263Y-9132870D01*
X13368412Y-9136420D01*
X13462820Y-9190926D01*
X13574981Y-9220980D01*
X13574983Y-9220980D01*
X13691097Y-9220980D01*
X13691099Y-9220980D01*
X13803260Y-9190926D01*
X13903820Y-9132868D01*
X13985928Y-9050760D01*
X14043986Y-8950200D01*
X14074040Y-8838039D01*
X14074040Y-8721921D01*
X14043986Y-8609760D01*
X13997977Y-8530069D01*
X13985930Y-8509203D01*
X13985926Y-8509198D01*
X13903821Y-8427093D01*
X13903816Y-8427089D01*
X13803262Y-8369035D01*
X13803261Y-8369034D01*
X13765873Y-8359016D01*
X13691099Y-8338980D01*
X13574981Y-8338980D01*
X13518900Y-8354007D01*
X13462818Y-8369034D01*
X13462817Y-8369035D01*
X13362263Y-8427089D01*
X13362258Y-8427093D01*
X13280153Y-8509198D01*
X13280149Y-8509203D01*
X13222095Y-8609757D01*
X13222094Y-8609758D01*
X13207489Y-8664264D01*
X13192040Y-8721921D01*
X6032612Y-8721921D01*
X5989127Y-8703909D01*
X5989119Y-8703907D01*
X5791007Y-8664500D01*
X5791003Y-8664500D01*
X5588997Y-8664500D01*
X5588992Y-8664500D01*
X5390880Y-8703907D01*
X5390872Y-8703909D01*
X5204247Y-8781212D01*
X5204237Y-8781217D01*
X5036281Y-8893441D01*
X4893441Y-9036281D01*
X4781217Y-9204237D01*
X4781212Y-9204247D01*
X4703909Y-9390872D01*
X4703907Y-9390880D01*
X4664500Y-9588992D01*
X4175499Y-9588992D01*
X4136091Y-9390873D01*
X4058786Y-9204244D01*
X4058784Y-9204241D01*
X4058782Y-9204237D01*
X3946558Y-9036281D01*
X3803718Y-8893441D01*
X3635762Y-8781217D01*
X3635752Y-8781212D01*
X3449127Y-8703909D01*
X3449119Y-8703907D01*
X3251007Y-8664500D01*
X3251003Y-8664500D01*
X3048997Y-8664500D01*
X3048992Y-8664500D01*
X2850880Y-8703907D01*
X2850872Y-8703909D01*
X2664247Y-8781212D01*
X2664237Y-8781217D01*
X2496281Y-8893441D01*
X2353441Y-9036281D01*
X2241217Y-9204237D01*
X2241212Y-9204247D01*
X2163909Y-9390872D01*
X2163907Y-9390880D01*
X2124500Y-9588992D01*
X1152337Y-9588992D01*
X1145372Y-9563000D01*
X1682335Y-9563000D01*
X1662431Y-9437337D01*
X1662431Y-9437336D01*
X1609946Y-9275805D01*
X1532840Y-9124477D01*
X1433020Y-8987085D01*
X1433016Y-8987080D01*
X1312919Y-8866983D01*
X1312914Y-8866979D01*
X1175522Y-8767159D01*
X1024194Y-8690053D01*
X862662Y-8637568D01*
X737000Y-8617664D01*
X737000Y-9154627D01*
X682409Y-9140000D01*
X537591Y-9140000D01*
X483000Y-9154627D01*
X483000Y-8617664D01*
X357337Y-8637568D01*
X357336Y-8637568D01*
X195805Y-8690053D01*
X44477Y-8767159D01*
X-92915Y-8866979D01*
X-92920Y-8866983D01*
X-213017Y-8987080D01*
X-213021Y-8987085D01*
X-312841Y-9124477D01*
X-389947Y-9275805D01*
X-442432Y-9437336D01*
X-442432Y-9437337D01*
X-462335Y-9563000D01*
X-21235168Y-9563000D01*
X-21573454Y-8195261D01*
X14347700Y-8195261D01*
X14347700Y-8311379D01*
X14355096Y-8338980D01*
X14377754Y-8423541D01*
X14377755Y-8423542D01*
X14435809Y-8524096D01*
X14435811Y-8524099D01*
X14435812Y-8524100D01*
X14517920Y-8606208D01*
X14517921Y-8606209D01*
X14517923Y-8606210D01*
X14524072Y-8609760D01*
X14618480Y-8664266D01*
X14730641Y-8694320D01*
X14730643Y-8694320D01*
X14846757Y-8694320D01*
X14846759Y-8694320D01*
X14958920Y-8664266D01*
X15059480Y-8606208D01*
X15141588Y-8524100D01*
X15199646Y-8423540D01*
X15229700Y-8311379D01*
X15229700Y-8195261D01*
X15199646Y-8083100D01*
X15150191Y-7997441D01*
X15141590Y-7982543D01*
X15141586Y-7982538D01*
X15059481Y-7900433D01*
X15059476Y-7900429D01*
X14958922Y-7842375D01*
X14958921Y-7842374D01*
X14921533Y-7832356D01*
X14846759Y-7812320D01*
X14730641Y-7812320D01*
X14674560Y-7827347D01*
X14618478Y-7842374D01*
X14618477Y-7842375D01*
X14517923Y-7900429D01*
X14517918Y-7900433D01*
X14435813Y-7982538D01*
X14435809Y-7982543D01*
X14377755Y-8083097D01*
X14377754Y-8083098D01*
X14363149Y-8137604D01*
X14347700Y-8195261D01*
X-21573454Y-8195261D01*
X-21941773Y-6706094D01*
X-21942578Y-6702623D01*
X-22061656Y-6153431D01*
X-6522872Y-6153431D01*
X-6522872Y-6153433D01*
X-6497626Y-6286866D01*
X-6484883Y-6314644D01*
X-6484875Y-6314660D01*
X-6105620Y-6971550D01*
X-6105608Y-6971568D01*
X-6087929Y-6996485D01*
X-6087925Y-6996489D01*
X-5984989Y-7085072D01*
X-5860517Y-7139379D01*
X-5837769Y-7141942D01*
X-5725567Y-7154584D01*
X-5725566Y-7154584D01*
X-5592133Y-7129338D01*
X-5592132Y-7129337D01*
X-5592130Y-7129337D01*
X-5564347Y-7116592D01*
X-4877523Y-6720054D01*
X-4690943Y-6612332D01*
X-4690941Y-6612330D01*
X-4690933Y-6612326D01*
X-4671148Y-6598288D01*
X-4666008Y-6594641D01*
X-4666008Y-6594640D01*
X-4666004Y-6594638D01*
X-4577421Y-6491702D01*
X-4523113Y-6367229D01*
X-4516130Y-6305247D01*
X-415500Y-6305247D01*
X-415500Y-7994752D01*
X-403869Y-8053229D01*
X-403868Y-8053230D01*
X-359553Y-8119552D01*
X-293231Y-8163867D01*
X-293230Y-8163868D01*
X-234753Y-8175499D01*
X-234750Y-8175500D01*
X-234748Y-8175500D01*
X1454750Y-8175500D01*
X1454751Y-8175499D01*
X1469568Y-8172552D01*
X1513229Y-8163868D01*
X1513229Y-8163867D01*
X1513231Y-8163867D01*
X1579552Y-8119552D01*
X1623867Y-8053231D01*
X1623867Y-8053229D01*
X1623868Y-8053229D01*
X1634964Y-7997441D01*
X1635500Y-7994748D01*
X1635500Y-7048992D01*
X2124500Y-7048992D01*
X2124500Y-7251007D01*
X2163907Y-7449119D01*
X2163909Y-7449127D01*
X2241212Y-7635752D01*
X2241217Y-7635762D01*
X2353441Y-7803718D01*
X2496281Y-7946558D01*
X2664237Y-8058782D01*
X2664241Y-8058784D01*
X2664244Y-8058786D01*
X2850873Y-8136091D01*
X3048992Y-8175499D01*
X3048996Y-8175500D01*
X3048997Y-8175500D01*
X3251004Y-8175500D01*
X3251005Y-8175499D01*
X3449127Y-8136091D01*
X3635756Y-8058786D01*
X3803718Y-7946558D01*
X3946558Y-7803718D01*
X4058786Y-7635756D01*
X4136091Y-7449127D01*
X4175500Y-7251003D01*
X4175500Y-7048997D01*
X4175499Y-7048992D01*
X4664500Y-7048992D01*
X4664500Y-7251007D01*
X4703907Y-7449119D01*
X4703909Y-7449127D01*
X4781212Y-7635752D01*
X4781217Y-7635762D01*
X4893441Y-7803718D01*
X5036281Y-7946558D01*
X5204237Y-8058782D01*
X5204241Y-8058784D01*
X5204244Y-8058786D01*
X5390873Y-8136091D01*
X5588992Y-8175499D01*
X5588996Y-8175500D01*
X5588997Y-8175500D01*
X5791004Y-8175500D01*
X5791005Y-8175499D01*
X5989127Y-8136091D01*
X6175756Y-8058786D01*
X6343718Y-7946558D01*
X6486558Y-7803718D01*
X6576840Y-7668601D01*
X15503350Y-7668601D01*
X15503350Y-7784719D01*
X15505088Y-7791204D01*
X15533404Y-7896881D01*
X15533405Y-7896882D01*
X15591459Y-7997436D01*
X15591461Y-7997439D01*
X15591462Y-7997440D01*
X15673570Y-8079548D01*
X15673571Y-8079549D01*
X15673573Y-8079550D01*
X15679722Y-8083100D01*
X15774130Y-8137606D01*
X15886291Y-8167660D01*
X15886293Y-8167660D01*
X16002407Y-8167660D01*
X16002409Y-8167660D01*
X16114570Y-8137606D01*
X16215130Y-8079548D01*
X16297238Y-7997440D01*
X16355296Y-7896880D01*
X16385350Y-7784719D01*
X16385350Y-7668601D01*
X16355296Y-7556440D01*
X16305841Y-7470781D01*
X16297240Y-7455883D01*
X16297236Y-7455878D01*
X16215131Y-7373773D01*
X16215126Y-7373769D01*
X16114572Y-7315715D01*
X16114571Y-7315714D01*
X16077183Y-7305696D01*
X16002409Y-7285660D01*
X15886291Y-7285660D01*
X15830210Y-7300687D01*
X15774128Y-7315714D01*
X15774127Y-7315715D01*
X15673573Y-7373769D01*
X15673568Y-7373773D01*
X15591463Y-7455878D01*
X15591459Y-7455883D01*
X15533405Y-7556437D01*
X15533404Y-7556438D01*
X15518799Y-7610944D01*
X15503350Y-7668601D01*
X6576840Y-7668601D01*
X6598786Y-7635756D01*
X6676091Y-7449127D01*
X6715500Y-7251003D01*
X6715500Y-7141941D01*
X16658999Y-7141941D01*
X16658999Y-7258059D01*
X16677710Y-7327887D01*
X16689053Y-7370221D01*
X16689054Y-7370222D01*
X16747108Y-7470776D01*
X16747110Y-7470779D01*
X16747111Y-7470780D01*
X16829219Y-7552888D01*
X16829220Y-7552889D01*
X16829222Y-7552890D01*
X16835371Y-7556440D01*
X16929779Y-7610946D01*
X17041940Y-7641000D01*
X17041942Y-7641000D01*
X17158056Y-7641000D01*
X17158058Y-7641000D01*
X17270219Y-7610946D01*
X17370779Y-7552888D01*
X17452887Y-7470780D01*
X17510945Y-7370220D01*
X17532271Y-7290629D01*
X17568633Y-7230974D01*
X17631480Y-7200444D01*
X17700856Y-7208738D01*
X17739725Y-7235046D01*
X17769899Y-7265220D01*
X17769903Y-7265223D01*
X17894701Y-7348611D01*
X17894714Y-7348618D01*
X18033378Y-7406054D01*
X18033390Y-7406057D01*
X18180595Y-7435338D01*
X18180599Y-7435339D01*
X18330701Y-7435339D01*
X18330703Y-7435338D01*
X18452321Y-7411147D01*
X18452321Y-7411146D01*
X18199441Y-6856252D01*
X18217757Y-6863839D01*
X18293543Y-6863839D01*
X18363560Y-6834837D01*
X18417148Y-6781249D01*
X18430119Y-6749932D01*
X18682796Y-7304377D01*
X18741399Y-7265221D01*
X18847531Y-7159089D01*
X18847534Y-7159085D01*
X18930922Y-7034287D01*
X18930929Y-7034274D01*
X18988365Y-6895610D01*
X18988368Y-6895598D01*
X19017649Y-6748393D01*
X19017650Y-6748390D01*
X19017650Y-6634108D01*
X20499500Y-6634108D01*
X20499500Y-6765892D01*
X20533608Y-6893186D01*
X20586430Y-6984677D01*
X20594043Y-7000409D01*
X20634021Y-7053324D01*
X20642343Y-7063630D01*
X20643331Y-7064776D01*
X20643455Y-7064911D01*
X20646439Y-7069186D01*
X20656226Y-7098353D01*
X20668033Y-7126780D01*
X20667415Y-7131699D01*
X20668666Y-7135426D01*
X20665251Y-7148941D01*
X20660904Y-7183578D01*
X20658204Y-7190799D01*
X20630134Y-7323675D01*
X20642476Y-7458917D01*
X20652501Y-7487800D01*
X20652503Y-7487805D01*
X21070731Y-8405518D01*
X21085948Y-8432027D01*
X21159916Y-8509200D01*
X21179919Y-8530069D01*
X21179921Y-8530070D01*
X21298615Y-8596057D01*
X21389351Y-8615224D01*
X21431486Y-8624126D01*
X21566728Y-8611784D01*
X21595604Y-8601760D01*
X22285839Y-8287202D01*
X22312348Y-8271985D01*
X22410389Y-8178014D01*
X22476377Y-8059319D01*
X22504446Y-7926447D01*
X22492104Y-7791205D01*
X22482081Y-7762329D01*
X22482080Y-7762326D01*
X22482078Y-7762321D01*
X22482076Y-7762316D01*
X22173436Y-7085070D01*
X22063849Y-6844604D01*
X22048632Y-6818095D01*
X21954661Y-6720053D01*
X21954659Y-6720052D01*
X21954658Y-6720051D01*
X21835964Y-6654064D01*
X21703096Y-6625996D01*
X21703094Y-6625996D01*
X21607224Y-6634744D01*
X21538674Y-6621234D01*
X21488310Y-6572807D01*
X21476182Y-6543353D01*
X21466392Y-6506814D01*
X21400500Y-6392686D01*
X21307314Y-6299500D01*
X21248121Y-6265325D01*
X21193187Y-6233608D01*
X21129539Y-6216554D01*
X21065892Y-6199500D01*
X20934108Y-6199500D01*
X20806812Y-6233608D01*
X20692686Y-6299500D01*
X20692683Y-6299502D01*
X20599502Y-6392683D01*
X20599500Y-6392686D01*
X20533608Y-6506812D01*
X20502063Y-6624541D01*
X20499500Y-6634108D01*
X19017650Y-6634108D01*
X19017650Y-6598288D01*
X19017649Y-6598284D01*
X18993458Y-6476666D01*
X18438564Y-6729545D01*
X18446150Y-6711232D01*
X18446150Y-6635446D01*
X18417148Y-6565429D01*
X18363560Y-6511841D01*
X18332239Y-6498867D01*
X18886688Y-6246191D01*
X18886688Y-6246190D01*
X18847534Y-6187592D01*
X18847531Y-6187588D01*
X18741400Y-6081457D01*
X18741396Y-6081454D01*
X18616598Y-5998066D01*
X18616585Y-5998059D01*
X18477921Y-5940623D01*
X18477909Y-5940620D01*
X18330704Y-5911339D01*
X18180601Y-5911339D01*
X18058976Y-5935530D01*
X18311856Y-6490424D01*
X18293543Y-6482839D01*
X18217757Y-6482839D01*
X18147740Y-6511841D01*
X18094152Y-6565429D01*
X18081179Y-6596748D01*
X17828502Y-6042298D01*
X17769908Y-6081451D01*
X17769906Y-6081452D01*
X17663764Y-6187593D01*
X17580377Y-6312390D01*
X17580370Y-6312403D01*
X17522934Y-6451067D01*
X17522931Y-6451079D01*
X17493650Y-6598284D01*
X17493650Y-6703277D01*
X17473965Y-6770316D01*
X17421161Y-6816071D01*
X17352003Y-6826015D01*
X17307651Y-6810665D01*
X17270219Y-6789054D01*
X17270220Y-6789054D01*
X17232832Y-6779036D01*
X17158058Y-6759000D01*
X17041940Y-6759000D01*
X16999709Y-6770316D01*
X16929777Y-6789054D01*
X16929776Y-6789055D01*
X16829222Y-6847109D01*
X16829217Y-6847113D01*
X16747112Y-6929218D01*
X16747108Y-6929223D01*
X16689054Y-7029777D01*
X16689053Y-7029778D01*
X16678494Y-7069186D01*
X16658999Y-7141941D01*
X6715500Y-7141941D01*
X6715500Y-7048997D01*
X6676091Y-6850873D01*
X6598786Y-6664244D01*
X6598784Y-6664241D01*
X6598782Y-6664237D01*
X6486558Y-6496281D01*
X6343718Y-6353441D01*
X6175762Y-6241217D01*
X6175752Y-6241212D01*
X5989127Y-6163909D01*
X5989119Y-6163907D01*
X5791007Y-6124500D01*
X5791003Y-6124500D01*
X5588997Y-6124500D01*
X5588992Y-6124500D01*
X5390880Y-6163907D01*
X5390872Y-6163909D01*
X5204247Y-6241212D01*
X5204237Y-6241217D01*
X5036281Y-6353441D01*
X4893441Y-6496281D01*
X4781217Y-6664237D01*
X4781212Y-6664247D01*
X4703909Y-6850872D01*
X4703907Y-6850880D01*
X4664500Y-7048992D01*
X4175499Y-7048992D01*
X4136091Y-6850873D01*
X4058786Y-6664244D01*
X4058784Y-6664241D01*
X4058782Y-6664237D01*
X3946558Y-6496281D01*
X3803718Y-6353441D01*
X3635762Y-6241217D01*
X3635752Y-6241212D01*
X3449127Y-6163909D01*
X3449119Y-6163907D01*
X3251007Y-6124500D01*
X3251003Y-6124500D01*
X3048997Y-6124500D01*
X3048992Y-6124500D01*
X2850880Y-6163907D01*
X2850872Y-6163909D01*
X2664247Y-6241212D01*
X2664237Y-6241217D01*
X2496281Y-6353441D01*
X2353441Y-6496281D01*
X2241217Y-6664237D01*
X2241212Y-6664247D01*
X2163909Y-6850872D01*
X2163907Y-6850880D01*
X2124500Y-7048992D01*
X1635500Y-7048992D01*
X1635500Y-6305252D01*
X1635500Y-6305249D01*
X1635499Y-6305247D01*
X1623868Y-6246770D01*
X1623867Y-6246769D01*
X1579552Y-6180447D01*
X1513230Y-6136132D01*
X1513229Y-6136131D01*
X1454752Y-6124500D01*
X1454748Y-6124500D01*
X-234748Y-6124500D01*
X-234753Y-6124500D01*
X-293230Y-6136131D01*
X-293231Y-6136132D01*
X-359553Y-6180447D01*
X-403868Y-6246769D01*
X-403869Y-6246770D01*
X-415500Y-6305247D01*
X-4516130Y-6305247D01*
X-4515192Y-6296924D01*
X-4515193Y-6296923D01*
X-4507909Y-6232279D01*
X-4528405Y-6123956D01*
X-4528928Y-6117102D01*
X-4523038Y-6089377D01*
X-4520248Y-6061179D01*
X-4515873Y-6055653D01*
X-4514407Y-6048758D01*
X-4494467Y-6028623D01*
X-4476871Y-6006405D01*
X-4467887Y-6000653D01*
X-4467693Y-6000503D01*
X-4467686Y-6000500D01*
X-4374500Y-5907314D01*
X-4308608Y-5793186D01*
X-4274500Y-5665892D01*
X-4274500Y-5534108D01*
X-4308608Y-5406814D01*
X-4374500Y-5292686D01*
X-4454014Y-5213172D01*
X20821187Y-5213172D01*
X20841428Y-5347460D01*
X20900351Y-5469815D01*
X20915952Y-5488644D01*
X20919858Y-5493358D01*
X21456209Y-6029709D01*
X21456214Y-6029713D01*
X21456216Y-6029715D01*
X21479753Y-6049217D01*
X21602108Y-6108140D01*
X21736396Y-6128381D01*
X21870683Y-6108140D01*
X21993038Y-6049217D01*
X22007164Y-6037511D01*
X22014697Y-6033455D01*
X22018148Y-6029388D01*
X22050095Y-6014391D01*
X22069922Y-6008343D01*
X22139786Y-6007611D01*
X22198957Y-6044767D01*
X22218458Y-6074491D01*
X22222844Y-6083887D01*
X22223499Y-6085182D01*
X22229775Y-6096669D01*
X22267200Y-6160273D01*
X22270115Y-6165075D01*
X22270440Y-6165595D01*
X22274448Y-6170715D01*
X22274067Y-6171012D01*
X22292508Y-6197466D01*
X22293767Y-6200081D01*
X22293768Y-6200083D01*
X22293769Y-6200084D01*
X22328898Y-6246770D01*
X22335295Y-6255271D01*
X22343366Y-6265325D01*
X22343846Y-6265885D01*
X22344321Y-6266440D01*
X22344326Y-6266445D01*
X22352927Y-6275887D01*
X22398788Y-6323180D01*
X22398799Y-6323191D01*
X22412286Y-6335899D01*
X22413885Y-6337275D01*
X22413905Y-6337291D01*
X22413909Y-6337294D01*
X22428557Y-6348784D01*
X22428586Y-6348806D01*
X22434889Y-6353302D01*
X22444096Y-6359869D01*
X22487242Y-6414823D01*
X22495875Y-6468077D01*
X22495554Y-6473549D01*
X22495554Y-6473551D01*
X22495554Y-6473553D01*
X22504612Y-6572807D01*
X22507896Y-6608795D01*
X22517921Y-6637678D01*
X22517923Y-6637683D01*
X22935007Y-7552886D01*
X22936151Y-7555396D01*
X22951368Y-7581905D01*
X23045339Y-7679947D01*
X23045341Y-7679948D01*
X23164035Y-7745935D01*
X23241603Y-7762321D01*
X23296906Y-7774004D01*
X23432148Y-7761662D01*
X23461024Y-7751638D01*
X24151259Y-7437080D01*
X24177768Y-7421863D01*
X24275809Y-7327892D01*
X24341797Y-7209197D01*
X24369866Y-7076325D01*
X24357524Y-6941083D01*
X24347501Y-6912207D01*
X24347500Y-6912204D01*
X24347498Y-6912199D01*
X24347496Y-6912194D01*
X24053210Y-6266445D01*
X23929269Y-5994482D01*
X23914052Y-5967973D01*
X23820081Y-5869931D01*
X23820079Y-5869930D01*
X23820078Y-5869929D01*
X23701384Y-5803942D01*
X23568516Y-5775874D01*
X23568514Y-5775874D01*
X23433272Y-5788216D01*
X23433268Y-5788216D01*
X23404394Y-5798240D01*
X23389382Y-5805081D01*
X23371190Y-5811709D01*
X23364153Y-5813666D01*
X23333368Y-5818176D01*
X23294032Y-5818950D01*
X23226619Y-5800588D01*
X23179834Y-5748694D01*
X23171818Y-5727066D01*
X23166392Y-5706815D01*
X23166390Y-5706811D01*
X23100500Y-5592686D01*
X23007314Y-5499500D01*
X23007313Y-5499499D01*
X23007311Y-5499498D01*
X22988512Y-5488644D01*
X22988490Y-5488631D01*
X22976942Y-5481964D01*
X22960721Y-5467429D01*
X22900083Y-5431548D01*
X22889308Y-5425601D01*
X22888052Y-5424956D01*
X22876757Y-5419583D01*
X22832950Y-5400358D01*
X22827408Y-5397213D01*
X22807365Y-5376501D01*
X22785303Y-5357951D01*
X22783367Y-5351702D01*
X22778820Y-5347004D01*
X22773156Y-5318744D01*
X22764626Y-5291211D01*
X22766203Y-5284054D01*
X22765090Y-5278497D01*
X22770438Y-5264845D01*
X22776893Y-5235567D01*
X22795853Y-5196198D01*
X22808140Y-5170683D01*
X22828381Y-5036396D01*
X22808140Y-4902108D01*
X22749217Y-4779753D01*
X22729715Y-4756216D01*
X22729713Y-4756214D01*
X22729709Y-4756209D01*
X22193358Y-4219858D01*
X22193352Y-4219853D01*
X22169815Y-4200351D01*
X22047460Y-4141428D01*
X21913172Y-4121187D01*
X21778885Y-4141428D01*
X21656531Y-4200350D01*
X21632986Y-4219858D01*
X20919858Y-4932986D01*
X20900350Y-4956531D01*
X20841428Y-5078885D01*
X20821187Y-5213172D01*
X-4454014Y-5213172D01*
X-4467686Y-5199500D01*
X-4524750Y-5166554D01*
X-4581813Y-5133608D01*
X-4645461Y-5116554D01*
X-4709108Y-5099500D01*
X-4840892Y-5099500D01*
X-4968186Y-5133608D01*
X-4968187Y-5133608D01*
X-4968189Y-5133609D01*
X-4968190Y-5133609D01*
X-5082317Y-5199500D01*
X-5091090Y-5208274D01*
X-5152414Y-5241757D01*
X-5192651Y-5243810D01*
X-5305214Y-5231127D01*
X-5305215Y-5231127D01*
X-5438648Y-5256373D01*
X-5466426Y-5269116D01*
X-5466442Y-5269124D01*
X-6339838Y-5773379D01*
X-6339856Y-5773391D01*
X-6364773Y-5791070D01*
X-6364779Y-5791076D01*
X-6453357Y-5894007D01*
X-6453360Y-5894011D01*
X-6507667Y-6018479D01*
X-6507668Y-6018485D01*
X-6522872Y-6153431D01*
X-22061656Y-6153431D01*
X-22446593Y-4378079D01*
X-7547872Y-4378079D01*
X-7547872Y-4378081D01*
X-7522626Y-4511514D01*
X-7509883Y-4539292D01*
X-7509875Y-4539308D01*
X-7130620Y-5196198D01*
X-7130608Y-5196216D01*
X-7112929Y-5221133D01*
X-7112923Y-5221139D01*
X-7101315Y-5231128D01*
X-7009989Y-5309720D01*
X-6885517Y-5364027D01*
X-6818042Y-5371629D01*
X-6750567Y-5379232D01*
X-6750566Y-5379232D01*
X-6617133Y-5353986D01*
X-6617132Y-5353985D01*
X-6617130Y-5353985D01*
X-6589347Y-5341240D01*
X-5999168Y-5000500D01*
X-5715943Y-4836980D01*
X-5715941Y-4836978D01*
X-5715933Y-4836974D01*
X-5691004Y-4819286D01*
X-5602421Y-4716350D01*
X-5554268Y-4605984D01*
X-5548114Y-4591880D01*
X-5548114Y-4591878D01*
X-5548113Y-4591877D01*
X-5532909Y-4456927D01*
X-5536196Y-4439552D01*
X-5558155Y-4323493D01*
X-5570898Y-4295715D01*
X-5570901Y-4295708D01*
X-5570906Y-4295699D01*
X-5950161Y-3638809D01*
X-5950173Y-3638791D01*
X-5967852Y-3613874D01*
X-5967858Y-3613868D01*
X-6070790Y-3525289D01*
X-6070791Y-3525288D01*
X-6143023Y-3493773D01*
X-6195265Y-3470980D01*
X-6304181Y-3458708D01*
X-6320557Y-3451826D01*
X-6338211Y-3449857D01*
X-6352099Y-3438572D01*
X-6368595Y-3431641D01*
X-6378652Y-3416998D01*
X-6392437Y-3405797D01*
X-6398020Y-3388797D01*
X-6408150Y-3374046D01*
X-6408704Y-3356258D01*
X-6414235Y-3339415D01*
X-6409968Y-3315695D01*
X-6410321Y-3304339D01*
X-6408237Y-3296308D01*
X-6403226Y-3284034D01*
X-6402600Y-3282310D01*
X-6397705Y-3266986D01*
X-6379288Y-3200442D01*
X-6377477Y-3193417D01*
X-6377285Y-3192614D01*
X-6376936Y-3175698D01*
X-6373287Y-3161641D01*
X-6373135Y-3161387D01*
X-6373036Y-3160691D01*
X-6372932Y-3160305D01*
X-6367730Y-3140892D01*
X-6367730Y-3009108D01*
X-6401838Y-2881814D01*
X-6467730Y-2767686D01*
X-6560916Y-2674500D01*
X-6617980Y-2641554D01*
X-6675043Y-2608608D01*
X-6765271Y-2584432D01*
X-6802338Y-2574500D01*
X-6934122Y-2574500D01*
X-7061418Y-2608608D01*
X-7175544Y-2674500D01*
X-7175547Y-2674502D01*
X-7268728Y-2767683D01*
X-7268730Y-2767686D01*
X-7334622Y-2881812D01*
X-7364089Y-2991786D01*
X-7368730Y-3009108D01*
X-7368730Y-3140892D01*
X-7363528Y-3160311D01*
X-7359431Y-3186783D01*
X-7359079Y-3194537D01*
X-7338125Y-3279579D01*
X-7338124Y-3279581D01*
X-7335269Y-3289992D01*
X-7334929Y-3291114D01*
X-7334917Y-3291150D01*
X-7334914Y-3291160D01*
X-7333389Y-3295757D01*
X-7331516Y-3301400D01*
X-7305228Y-3374186D01*
X-7300600Y-3385866D01*
X-7300035Y-3387175D01*
X-7296916Y-3393821D01*
X-7294640Y-3398671D01*
X-7257945Y-3470980D01*
X-7246759Y-3493022D01*
X-7246052Y-3494436D01*
X-7207444Y-3572980D01*
X-7195537Y-3641828D01*
X-7197731Y-3654810D01*
X-7218286Y-3746485D01*
X-7221369Y-3757731D01*
X-7245792Y-3832775D01*
X-7251032Y-3846177D01*
X-7277602Y-3903997D01*
X-7286190Y-3919616D01*
X-7298323Y-3938354D01*
X-7311783Y-3955594D01*
X-7320234Y-3964643D01*
X-7324972Y-3969446D01*
X-7328648Y-3972976D01*
X-7352528Y-3990920D01*
X-7364842Y-3998030D01*
X-7364855Y-3998038D01*
X-7389773Y-4015718D01*
X-7389779Y-4015724D01*
X-7478357Y-4118655D01*
X-7478360Y-4118659D01*
X-7532667Y-4243127D01*
X-7532668Y-4243133D01*
X-7547872Y-4378079D01*
X-22446593Y-4378079D01*
X-22584275Y-3743082D01*
X-22584879Y-3740117D01*
X-22977330Y-1678813D01*
X-23134506Y-853265D01*
X-23139232Y-828444D01*
X-3927978Y-828444D01*
X-3927978Y-828454D01*
X-3840942Y-2489197D01*
X-3840942Y-2489201D01*
X-3840941Y-2489206D01*
X-3836987Y-2507809D01*
X-3821201Y-2582085D01*
X-3789678Y-2636683D01*
X-3757767Y-2691955D01*
X-3663487Y-2776845D01*
X-3590107Y-2809515D01*
X-3536872Y-2854764D01*
X-3516550Y-2921613D01*
X-3535595Y-2988837D01*
X-3578542Y-3030180D01*
X-3648096Y-3070338D01*
X-3648102Y-3070343D01*
X-3732985Y-3164615D01*
X-3732991Y-3164623D01*
X-3784589Y-3280515D01*
X-3794514Y-3374946D01*
X-3794514Y-3374956D01*
X-3749346Y-4236795D01*
X-3749346Y-4236799D01*
X-3749345Y-4236804D01*
X-3742633Y-4268383D01*
X-3729605Y-4329683D01*
X-3698082Y-4384281D01*
X-3666171Y-4439553D01*
X-3571891Y-4524443D01*
X-3455994Y-4576044D01*
X-3361560Y-4585970D01*
X-2899157Y-4561735D01*
X-2806277Y-4541994D01*
X-2696409Y-4478561D01*
X-2656383Y-4434108D01*
X19014580Y-4434108D01*
X19014580Y-4565892D01*
X19023625Y-4599649D01*
X19048688Y-4693187D01*
X19062063Y-4716352D01*
X19114580Y-4807314D01*
X19207766Y-4900500D01*
X19321894Y-4966392D01*
X19449188Y-5000500D01*
X19449190Y-5000500D01*
X19580970Y-5000500D01*
X19580972Y-5000500D01*
X19708266Y-4966392D01*
X19822394Y-4900500D01*
X19915580Y-4807314D01*
X19926696Y-4788059D01*
X19930014Y-4782642D01*
X19935266Y-4774540D01*
X19947650Y-4760721D01*
X19983455Y-4700211D01*
X19984831Y-4698089D01*
X20009475Y-4676905D01*
X20033241Y-4654726D01*
X20035825Y-4654256D01*
X20037817Y-4652545D01*
X20069999Y-4648049D01*
X20101986Y-4642239D01*
X20105147Y-4643138D01*
X20107015Y-4642878D01*
X20111498Y-4644947D01*
X20142679Y-4653824D01*
X20152537Y-4658571D01*
X20152538Y-4658571D01*
X20152540Y-4658572D01*
X20286828Y-4678813D01*
X20421115Y-4658572D01*
X20543470Y-4599649D01*
X20567007Y-4580147D01*
X21280147Y-3867007D01*
X21299649Y-3843470D01*
X21358572Y-3721115D01*
X21378813Y-3586828D01*
X21358572Y-3452540D01*
X21299649Y-3330185D01*
X21280147Y-3306648D01*
X21280145Y-3306646D01*
X21280141Y-3306641D01*
X20743790Y-2770290D01*
X20740644Y-2767683D01*
X20720247Y-2750783D01*
X20597892Y-2691860D01*
X20463604Y-2671619D01*
X20329317Y-2691860D01*
X20206963Y-2750782D01*
X20183418Y-2770290D01*
X19470290Y-3483418D01*
X19450782Y-3506963D01*
X19391860Y-3629317D01*
X19371619Y-3763604D01*
X19391715Y-3896932D01*
X19389157Y-3915618D01*
X19391651Y-3934313D01*
X19384518Y-3949517D01*
X19382242Y-3966156D01*
X19369989Y-3980491D01*
X19361979Y-3997569D01*
X19341278Y-4014085D01*
X19336847Y-4019270D01*
X19335070Y-4020408D01*
X19331172Y-4022856D01*
X19331125Y-4022879D01*
X19329825Y-4023537D01*
X19318416Y-4029773D01*
X19254802Y-4067203D01*
X19249818Y-4070231D01*
X19249319Y-4070544D01*
X19238307Y-4081205D01*
X19227329Y-4088104D01*
X19226052Y-4088464D01*
X19223366Y-4090492D01*
X19207766Y-4099499D01*
X19114580Y-4192686D01*
X19048688Y-4306812D01*
X19042560Y-4329683D01*
X19014580Y-4434108D01*
X-2656383Y-4434108D01*
X-2611518Y-4384281D01*
X-2559917Y-4268384D01*
X-2549992Y-4173950D01*
X-2551981Y-4136011D01*
X-2545560Y-4108979D01*
X-2542422Y-4081375D01*
X-2537598Y-4075461D01*
X-2535833Y-4068035D01*
X-2515819Y-4048767D01*
X-2498253Y-4027238D01*
X-2490996Y-4024871D01*
X-2485497Y-4019578D01*
X-2458245Y-4014190D01*
X-2431826Y-4005575D01*
X-2421574Y-4006941D01*
X-2416954Y-4006028D01*
X-2396758Y-4009561D01*
X-2394452Y-4010164D01*
X-2305497Y-4037150D01*
X-2296205Y-4039733D01*
X-2295129Y-4040005D01*
X-2278721Y-4040451D01*
X-2264942Y-4044057D01*
X-2264760Y-4044167D01*
X-2264249Y-4044241D01*
X-2240892Y-4050500D01*
X-2240889Y-4050500D01*
X-2109110Y-4050500D01*
X-2109108Y-4050500D01*
X-1981814Y-4016392D01*
X-1867686Y-3950500D01*
X-1774500Y-3857314D01*
X-1708608Y-3743186D01*
X-1674500Y-3615892D01*
X-1674500Y-3484108D01*
X-1708608Y-3356814D01*
X-1774500Y-3242686D01*
X-1867686Y-3149500D01*
X-1939048Y-3108299D01*
X-1981813Y-3083608D01*
X-2045461Y-3066554D01*
X-2109108Y-3049500D01*
X-2240892Y-3049500D01*
X-2368186Y-3083608D01*
X-2368187Y-3083608D01*
X-2440314Y-3125249D01*
X-2440527Y-3125373D01*
X-2446756Y-3128970D01*
X-2468428Y-3138374D01*
X-2499598Y-3159961D01*
X-2503677Y-3162350D01*
X-2533185Y-3169699D01*
X-2562053Y-3179269D01*
X-2566761Y-3178061D01*
X-2571476Y-3179236D01*
X-2600275Y-3169464D01*
X-2629732Y-3161909D01*
X-2633351Y-3158242D01*
X-2637641Y-3156787D01*
X-2649559Y-3141820D01*
X-2673719Y-3117342D01*
X-2678335Y-3109347D01*
X-2688278Y-3100394D01*
X-2772615Y-3024457D01*
X-2772618Y-3024455D01*
X-2772620Y-3024454D01*
X-2773214Y-3024190D01*
X-2845994Y-2991786D01*
X-2899231Y-2946536D01*
X-2907590Y-2919038D01*
X17499500Y-2919038D01*
X17499500Y-3050822D01*
X17512783Y-3100394D01*
X17533608Y-3178117D01*
X17543089Y-3194538D01*
X17599500Y-3292244D01*
X17692686Y-3385430D01*
X17788063Y-3440496D01*
X17804276Y-3449857D01*
X17806814Y-3451322D01*
X17934108Y-3485430D01*
X17934110Y-3485430D01*
X18065890Y-3485430D01*
X18065892Y-3485430D01*
X18193186Y-3451322D01*
X18307314Y-3385430D01*
X18400500Y-3292244D01*
X18411608Y-3273001D01*
X18414118Y-3268847D01*
X18419678Y-3260036D01*
X18432571Y-3245650D01*
X18468451Y-3185013D01*
X18474397Y-3174239D01*
X18475042Y-3172983D01*
X18476340Y-3170253D01*
X18479823Y-3164735D01*
X18502057Y-3145145D01*
X18522469Y-3123652D01*
X18527987Y-3122301D01*
X18532249Y-3118547D01*
X18561549Y-3114087D01*
X18590336Y-3107043D01*
X18600989Y-3108085D01*
X18601323Y-3108035D01*
X18601562Y-3108141D01*
X18603153Y-3108297D01*
X18736396Y-3128381D01*
X18870683Y-3108140D01*
X18993038Y-3049217D01*
X19016575Y-3029715D01*
X19729715Y-2316575D01*
X19749217Y-2293038D01*
X19808140Y-2170683D01*
X19828381Y-2036396D01*
X19808140Y-1902108D01*
X19749217Y-1779753D01*
X19729715Y-1756216D01*
X19729713Y-1756214D01*
X19729709Y-1756209D01*
X19193358Y-1219858D01*
X19193352Y-1219853D01*
X19169815Y-1200351D01*
X19047460Y-1141428D01*
X18913172Y-1121187D01*
X18778885Y-1141428D01*
X18656531Y-1200350D01*
X18632986Y-1219858D01*
X17919858Y-1932986D01*
X17900350Y-1956531D01*
X17841428Y-2078885D01*
X17821187Y-2213172D01*
X17841428Y-2347459D01*
X17841428Y-2347460D01*
X17846266Y-2357507D01*
X17846478Y-2358797D01*
X17847335Y-2359786D01*
X17852135Y-2393159D01*
X17857616Y-2426448D01*
X17857096Y-2427649D01*
X17857283Y-2428944D01*
X17843273Y-2459624D01*
X17829891Y-2490582D01*
X17828628Y-2491699D01*
X17828262Y-2492501D01*
X17819048Y-2500172D01*
X17801591Y-2515616D01*
X17799519Y-2516947D01*
X17739724Y-2552131D01*
X17734712Y-2555177D01*
X17734210Y-2555492D01*
X17723666Y-2565702D01*
X17713301Y-2572365D01*
X17711714Y-2572830D01*
X17708261Y-2575436D01*
X17696746Y-2582086D01*
X17692683Y-2584432D01*
X17599500Y-2677616D01*
X17533608Y-2791742D01*
X17509474Y-2881814D01*
X17499500Y-2919038D01*
X-2907590Y-2919038D01*
X-2919552Y-2879687D01*
X-2900507Y-2812463D01*
X-2857559Y-2771120D01*
X-2788004Y-2730963D01*
X-2703114Y-2636683D01*
X-2651513Y-2520786D01*
X-2641588Y-2426352D01*
X-2693590Y-1434108D01*
X16014580Y-1434108D01*
X16014580Y-1565891D01*
X16048688Y-1693187D01*
X16081634Y-1750250D01*
X16114580Y-1807314D01*
X16207766Y-1900500D01*
X16321894Y-1966392D01*
X16449188Y-2000500D01*
X16449190Y-2000500D01*
X16580970Y-2000500D01*
X16580972Y-2000500D01*
X16708266Y-1966392D01*
X16822394Y-1900500D01*
X16915580Y-1807314D01*
X16926696Y-1788059D01*
X16930014Y-1782642D01*
X16935266Y-1774540D01*
X16947650Y-1760721D01*
X16983455Y-1700211D01*
X16984831Y-1698089D01*
X17009475Y-1676905D01*
X17033241Y-1654726D01*
X17035825Y-1654256D01*
X17037817Y-1652545D01*
X17069999Y-1648049D01*
X17101986Y-1642239D01*
X17105147Y-1643138D01*
X17107015Y-1642878D01*
X17111498Y-1644947D01*
X17142679Y-1653824D01*
X17152537Y-1658571D01*
X17152538Y-1658571D01*
X17152540Y-1658572D01*
X17286828Y-1678813D01*
X17421115Y-1658572D01*
X17543470Y-1599649D01*
X17567007Y-1580147D01*
X18280147Y-867007D01*
X18299649Y-843470D01*
X18358572Y-721115D01*
X18378813Y-586828D01*
X18358572Y-452540D01*
X18299649Y-330185D01*
X18280147Y-306648D01*
X18280145Y-306646D01*
X18280141Y-306641D01*
X17743790Y229710D01*
X17731266Y240087D01*
X17720247Y249217D01*
X17597892Y308140D01*
X17463604Y328381D01*
X17329317Y308140D01*
X17206963Y249218D01*
X17183418Y229710D01*
X16470290Y-483418D01*
X16450782Y-506963D01*
X16391860Y-629317D01*
X16371619Y-763604D01*
X16391715Y-896932D01*
X16389157Y-915618D01*
X16391651Y-934313D01*
X16384518Y-949517D01*
X16382242Y-966156D01*
X16369989Y-980491D01*
X16361979Y-997569D01*
X16341278Y-1014085D01*
X16336847Y-1019270D01*
X16335070Y-1020408D01*
X16331172Y-1022856D01*
X16331125Y-1022879D01*
X16329825Y-1023537D01*
X16318416Y-1029773D01*
X16254802Y-1067203D01*
X16249818Y-1070231D01*
X16249319Y-1070544D01*
X16238307Y-1081205D01*
X16227329Y-1088104D01*
X16226052Y-1088464D01*
X16223366Y-1090492D01*
X16207766Y-1099499D01*
X16114580Y-1192686D01*
X16048688Y-1306812D01*
X16014580Y-1434108D01*
X-2693590Y-1434108D01*
X-2706242Y-1192686D01*
X-2719432Y-941000D01*
X-2719601Y-937767D01*
X-341846Y-937767D01*
X-315470Y-1061860D01*
X-315468Y-1061865D01*
X-252036Y-1171730D01*
X-157760Y-1256618D01*
X-157759Y-1256618D01*
X-157757Y-1256620D01*
X-71012Y-1295241D01*
X376248Y-1415083D01*
X407726Y-1418392D01*
X470676Y-1425010D01*
X470678Y-1425009D01*
X470682Y-1425010D01*
X594776Y-1398633D01*
X704645Y-1335199D01*
X789535Y-1240920D01*
X828156Y-1154175D01*
X846043Y-1087416D01*
X858182Y-1058140D01*
X858150Y-1058122D01*
X858300Y-1057854D01*
X858475Y-1057434D01*
X861289Y-1052568D01*
X863219Y-1050730D01*
X864352Y-1048231D01*
X864718Y-1047710D01*
X865680Y-1048386D01*
X886069Y-1028973D01*
X910655Y-1005032D01*
X911365Y-1004887D01*
X911890Y-1004388D01*
X945512Y-997932D01*
X979120Y-991088D01*
X979796Y-991350D01*
X980507Y-991214D01*
X1012276Y-1003958D01*
X1044254Y-1016372D01*
X1045335Y-1017220D01*
X1045353Y-1017228D01*
X1045364Y-1017243D01*
X1046097Y-1017819D01*
X1110294Y-1069180D01*
X1115362Y-1073716D01*
X1122476Y-1079176D01*
X1125837Y-1081421D01*
X1126816Y-1082171D01*
X1127594Y-1082742D01*
X1132762Y-1085027D01*
X1144608Y-1091043D01*
X1231814Y-1141392D01*
X1359108Y-1175500D01*
X1359110Y-1175500D01*
X1490890Y-1175500D01*
X1490892Y-1175500D01*
X1618186Y-1141392D01*
X1732314Y-1075500D01*
X1825500Y-982314D01*
X1891392Y-868186D01*
X1925500Y-740892D01*
X1925500Y-609108D01*
X1891392Y-481814D01*
X1825500Y-367686D01*
X1732314Y-274500D01*
X1675250Y-241554D01*
X1618187Y-208608D01*
X1521342Y-182659D01*
X1490892Y-174500D01*
X1359108Y-174500D01*
X1359104Y-174500D01*
X1342497Y-178950D01*
X1335641Y-180580D01*
X1325095Y-182771D01*
X1308292Y-183304D01*
X1186074Y-211665D01*
X1184641Y-211963D01*
X1151175Y-209257D01*
X1117684Y-207326D01*
X1116482Y-206451D01*
X1114999Y-206332D01*
X1088309Y-185963D01*
X1061177Y-166231D01*
X1060481Y-164725D01*
X1059456Y-163943D01*
X1057043Y-157287D01*
X1038119Y-116338D01*
X1035075Y-102017D01*
X1035073Y-102012D01*
X971642Y7852D01*
X911949Y61600D01*
X875301Y121087D01*
X876632Y190944D01*
X915519Y248992D01*
X969140Y275040D01*
X1047701Y291738D01*
X1047703Y291740D01*
X1047705Y291740D01*
X1123587Y335551D01*
X1157570Y355171D01*
X1242460Y449451D01*
X1281082Y536195D01*
X1346221Y779298D01*
X3216470Y779298D01*
X3216470Y779291D01*
X3225320Y652738D01*
X3225320Y652736D01*
X3272843Y535112D01*
X3272844Y535111D01*
X3272845Y535109D01*
X3354393Y437924D01*
X3354395Y437922D01*
X3354397Y437920D01*
X3434909Y387612D01*
X3434913Y387610D01*
X3434918Y387607D01*
X3861147Y206684D01*
X3861150Y206684D01*
X3861151Y206683D01*
X3861158Y206681D01*
X3885949Y200500D01*
X3953281Y183712D01*
X4079837Y192562D01*
X4197465Y240087D01*
X4294650Y321634D01*
X4294650Y321635D01*
X4294652Y321636D01*
X4344963Y402152D01*
X4344962Y402152D01*
X4344968Y402160D01*
X4446346Y640993D01*
X4458941Y662515D01*
X4474185Y706578D01*
X4494690Y754884D01*
X4527296Y831698D01*
X4571610Y885717D01*
X4638094Y907202D01*
X4705640Y889332D01*
X4727828Y872199D01*
X4770530Y830723D01*
X4776350Y825416D01*
X4780083Y822011D01*
X4781177Y821075D01*
X4781188Y821066D01*
X4791150Y813061D01*
X4791162Y813052D01*
X4849793Y768871D01*
X4854119Y765699D01*
X4854141Y765684D01*
X4854151Y765676D01*
X4854660Y765313D01*
X4864047Y761238D01*
X4876656Y754888D01*
X4936361Y720417D01*
X4953590Y710469D01*
X4956814Y708608D01*
X5084108Y674500D01*
X5084110Y674500D01*
X5215890Y674500D01*
X5215892Y674500D01*
X5343186Y708608D01*
X5457314Y774500D01*
X5550500Y867686D01*
X5616392Y981814D01*
X5650500Y1109108D01*
X5650500Y1240892D01*
X5616392Y1368186D01*
X5550500Y1482314D01*
X5457314Y1575500D01*
X5391421Y1613544D01*
X5343185Y1641393D01*
X5247174Y1667120D01*
X5238174Y1669902D01*
X5225314Y1674420D01*
X5225305Y1674422D01*
X5155697Y1684337D01*
X5143469Y1685706D01*
X5142095Y1685819D01*
X5129490Y1686462D01*
X5088351Y1687296D01*
X5062645Y1687816D01*
X5062642Y1687816D01*
X5062640Y1687816D01*
X5046022Y1687481D01*
X5044202Y1687370D01*
X5037863Y1686732D01*
X4969189Y1699606D01*
X4918378Y1747563D01*
X4901560Y1815379D01*
X4924076Y1881521D01*
X4945740Y1905096D01*
X4978421Y1932518D01*
X5028739Y2013044D01*
X5136066Y2265892D01*
X12199500Y2265892D01*
X12199500Y2134108D01*
X12211137Y2090677D01*
X12233608Y2006813D01*
X12238413Y1998491D01*
X12299500Y1892686D01*
X12392686Y1799500D01*
X12506814Y1733608D01*
X12634108Y1699500D01*
X12634110Y1699500D01*
X12765890Y1699500D01*
X12765892Y1699500D01*
X12893186Y1733608D01*
X13007314Y1799500D01*
X13100500Y1892686D01*
X13111638Y1911978D01*
X13113290Y1914753D01*
X13119149Y1924303D01*
X13132570Y1939279D01*
X13168451Y1999917D01*
X13174398Y2010692D01*
X13175043Y2011948D01*
X13180417Y2023245D01*
X13181819Y2026441D01*
X13185790Y2032912D01*
X13207014Y2052093D01*
X13226078Y2073411D01*
X13232604Y2075218D01*
X13237629Y2079758D01*
X13265849Y2084418D01*
X13293416Y2092047D01*
X13305828Y2091020D01*
X13306565Y2091141D01*
X13307088Y2090915D01*
X13309948Y2090679D01*
X13436396Y2071619D01*
X13570683Y2091860D01*
X13693038Y2150783D01*
X13716575Y2170285D01*
X14429715Y2883425D01*
X14449217Y2906962D01*
X14508140Y3029317D01*
X14528381Y3163604D01*
X14508140Y3297892D01*
X14449217Y3420247D01*
X14429715Y3443784D01*
X14429713Y3443786D01*
X14429709Y3443791D01*
X13893358Y3980142D01*
X13893352Y3980147D01*
X13869815Y3999649D01*
X13747460Y4058572D01*
X13613172Y4078813D01*
X13478885Y4058572D01*
X13356531Y3999650D01*
X13332986Y3980142D01*
X12619858Y3267014D01*
X12600350Y3243469D01*
X12541428Y3121115D01*
X12521187Y2986828D01*
X12541428Y2852541D01*
X12541429Y2852537D01*
X12551920Y2830751D01*
X12552156Y2829313D01*
X12553109Y2828209D01*
X12557814Y2794948D01*
X12563271Y2761810D01*
X12562692Y2760473D01*
X12562897Y2759028D01*
X12548864Y2728485D01*
X12535547Y2697676D01*
X12534141Y2696436D01*
X12533729Y2695538D01*
X12523419Y2686974D01*
X12507003Y2672486D01*
X12504272Y2670741D01*
X12503334Y2670227D01*
X12439724Y2632799D01*
X12434712Y2629753D01*
X12434210Y2629438D01*
X12423564Y2619129D01*
X12413058Y2612410D01*
X12411541Y2611969D01*
X12408261Y2609494D01*
X12396680Y2602806D01*
X12392683Y2600498D01*
X12299500Y2507314D01*
X12233608Y2393188D01*
X12217778Y2334108D01*
X12199500Y2265892D01*
X5136066Y2265892D01*
X5678538Y3543878D01*
X5701511Y3636012D01*
X5692661Y3762568D01*
X5691318Y3765892D01*
X10714580Y3765892D01*
X10714580Y3634109D01*
X10748688Y3506813D01*
X10774948Y3461330D01*
X10814580Y3392686D01*
X10907766Y3299500D01*
X11021894Y3233608D01*
X11149188Y3199500D01*
X11149190Y3199500D01*
X11280970Y3199500D01*
X11280972Y3199500D01*
X11408266Y3233608D01*
X11522394Y3299500D01*
X11615580Y3392686D01*
X11626696Y3411941D01*
X11630014Y3417358D01*
X11635266Y3425460D01*
X11647650Y3439279D01*
X11683455Y3499789D01*
X11684831Y3501911D01*
X11709475Y3523095D01*
X11733241Y3545274D01*
X11735825Y3545744D01*
X11737817Y3547455D01*
X11769999Y3551951D01*
X11801986Y3557761D01*
X11805147Y3556862D01*
X11807015Y3557122D01*
X11811498Y3555053D01*
X11842679Y3546176D01*
X11852537Y3541429D01*
X11852538Y3541429D01*
X11852540Y3541428D01*
X11986828Y3521187D01*
X12121115Y3541428D01*
X12243470Y3600351D01*
X12267007Y3619853D01*
X12980147Y4332993D01*
X12999649Y4356530D01*
X13058572Y4478885D01*
X13078813Y4613172D01*
X13058572Y4747460D01*
X12999649Y4869815D01*
X12980147Y4893352D01*
X12980145Y4893354D01*
X12980141Y4893359D01*
X12443790Y5429710D01*
X12443784Y5429715D01*
X12420247Y5449217D01*
X12297892Y5508140D01*
X12163604Y5528381D01*
X12029317Y5508140D01*
X11906963Y5449218D01*
X11883418Y5429710D01*
X11170290Y4716582D01*
X11150782Y4693037D01*
X11091860Y4570683D01*
X11071619Y4436396D01*
X11091715Y4303068D01*
X11089157Y4284382D01*
X11091651Y4265687D01*
X11084518Y4250483D01*
X11082242Y4233844D01*
X11069989Y4219509D01*
X11061979Y4202431D01*
X11041278Y4185915D01*
X11036847Y4180730D01*
X11035070Y4179592D01*
X11031172Y4177144D01*
X11031125Y4177121D01*
X11029825Y4176463D01*
X11018416Y4170227D01*
X10954802Y4132797D01*
X10949818Y4129769D01*
X10949319Y4129456D01*
X10938307Y4118795D01*
X10927329Y4111896D01*
X10926052Y4111536D01*
X10923366Y4109508D01*
X10907766Y4100501D01*
X10814580Y4007314D01*
X10748688Y3893188D01*
X10714580Y3765892D01*
X5691318Y3765892D01*
X5645136Y3880197D01*
X5563589Y3977381D01*
X5563588Y3977382D01*
X5563587Y3977383D01*
X5483071Y4027695D01*
X5483063Y4027699D01*
X5056833Y4208622D01*
X5056822Y4208625D01*
X4964704Y4231594D01*
X4964697Y4231594D01*
X4838143Y4222744D01*
X4838138Y4222743D01*
X4810535Y4211591D01*
X4741003Y4204731D01*
X4678800Y4236551D01*
X4664245Y4253027D01*
X4653498Y4267621D01*
X4643304Y4280370D01*
X4642093Y4281767D01*
X4630919Y4293668D01*
X4622338Y4302108D01*
X4581249Y4342524D01*
X4581243Y4342530D01*
X4571471Y4351539D01*
X4570333Y4352522D01*
X4559960Y4360910D01*
X4559958Y4360912D01*
X4559950Y4360918D01*
X4500483Y4405893D01*
X4495812Y4409324D01*
X4495306Y4409684D01*
X4495302Y4409687D01*
X4495300Y4409688D01*
X4486075Y4413693D01*
X4473463Y4420045D01*
X4393186Y4466392D01*
X4346557Y4478886D01*
X4265892Y4500500D01*
X4134108Y4500500D01*
X4006812Y4466392D01*
X3892686Y4400500D01*
X3892683Y4400498D01*
X3799502Y4307317D01*
X3799500Y4307314D01*
X3733608Y4193188D01*
X3699500Y4065892D01*
X3699500Y3934109D01*
X3733608Y3806813D01*
X3766554Y3749750D01*
X3799500Y3692686D01*
X3892686Y3599500D01*
X4006814Y3533608D01*
X4006815Y3533608D01*
X4006816Y3533607D01*
X4046050Y3523095D01*
X4107161Y3506721D01*
X4124587Y3500589D01*
X4146691Y3497430D01*
X4152293Y3496088D01*
X4177788Y3481468D01*
X4204534Y3469281D01*
X4207750Y3464286D01*
X4212904Y3461330D01*
X4226446Y3435249D01*
X4242359Y3410536D01*
X4242764Y3403824D01*
X4245102Y3399322D01*
X4243852Y3385822D01*
X4245713Y3355043D01*
X4229077Y3255576D01*
X4224116Y3235940D01*
X4171240Y3081183D01*
X4171236Y3081171D01*
X4165307Y3056831D01*
X4158974Y3037732D01*
X3923213Y2482311D01*
X3923210Y2482300D01*
X3900241Y2390182D01*
X3900241Y2390178D01*
X3909091Y2263622D01*
X3946801Y2170285D01*
X3956617Y2145991D01*
X3956619Y2145989D01*
X4008245Y2084463D01*
X4036258Y2020455D01*
X4025219Y1951463D01*
X3978632Y1899391D01*
X3921907Y1881059D01*
X3841788Y1875456D01*
X3724160Y1827931D01*
X3626973Y1746383D01*
X3576662Y1665867D01*
X3576660Y1665863D01*
X3239440Y871422D01*
X3239439Y871416D01*
X3216470Y779298D01*
X1346221Y779298D01*
X1711506Y2142566D01*
X1721433Y2237001D01*
X1695056Y2361094D01*
X1695054Y2361099D01*
X1662325Y2417787D01*
X1657525Y2437569D01*
X1648092Y2455607D01*
X1649456Y2470832D01*
X1645852Y2485687D01*
X1652510Y2504926D01*
X1654327Y2525198D01*
X1667583Y2548475D01*
X1668705Y2551714D01*
X1671758Y2555820D01*
X1695278Y2586091D01*
X1696503Y2587477D01*
X1700497Y2592684D01*
X1700500Y2592686D01*
X1700501Y2592689D01*
X1704509Y2597912D01*
X1704944Y2598571D01*
X1708122Y2602806D01*
X1708138Y2602827D01*
X1708607Y2603474D01*
X1711801Y2610759D01*
X1717958Y2622927D01*
X1766392Y2706814D01*
X1800500Y2834108D01*
X1800500Y2965892D01*
X1766392Y3093186D01*
X1700500Y3207314D01*
X1607314Y3300500D01*
X1550250Y3333446D01*
X1493187Y3366392D01*
X1429539Y3383446D01*
X1365892Y3400500D01*
X1234108Y3400500D01*
X1106812Y3366392D01*
X992686Y3300500D01*
X992683Y3300498D01*
X899502Y3207317D01*
X899500Y3207314D01*
X833608Y3093188D01*
X799500Y2965892D01*
X799500Y2834105D01*
X804521Y2815368D01*
X802857Y2745519D01*
X763694Y2687657D01*
X746746Y2675890D01*
X674942Y2634434D01*
X590055Y2540157D01*
X590049Y2540149D01*
X551431Y2453413D01*
X551428Y2453406D01*
X121006Y847042D01*
X121005Y847036D01*
X111078Y752608D01*
X111079Y752603D01*
X137455Y628511D01*
X137457Y628506D01*
X200888Y518642D01*
X260581Y464894D01*
X297230Y405408D01*
X295900Y335551D01*
X257013Y277502D01*
X203391Y251454D01*
X124832Y234756D01*
X124830Y234756D01*
X124830Y234755D01*
X14961Y171321D01*
X14960Y171321D01*
X14960Y171320D01*
X14956Y171317D01*
X-69928Y77045D01*
X-108551Y-9705D01*
X-331919Y-843327D01*
X-341846Y-937767D01*
X-2719601Y-937767D01*
X-2726680Y-802714D01*
X-2728625Y-765594D01*
X-2748366Y-672714D01*
X-2811799Y-562845D01*
X-2811800Y-562843D01*
X-2817942Y-555258D01*
X-2816233Y-553874D01*
X-2817285Y-552166D01*
X-2828968Y-542547D01*
X-2835238Y-523027D01*
X-2845994Y-505568D01*
X-2846044Y-489382D01*
X-2850334Y-476024D01*
X-2846179Y-445276D01*
X-2846192Y-440974D01*
X-2845677Y-439038D01*
X-2812792Y-330337D01*
X-2810212Y-321025D01*
X-2809943Y-319957D01*
X-2809497Y-303270D01*
X-2805907Y-289799D01*
X-2805748Y-289206D01*
X-2805722Y-289163D01*
X-2805704Y-289043D01*
X-2799500Y-265892D01*
X-2799500Y-134108D01*
X-2833608Y-6814D01*
X-2899500Y107314D01*
X-2992686Y200500D01*
X-3052019Y234756D01*
X-3106813Y266392D01*
X-3170461Y283446D01*
X-3234108Y300500D01*
X-3365892Y300500D01*
X-3493188Y266392D01*
X-3607314Y200500D01*
X-3607317Y200498D01*
X-3700498Y107317D01*
X-3700500Y107314D01*
X-3766392Y-6812D01*
X-3767167Y-9705D01*
X-3800500Y-134108D01*
X-3800500Y-265892D01*
X-3766392Y-393186D01*
X-3766391Y-393189D01*
X-3764045Y-398853D01*
X-3756579Y-468322D01*
X-3786457Y-529273D01*
X-3866452Y-618116D01*
X-3866455Y-618121D01*
X-3918053Y-734013D01*
X-3927978Y-828444D01*
X-23139232Y-828444D01*
X-23149826Y-772801D01*
X-23150321Y-770031D01*
X-23640613Y2166377D01*
X-23640984Y2168751D01*
X-23687173Y2485708D01*
X-22874787Y2485708D01*
X-22872379Y2456071D01*
X-22872379Y2456069D01*
X-22754214Y1785919D01*
X-22754210Y1785901D01*
X-22746340Y1757247D01*
X-22746337Y1757240D01*
X-22706232Y1685733D01*
X-22681752Y1642085D01*
X-22586090Y1551078D01*
X-22467853Y1492312D01*
X-22337548Y1471007D01*
X-22307923Y1473413D01*
X-21736230Y1574217D01*
X-21707568Y1582089D01*
X-21592408Y1646677D01*
X-21501401Y1742338D01*
X-21451813Y1842110D01*
X-21437023Y1858087D01*
X-21426077Y1876915D01*
X-21413754Y1883223D01*
X-21404350Y1893380D01*
X-21383267Y1898826D01*
X-21363880Y1908747D01*
X-21346191Y1908401D01*
X-21336700Y1910852D01*
X-21328621Y1910322D01*
X-21320303Y1909503D01*
X-21316617Y1908602D01*
X-21316005Y1908461D01*
X-21308455Y1908337D01*
X-21303417Y1907840D01*
X-21300253Y1906563D01*
X-21283480Y1904213D01*
X-21265892Y1899500D01*
X-21265889Y1899500D01*
X-21134110Y1899500D01*
X-21134108Y1899500D01*
X-21006814Y1933608D01*
X-20892686Y1999500D01*
X-20799500Y2092686D01*
X-20733608Y2206814D01*
X-20699500Y2334108D01*
X-20699500Y2465892D01*
X-20733608Y2593186D01*
X-20736337Y2597912D01*
X-20744707Y2612410D01*
X-20799500Y2707314D01*
X-20892686Y2800500D01*
X-20982816Y2852537D01*
X-21006813Y2866392D01*
X-21070461Y2883446D01*
X-21134108Y2900500D01*
X-21265892Y2900500D01*
X-21393186Y2866392D01*
X-21393187Y2866392D01*
X-21471399Y2821236D01*
X-21539299Y2804764D01*
X-21605326Y2827617D01*
X-21618866Y2838784D01*
X-21690531Y2906962D01*
X-21710026Y2925508D01*
X-21828263Y2984274D01*
X-21828265Y2984275D01*
X-21958569Y3005580D01*
X-21983817Y3003529D01*
X-21988193Y3003173D01*
X-21988195Y3003173D01*
X-21988203Y3003172D01*
X-21988205Y3003172D01*
X-22559879Y2902371D01*
X-22559893Y2902368D01*
X-22588544Y2894499D01*
X-22703710Y2829908D01*
X-22794713Y2734252D01*
X-22794715Y2734249D01*
X-22853482Y2616010D01*
X-22874787Y2485708D01*
X-23687173Y2485708D01*
X-23938319Y4209122D01*
X-23178671Y4209122D01*
X-23176849Y4186692D01*
X-23176517Y4182605D01*
X-23176263Y4179485D01*
X-23176263Y4179483D01*
X-23058098Y3509333D01*
X-23058094Y3509315D01*
X-23050224Y3480661D01*
X-23050221Y3480654D01*
X-23000884Y3392687D01*
X-22985636Y3365499D01*
X-22889974Y3274492D01*
X-22771737Y3215726D01*
X-22641432Y3194421D01*
X-22611807Y3196827D01*
X-22040114Y3297631D01*
X-22011452Y3305503D01*
X-21896292Y3370091D01*
X-21805285Y3465752D01*
X-21746519Y3583989D01*
X-21746518Y3583993D01*
X-21743669Y3592834D01*
X-21740362Y3591769D01*
X-21717569Y3639304D01*
X-21658095Y3675973D01*
X-21593294Y3676137D01*
X-21578452Y3672160D01*
X-21578451Y3672160D01*
X-21446670Y3672160D01*
X-21446668Y3672160D01*
X-21319374Y3706268D01*
X-21205246Y3772160D01*
X-21112060Y3865346D01*
X-21046168Y3979474D01*
X-21012060Y4106768D01*
X-21012060Y4238552D01*
X-21046168Y4365846D01*
X-21112060Y4479974D01*
X-21205246Y4573160D01*
X-21262310Y4606106D01*
X-21319373Y4639052D01*
X-21383021Y4656106D01*
X-21446668Y4673160D01*
X-21578452Y4673160D01*
X-21705746Y4639052D01*
X-21705751Y4639050D01*
X-21802964Y4582926D01*
X-21809135Y4579592D01*
X-21817340Y4575455D01*
X-21886064Y4562849D01*
X-21950692Y4589400D01*
X-21958635Y4596337D01*
X-22013909Y4648921D01*
X-22013910Y4648922D01*
X-22132147Y4707688D01*
X-22132149Y4707689D01*
X-22262453Y4728994D01*
X-22287701Y4726943D01*
X-22292077Y4726587D01*
X-22292079Y4726587D01*
X-22292087Y4726586D01*
X-22292089Y4726586D01*
X-22863763Y4625785D01*
X-22863777Y4625782D01*
X-22892428Y4617913D01*
X-22892432Y4617912D01*
X-22892432Y4617911D01*
X-22966603Y4576312D01*
X-23007594Y4553322D01*
X-23098597Y4457666D01*
X-23098599Y4457663D01*
X-23157366Y4339424D01*
X-23178671Y4209122D01*
X-23938319Y4209122D01*
X-24058564Y5034270D01*
X-24059024Y5037780D01*
X-24685907Y10410299D01*
X-24686364Y10414982D01*
X-24709539Y10710692D01*
X-24729539Y10965892D01*
X3299500Y10965892D01*
X3299500Y10834108D01*
X3311137Y10790677D01*
X3333608Y10706813D01*
X3366554Y10649750D01*
X3399500Y10592686D01*
X3492686Y10499500D01*
X3606814Y10433608D01*
X3734108Y10399500D01*
X3734110Y10399500D01*
X3865890Y10399500D01*
X3865892Y10399500D01*
X3993186Y10433608D01*
X4107314Y10499500D01*
X4200500Y10592686D01*
X4211638Y10611978D01*
X4213290Y10614753D01*
X4219149Y10624303D01*
X4232570Y10639279D01*
X4268451Y10699917D01*
X4274398Y10710692D01*
X4275043Y10711948D01*
X4280417Y10723245D01*
X4281819Y10726441D01*
X4285790Y10732912D01*
X4307014Y10752093D01*
X4326078Y10773411D01*
X4332604Y10775218D01*
X4337629Y10779758D01*
X4365849Y10784418D01*
X4393416Y10792047D01*
X4405828Y10791020D01*
X4406565Y10791141D01*
X4407088Y10790915D01*
X4409948Y10790679D01*
X4536396Y10771619D01*
X4670683Y10791860D01*
X4793038Y10850783D01*
X4816575Y10870285D01*
X5529715Y11583425D01*
X5549217Y11606962D01*
X5608140Y11729317D01*
X5628381Y11863604D01*
X5608140Y11997892D01*
X5549217Y12120247D01*
X5529715Y12143784D01*
X5529713Y12143786D01*
X5529709Y12143791D01*
X4993358Y12680142D01*
X4978752Y12692244D01*
X4969815Y12699649D01*
X4847460Y12758572D01*
X4713172Y12778813D01*
X4578885Y12758572D01*
X4456531Y12699650D01*
X4432986Y12680142D01*
X3719858Y11967014D01*
X3700350Y11943469D01*
X3641428Y11821115D01*
X3621187Y11686828D01*
X3641428Y11552541D01*
X3641429Y11552537D01*
X3651920Y11530751D01*
X3652156Y11529313D01*
X3653109Y11528209D01*
X3657814Y11494948D01*
X3663271Y11461810D01*
X3662692Y11460473D01*
X3662897Y11459028D01*
X3648864Y11428485D01*
X3635547Y11397676D01*
X3634141Y11396436D01*
X3633729Y11395538D01*
X3623419Y11386974D01*
X3607003Y11372486D01*
X3604272Y11370741D01*
X3603334Y11370227D01*
X3539724Y11332799D01*
X3534712Y11329753D01*
X3534210Y11329438D01*
X3523564Y11319129D01*
X3513058Y11312410D01*
X3511541Y11311969D01*
X3508261Y11309494D01*
X3492686Y11300500D01*
X3492683Y11300498D01*
X3399500Y11207314D01*
X3333608Y11093188D01*
X3299500Y10965892D01*
X-24729539Y10965892D01*
X-24845914Y12450822D01*
X1814580Y12450822D01*
X1814580Y12319038D01*
X1822694Y12288755D01*
X1848688Y12191743D01*
X1876374Y12143791D01*
X1914580Y12077616D01*
X2007766Y11984430D01*
X2121894Y11918538D01*
X2249188Y11884430D01*
X2249190Y11884430D01*
X2380970Y11884430D01*
X2380972Y11884430D01*
X2508266Y11918538D01*
X2622394Y11984430D01*
X2715580Y12077616D01*
X2726700Y12096878D01*
X2729528Y12101533D01*
X2734963Y12110052D01*
X2747650Y12124209D01*
X2783531Y12184847D01*
X2788924Y12194620D01*
X2791039Y12197933D01*
X2814512Y12218407D01*
X2836629Y12240328D01*
X2840619Y12241178D01*
X2843694Y12243859D01*
X2874502Y12248392D01*
X2904967Y12254877D01*
X2909788Y12253583D01*
X2912820Y12254028D01*
X2919658Y12250932D01*
X2949376Y12242952D01*
X2952540Y12241428D01*
X3086828Y12221187D01*
X3221115Y12241428D01*
X3343470Y12300351D01*
X3367007Y12319853D01*
X4080147Y13032993D01*
X4099649Y13056530D01*
X4158572Y13178885D01*
X4178813Y13313172D01*
X4158572Y13447460D01*
X4099649Y13569815D01*
X4080147Y13593352D01*
X4080145Y13593354D01*
X4080141Y13593359D01*
X3543790Y14129710D01*
X3543784Y14129715D01*
X3520247Y14149217D01*
X3397892Y14208140D01*
X3263604Y14228381D01*
X3129317Y14208140D01*
X3006963Y14149218D01*
X2983418Y14129710D01*
X2270290Y13416582D01*
X2250782Y13393037D01*
X2191860Y13270683D01*
X2171619Y13136396D01*
X2193245Y12992920D01*
X2190405Y12992492D01*
X2190579Y12979555D01*
X2194233Y12951872D01*
X2191044Y12945101D01*
X2191146Y12937617D01*
X2176366Y12913922D01*
X2164472Y12888657D01*
X2156790Y12882538D01*
X2154169Y12878334D01*
X2137533Y12865856D01*
X2132436Y12862664D01*
X2131125Y12862051D01*
X2129825Y12861393D01*
X2118416Y12855157D01*
X2054802Y12817727D01*
X2049818Y12814699D01*
X2049319Y12814386D01*
X2038245Y12803664D01*
X2027184Y12796735D01*
X2025950Y12796389D01*
X2023366Y12794438D01*
X2007766Y12785431D01*
X1914580Y12692244D01*
X1848688Y12578118D01*
X1814580Y12450822D01*
X-24845914Y12450822D01*
X-25031545Y14819447D01*
X-24436504Y14819447D01*
X-24436503Y14819440D01*
X-24436503Y14819438D01*
X-24434667Y14793188D01*
X-24389032Y14140577D01*
X-24384201Y14111257D01*
X-24332006Y13989978D01*
X-24332004Y13989976D01*
X-24246379Y13889468D01*
X-24134933Y13818664D01*
X-24007568Y13783855D01*
X-23982536Y13783262D01*
X-23977863Y13783151D01*
X-23977862Y13783152D01*
X-23977854Y13783151D01*
X-23398756Y13823646D01*
X-23369428Y13828478D01*
X-23369427Y13828479D01*
X-23369425Y13828479D01*
X-23248150Y13880673D01*
X-23248150Y13880674D01*
X-23248148Y13880674D01*
X-23147640Y13966299D01*
X-23085109Y14064726D01*
X-23068618Y14079167D01*
X-23055637Y14096832D01*
X-23042850Y14101732D01*
X-23032546Y14110754D01*
X-23010862Y14113988D01*
X-22990392Y14121830D01*
X-22971485Y14119859D01*
X-22963440Y14121058D01*
X-22955167Y14119626D01*
X-22950134Y14118578D01*
X-22929176Y14112367D01*
X-22920393Y14109974D01*
X-22919388Y14109724D01*
X-22905990Y14109386D01*
X-22895033Y14107104D01*
X-22893400Y14106232D01*
X-22888217Y14105482D01*
X-22874365Y14101771D01*
X-22865892Y14099500D01*
X-22865891Y14099500D01*
X-22734110Y14099500D01*
X-22734108Y14099500D01*
X-22606814Y14133608D01*
X-22492686Y14199500D01*
X-22399500Y14292686D01*
X-22333608Y14406814D01*
X-22299500Y14534108D01*
X-22299500Y14665892D01*
X-22333608Y14793186D01*
X-22399500Y14907314D01*
X-22492686Y15000500D01*
X-22568525Y15044286D01*
X-22606813Y15066392D01*
X-22687319Y15087963D01*
X-22734108Y15100500D01*
X-22865892Y15100500D01*
X-22993186Y15066392D01*
X-22993187Y15066392D01*
X-23007276Y15058257D01*
X-23034583Y15051634D01*
X-23060956Y15041924D01*
X-23068084Y15043507D01*
X-23075176Y15041786D01*
X-23101729Y15050976D01*
X-23129165Y15057067D01*
X-23136406Y15062978D01*
X-23141203Y15064638D01*
X-23157329Y15078338D01*
X-23160627Y15081664D01*
X-23231447Y15164794D01*
X-23342893Y15235598D01*
X-23470258Y15270407D01*
X-23473900Y15270494D01*
X-23499964Y15271112D01*
X-23499971Y15271111D01*
X-23499972Y15271111D01*
X-23547051Y15267819D01*
X-24079067Y15230617D01*
X-24108402Y15225784D01*
X-24229677Y15173590D01*
X-24330188Y15087962D01*
X-24400989Y14976519D01*
X-24400990Y14976517D01*
X-24435798Y14849158D01*
X-24435799Y14849148D01*
X-24436504Y14819447D01*
X-25031545Y14819447D01*
X-25049168Y15044317D01*
X-25049478Y15049897D01*
X-25056785Y15273782D01*
X-1319810Y15273782D01*
X-1319810Y15141998D01*
X-1305331Y15087962D01*
X-1285702Y15014703D01*
X-1260827Y14971619D01*
X-1219810Y14900576D01*
X-1126624Y14807390D01*
X-1012496Y14741498D01*
X-885202Y14707390D01*
X-885200Y14707390D01*
X-753420Y14707390D01*
X-753418Y14707390D01*
X-626124Y14741498D01*
X-511996Y14807390D01*
X-418810Y14900576D01*
X-407697Y14919826D01*
X-403876Y14926013D01*
X-398818Y14933692D01*
X-386740Y14947169D01*
X-358541Y14994826D01*
X-356899Y14997317D01*
X-332433Y15018036D01*
X-308989Y15039914D01*
X-305943Y15040468D01*
X-303579Y15042469D01*
X-271783Y15046673D01*
X-240245Y15052402D01*
X-236505Y15051338D01*
X-234312Y15051627D01*
X-229393Y15049313D01*
X-199556Y15040819D01*
X-97892Y14991860D01*
X36396Y14971619D01*
X170683Y14991860D01*
X293038Y15050783D01*
X316575Y15070285D01*
X1029715Y15783425D01*
X1049217Y15806962D01*
X1108140Y15929317D01*
X1128381Y16063604D01*
X1108140Y16197892D01*
X1049217Y16320247D01*
X1029715Y16343784D01*
X1029713Y16343786D01*
X1029709Y16343791D01*
X493358Y16880142D01*
X478840Y16892171D01*
X469815Y16899649D01*
X347460Y16958572D01*
X213172Y16978813D01*
X78885Y16958572D01*
X-43469Y16899650D01*
X-67014Y16880142D01*
X-780142Y16167014D01*
X-799650Y16143469D01*
X-858572Y16021115D01*
X-878813Y15886828D01*
X-872137Y15842535D01*
X-875128Y15820684D01*
X-873372Y15798700D01*
X-879772Y15786746D01*
X-881610Y15773311D01*
X-895940Y15756546D01*
X-906348Y15737102D01*
X-921282Y15726895D01*
X-927005Y15720197D01*
X-934426Y15715718D01*
X-939998Y15712616D01*
X-991526Y15690495D01*
X-1003265Y15685011D01*
X-1004565Y15684353D01*
X-1015974Y15678117D01*
X-1079588Y15640687D01*
X-1084572Y15637659D01*
X-1085071Y15637346D01*
X-1097771Y15625049D01*
X-1111765Y15616970D01*
X-1111848Y15616923D01*
X-1126624Y15608391D01*
X-1219810Y15515204D01*
X-1285702Y15401078D01*
X-1319810Y15273782D01*
X-25056785Y15273782D01*
X-25098932Y16565185D01*
X-24558578Y16565185D01*
X-24558577Y16565178D01*
X-24558577Y16565176D01*
X-24549924Y16441429D01*
X-24511106Y15886315D01*
X-24506275Y15856995D01*
X-24454080Y15735716D01*
X-24440859Y15720197D01*
X-24368453Y15635206D01*
X-24257007Y15564402D01*
X-24129642Y15529593D01*
X-24104610Y15529000D01*
X-24099937Y15528889D01*
X-24099936Y15528890D01*
X-24099928Y15528889D01*
X-23520830Y15569384D01*
X-23491502Y15574216D01*
X-23491501Y15574217D01*
X-23491499Y15574217D01*
X-23370224Y15626411D01*
X-23370224Y15626412D01*
X-23370222Y15626412D01*
X-23269714Y15712037D01*
X-23198911Y15823483D01*
X-23198911Y15823487D01*
X-23195155Y15831977D01*
X-23193328Y15831169D01*
X-23181022Y15850109D01*
X-23163436Y15878643D01*
X-23162048Y15879310D01*
X-23161208Y15880601D01*
X-23130661Y15894367D01*
X-23100440Y15908864D01*
X-23098458Y15908878D01*
X-23097507Y15909306D01*
X-23091594Y15908926D01*
X-23062214Y15909129D01*
X-23054929Y15908045D01*
X-23054736Y15907987D01*
X-23045953Y15905594D01*
X-23044948Y15905344D01*
X-23035130Y15905096D01*
X-23027609Y15903976D01*
X-23024860Y15902704D01*
X-23013777Y15901102D01*
X-22999925Y15897391D01*
X-22991452Y15895120D01*
X-22991451Y15895120D01*
X-22859670Y15895120D01*
X-22859668Y15895120D01*
X-22732374Y15929228D01*
X-22618246Y15995120D01*
X-22525060Y16088306D01*
X-22459168Y16202434D01*
X-22425060Y16329728D01*
X-22425060Y16461512D01*
X-22447854Y16546582D01*
X-2636720Y16546582D01*
X-2636720Y16414798D01*
X-2627978Y16382173D01*
X-2602612Y16287503D01*
X-2598632Y16280610D01*
X-2536720Y16173376D01*
X-2443534Y16080190D01*
X-2329406Y16014298D01*
X-2202112Y15980190D01*
X-2202110Y15980190D01*
X-2070330Y15980190D01*
X-2070328Y15980190D01*
X-1943034Y16014298D01*
X-1828906Y16080190D01*
X-1735720Y16173376D01*
X-1718182Y16203753D01*
X-1703649Y16219971D01*
X-1667768Y16280610D01*
X-1661822Y16291383D01*
X-1661177Y16292639D01*
X-1655804Y16303933D01*
X-1628905Y16365227D01*
X-1628544Y16366148D01*
X-1625569Y16371520D01*
X-1604618Y16392225D01*
X-1585671Y16414758D01*
X-1580056Y16416498D01*
X-1575872Y16420632D01*
X-1547056Y16426723D01*
X-1518932Y16435436D01*
X-1508999Y16434766D01*
X-1507512Y16435080D01*
X-1506186Y16434577D01*
X-1498613Y16434066D01*
X-1413172Y16421187D01*
X-1278885Y16441428D01*
X-1156530Y16500351D01*
X-1132993Y16519853D01*
X-419853Y17232993D01*
X-400351Y17256530D01*
X-341428Y17378885D01*
X-321187Y17513172D01*
X-341428Y17647460D01*
X-400351Y17769815D01*
X-419853Y17793352D01*
X-419855Y17793354D01*
X-419859Y17793359D01*
X-956210Y18329710D01*
X-956216Y18329715D01*
X-979753Y18349217D01*
X-1102108Y18408140D01*
X-1236396Y18428381D01*
X-1370683Y18408140D01*
X-1493037Y18349218D01*
X-1516582Y18329710D01*
X-2229710Y17616582D01*
X-2249218Y17593037D01*
X-2308140Y17470683D01*
X-2328381Y17336396D01*
X-2308140Y17202109D01*
X-2308140Y17202106D01*
X-2268640Y17120084D01*
X-2268310Y17118080D01*
X-2266996Y17116528D01*
X-2262657Y17083746D01*
X-2257288Y17051143D01*
X-2258094Y17049279D01*
X-2257827Y17047263D01*
X-2271896Y17017349D01*
X-2285010Y16987008D01*
X-2286971Y16985294D01*
X-2287562Y16984036D01*
X-2297111Y16976426D01*
X-2314493Y16961223D01*
X-2319235Y16958251D01*
X-2320175Y16957811D01*
X-2321475Y16957153D01*
X-2332884Y16950917D01*
X-2396498Y16913487D01*
X-2401482Y16910459D01*
X-2401981Y16910146D01*
X-2413038Y16899441D01*
X-2424074Y16892521D01*
X-2425321Y16892171D01*
X-2427934Y16890198D01*
X-2443534Y16881191D01*
X-2536720Y16788004D01*
X-2602612Y16673878D01*
X-2623776Y16594890D01*
X-2636720Y16546582D01*
X-22447854Y16546582D01*
X-22459168Y16588806D01*
X-22525060Y16702934D01*
X-22618246Y16796120D01*
X-22692135Y16838780D01*
X-22732373Y16862012D01*
X-22837567Y16890198D01*
X-22859668Y16896120D01*
X-22991452Y16896120D01*
X-23118746Y16862012D01*
X-23158986Y16838780D01*
X-23226887Y16822310D01*
X-23292913Y16845163D01*
X-23315373Y16865753D01*
X-23353521Y16910532D01*
X-23353522Y16910533D01*
X-23464965Y16981335D01*
X-23464967Y16981336D01*
X-23592325Y17016143D01*
X-23592332Y17016145D01*
X-23595974Y17016232D01*
X-23622038Y17016850D01*
X-23622045Y17016849D01*
X-23622046Y17016849D01*
X-23669125Y17013557D01*
X-24201141Y16976355D01*
X-24230476Y16971522D01*
X-24351751Y16919328D01*
X-24452262Y16833700D01*
X-24523063Y16722257D01*
X-24523064Y16722255D01*
X-24557872Y16594896D01*
X-24557873Y16594886D01*
X-24558578Y16565185D01*
X-25098932Y16565185D01*
X-25166337Y18630515D01*
X-25166392Y18636121D01*
X-25149241Y19958900D01*
X-25149151Y19962215D01*
X-25095968Y21266614D01*
X-25095753Y21270433D01*
X-25091417Y21330745D01*
X-25004198Y22543948D01*
X-25003821Y22548163D01*
X-24871573Y23781423D01*
X-24870945Y23786342D01*
X-24869639Y23795160D01*
X-24695439Y24972068D01*
X-24694751Y24976222D01*
X-24651082Y25214816D01*
X-24590671Y25544883D01*
X-24590094Y25547825D01*
X-24474156Y26102318D01*
X-24473445Y26105503D01*
X-24345712Y26642954D01*
X-24344831Y26646428D01*
X-24205124Y27165444D01*
X-24204025Y27169279D01*
X-24182680Y27239461D01*
X-24052101Y27668807D01*
X-24050777Y27672898D01*
X-23886448Y28151742D01*
X-23884825Y28156188D01*
X-23786029Y28411408D01*
X-20216500Y28411408D01*
X-20216500Y28248593D01*
X-20184741Y28088927D01*
X-20184738Y28088918D01*
X-20122438Y27938510D01*
X-20122437Y27938508D01*
X-20031985Y27803138D01*
X-20031982Y27803134D01*
X-19916867Y27688019D01*
X-19916863Y27688016D01*
X-19781495Y27597565D01*
X-19781494Y27597565D01*
X-19781493Y27597564D01*
X-19781491Y27597563D01*
X-19681219Y27556030D01*
X-19631081Y27535262D01*
X-19631079Y27535262D01*
X-19631074Y27535260D01*
X-19471408Y27503501D01*
X-19471405Y27503500D01*
X-19471403Y27503500D01*
X-19308595Y27503500D01*
X-19308594Y27503501D01*
X-19255371Y27514088D01*
X-19148927Y27535260D01*
X-19148924Y27535262D01*
X-19148919Y27535262D01*
X-18998505Y27597565D01*
X-18863137Y27688016D01*
X-18748016Y27803137D01*
X-18657565Y27938505D01*
X-18595262Y28088919D01*
X-18590674Y28111981D01*
X-18563501Y28248593D01*
X-18563500Y28248595D01*
X-18563500Y28411406D01*
X-18563501Y28411408D01*
X-18595260Y28571074D01*
X-18595263Y28571083D01*
X-18657563Y28721491D01*
X-18657565Y28721494D01*
X-18657565Y28721495D01*
X-18680222Y28755403D01*
X-18701100Y28822078D01*
X-18682616Y28889458D01*
X-18630638Y28936149D01*
X-18609219Y28944066D01*
X-18580174Y28951848D01*
X-18466046Y29017740D01*
X-18372860Y29110926D01*
X-18306968Y29225054D01*
X-18279840Y29326299D01*
X-18273914Y29343246D01*
X-18264319Y29411314D01*
X-18262924Y29424087D01*
X-18262810Y29425555D01*
X-18262213Y29438566D01*
X-18262026Y29451874D01*
X-18260748Y29460269D01*
X-18253668Y29475443D01*
X-17347437Y29475443D01*
X-17309028Y29345183D01*
X-17233935Y29232037D01*
X-17233932Y29232033D01*
X-17199268Y29203675D01*
X-17194034Y29196016D01*
X-17186108Y29191195D01*
X-17174635Y29167632D01*
X-17159844Y29145991D01*
X-17159582Y29136718D01*
X-17155520Y29128377D01*
X-17158608Y29102349D01*
X-17157865Y29076149D01*
X-17162876Y29066365D01*
X-17163750Y29058994D01*
X-17182092Y29028840D01*
X-17192896Y29015730D01*
X-17200301Y29007575D01*
X-17202807Y29004309D01*
X-17206066Y28999356D01*
X-17206712Y28998489D01*
X-17206716Y28998483D01*
X-17207910Y28995809D01*
X-17213736Y28984393D01*
X-17266390Y28893191D01*
X-17266392Y28893186D01*
X-17300500Y28765892D01*
X-17300500Y28634108D01*
X-17290193Y28595640D01*
X-17266392Y28506813D01*
X-17240668Y28462259D01*
X-17200500Y28392686D01*
X-17107314Y28299500D01*
X-16993186Y28233608D01*
X-16865892Y28199500D01*
X-16865890Y28199500D01*
X-16734110Y28199500D01*
X-16734108Y28199500D01*
X-16606814Y28233608D01*
X-16492686Y28299500D01*
X-16399500Y28392686D01*
X-16333608Y28506814D01*
X-16306480Y28608060D01*
X-16300553Y28625009D01*
X-16290959Y28693076D01*
X-16289565Y28705847D01*
X-16289451Y28707315D01*
X-16288855Y28720323D01*
X-16288280Y28761032D01*
X-16287357Y28768121D01*
X-16276039Y28793808D01*
X-16267753Y28820620D01*
X-16262142Y28825346D01*
X-16259184Y28832058D01*
X-16235779Y28847546D01*
X-16214309Y28865625D01*
X-16201229Y28870408D01*
X-16200915Y28870615D01*
X-16200652Y28870619D01*
X-16199478Y28871048D01*
X-16092784Y28902507D01*
X-15979632Y28977604D01*
X-15893643Y29082716D01*
X-15880553Y29110337D01*
X-15535614Y30058047D01*
X-15527887Y30087621D01*
X-15526194Y30223414D01*
X-15526195Y30223415D01*
X-15526194Y30223416D01*
X-15552426Y30312379D01*
X-15564602Y30353674D01*
X-15564603Y30353676D01*
X-15639696Y30466822D01*
X-15639698Y30466824D01*
X-15639699Y30466826D01*
X-15697514Y30514123D01*
X-15744810Y30552815D01*
X-15744814Y30552817D01*
X-15772424Y30565903D01*
X-15772434Y30565907D01*
X-16485222Y30825340D01*
X-16485229Y30825342D01*
X-16514796Y30833067D01*
X-16514791Y30833067D01*
X-16650588Y30834760D01*
X-16780848Y30796351D01*
X-16893994Y30721258D01*
X-16893997Y30721256D01*
X-16893998Y30721254D01*
X-16962790Y30637165D01*
X-16979988Y30616141D01*
X-16979989Y30616140D01*
X-16993074Y30588529D01*
X-16993077Y30588522D01*
X-16993077Y30588521D01*
X-17324208Y29678746D01*
X-17338019Y29640802D01*
X-17345744Y29611237D01*
X-17347437Y29475443D01*
X-18253668Y29475443D01*
X-18249426Y29484535D01*
X-18241523Y29510116D01*
X-18234879Y29515713D01*
X-18231205Y29523585D01*
X-18208564Y29537876D01*
X-18188082Y29555126D01*
X-18175670Y29558638D01*
X-18172120Y29560878D01*
X-18167874Y29560844D01*
X-18155100Y29564457D01*
X-18149417Y29565242D01*
X-18149414Y29565241D01*
X-18149413Y29565242D01*
X-18149409Y29565242D01*
X-18076856Y29586635D01*
X-18064424Y29590301D01*
X-18019154Y29603649D01*
X-17906002Y29678746D01*
X-17820013Y29783858D01*
X-17806923Y29811479D01*
X-17461984Y30759189D01*
X-17454257Y30788763D01*
X-17452564Y30924556D01*
X-17452565Y30924557D01*
X-17452564Y30924558D01*
X-17478404Y31012192D01*
X-17490972Y31054816D01*
X-17490973Y31054818D01*
X-17566066Y31167964D01*
X-17566068Y31167966D01*
X-17566069Y31167968D01*
X-17623884Y31215265D01*
X-17671180Y31253957D01*
X-17671184Y31253959D01*
X-17698794Y31267045D01*
X-17698804Y31267049D01*
X-18411592Y31526482D01*
X-18411599Y31526484D01*
X-18441166Y31534209D01*
X-18441161Y31534209D01*
X-18576958Y31535902D01*
X-18707218Y31497493D01*
X-18820364Y31422400D01*
X-18820367Y31422398D01*
X-18820368Y31422396D01*
X-18872857Y31358234D01*
X-18906358Y31317283D01*
X-18906359Y31317282D01*
X-18919444Y31289671D01*
X-18919447Y31289664D01*
X-18919447Y31289663D01*
X-19214974Y30477709D01*
X-19264389Y30341944D01*
X-19272114Y30312379D01*
X-19273807Y30176585D01*
X-19235398Y30046325D01*
X-19160305Y29933179D01*
X-19160303Y29933177D01*
X-19160301Y29933174D01*
X-19160299Y29933173D01*
X-19154069Y29926288D01*
X-19154729Y29925692D01*
X-19148958Y29922181D01*
X-19137485Y29898615D01*
X-19122697Y29876978D01*
X-19122435Y29867705D01*
X-19118372Y29859361D01*
X-19121461Y29833335D01*
X-19120718Y29807136D01*
X-19125731Y29797349D01*
X-19126605Y29789978D01*
X-19144947Y29759825D01*
X-19166258Y29733967D01*
X-19173662Y29725813D01*
X-19176166Y29722550D01*
X-19179409Y29717619D01*
X-19180088Y29716708D01*
X-19180098Y29716691D01*
X-19181301Y29713996D01*
X-19187132Y29702569D01*
X-19239752Y29611427D01*
X-19239752Y29611426D01*
X-19273860Y29484132D01*
X-19273860Y29352348D01*
X-19263208Y29312591D01*
X-19264870Y29242744D01*
X-19304032Y29184882D01*
X-19368260Y29157377D01*
X-19382982Y29156500D01*
X-19471406Y29156500D01*
X-19631074Y29124741D01*
X-19631083Y29124738D01*
X-19781491Y29062438D01*
X-19781493Y29062437D01*
X-19916863Y28971985D01*
X-19916867Y28971982D01*
X-20031982Y28856867D01*
X-20031985Y28856863D01*
X-20122437Y28721493D01*
X-20122438Y28721491D01*
X-20184738Y28571083D01*
X-20184741Y28571074D01*
X-20216500Y28411408D01*
X-23786029Y28411408D01*
X-23707961Y28613080D01*
X-23705963Y28617931D01*
X-23673130Y28693076D01*
X-23516426Y29051732D01*
X-23514007Y29056933D01*
X-23311680Y29466523D01*
X-23308720Y29472145D01*
X-23093586Y29856320D01*
X-23090003Y29862312D01*
X-22862041Y30220004D01*
X-22857693Y30226377D01*
X-22616893Y30556607D01*
X-22611676Y30563268D01*
X-22358057Y30865109D01*
X-22351836Y30871973D01*
X-22085366Y31144657D01*
X-22078056Y31151552D01*
X-21798638Y31394414D01*
X-21790180Y31401141D01*
X-21497499Y31613703D01*
X-21487931Y31619996D01*
X-21181551Y31801779D01*
X-21170984Y31807376D01*
X-20850127Y31957961D01*
X-20838776Y31962617D01*
X-20502434Y32081454D01*
X-20490626Y32084975D01*
X-20137647Y32171295D01*
X-20125677Y32173604D01*
X-19754879Y32226370D01*
X-19743113Y32227475D01*
X-19360235Y32245084D01*
X-19343678Y32244738D01*
G37*
%TD.AperFunction*%
%TD*%
%TA.AperFunction,Conductor*%
%TO.N,Net-(D3-K)*%
G36*
X-16158092Y-18353595D02*
G01*
X-16118275Y-18396731D01*
X-16118276Y-18396731D01*
X-16079267Y-18427639D01*
X-16062851Y-18440646D01*
X-15994276Y-18479810D01*
X-15921554Y-18508431D01*
X-15838921Y-18528631D01*
X-15756691Y-18537731D01*
X-15635270Y-18528631D01*
X-15604884Y-18526354D01*
X-15604881Y-18526353D01*
X-15604875Y-18526353D01*
X-15509215Y-18491732D01*
X-15500269Y-18492139D01*
X-15495100Y-18496884D01*
X-15404995Y-18652956D01*
X-15403827Y-18661834D01*
X-15407758Y-18667893D01*
X-15508715Y-18749774D01*
X-15508718Y-18749777D01*
X-15607536Y-18875883D01*
X-15666435Y-19000405D01*
X-15685486Y-19111261D01*
X-15685486Y-19111262D01*
X-15685486Y-19111264D01*
X-15678850Y-19149947D01*
X-15671549Y-19192507D01*
X-15673528Y-19201240D01*
X-15681103Y-19206017D01*
X-15684838Y-19206052D01*
X-16448895Y-19090020D01*
X-16456560Y-19085390D01*
X-16458705Y-19076696D01*
X-16458036Y-19074196D01*
X-16177581Y-18357269D01*
X-16171377Y-18350814D01*
X-16162424Y-18350637D01*
X-16158092Y-18353595D01*
G37*
%TD.AperFunction*%
%TD*%
%TA.AperFunction,Conductor*%
%TO.N,Net-(D2-K)*%
G36*
X-12268792Y-22042278D02*
G01*
X-12131604Y-22157393D01*
X-12127470Y-22165336D01*
X-12129536Y-22173060D01*
X-12156956Y-22212278D01*
X-12190223Y-22279588D01*
X-12190227Y-22279598D01*
X-12217218Y-22358179D01*
X-12217221Y-22358193D01*
X-12244300Y-22522252D01*
X-12235618Y-22673286D01*
X-12195595Y-22800035D01*
X-12137317Y-22886708D01*
X-12135544Y-22895485D01*
X-12140498Y-22902945D01*
X-12144720Y-22904707D01*
X-12902734Y-23057067D01*
X-12911521Y-23055337D01*
X-12916511Y-23047902D01*
X-12916684Y-23046729D01*
X-12988359Y-22300068D01*
X-12985739Y-22291508D01*
X-12977831Y-22287307D01*
X-12973808Y-22287619D01*
X-12902186Y-22305995D01*
X-12840176Y-22307995D01*
X-12826174Y-22308447D01*
X-12826173Y-22308446D01*
X-12826167Y-22308447D01*
X-12747716Y-22298761D01*
X-12652917Y-22273695D01*
X-12560469Y-22236982D01*
X-12467370Y-22188177D01*
X-12467369Y-22188177D01*
X-12467367Y-22188175D01*
X-12467360Y-22188172D01*
X-12384631Y-22133554D01*
X-12284165Y-22042568D01*
X-12275734Y-22039555D01*
X-12268792Y-22042278D01*
G37*
%TD.AperFunction*%
%TD*%
%TA.AperFunction,Conductor*%
%TO.N,Net-(D1-K)*%
G36*
X-11228839Y-21166311D02*
G01*
X-11182637Y-21237927D01*
X-11128448Y-21295975D01*
X-11062355Y-21351443D01*
X-10913862Y-21439512D01*
X-10913861Y-21439512D01*
X-10913860Y-21439513D01*
X-10762269Y-21489849D01*
X-10648135Y-21499533D01*
X-10619602Y-21501955D01*
X-10619602Y-21501954D01*
X-10619601Y-21501955D01*
X-10506811Y-21481314D01*
X-10498057Y-21483196D01*
X-10493197Y-21490717D01*
X-10493336Y-21495581D01*
X-10675487Y-22246487D01*
X-10680767Y-22253719D01*
X-10689615Y-22255099D01*
X-10690766Y-22254757D01*
X-11397807Y-22004147D01*
X-11404460Y-21998153D01*
X-11404926Y-21989210D01*
X-11402972Y-21985732D01*
X-11386343Y-21965323D01*
X-11356906Y-21908384D01*
X-11337253Y-21842253D01*
X-11324673Y-21747164D01*
X-11324407Y-21645607D01*
X-11336971Y-21523727D01*
X-11359994Y-21407995D01*
X-11412304Y-21252170D01*
X-11411688Y-21243239D01*
X-11406159Y-21237846D01*
X-11243614Y-21162049D01*
X-11234669Y-21161660D01*
X-11228839Y-21166311D01*
G37*
%TD.AperFunction*%
%TD*%
%TA.AperFunction,Conductor*%
%TO.N,VCC3V3*%
G36*
X-5210964Y-5455651D02*
G01*
X-5149924Y-5508029D01*
X-5149923Y-5508029D01*
X-5149921Y-5508031D01*
X-5094723Y-5535423D01*
X-5094721Y-5535423D01*
X-5094718Y-5535425D01*
X-5052990Y-5546971D01*
X-5038523Y-5550975D01*
X-5038521Y-5550976D01*
X-5038518Y-5550976D01*
X-5038515Y-5550977D01*
X-4976561Y-5556182D01*
X-4918757Y-5550417D01*
X-4838607Y-5519725D01*
X-4829657Y-5519966D01*
X-4824637Y-5524239D01*
X-4726115Y-5674615D01*
X-4724448Y-5683413D01*
X-4728726Y-5690268D01*
X-4739753Y-5698831D01*
X-4768321Y-5732821D01*
X-4789442Y-5775501D01*
X-4803577Y-5830737D01*
X-4808094Y-5894034D01*
X-4808094Y-5894035D01*
X-4802160Y-5966998D01*
X-4802159Y-5967006D01*
X-4784941Y-6046132D01*
X-4756175Y-6129617D01*
X-4756173Y-6129622D01*
X-4723397Y-6199465D01*
X-4722985Y-6208410D01*
X-4729018Y-6215027D01*
X-4734329Y-6216130D01*
X-5499618Y-6193886D01*
X-5507788Y-6190220D01*
X-5510973Y-6181851D01*
X-5510175Y-6177932D01*
X-5229479Y-5460267D01*
X-5223274Y-5453812D01*
X-5214321Y-5453634D01*
X-5210964Y-5455651D01*
G37*
%TD.AperFunction*%
%TD*%
%TA.AperFunction,Conductor*%
%TO.N,VCC3V3*%
G36*
X-5014684Y-5439841D02*
G01*
X-5013978Y-5440274D01*
X-4778238Y-5596748D01*
X-4773240Y-5604178D01*
X-4773226Y-5604249D01*
X-4718834Y-5882172D01*
X-4720608Y-5890949D01*
X-4728069Y-5895901D01*
X-4728638Y-5895998D01*
X-4834038Y-5911272D01*
X-4835097Y-5911377D01*
X-4923919Y-5916086D01*
X-4924101Y-5916094D01*
X-4960825Y-5917465D01*
X-5070679Y-5935345D01*
X-5070682Y-5935346D01*
X-5138414Y-5963401D01*
X-5138434Y-5963411D01*
X-5212030Y-6006544D01*
X-5220900Y-6007771D01*
X-5227733Y-6002862D01*
X-5325169Y-5854143D01*
X-5326836Y-5845345D01*
X-5322322Y-5838312D01*
X-5245101Y-5781430D01*
X-5189547Y-5725062D01*
X-5152508Y-5669477D01*
X-5121916Y-5608382D01*
X-5113257Y-5590253D01*
X-5112884Y-5589539D01*
X-5030629Y-5444258D01*
X-5023571Y-5438747D01*
X-5014684Y-5439841D01*
G37*
%TD.AperFunction*%
%TD*%
%TA.AperFunction,Conductor*%
%TO.N,VCC3V3*%
G36*
X-23547848Y16778038D02*
G01*
X-23543355Y16773195D01*
X-23533787Y16753971D01*
X-23529115Y16744583D01*
X-23488384Y16692480D01*
X-23488382Y16692479D01*
X-23488381Y16692477D01*
X-23436859Y16646625D01*
X-23436854Y16646622D01*
X-23436850Y16646618D01*
X-23361343Y16598201D01*
X-23277471Y16559189D01*
X-23277470Y16559189D01*
X-23277464Y16559186D01*
X-23177967Y16526131D01*
X-23177965Y16526131D01*
X-23177963Y16526130D01*
X-23080381Y16504825D01*
X-22942749Y16496029D01*
X-22934711Y16492082D01*
X-22931824Y16485169D01*
X-22919363Y16306999D01*
X-22922204Y16298507D01*
X-22929670Y16294563D01*
X-22947090Y16292519D01*
X-23016633Y16275480D01*
X-23092391Y16245805D01*
X-23230985Y16162432D01*
X-23230989Y16162429D01*
X-23334097Y16063179D01*
X-23334100Y16063175D01*
X-23397035Y15958723D01*
X-23417466Y15871397D01*
X-23422687Y15864122D01*
X-23431523Y15862670D01*
X-23436952Y15865613D01*
X-23534143Y15958723D01*
X-23855268Y16266366D01*
X-23858870Y16274563D01*
X-23857230Y16280794D01*
X-23563883Y16773965D01*
X-23556710Y16779322D01*
X-23547848Y16778038D01*
G37*
%TD.AperFunction*%
%TD*%
%TA.AperFunction,Conductor*%
%TO.N,VCC3V3*%
G36*
X-23085704Y16635349D02*
G01*
X-23085564Y16635145D01*
X-22961888Y16451202D01*
X-22927291Y16399747D01*
X-22925518Y16390970D01*
X-22925532Y16390900D01*
X-22981553Y16113916D01*
X-22986552Y16106486D01*
X-22995340Y16104767D01*
X-22996345Y16105017D01*
X-23122491Y16142401D01*
X-23124381Y16143145D01*
X-23218176Y16189839D01*
X-23218511Y16190013D01*
X-23255698Y16210047D01*
X-23255707Y16210052D01*
X-23357549Y16247322D01*
X-23357546Y16247322D01*
X-23402765Y16252898D01*
X-23425372Y16255686D01*
X-23425374Y16255686D01*
X-23501011Y16254528D01*
X-23509336Y16257828D01*
X-23512861Y16265411D01*
X-23525261Y16442710D01*
X-23522420Y16451202D01*
X-23514928Y16455149D01*
X-23410922Y16467116D01*
X-23330705Y16489277D01*
X-23265801Y16523171D01*
X-23196621Y16571617D01*
X-23102002Y16638187D01*
X-23093267Y16640144D01*
X-23085704Y16635349D01*
G37*
%TD.AperFunction*%
%TD*%
%TA.AperFunction,Conductor*%
%TO.N,VCC3V3*%
G36*
X4275859Y1553040D02*
G01*
X4324600Y1537516D01*
X4374098Y1521750D01*
X4535825Y1486146D01*
X4535826Y1486146D01*
X4535835Y1486144D01*
X4699045Y1450480D01*
X4699808Y1450284D01*
X4837761Y1409738D01*
X4844732Y1404117D01*
X4845687Y1395214D01*
X4845286Y1394072D01*
X4778202Y1230553D01*
X4771892Y1224200D01*
X4764368Y1223688D01*
X4730566Y1232686D01*
X4730560Y1232687D01*
X4682789Y1233220D01*
X4632997Y1222558D01*
X4632988Y1222555D01*
X4578149Y1198928D01*
X4578145Y1198927D01*
X4578143Y1198925D01*
X4578140Y1198923D01*
X4523260Y1163144D01*
X4523251Y1163137D01*
X4467938Y1114043D01*
X4467938Y1114042D01*
X4415155Y1053011D01*
X4366745Y981424D01*
X4323348Y899116D01*
X4323345Y899108D01*
X4264736Y729706D01*
X4258792Y723008D01*
X4249854Y722474D01*
X4245084Y725593D01*
X4241285Y729706D01*
X3965784Y1028004D01*
X3962689Y1036405D01*
X3964297Y1041877D01*
X4262228Y1547829D01*
X4269379Y1553218D01*
X4275859Y1553040D01*
G37*
%TD.AperFunction*%
%TD*%
%TA.AperFunction,Conductor*%
%TO.N,VCC3V3*%
G36*
X4734194Y1461482D02*
G01*
X4811155Y1450867D01*
X4876538Y1454457D01*
X4876544Y1454458D01*
X4937648Y1465460D01*
X4938042Y1465523D01*
X5056636Y1482246D01*
X5058483Y1482358D01*
X5125320Y1481004D01*
X5126712Y1480890D01*
X5196331Y1470974D01*
X5204037Y1466415D01*
X5206263Y1457741D01*
X5206163Y1457146D01*
X5151379Y1176944D01*
X5149603Y1172657D01*
X4990219Y935799D01*
X4982757Y930848D01*
X4973980Y932624D01*
X4973471Y932987D01*
X4969739Y935799D01*
X4914821Y977182D01*
X4913710Y978133D01*
X4864253Y1026171D01*
X4863071Y1027510D01*
X4795162Y1117369D01*
X4794882Y1117756D01*
X4767932Y1156619D01*
X4767930Y1156622D01*
X4767928Y1156624D01*
X4693368Y1235150D01*
X4693365Y1235152D01*
X4693361Y1235155D01*
X4637617Y1272028D01*
X4637611Y1272032D01*
X4572252Y1303261D01*
X4566264Y1309920D01*
X4566472Y1318259D01*
X4622349Y1454458D01*
X4634052Y1482987D01*
X4640362Y1489339D01*
X4648532Y1489659D01*
X4734194Y1461482D01*
G37*
%TD.AperFunction*%
%TD*%
%TA.AperFunction,Conductor*%
%TO.N,VCC3V3*%
G36*
X22653853Y-5715220D02*
G01*
X22655032Y-5716597D01*
X22687061Y-5760500D01*
X22741223Y-5815009D01*
X22810172Y-5869089D01*
X22810182Y-5869095D01*
X22889909Y-5918572D01*
X22889911Y-5918573D01*
X22889916Y-5918576D01*
X23060211Y-5991489D01*
X23227090Y-6025807D01*
X23379059Y-6022817D01*
X23496756Y-5990095D01*
X23505644Y-5991180D01*
X23511161Y-5998233D01*
X23511530Y-6002543D01*
X23434765Y-6762296D01*
X23430524Y-6770183D01*
X23421948Y-6772761D01*
X23420375Y-6772493D01*
X22734510Y-6606718D01*
X22727274Y-6601443D01*
X22725886Y-6592596D01*
X22725953Y-6592333D01*
X22735589Y-6556172D01*
X22737534Y-6478353D01*
X22724783Y-6389014D01*
X22686170Y-6247237D01*
X22632135Y-6103492D01*
X22566394Y-5959750D01*
X22509688Y-5854641D01*
X22508777Y-5845734D01*
X22511711Y-5840816D01*
X22637308Y-5715219D01*
X22645580Y-5711793D01*
X22653853Y-5715220D01*
G37*
%TD.AperFunction*%
%TD*%
%TA.AperFunction,Conductor*%
%TO.N,VCC3V3*%
G36*
X22990324Y-5845730D02*
G01*
X22995275Y-5853192D01*
X22995441Y-5854347D01*
X23008253Y-5991210D01*
X23008239Y-5993534D01*
X22996768Y-6101708D01*
X22996714Y-6102136D01*
X22990353Y-6146449D01*
X22991015Y-6254710D01*
X23006637Y-6320347D01*
X23033470Y-6389115D01*
X23033285Y-6398068D01*
X23027422Y-6404015D01*
X22865392Y-6477856D01*
X22856443Y-6478168D01*
X22850279Y-6472831D01*
X22843106Y-6459740D01*
X22806882Y-6393626D01*
X22757429Y-6333105D01*
X22706641Y-6290919D01*
X22706640Y-6290918D01*
X22706636Y-6290915D01*
X22654259Y-6257342D01*
X22653802Y-6257033D01*
X22547927Y-6181509D01*
X22546328Y-6180133D01*
X22500447Y-6132818D01*
X22499497Y-6131708D01*
X22457975Y-6076526D01*
X22455739Y-6067855D01*
X22460289Y-6060142D01*
X22460771Y-6059798D01*
X22697626Y-5900409D01*
X22701903Y-5898637D01*
X22981547Y-5843954D01*
X22990324Y-5845730D01*
G37*
%TD.AperFunction*%
%TD*%
%TA.AperFunction,Conductor*%
%TO.N,VCC3V3*%
G36*
X22602100Y-5063606D02*
G01*
X22606193Y-5071571D01*
X22604779Y-5078176D01*
X22578187Y-5126430D01*
X22578186Y-5126431D01*
X22559469Y-5184282D01*
X22549249Y-5259035D01*
X22550877Y-5337430D01*
X22550879Y-5337449D01*
X22566082Y-5433248D01*
X22566083Y-5433250D01*
X22593018Y-5527668D01*
X22593019Y-5527670D01*
X22631238Y-5622347D01*
X22675992Y-5707049D01*
X22725348Y-5772834D01*
X22744357Y-5798172D01*
X22752576Y-5809126D01*
X22754800Y-5817801D01*
X22751490Y-5824421D01*
X22624339Y-5951572D01*
X22616066Y-5954999D01*
X22609152Y-5952738D01*
X22522927Y-5889577D01*
X22365039Y-5823493D01*
X22200847Y-5792753D01*
X22200846Y-5792753D01*
X22200845Y-5792753D01*
X22195217Y-5792961D01*
X22054597Y-5798172D01*
X21932965Y-5835275D01*
X21853288Y-5889384D01*
X21844519Y-5891197D01*
X21837036Y-5886278D01*
X21835016Y-5879876D01*
X21824235Y-5135010D01*
X21827542Y-5126689D01*
X21834974Y-5123181D01*
X22593574Y-5060868D01*
X22602100Y-5063606D01*
G37*
%TD.AperFunction*%
%TD*%
%TA.AperFunction,Conductor*%
%TO.N,VCC3V3*%
G36*
X22358753Y-5416235D02*
G01*
X22426897Y-5475294D01*
X22493746Y-5514797D01*
X22493749Y-5514798D01*
X22493748Y-5514798D01*
X22516036Y-5522729D01*
X22555397Y-5536736D01*
X22616013Y-5550201D01*
X22616375Y-5550289D01*
X22731141Y-5580256D01*
X22732877Y-5580859D01*
X22774891Y-5599297D01*
X22794176Y-5607760D01*
X22795432Y-5608405D01*
X22856070Y-5644286D01*
X22861445Y-5651448D01*
X22860181Y-5660313D01*
X22859861Y-5660823D01*
X22702015Y-5898734D01*
X22698734Y-5902015D01*
X22460848Y-6059844D01*
X22452060Y-6061563D01*
X22444631Y-6056563D01*
X22444308Y-6056047D01*
X22406891Y-5992456D01*
X22406226Y-5991141D01*
X22378951Y-5927604D01*
X22378369Y-5925895D01*
X22350301Y-5816424D01*
X22350190Y-5815953D01*
X22340287Y-5769420D01*
X22301795Y-5668194D01*
X22264622Y-5612701D01*
X22216466Y-5558770D01*
X22213512Y-5550316D01*
X22216919Y-5542705D01*
X22342820Y-5416804D01*
X22351092Y-5413378D01*
X22358753Y-5416235D01*
G37*
%TD.AperFunction*%
%TD*%
%TA.AperFunction,Conductor*%
%TO.N,VCC3V3*%
G36*
X-2819405Y-3280903D02*
G01*
X-2815044Y-3286537D01*
X-2803288Y-3318808D01*
X-2803287Y-3318810D01*
X-2803286Y-3318812D01*
X-2769015Y-3357931D01*
X-2722503Y-3389915D01*
X-2640521Y-3424690D01*
X-2640513Y-3424692D01*
X-2551233Y-3447056D01*
X-2397589Y-3459657D01*
X-2389623Y-3463749D01*
X-2386860Y-3470734D01*
X-2377926Y-3649385D01*
X-2380935Y-3657819D01*
X-2387461Y-3661469D01*
X-2411957Y-3666048D01*
X-2437754Y-3670870D01*
X-2498046Y-3693526D01*
X-2610896Y-3766083D01*
X-2694750Y-3859595D01*
X-2694750Y-3859597D01*
X-2743320Y-3963673D01*
X-2743322Y-3963678D01*
X-2753674Y-4055991D01*
X-2758001Y-4063831D01*
X-2766605Y-4066314D01*
X-2772151Y-4064172D01*
X-3163980Y-3781194D01*
X-3168681Y-3773572D01*
X-3166770Y-3765079D01*
X-2835675Y-3283908D01*
X-2828163Y-3279037D01*
X-2819405Y-3280903D01*
G37*
%TD.AperFunction*%
%TD*%
%TA.AperFunction,Conductor*%
%TO.N,VCC3V3*%
G36*
X-2335145Y-3310269D02*
G01*
X-2335053Y-3310403D01*
X-2176730Y-3545894D01*
X-2174958Y-3554672D01*
X-2174972Y-3554742D01*
X-2230977Y-3831624D01*
X-2235976Y-3839053D01*
X-2244765Y-3840772D01*
X-2245841Y-3840500D01*
X-2375007Y-3801316D01*
X-2377042Y-3800483D01*
X-2433905Y-3770686D01*
X-2471876Y-3750789D01*
X-2472202Y-3750611D01*
X-2510175Y-3728991D01*
X-2510181Y-3728988D01*
X-2510182Y-3728988D01*
X-2611109Y-3689704D01*
X-2611116Y-3689702D01*
X-2678229Y-3680012D01*
X-2678230Y-3680011D01*
X-2752795Y-3679627D01*
X-2761051Y-3676157D01*
X-2764420Y-3668511D01*
X-2770109Y-3554742D01*
X-2773296Y-3491015D01*
X-2770287Y-3482584D01*
X-2762694Y-3478784D01*
X-2655997Y-3468875D01*
X-2655993Y-3468874D01*
X-2574067Y-3448082D01*
X-2574067Y-3448081D01*
X-2574060Y-3448080D01*
X-2506665Y-3414056D01*
X-2432433Y-3363420D01*
X-2351422Y-3307312D01*
X-2342672Y-3305419D01*
X-2335145Y-3310269D01*
G37*
%TD.AperFunction*%
%TD*%
%TA.AperFunction,Conductor*%
%TO.N,VCC3V3*%
G36*
X-18359263Y30539991D02*
G01*
X-18358166Y30537640D01*
X-18111389Y29805840D01*
X-18111993Y29796905D01*
X-18118737Y29791014D01*
X-18122776Y29790405D01*
X-18209816Y29792637D01*
X-18209824Y29792636D01*
X-18278288Y29776049D01*
X-18345039Y29747404D01*
X-18345045Y29747401D01*
X-18421695Y29700030D01*
X-18492398Y29642333D01*
X-18492399Y29642333D01*
X-18559968Y29572903D01*
X-18559969Y29572902D01*
X-18616046Y29500959D01*
X-18616052Y29500951D01*
X-18674585Y29392910D01*
X-18681539Y29387268D01*
X-18688874Y29387489D01*
X-18856975Y29448675D01*
X-18863577Y29454724D01*
X-18864187Y29463004D01*
X-18855085Y29493594D01*
X-18841997Y29571208D01*
X-18837648Y29659964D01*
X-18855490Y29829394D01*
X-18901092Y29967468D01*
X-18966620Y30067734D01*
X-18966621Y30067735D01*
X-18966624Y30067738D01*
X-19035943Y30122785D01*
X-19040291Y30130613D01*
X-19037829Y30139223D01*
X-19034757Y30141937D01*
X-18375342Y30543892D01*
X-18366495Y30545271D01*
X-18359263Y30539991D01*
G37*
%TD.AperFunction*%
%TD*%
%TA.AperFunction,Conductor*%
%TO.N,VCC3V3*%
G36*
X-18486258Y29946414D02*
G01*
X-18479656Y29940365D01*
X-18478999Y29932244D01*
X-18503534Y29845244D01*
X-18510585Y29767271D01*
X-18510585Y29767266D01*
X-18510585Y29767263D01*
X-18503810Y29701418D01*
X-18491395Y29647314D01*
X-18489877Y29640702D01*
X-18489755Y29640096D01*
X-18466939Y29509324D01*
X-18466766Y29507148D01*
X-18467693Y29441466D01*
X-18467807Y29439998D01*
X-18477402Y29371930D01*
X-18481950Y29364216D01*
X-18490620Y29361978D01*
X-18491232Y29362080D01*
X-18771380Y29416848D01*
X-18775667Y29418624D01*
X-19012104Y29577714D01*
X-19017055Y29585176D01*
X-19015279Y29593953D01*
X-19014608Y29594854D01*
X-18928080Y29699850D01*
X-18926501Y29701428D01*
X-18843266Y29769960D01*
X-18843001Y29770172D01*
X-18807910Y29797017D01*
X-18732501Y29874727D01*
X-18697556Y29932670D01*
X-18668344Y30000927D01*
X-18661939Y30007184D01*
X-18653586Y30007317D01*
X-18486258Y29946414D01*
G37*
%TD.AperFunction*%
%TD*%
%TA.AperFunction,Conductor*%
%TO.N,VCC3V3*%
G36*
X11321002Y4531858D02*
G01*
X12062957Y4525601D01*
X12071200Y4522104D01*
X12074557Y4513802D01*
X12074485Y4512604D01*
X11988876Y3745137D01*
X11984553Y3737295D01*
X11975951Y3734806D01*
X11971105Y3736477D01*
X11933793Y3759497D01*
X11933783Y3759502D01*
X11876210Y3782096D01*
X11876205Y3782097D01*
X11803518Y3797016D01*
X11803509Y3797017D01*
X11795118Y3797395D01*
X11728002Y3800412D01*
X11727989Y3800412D01*
X11638534Y3791744D01*
X11638508Y3791740D01*
X11550988Y3771719D01*
X11464700Y3741162D01*
X11387610Y3703564D01*
X11387605Y3703561D01*
X11293879Y3635191D01*
X11285176Y3633084D01*
X11278711Y3636370D01*
X11152269Y3762812D01*
X11148842Y3771085D01*
X11151895Y3778967D01*
X11168092Y3796736D01*
X11215127Y3862056D01*
X11258953Y3941685D01*
X11322510Y4115083D01*
X11347804Y4278839D01*
X11337478Y4418344D01*
X11301978Y4516238D01*
X11302379Y4525181D01*
X11308988Y4531223D01*
X11313076Y4531924D01*
X11321002Y4531858D01*
G37*
%TD.AperFunction*%
%TD*%
%TA.AperFunction,Conductor*%
%TO.N,VCC3V3*%
G36*
X11572375Y4183080D02*
G01*
X11698274Y4057181D01*
X11701701Y4048908D01*
X11698843Y4041245D01*
X11639783Y3973101D01*
X11600280Y3906252D01*
X11578345Y3844610D01*
X11564883Y3784013D01*
X11564781Y3783594D01*
X11534824Y3668864D01*
X11534218Y3667118D01*
X11507319Y3605824D01*
X11506674Y3604568D01*
X11470793Y3543930D01*
X11463631Y3538555D01*
X11454766Y3539819D01*
X11454268Y3540132D01*
X11262869Y3667118D01*
X11216345Y3697985D01*
X11213064Y3701266D01*
X11117965Y3844603D01*
X11055234Y3939153D01*
X11053516Y3947940D01*
X11058516Y3955369D01*
X11059015Y3955682D01*
X11122629Y3993112D01*
X11123929Y3993770D01*
X11187476Y4021050D01*
X11189182Y4021631D01*
X11298670Y4049703D01*
X11299111Y4049807D01*
X11345659Y4059713D01*
X11446886Y4098205D01*
X11502379Y4135378D01*
X11556310Y4183535D01*
X11564763Y4186488D01*
X11572375Y4183080D01*
G37*
%TD.AperFunction*%
%TD*%
%TA.AperFunction,Conductor*%
%TO.N,VCC3V3*%
G36*
X-14570671Y-20187187D02*
G01*
X-14568948Y-20187387D01*
X-14509243Y-20198874D01*
X-14397055Y-20216512D01*
X-14268847Y-20206564D01*
X-14260336Y-20209341D01*
X-14256476Y-20215910D01*
X-14200683Y-20491822D01*
X-14202402Y-20500610D01*
X-14205653Y-20503871D01*
X-14438883Y-20659620D01*
X-14447667Y-20661365D01*
X-14455111Y-20656388D01*
X-14455608Y-20655574D01*
X-14488153Y-20597015D01*
X-14488674Y-20595955D01*
X-14518346Y-20526985D01*
X-14518384Y-20526895D01*
X-14529433Y-20500610D01*
X-14536966Y-20482688D01*
X-14576063Y-20416879D01*
X-14576064Y-20416878D01*
X-14576065Y-20416877D01*
X-14619721Y-20392934D01*
X-14619722Y-20392933D01*
X-14619723Y-20392933D01*
X-14619726Y-20392933D01*
X-14653511Y-20395832D01*
X-14685739Y-20409514D01*
X-14694694Y-20409592D01*
X-14700533Y-20404436D01*
X-14706938Y-20392934D01*
X-14786517Y-20250019D01*
X-14787547Y-20241125D01*
X-14781986Y-20234106D01*
X-14781101Y-20233660D01*
X-14705709Y-20199736D01*
X-14703237Y-20198941D01*
X-14633932Y-20184934D01*
X-14631149Y-20184713D01*
X-14570671Y-20187187D01*
G37*
%TD.AperFunction*%
%TD*%
%TA.AperFunction,Conductor*%
%TO.N,VCC3V3*%
G36*
X-9133502Y-20320078D02*
G01*
X-9059607Y-20432829D01*
X-8953529Y-20534766D01*
X-8870023Y-20583039D01*
X-8843724Y-20598243D01*
X-8736613Y-20623451D01*
X-8647761Y-20613552D01*
X-8639161Y-20616042D01*
X-8634839Y-20623884D01*
X-8635097Y-20627938D01*
X-8817163Y-21378496D01*
X-8822443Y-21385728D01*
X-8831291Y-21387108D01*
X-8833729Y-21386221D01*
X-9524368Y-21043911D01*
X-9530259Y-21037167D01*
X-9529655Y-21028232D01*
X-9526547Y-21024345D01*
X-9481602Y-20987866D01*
X-9439841Y-20937142D01*
X-9408336Y-20881163D01*
X-9382855Y-20809689D01*
X-9369050Y-20735677D01*
X-9365584Y-20649420D01*
X-9373379Y-20567687D01*
X-9408147Y-20448024D01*
X-9407165Y-20439124D01*
X-9401857Y-20434156D01*
X-9399011Y-20432829D01*
X-9148232Y-20315886D01*
X-9139286Y-20315497D01*
X-9133502Y-20320078D01*
G37*
%TD.AperFunction*%
%TD*%
%TA.AperFunction,Conductor*%
%TO.N,VCC3V3*%
G36*
X-8984089Y-20320615D02*
G01*
X-8979138Y-20328077D01*
X-8979036Y-20328683D01*
X-8961863Y-20450034D01*
X-8961756Y-20451244D01*
X-8958184Y-20548729D01*
X-8947876Y-20679663D01*
X-8947875Y-20679665D01*
X-8927086Y-20755013D01*
X-8927085Y-20755016D01*
X-8892055Y-20840084D01*
X-8892074Y-20849039D01*
X-8897929Y-20855143D01*
X-9149638Y-20972519D01*
X-9158585Y-20972909D01*
X-9164908Y-20967418D01*
X-9207597Y-20887330D01*
X-9207601Y-20887323D01*
X-9253369Y-20823726D01*
X-9344984Y-20737326D01*
X-9370695Y-20714691D01*
X-9416301Y-20674543D01*
X-9417187Y-20673673D01*
X-9467428Y-20618746D01*
X-9468203Y-20617804D01*
X-9517178Y-20551504D01*
X-9519337Y-20542813D01*
X-9514719Y-20535141D01*
X-9514330Y-20534866D01*
X-9277382Y-20375412D01*
X-9273105Y-20373640D01*
X-8992865Y-20318839D01*
X-8984089Y-20320615D01*
G37*
%TD.AperFunction*%
%TD*%
%TA.AperFunction,Conductor*%
%TO.N,VCC3V3*%
G36*
X112525Y15976033D02*
G01*
X120768Y15972536D01*
X124125Y15964234D01*
X124053Y15963036D01*
X38569Y15196698D01*
X34246Y15188856D01*
X25644Y15186367D01*
X20278Y15188378D01*
X-11831Y15210629D01*
X-11835Y15210631D01*
X-11834Y15210631D01*
X-80095Y15244885D01*
X-80100Y15244887D01*
X-80101Y15244887D01*
X-114669Y15256251D01*
X-152146Y15268570D01*
X-236568Y15283706D01*
X-321983Y15287610D01*
X-321998Y15287610D01*
X-413824Y15280532D01*
X-413834Y15280531D01*
X-501749Y15263201D01*
X-652855Y15205526D01*
X-740535Y15142937D01*
X-749260Y15140920D01*
X-755606Y15144187D01*
X-882286Y15270867D01*
X-885713Y15279140D01*
X-882880Y15286773D01*
X-877341Y15293208D01*
X-833390Y15344261D01*
X-775299Y15428713D01*
X-684638Y15606035D01*
X-637419Y15762788D01*
X-629736Y15887198D01*
X-650413Y15967764D01*
X-649150Y15976627D01*
X-641989Y15982003D01*
X-638984Y15982370D01*
X112525Y15976033D01*
G37*
%TD.AperFunction*%
%TD*%
%TA.AperFunction,Conductor*%
%TO.N,VCC3V3*%
G36*
X-462015Y15690970D02*
G01*
X-336116Y15565071D01*
X-332689Y15556798D01*
X-335547Y15549135D01*
X-394607Y15480991D01*
X-434110Y15414142D01*
X-456045Y15352500D01*
X-469507Y15291903D01*
X-469609Y15291484D01*
X-499566Y15176754D01*
X-500172Y15175008D01*
X-527071Y15113714D01*
X-527716Y15112458D01*
X-563597Y15051820D01*
X-570759Y15046445D01*
X-579624Y15047709D01*
X-580122Y15048022D01*
X-771521Y15175008D01*
X-818045Y15205875D01*
X-821326Y15209156D01*
X-916425Y15352493D01*
X-979156Y15447043D01*
X-980874Y15455830D01*
X-975874Y15463259D01*
X-975375Y15463572D01*
X-911761Y15501002D01*
X-910461Y15501660D01*
X-846914Y15528940D01*
X-845208Y15529521D01*
X-735720Y15557593D01*
X-735279Y15557697D01*
X-688731Y15567603D01*
X-587504Y15606095D01*
X-532011Y15643268D01*
X-478080Y15691425D01*
X-469627Y15694378D01*
X-462015Y15690970D01*
G37*
%TD.AperFunction*%
%TD*%
%TA.AperFunction,Conductor*%
%TO.N,VCC3V3*%
G36*
X842161Y-208888D02*
G01*
X844735Y-216242D01*
X844714Y-223668D01*
X844715Y-223670D01*
X859275Y-267725D01*
X888143Y-309992D01*
X952766Y-369909D01*
X1031878Y-422110D01*
X1130568Y-471956D01*
X1130576Y-471959D01*
X1130578Y-471960D01*
X1202791Y-499632D01*
X1209291Y-505792D01*
X1209767Y-514065D01*
X1156495Y-683563D01*
X1150745Y-690428D01*
X1142191Y-691325D01*
X1140892Y-690962D01*
X1086867Y-683838D01*
X1025401Y-686928D01*
X900242Y-722144D01*
X793087Y-788216D01*
X713771Y-877656D01*
X673111Y-969909D01*
X666639Y-976097D01*
X657686Y-975896D01*
X653060Y-972229D01*
X651312Y-969909D01*
X365676Y-590703D01*
X363436Y-582034D01*
X367699Y-574540D01*
X825713Y-207083D01*
X834311Y-204580D01*
X842161Y-208888D01*
G37*
%TD.AperFunction*%
%TD*%
%TA.AperFunction,Conductor*%
%TO.N,VCC3V3*%
G36*
X1363577Y-384953D02*
G01*
X1368785Y-392237D01*
X1368856Y-392566D01*
X1424985Y-670507D01*
X1423264Y-679295D01*
X1423224Y-679354D01*
X1265422Y-913897D01*
X1257961Y-918848D01*
X1249184Y-917073D01*
X1248406Y-916502D01*
X1148260Y-836378D01*
X1146893Y-835092D01*
X1078044Y-758998D01*
X1077868Y-758798D01*
X1051223Y-727527D01*
X986818Y-670507D01*
X969867Y-655499D01*
X969865Y-655497D01*
X969864Y-655497D01*
X945048Y-642061D01*
X909290Y-622701D01*
X837407Y-595775D01*
X830861Y-589663D01*
X830349Y-581313D01*
X883642Y-411741D01*
X889392Y-404878D01*
X897789Y-403938D01*
X997088Y-430137D01*
X1078842Y-438617D01*
X1149984Y-431271D01*
X1149987Y-431270D01*
X1149989Y-431270D01*
X1162311Y-428367D01*
X1228204Y-412849D01*
X1228243Y-412855D01*
X1228240Y-412841D01*
X1232972Y-411743D01*
X1354745Y-383485D01*
X1363577Y-384953D01*
G37*
%TD.AperFunction*%
%TD*%
%TA.AperFunction,Conductor*%
%TO.N,VCC3V3*%
G36*
X16621002Y-668142D02*
G01*
X17362957Y-674399D01*
X17371200Y-677896D01*
X17374557Y-686198D01*
X17374485Y-687396D01*
X17288876Y-1454863D01*
X17284553Y-1462705D01*
X17275951Y-1465194D01*
X17271105Y-1463523D01*
X17233793Y-1440503D01*
X17233783Y-1440498D01*
X17176210Y-1417904D01*
X17176205Y-1417903D01*
X17103518Y-1402984D01*
X17103509Y-1402983D01*
X17095118Y-1402605D01*
X17028002Y-1399588D01*
X17027989Y-1399588D01*
X16938534Y-1408256D01*
X16938508Y-1408260D01*
X16850988Y-1428281D01*
X16764700Y-1458838D01*
X16687610Y-1496436D01*
X16687605Y-1496439D01*
X16593879Y-1564809D01*
X16585176Y-1566916D01*
X16578711Y-1563630D01*
X16452269Y-1437188D01*
X16448842Y-1428915D01*
X16451895Y-1421033D01*
X16468092Y-1403264D01*
X16515127Y-1337944D01*
X16558953Y-1258315D01*
X16622510Y-1084917D01*
X16647804Y-921161D01*
X16637478Y-781656D01*
X16601978Y-683762D01*
X16602379Y-674819D01*
X16608988Y-668777D01*
X16613076Y-668076D01*
X16621002Y-668142D01*
G37*
%TD.AperFunction*%
%TD*%
%TA.AperFunction,Conductor*%
%TO.N,VCC3V3*%
G36*
X16872375Y-1016920D02*
G01*
X16998274Y-1142819D01*
X17001701Y-1151092D01*
X16998843Y-1158755D01*
X16939783Y-1226899D01*
X16900280Y-1293748D01*
X16878345Y-1355390D01*
X16864883Y-1415987D01*
X16864781Y-1416406D01*
X16834824Y-1531136D01*
X16834218Y-1532882D01*
X16807319Y-1594176D01*
X16806674Y-1595432D01*
X16770793Y-1656070D01*
X16763631Y-1661445D01*
X16754766Y-1660181D01*
X16754268Y-1659868D01*
X16562869Y-1532882D01*
X16516345Y-1502015D01*
X16513064Y-1498734D01*
X16417965Y-1355397D01*
X16355234Y-1260847D01*
X16353516Y-1252060D01*
X16358516Y-1244631D01*
X16359015Y-1244318D01*
X16422629Y-1206888D01*
X16423929Y-1206230D01*
X16487476Y-1178950D01*
X16489182Y-1178369D01*
X16598670Y-1150297D01*
X16599111Y-1150193D01*
X16645659Y-1140287D01*
X16746886Y-1101795D01*
X16802379Y-1064622D01*
X16856310Y-1016465D01*
X16864763Y-1013512D01*
X16872375Y-1016920D01*
G37*
%TD.AperFunction*%
%TD*%
%TA.AperFunction,Conductor*%
%TO.N,VCC3V3*%
G36*
X-22185608Y4493462D02*
G01*
X-22180738Y4489115D01*
X-22160062Y4456086D01*
X-22160059Y4456082D01*
X-22160058Y4456081D01*
X-22113525Y4408219D01*
X-22056911Y4367704D01*
X-22056905Y4367701D01*
X-22056904Y4367700D01*
X-21976343Y4327217D01*
X-21976339Y4327216D01*
X-21976338Y4327215D01*
X-21888563Y4296964D01*
X-21786649Y4274396D01*
X-21786640Y4274395D01*
X-21786635Y4274394D01*
X-21739684Y4269101D01*
X-21688000Y4263274D01*
X-21551703Y4268695D01*
X-21543300Y4265599D01*
X-21539716Y4259036D01*
X-21508699Y4083145D01*
X-21510637Y4074402D01*
X-21517660Y4069697D01*
X-21535444Y4065709D01*
X-21535455Y4065705D01*
X-21604637Y4041195D01*
X-21604645Y4041192D01*
X-21679213Y4003390D01*
X-21679218Y4003387D01*
X-21679219Y4003386D01*
X-21811766Y3906236D01*
X-21905983Y3798204D01*
X-21905984Y3798202D01*
X-21958857Y3690096D01*
X-21958858Y3690093D01*
X-21970782Y3603823D01*
X-21975310Y3596097D01*
X-21983974Y3593835D01*
X-21989616Y3596237D01*
X-22108653Y3690092D01*
X-22445580Y3955742D01*
X-22449954Y3963555D01*
X-22448891Y3969974D01*
X-22201209Y4487956D01*
X-22194550Y4493940D01*
X-22185608Y4493462D01*
G37*
%TD.AperFunction*%
%TD*%
%TA.AperFunction,Conductor*%
%TO.N,VCC3V3*%
G36*
X-21672708Y4412351D02*
G01*
X-21672229Y4411690D01*
X-21598959Y4302753D01*
X-21514305Y4176890D01*
X-21512531Y4168112D01*
X-21512545Y4168042D01*
X-21568642Y3890525D01*
X-21573640Y3883095D01*
X-21582428Y3881375D01*
X-21583040Y3881516D01*
X-21689329Y3909006D01*
X-21690441Y3909353D01*
X-21775794Y3940771D01*
X-21775984Y3940843D01*
X-21801601Y3950783D01*
X-21810496Y3954234D01*
X-21918009Y3980996D01*
X-21990586Y3981957D01*
X-21990587Y3981957D01*
X-21990591Y3981957D01*
X-22073834Y3971575D01*
X-22082468Y3973952D01*
X-22086804Y3981153D01*
X-22117678Y4156241D01*
X-22115740Y4164984D01*
X-22108808Y4169669D01*
X-22014847Y4191515D01*
X-21941333Y4221349D01*
X-21885099Y4257951D01*
X-21832308Y4302509D01*
X-21832054Y4302716D01*
X-21689130Y4414369D01*
X-21680502Y4416761D01*
X-21672708Y4412351D01*
G37*
%TD.AperFunction*%
%TD*%
%TA.AperFunction,Conductor*%
%TO.N,VCC3V3*%
G36*
X3169977Y13221380D02*
G01*
X3174300Y13213538D01*
X3174300Y13210944D01*
X3088868Y12445069D01*
X3084545Y12437227D01*
X3075943Y12434738D01*
X3071131Y12436388D01*
X3036971Y12457305D01*
X3036969Y12457306D01*
X2982698Y12478347D01*
X2911289Y12492454D01*
X2836723Y12494959D01*
X2836717Y12494959D01*
X2746703Y12485003D01*
X2746698Y12485002D01*
X2658212Y12463459D01*
X2569561Y12430790D01*
X2490229Y12391087D01*
X2393888Y12320181D01*
X2385194Y12318037D01*
X2378680Y12321331D01*
X2252237Y12447774D01*
X2248810Y12456047D01*
X2251830Y12463893D01*
X2268736Y12482591D01*
X2314502Y12546678D01*
X2357696Y12625209D01*
X2416465Y12785685D01*
X2416466Y12785687D01*
X2436325Y12928457D01*
X2436326Y12928461D01*
X2421828Y13044693D01*
X2384462Y13121488D01*
X2383924Y13130427D01*
X2389864Y13137128D01*
X2393680Y13138234D01*
X3161376Y13223869D01*
X3169977Y13221380D01*
G37*
%TD.AperFunction*%
%TD*%
%TA.AperFunction,Conductor*%
%TO.N,VCC3V3*%
G36*
X2672375Y12868010D02*
G01*
X2798274Y12742111D01*
X2801701Y12733838D01*
X2798843Y12726175D01*
X2739783Y12658031D01*
X2700280Y12591182D01*
X2678345Y12529540D01*
X2664883Y12468943D01*
X2664781Y12468524D01*
X2634824Y12353794D01*
X2634218Y12352048D01*
X2607319Y12290754D01*
X2606674Y12289498D01*
X2570793Y12228860D01*
X2563631Y12223485D01*
X2554766Y12224749D01*
X2554268Y12225062D01*
X2362869Y12352048D01*
X2316345Y12382915D01*
X2313064Y12386196D01*
X2217965Y12529533D01*
X2155234Y12624083D01*
X2153516Y12632870D01*
X2158516Y12640299D01*
X2159015Y12640612D01*
X2222629Y12678042D01*
X2223929Y12678700D01*
X2287476Y12705980D01*
X2289182Y12706561D01*
X2398670Y12734633D01*
X2399111Y12734737D01*
X2445659Y12744643D01*
X2546886Y12783135D01*
X2602379Y12820308D01*
X2656310Y12868465D01*
X2664763Y12871418D01*
X2672375Y12868010D01*
G37*
%TD.AperFunction*%
%TD*%
%TA.AperFunction,Conductor*%
%TO.N,Net-(D1-K)*%
G36*
X-11042704Y-21256119D02*
G01*
X-11035273Y-21261113D01*
X-11033549Y-21269900D01*
X-11033651Y-21270360D01*
X-11054694Y-21356619D01*
X-11054774Y-21356928D01*
X-11059501Y-21374241D01*
X-11059505Y-21374260D01*
X-11072813Y-21460275D01*
X-11063024Y-21515696D01*
X-11063023Y-21515697D01*
X-11037990Y-21577549D01*
X-11038062Y-21586503D01*
X-11043752Y-21592476D01*
X-11204158Y-21669853D01*
X-11213098Y-21670361D01*
X-11219415Y-21665092D01*
X-11251705Y-21608230D01*
X-11251707Y-21608226D01*
X-11288475Y-21565857D01*
X-11373511Y-21514930D01*
X-11480585Y-21455585D01*
X-11486159Y-21448579D01*
X-11485145Y-21439681D01*
X-11484659Y-21438881D01*
X-11441735Y-21374241D01*
X-11329784Y-21205649D01*
X-11322353Y-21200654D01*
X-11317728Y-21200654D01*
X-11042704Y-21256119D01*
G37*
%TD.AperFunction*%
%TD*%
%TA.AperFunction,Conductor*%
%TO.N,Net-(D3-K)*%
G36*
X-15689671Y-18414892D02*
G01*
X-15688628Y-18415509D01*
X-15469068Y-18561313D01*
X-15453167Y-18571872D01*
X-15448170Y-18579304D01*
X-15448156Y-18579374D01*
X-15393915Y-18856749D01*
X-15395691Y-18865526D01*
X-15403153Y-18870477D01*
X-15404121Y-18870624D01*
X-15513224Y-18882604D01*
X-15515169Y-18882655D01*
X-15603491Y-18877607D01*
X-15717741Y-18876612D01*
X-15717742Y-18876612D01*
X-15778697Y-18890941D01*
X-15778700Y-18890941D01*
X-15778704Y-18890943D01*
X-15843850Y-18916898D01*
X-15852804Y-18916777D01*
X-15858781Y-18910980D01*
X-15868139Y-18890941D01*
X-15934175Y-18749537D01*
X-15934570Y-18740592D01*
X-15929377Y-18734429D01*
X-15867268Y-18698959D01*
X-15822843Y-18657319D01*
X-15795383Y-18612288D01*
X-15774812Y-18561296D01*
X-15762122Y-18528138D01*
X-15761570Y-18526917D01*
X-15705464Y-18419825D01*
X-15698590Y-18414088D01*
X-15689671Y-18414892D01*
G37*
%TD.AperFunction*%
%TD*%
%TA.AperFunction,Conductor*%
%TO.N,Net-(D4-K)*%
G36*
X-21850760Y2756120D02*
G01*
X-21846227Y2751650D01*
X-21814979Y2696655D01*
X-21777486Y2656559D01*
X-21767752Y2646150D01*
X-21767746Y2646144D01*
X-21710961Y2603154D01*
X-21710959Y2603153D01*
X-21632837Y2560818D01*
X-21548524Y2528772D01*
X-21454383Y2505046D01*
X-21363569Y2492594D01*
X-21239022Y2496155D01*
X-21230656Y2492966D01*
X-21227167Y2486492D01*
X-21196179Y2310751D01*
X-21198117Y2302008D01*
X-21205412Y2297245D01*
X-21209302Y2296470D01*
X-21281833Y2274313D01*
X-21340151Y2248203D01*
X-21358489Y2239991D01*
X-21362228Y2238317D01*
X-21507991Y2143945D01*
X-21613589Y2038921D01*
X-21675393Y1934739D01*
X-21693558Y1852742D01*
X-21698693Y1845406D01*
X-21707512Y1843850D01*
X-21712796Y1846566D01*
X-21818111Y1941092D01*
X-22142130Y2231916D01*
X-22145997Y2239991D01*
X-22144566Y2246258D01*
X-21866649Y2751510D01*
X-21859661Y2757105D01*
X-21850760Y2756120D01*
G37*
%TD.AperFunction*%
%TD*%
%TA.AperFunction,Conductor*%
%TO.N,Net-(D4-K)*%
G36*
X-21360149Y2639691D02*
G01*
X-21359661Y2639018D01*
X-21201745Y2404230D01*
X-21199971Y2395452D01*
X-21199985Y2395382D01*
X-21256082Y2117865D01*
X-21261080Y2110435D01*
X-21269868Y2108715D01*
X-21270480Y2108856D01*
X-21376773Y2136347D01*
X-21377885Y2136694D01*
X-21463219Y2168106D01*
X-21463410Y2168178D01*
X-21464330Y2168535D01*
X-21497941Y2181578D01*
X-21497945Y2181579D01*
X-21497950Y2181581D01*
X-21605445Y2208341D01*
X-21605453Y2208342D01*
X-21678029Y2209304D01*
X-21678030Y2209304D01*
X-21678034Y2209304D01*
X-21761276Y2198923D01*
X-21769910Y2201300D01*
X-21774246Y2208501D01*
X-21805118Y2383592D01*
X-21803180Y2392332D01*
X-21796247Y2397016D01*
X-21702285Y2418861D01*
X-21628770Y2448695D01*
X-21572536Y2485296D01*
X-21519781Y2529823D01*
X-21519472Y2530074D01*
X-21376569Y2641709D01*
X-21367943Y2644101D01*
X-21360149Y2639691D01*
G37*
%TD.AperFunction*%
%TD*%
%TA.AperFunction,Conductor*%
%TO.N,Net-(D5-K)*%
G36*
X-23396826Y15015428D02*
G01*
X-23392677Y15010488D01*
X-23369727Y14959009D01*
X-23369725Y14959007D01*
X-23328417Y14904137D01*
X-23276807Y14855734D01*
X-23203764Y14805676D01*
X-23123391Y14765187D01*
X-23031836Y14731778D01*
X-22942340Y14709951D01*
X-22817064Y14700516D01*
X-22809072Y14696477D01*
X-22806272Y14689665D01*
X-22793823Y14511665D01*
X-22796664Y14503173D01*
X-22804421Y14499198D01*
X-22806787Y14498981D01*
X-22806799Y14498979D01*
X-22878002Y14485017D01*
X-22878005Y14485016D01*
X-22958299Y14458212D01*
X-22958305Y14458209D01*
X-23104488Y14381851D01*
X-23104491Y14381849D01*
X-23104492Y14381848D01*
X-23211718Y14291539D01*
X-23211719Y14291538D01*
X-23211721Y14291536D01*
X-23276406Y14197479D01*
X-23276408Y14197476D01*
X-23297468Y14120248D01*
X-23302951Y14113168D01*
X-23311834Y14112038D01*
X-23316921Y14114946D01*
X-23322363Y14120248D01*
X-23732916Y14520248D01*
X-23736449Y14528474D01*
X-23734455Y14535161D01*
X-23413067Y15012262D01*
X-23405602Y15017208D01*
X-23396826Y15015428D01*
G37*
%TD.AperFunction*%
%TD*%
%TA.AperFunction,Conductor*%
%TO.N,Net-(D5-K)*%
G36*
X-22960144Y14839729D02*
G01*
X-22960004Y14839525D01*
X-22836328Y14655582D01*
X-22801731Y14604127D01*
X-22799958Y14595350D01*
X-22799972Y14595280D01*
X-22855993Y14318296D01*
X-22860992Y14310866D01*
X-22869780Y14309147D01*
X-22870785Y14309397D01*
X-22996931Y14346781D01*
X-22998821Y14347525D01*
X-23092616Y14394219D01*
X-23092951Y14394393D01*
X-23130138Y14414427D01*
X-23130147Y14414432D01*
X-23231989Y14451702D01*
X-23231986Y14451702D01*
X-23277205Y14457278D01*
X-23299812Y14460066D01*
X-23299814Y14460066D01*
X-23375451Y14458908D01*
X-23383776Y14462208D01*
X-23387301Y14469791D01*
X-23399701Y14647090D01*
X-23396860Y14655582D01*
X-23389368Y14659529D01*
X-23285362Y14671496D01*
X-23205145Y14693657D01*
X-23140241Y14727551D01*
X-23071061Y14775997D01*
X-22976442Y14842567D01*
X-22967707Y14844524D01*
X-22960144Y14839729D01*
G37*
%TD.AperFunction*%
%TD*%
%TA.AperFunction,Conductor*%
%TO.N,Net-(D6-K)*%
G36*
X-16431466Y29839719D02*
G01*
X-16430896Y29838667D01*
X-16232170Y29421714D01*
X-16108138Y29161479D01*
X-16107672Y29152536D01*
X-16113666Y29145883D01*
X-16117496Y29144807D01*
X-16206833Y29135565D01*
X-16281329Y29109969D01*
X-16281340Y29109965D01*
X-16353732Y29072267D01*
X-16435298Y29015137D01*
X-16435318Y29015121D01*
X-16510360Y28948304D01*
X-16510371Y28948293D01*
X-16580552Y28871444D01*
X-16638995Y28792901D01*
X-16701270Y28674826D01*
X-16708161Y28669107D01*
X-16715621Y28669290D01*
X-16883876Y28730529D01*
X-16890478Y28736578D01*
X-16891169Y28744572D01*
X-16878719Y28790674D01*
X-16869456Y28867421D01*
X-16869693Y28953218D01*
X-16897235Y29119503D01*
X-16953079Y29258545D01*
X-17029324Y29362381D01*
X-17108828Y29421715D01*
X-17113407Y29429409D01*
X-17111206Y29438089D01*
X-17107922Y29441079D01*
X-16447545Y29843620D01*
X-16438698Y29844999D01*
X-16431466Y29839719D01*
G37*
%TD.AperFunction*%
%TD*%
%TA.AperFunction,Conductor*%
%TO.N,Net-(D6-K)*%
G36*
X-16668812Y29284921D02*
G01*
X-16512904Y29228176D01*
X-16506303Y29222128D01*
X-16505646Y29214008D01*
X-16530178Y29127016D01*
X-16530178Y29127012D01*
X-16537229Y29049033D01*
X-16537229Y29049028D01*
X-16530455Y28983184D01*
X-16516520Y28922465D01*
X-16516398Y28921859D01*
X-16493579Y28791084D01*
X-16493406Y28788908D01*
X-16494334Y28723226D01*
X-16494448Y28721758D01*
X-16504042Y28653691D01*
X-16508590Y28645977D01*
X-16517260Y28643739D01*
X-16517872Y28643841D01*
X-16798020Y28698608D01*
X-16802307Y28700384D01*
X-17038744Y28859474D01*
X-17043695Y28866936D01*
X-17041919Y28875713D01*
X-17041247Y28876615D01*
X-16954722Y28981609D01*
X-16953143Y28983187D01*
X-16869879Y29051744D01*
X-16869649Y29051926D01*
X-16834556Y29078775D01*
X-16759148Y29156486D01*
X-16724203Y29214430D01*
X-16694991Y29282689D01*
X-16688587Y29288945D01*
X-16680234Y29289078D01*
X-16668812Y29284921D01*
G37*
%TD.AperFunction*%
%TD*%
%TA.AperFunction,Conductor*%
%TO.N,Net-(D7-K)*%
G36*
X-1328363Y17421565D02*
G01*
X-1324040Y17413723D01*
X-1323968Y17412525D01*
X-1317640Y16662161D01*
X-1320997Y16653859D01*
X-1329241Y16650362D01*
X-1333025Y16650957D01*
X-1389919Y16669836D01*
X-1461899Y16676393D01*
X-1461911Y16676394D01*
X-1538480Y16670671D01*
X-1538490Y16670670D01*
X-1637266Y16649105D01*
X-1637272Y16649103D01*
X-1736156Y16614791D01*
X-1842156Y16565591D01*
X-1938028Y16509679D01*
X-1938037Y16509673D01*
X-2057353Y16416360D01*
X-2065981Y16413963D01*
X-2072834Y16417303D01*
X-2199588Y16544059D01*
X-2203015Y16552332D01*
X-2200513Y16559562D01*
X-2151558Y16621815D01*
X-2111840Y16693545D01*
X-2077791Y16776290D01*
X-2037443Y16945269D01*
X-2034105Y17099869D01*
X-2063687Y17230380D01*
X-2114221Y17321023D01*
X-2115257Y17329917D01*
X-2109699Y17336939D01*
X-2105303Y17338347D01*
X-1336964Y17424054D01*
X-1328363Y17421565D01*
G37*
%TD.AperFunction*%
%TD*%
%TA.AperFunction,Conductor*%
%TO.N,Net-(D7-K)*%
G36*
X-1778923Y16963768D02*
G01*
X-1653024Y16837868D01*
X-1649597Y16829595D01*
X-1652456Y16821932D01*
X-1711514Y16753792D01*
X-1751019Y16686940D01*
X-1772954Y16625298D01*
X-1786417Y16564700D01*
X-1786519Y16564282D01*
X-1816476Y16449555D01*
X-1817082Y16447809D01*
X-1843981Y16386515D01*
X-1844626Y16385259D01*
X-1880507Y16324620D01*
X-1887669Y16319245D01*
X-1896534Y16320509D01*
X-1897032Y16320822D01*
X-2089705Y16448653D01*
X-2134955Y16478675D01*
X-2138236Y16481956D01*
X-2233338Y16625298D01*
X-2296066Y16719843D01*
X-2297784Y16728630D01*
X-2292784Y16736059D01*
X-2292285Y16736372D01*
X-2228671Y16773802D01*
X-2227371Y16774460D01*
X-2163824Y16801740D01*
X-2162118Y16802321D01*
X-2052629Y16830393D01*
X-2052188Y16830497D01*
X-2005639Y16840403D01*
X-1904412Y16878894D01*
X-1848919Y16916067D01*
X-1794988Y16964223D01*
X-1786535Y16967176D01*
X-1778923Y16963768D01*
G37*
%TD.AperFunction*%
%TD*%
%TA.AperFunction,Conductor*%
%TO.N,Net-(D8-K)*%
G36*
X4621205Y11771997D02*
G01*
X4625528Y11764155D01*
X4625600Y11762957D01*
X4631925Y11012845D01*
X4628568Y11004543D01*
X4620324Y11001046D01*
X4616380Y11001696D01*
X4519209Y11035505D01*
X4519206Y11035506D01*
X4519205Y11035506D01*
X4519202Y11035507D01*
X4519199Y11035507D01*
X4438577Y11043968D01*
X4438565Y11043969D01*
X4355127Y11040669D01*
X4355109Y11040667D01*
X4256768Y11024085D01*
X4256765Y11024085D01*
X4256763Y11024084D01*
X4256761Y11024084D01*
X4256750Y11024081D01*
X4160720Y10996265D01*
X4066713Y10958144D01*
X4066707Y10958142D01*
X3993123Y10919181D01*
X3982580Y10913598D01*
X3929015Y10873230D01*
X3878834Y10835412D01*
X3870164Y10833170D01*
X3863519Y10836483D01*
X3736953Y10963047D01*
X3733526Y10971320D01*
X3736346Y10978938D01*
X3751186Y10996238D01*
X3763574Y11010679D01*
X3805481Y11075728D01*
X3843048Y11153460D01*
X3891325Y11314995D01*
X3902160Y11462834D01*
X3879465Y11586750D01*
X3834765Y11671652D01*
X3833944Y11680568D01*
X3839668Y11687455D01*
X3843819Y11688730D01*
X4612604Y11774486D01*
X4621205Y11771997D01*
G37*
%TD.AperFunction*%
%TD*%
%TA.AperFunction,Conductor*%
%TO.N,Net-(D8-K)*%
G36*
X4157292Y11383082D02*
G01*
X4283192Y11257184D01*
X4286619Y11248911D01*
X4283761Y11241248D01*
X4224702Y11173103D01*
X4185199Y11106253D01*
X4185198Y11106251D01*
X4163266Y11044616D01*
X4163265Y11044613D01*
X4149803Y10984014D01*
X4149701Y10983595D01*
X4119743Y10868864D01*
X4119137Y10867118D01*
X4092239Y10805824D01*
X4091594Y10804568D01*
X4055713Y10743930D01*
X4048551Y10738555D01*
X4039686Y10739819D01*
X4039188Y10740132D01*
X3847789Y10867118D01*
X3801265Y10897985D01*
X3797984Y10901266D01*
X3702884Y11044605D01*
X3640154Y11139153D01*
X3638436Y11147940D01*
X3643436Y11155369D01*
X3643938Y11155684D01*
X3707548Y11193112D01*
X3708848Y11193770D01*
X3772395Y11221049D01*
X3774101Y11221630D01*
X3883589Y11249703D01*
X3884029Y11249807D01*
X3930577Y11259713D01*
X4031803Y11298206D01*
X4087296Y11335380D01*
X4141227Y11383537D01*
X4149680Y11386490D01*
X4157292Y11383082D01*
G37*
%TD.AperFunction*%
%TD*%
%TA.AperFunction,Conductor*%
%TO.N,Net-(D9-K)*%
G36*
X13521205Y3071997D02*
G01*
X13525528Y3064155D01*
X13525600Y3062957D01*
X13531925Y2312845D01*
X13528568Y2304543D01*
X13520324Y2301046D01*
X13516380Y2301696D01*
X13419209Y2335505D01*
X13419206Y2335506D01*
X13419205Y2335506D01*
X13419202Y2335507D01*
X13419199Y2335507D01*
X13338577Y2343968D01*
X13338565Y2343969D01*
X13255127Y2340669D01*
X13255109Y2340667D01*
X13156768Y2324085D01*
X13156765Y2324085D01*
X13156763Y2324084D01*
X13156761Y2324084D01*
X13156750Y2324081D01*
X13060720Y2296265D01*
X12966713Y2258144D01*
X12966707Y2258142D01*
X12893123Y2219181D01*
X12882580Y2213598D01*
X12829015Y2173230D01*
X12778834Y2135412D01*
X12770164Y2133170D01*
X12763519Y2136483D01*
X12636953Y2263047D01*
X12633526Y2271320D01*
X12636346Y2278938D01*
X12651186Y2296238D01*
X12663574Y2310679D01*
X12705481Y2375728D01*
X12743048Y2453460D01*
X12791325Y2614995D01*
X12802160Y2762834D01*
X12779465Y2886750D01*
X12734765Y2971652D01*
X12733944Y2980568D01*
X12739668Y2987455D01*
X12743819Y2988730D01*
X13512604Y3074486D01*
X13521205Y3071997D01*
G37*
%TD.AperFunction*%
%TD*%
%TA.AperFunction,Conductor*%
%TO.N,Net-(D9-K)*%
G36*
X13057292Y2683082D02*
G01*
X13183192Y2557184D01*
X13186619Y2548911D01*
X13183761Y2541248D01*
X13124702Y2473103D01*
X13085199Y2406253D01*
X13085198Y2406251D01*
X13063266Y2344616D01*
X13063265Y2344613D01*
X13049803Y2284014D01*
X13049701Y2283595D01*
X13019743Y2168864D01*
X13019137Y2167118D01*
X12992239Y2105824D01*
X12991594Y2104568D01*
X12955713Y2043930D01*
X12948551Y2038555D01*
X12939686Y2039819D01*
X12939188Y2040132D01*
X12747789Y2167118D01*
X12701265Y2197985D01*
X12697984Y2201266D01*
X12602884Y2344605D01*
X12540154Y2439153D01*
X12538436Y2447940D01*
X12543436Y2455369D01*
X12543938Y2455684D01*
X12607548Y2493112D01*
X12608848Y2493770D01*
X12672395Y2521049D01*
X12674101Y2521630D01*
X12783589Y2549703D01*
X12784029Y2549807D01*
X12830577Y2559713D01*
X12931803Y2598206D01*
X12987296Y2635380D01*
X13041227Y2683537D01*
X13049680Y2686490D01*
X13057292Y2683082D01*
G37*
%TD.AperFunction*%
%TD*%
%TA.AperFunction,Conductor*%
%TO.N,Net-(D10-K)*%
G36*
X18821205Y-2128003D02*
G01*
X18825528Y-2135845D01*
X18825600Y-2137043D01*
X18831912Y-2885587D01*
X18828555Y-2893889D01*
X18820311Y-2897386D01*
X18815458Y-2896376D01*
X18774014Y-2877944D01*
X18774002Y-2877940D01*
X18712067Y-2861255D01*
X18712054Y-2861252D01*
X18630138Y-2852011D01*
X18545800Y-2854419D01*
X18545797Y-2854419D01*
X18545790Y-2854419D01*
X18545790Y-2854420D01*
X18531766Y-2856602D01*
X18448134Y-2869618D01*
X18448131Y-2869619D01*
X18360157Y-2893889D01*
X18353176Y-2895815D01*
X18261616Y-2931721D01*
X18179805Y-2974072D01*
X18179797Y-2974078D01*
X18078824Y-3049563D01*
X18070146Y-3051772D01*
X18063546Y-3048465D01*
X17937030Y-2921949D01*
X17933603Y-2913676D01*
X17936497Y-2905973D01*
X17958563Y-2880761D01*
X18000589Y-2817610D01*
X18038569Y-2741405D01*
X18088068Y-2581827D01*
X18100119Y-2435335D01*
X18078510Y-2312464D01*
X18034665Y-2228313D01*
X18033881Y-2219393D01*
X18039635Y-2212531D01*
X18043742Y-2211279D01*
X18812604Y-2125514D01*
X18821205Y-2128003D01*
G37*
%TD.AperFunction*%
%TD*%
%TA.AperFunction,Conductor*%
%TO.N,Net-(D10-K)*%
G36*
X18357290Y-2501845D02*
G01*
X18483189Y-2627744D01*
X18486616Y-2636017D01*
X18483758Y-2643680D01*
X18424698Y-2711825D01*
X18385200Y-2778666D01*
X18385196Y-2778675D01*
X18363263Y-2840313D01*
X18363262Y-2840316D01*
X18349801Y-2900915D01*
X18349699Y-2901334D01*
X18319742Y-3016068D01*
X18319136Y-3017814D01*
X18292238Y-3079107D01*
X18291593Y-3080363D01*
X18255713Y-3141000D01*
X18248551Y-3146375D01*
X18239686Y-3145111D01*
X18239188Y-3144798D01*
X18047792Y-3017814D01*
X18001265Y-2986945D01*
X17997984Y-2983664D01*
X17840155Y-2745778D01*
X17838436Y-2736990D01*
X17843436Y-2729561D01*
X17843938Y-2729246D01*
X17907548Y-2691818D01*
X17908848Y-2691160D01*
X17972394Y-2663880D01*
X17974102Y-2663299D01*
X18083596Y-2635222D01*
X18084010Y-2635125D01*
X18130571Y-2625215D01*
X18231799Y-2586721D01*
X18287293Y-2549548D01*
X18341225Y-2501390D01*
X18349678Y-2498437D01*
X18357290Y-2501845D01*
G37*
%TD.AperFunction*%
%TD*%
%TA.AperFunction,Conductor*%
%TO.N,Net-(D11-K)*%
G36*
X19621002Y-3668142D02*
G01*
X20362957Y-3674399D01*
X20371200Y-3677896D01*
X20374557Y-3686198D01*
X20374485Y-3687396D01*
X20288876Y-4454863D01*
X20284553Y-4462705D01*
X20275951Y-4465194D01*
X20271105Y-4463523D01*
X20233793Y-4440503D01*
X20233783Y-4440498D01*
X20176210Y-4417904D01*
X20176205Y-4417903D01*
X20103518Y-4402984D01*
X20103509Y-4402983D01*
X20095118Y-4402605D01*
X20028002Y-4399588D01*
X20027989Y-4399588D01*
X19938534Y-4408256D01*
X19938508Y-4408260D01*
X19850988Y-4428281D01*
X19764700Y-4458838D01*
X19687610Y-4496436D01*
X19687605Y-4496439D01*
X19593879Y-4564809D01*
X19585176Y-4566916D01*
X19578711Y-4563630D01*
X19452269Y-4437188D01*
X19448842Y-4428915D01*
X19451895Y-4421033D01*
X19468092Y-4403264D01*
X19515127Y-4337944D01*
X19558953Y-4258315D01*
X19622510Y-4084917D01*
X19647804Y-3921161D01*
X19637478Y-3781656D01*
X19601978Y-3683762D01*
X19602379Y-3674819D01*
X19608988Y-3668777D01*
X19613076Y-3668076D01*
X19621002Y-3668142D01*
G37*
%TD.AperFunction*%
%TD*%
%TA.AperFunction,Conductor*%
%TO.N,Net-(D11-K)*%
G36*
X19872375Y-4016920D02*
G01*
X19998274Y-4142819D01*
X20001701Y-4151092D01*
X19998843Y-4158755D01*
X19939783Y-4226899D01*
X19900280Y-4293748D01*
X19878345Y-4355390D01*
X19864883Y-4415987D01*
X19864781Y-4416406D01*
X19834824Y-4531136D01*
X19834218Y-4532882D01*
X19807319Y-4594176D01*
X19806674Y-4595432D01*
X19770793Y-4656070D01*
X19763631Y-4661445D01*
X19754766Y-4660181D01*
X19754268Y-4659868D01*
X19562869Y-4532882D01*
X19516345Y-4502015D01*
X19513064Y-4498734D01*
X19417965Y-4355397D01*
X19355234Y-4260847D01*
X19353516Y-4252060D01*
X19358516Y-4244631D01*
X19359015Y-4244318D01*
X19422629Y-4206888D01*
X19423929Y-4206230D01*
X19487476Y-4178950D01*
X19489182Y-4178369D01*
X19598670Y-4150297D01*
X19599111Y-4150193D01*
X19645659Y-4140287D01*
X19746886Y-4101795D01*
X19802379Y-4064622D01*
X19856310Y-4016465D01*
X19864763Y-4013512D01*
X19872375Y-4016920D01*
G37*
%TD.AperFunction*%
%TD*%
%TA.AperFunction,Conductor*%
%TO.N,Net-(D12-K)*%
G36*
X21096042Y-6668631D02*
G01*
X21097913Y-6672377D01*
X21097914Y-6672378D01*
X21129507Y-6717759D01*
X21129508Y-6717760D01*
X21129509Y-6717761D01*
X21172677Y-6759811D01*
X21228442Y-6798766D01*
X21293915Y-6831629D01*
X21381977Y-6856124D01*
X21443836Y-6873331D01*
X21443837Y-6873331D01*
X21443841Y-6873332D01*
X21604392Y-6878674D01*
X21745791Y-6850284D01*
X21754576Y-6852015D01*
X21759564Y-6859452D01*
X21759439Y-6864612D01*
X21570870Y-7613395D01*
X21565526Y-7620581D01*
X21556667Y-7621884D01*
X21555519Y-7621531D01*
X20851641Y-7365107D01*
X20845041Y-7359056D01*
X20844653Y-7350109D01*
X20847063Y-7346163D01*
X20855103Y-7337490D01*
X20893446Y-7282014D01*
X20922014Y-7219825D01*
X20944692Y-7138653D01*
X20955835Y-7054211D01*
X20956474Y-6960383D01*
X20946651Y-6871901D01*
X20911804Y-6751169D01*
X20912802Y-6742273D01*
X20918191Y-6737280D01*
X21080725Y-6663212D01*
X21089674Y-6662901D01*
X21096042Y-6668631D01*
G37*
%TD.AperFunction*%
%TD*%
%TA.AperFunction,Conductor*%
%TO.N,Net-(D12-K)*%
G36*
X21290251Y-6645744D02*
G01*
X21295202Y-6653206D01*
X21295374Y-6654427D01*
X21307070Y-6787574D01*
X21307027Y-6790029D01*
X21294031Y-6895481D01*
X21293967Y-6895932D01*
X21286936Y-6939070D01*
X21286064Y-7043894D01*
X21300688Y-7107309D01*
X21300691Y-7107318D01*
X21326282Y-7173302D01*
X21326079Y-7182255D01*
X21320226Y-7188180D01*
X21158147Y-7262042D01*
X21149197Y-7262354D01*
X21143049Y-7257043D01*
X21100964Y-7180701D01*
X21052512Y-7122481D01*
X21002568Y-7082242D01*
X21002557Y-7082234D01*
X20951028Y-7050502D01*
X20950511Y-7050165D01*
X20845303Y-6977460D01*
X20843608Y-6976034D01*
X20798974Y-6930592D01*
X20797986Y-6929446D01*
X20758008Y-6876531D01*
X20755755Y-6867864D01*
X20760290Y-6860143D01*
X20760785Y-6859788D01*
X20997626Y-6700409D01*
X21001903Y-6698637D01*
X21281475Y-6643968D01*
X21290251Y-6645744D01*
G37*
%TD.AperFunction*%
%TD*%
%TA.AperFunction,Conductor*%
%TO.N,Net-(D13-K)*%
G36*
X4377512Y4033213D02*
G01*
X4396419Y4025056D01*
X4540194Y3966119D01*
X4673650Y3927406D01*
X4739623Y3926309D01*
X4742971Y3926253D01*
X4742971Y3926254D01*
X4742974Y3926253D01*
X4756830Y3936207D01*
X4765546Y3938250D01*
X4773156Y3933530D01*
X4775349Y3927042D01*
X4801458Y3024368D01*
X4798272Y3016000D01*
X4790133Y3012336D01*
X4377143Y2999257D01*
X4368766Y3002420D01*
X4365079Y3010581D01*
X4365701Y3014734D01*
X4368993Y3024368D01*
X4427309Y3195045D01*
X4462415Y3404950D01*
X4457015Y3580008D01*
X4420841Y3711574D01*
X4363284Y3801044D01*
X4296333Y3848303D01*
X4291550Y3855874D01*
X4292309Y3862430D01*
X4362172Y4027016D01*
X4368558Y4033290D01*
X4377512Y4033213D01*
G37*
%TD.AperFunction*%
%TD*%
%TA.AperFunction,Conductor*%
%TO.N,Net-(D13-K)*%
G36*
X4376006Y4242358D02*
G01*
X4376532Y4241983D01*
X4436000Y4197007D01*
X4437138Y4196024D01*
X4486814Y4147162D01*
X4488025Y4145765D01*
X4555618Y4053978D01*
X4555903Y4053573D01*
X4582860Y4013519D01*
X4582868Y4013509D01*
X4656496Y3934042D01*
X4656497Y3934041D01*
X4711623Y3896578D01*
X4776165Y3864750D01*
X4782069Y3858018D01*
X4781760Y3849686D01*
X4712193Y3685794D01*
X4705806Y3679517D01*
X4697624Y3679299D01*
X4612341Y3708581D01*
X4612340Y3708582D01*
X4612338Y3708582D01*
X4612336Y3708583D01*
X4612330Y3708584D01*
X4535679Y3720267D01*
X4535672Y3720268D01*
X4470420Y3717632D01*
X4470414Y3717632D01*
X4470411Y3717631D01*
X4437798Y3712245D01*
X4409178Y3707518D01*
X4408789Y3707461D01*
X4294176Y3692475D01*
X4292398Y3692379D01*
X4225205Y3693881D01*
X4223811Y3693996D01*
X4153663Y3704022D01*
X4145958Y3708585D01*
X4143736Y3717259D01*
X4143829Y3717816D01*
X4198626Y3998073D01*
X4200398Y4002351D01*
X4359769Y4239185D01*
X4367229Y4244134D01*
X4376006Y4242358D01*
G37*
%TD.AperFunction*%
%TD*%
%TA.AperFunction,Conductor*%
%TO.N,Net-(D14-K)*%
G36*
X1223778Y2861787D02*
G01*
X1371641Y2822169D01*
X1378745Y2816718D01*
X1380148Y2808908D01*
X1366014Y2725751D01*
X1366884Y2554082D01*
X1397082Y2410232D01*
X1397083Y2410230D01*
X1397084Y2410226D01*
X1447874Y2307524D01*
X1447875Y2307523D01*
X1447876Y2307522D01*
X1507235Y2249291D01*
X1510741Y2241051D01*
X1508176Y2233627D01*
X932672Y1514669D01*
X924827Y1510352D01*
X916226Y1512847D01*
X911972Y1520215D01*
X773365Y2428540D01*
X775505Y2437233D01*
X783166Y2441869D01*
X784067Y2441971D01*
X784988Y2442037D01*
X841828Y2454483D01*
X896312Y2478803D01*
X960874Y2523271D01*
X1019806Y2579326D01*
X1081546Y2656045D01*
X1131889Y2736532D01*
X1184784Y2861788D01*
X1191159Y2868075D01*
X1198590Y2868536D01*
X1223778Y2861787D01*
G37*
%TD.AperFunction*%
%TD*%
%TA.AperFunction,Conductor*%
%TO.N,Net-(D14-K)*%
G36*
X1304253Y2898277D02*
G01*
X1304313Y2898237D01*
X1539046Y2740322D01*
X1543997Y2732860D01*
X1542223Y2724083D01*
X1541754Y2723436D01*
X1468242Y2628823D01*
X1467233Y2627685D01*
X1398169Y2559329D01*
X1397970Y2559137D01*
X1369872Y2532616D01*
X1369868Y2532612D01*
X1322329Y2473919D01*
X1300976Y2447555D01*
X1300975Y2447554D01*
X1300975Y2447553D01*
X1270238Y2384169D01*
X1245571Y2308238D01*
X1239755Y2301428D01*
X1231415Y2300552D01*
X1059702Y2346561D01*
X1052598Y2352012D01*
X1051290Y2360317D01*
X1072069Y2457137D01*
X1076589Y2537423D01*
X1066940Y2605468D01*
X1047568Y2676354D01*
X1047516Y2676552D01*
X1008778Y2829567D01*
X1010069Y2838428D01*
X1017249Y2843780D01*
X1017765Y2843898D01*
X1295465Y2899997D01*
X1304253Y2898277D01*
G37*
%TD.AperFunction*%
%TD*%
%TA.AperFunction,Conductor*%
%TO.N,Net-(D15-K)*%
G36*
X-3201361Y-224538D02*
G01*
X-3197560Y-231958D01*
X-3190887Y-292849D01*
X-3146922Y-469579D01*
X-3146921Y-469581D01*
X-3085106Y-605300D01*
X-3017405Y-689800D01*
X-2954850Y-726918D01*
X-2949484Y-734086D01*
X-2949875Y-741110D01*
X-3274832Y-1602166D01*
X-3280959Y-1608696D01*
X-3289909Y-1608981D01*
X-3296413Y-1602910D01*
X-3688199Y-748136D01*
X-3688530Y-739188D01*
X-3682437Y-732626D01*
X-3681356Y-732195D01*
X-3659683Y-724795D01*
X-3606796Y-695508D01*
X-3560012Y-656003D01*
X-3510609Y-596315D01*
X-3470311Y-528281D01*
X-3435032Y-444732D01*
X-3411544Y-361493D01*
X-3399492Y-241426D01*
X-3395256Y-233538D01*
X-3388465Y-230912D01*
X-3209801Y-221549D01*
X-3201361Y-224538D01*
G37*
%TD.AperFunction*%
%TD*%
%TA.AperFunction,Conductor*%
%TO.N,Net-(D15-K)*%
G36*
X-3018366Y-255978D02*
G01*
X-3010938Y-260976D01*
X-3009219Y-269765D01*
X-3009488Y-270833D01*
X-3048456Y-399645D01*
X-3049278Y-401662D01*
X-3098609Y-496379D01*
X-3098802Y-496734D01*
X-3120211Y-534585D01*
X-3159254Y-635625D01*
X-3168786Y-702824D01*
X-3168787Y-702828D01*
X-3168989Y-777518D01*
X-3172438Y-785782D01*
X-3180077Y-789170D01*
X-3357551Y-798471D01*
X-3365992Y-795482D01*
X-3369810Y-787901D01*
X-3379972Y-681545D01*
X-3400930Y-599824D01*
X-3434923Y-532749D01*
X-3443325Y-520468D01*
X-3485236Y-459207D01*
X-3485236Y-459208D01*
X-3485258Y-459176D01*
X-3542674Y-376425D01*
X-3544573Y-367675D01*
X-3539730Y-360143D01*
X-3539648Y-360086D01*
X-3304108Y-201728D01*
X-3295331Y-199957D01*
X-3018366Y-255978D01*
G37*
%TD.AperFunction*%
%TD*%
%TA.AperFunction,Conductor*%
%TO.N,Net-(D16-K)*%
G36*
X-6586301Y-3131039D02*
G01*
X-6578871Y-3136037D01*
X-6577151Y-3144825D01*
X-6577343Y-3145628D01*
X-6595760Y-3212172D01*
X-6596386Y-3213896D01*
X-6624091Y-3274801D01*
X-6625130Y-3276628D01*
X-6689723Y-3369669D01*
X-6689838Y-3369831D01*
X-6737313Y-3435797D01*
X-6737314Y-3435799D01*
X-6769490Y-3521988D01*
X-6773810Y-3580046D01*
X-6773809Y-3580049D01*
X-6768264Y-3640891D01*
X-6770926Y-3649441D01*
X-6778086Y-3653509D01*
X-6953761Y-3681331D01*
X-6962468Y-3679240D01*
X-6967052Y-3672124D01*
X-6984683Y-3586074D01*
X-7008337Y-3512198D01*
X-7062525Y-3401958D01*
X-7111387Y-3305674D01*
X-7111956Y-3304357D01*
X-7121971Y-3276628D01*
X-7138238Y-3231587D01*
X-7138593Y-3230415D01*
X-7159547Y-3145373D01*
X-7158199Y-3136520D01*
X-7150986Y-3131214D01*
X-7150552Y-3131115D01*
X-6870703Y-3074482D01*
X-6866066Y-3074482D01*
X-6586301Y-3131039D01*
G37*
%TD.AperFunction*%
%TD*%
%TA.AperFunction,Conductor*%
%TO.N,Net-(D16-K)*%
G36*
X-6770132Y-3348263D02*
G01*
X-6766993Y-3353960D01*
X-6755436Y-3405216D01*
X-6755435Y-3405219D01*
X-6730611Y-3462768D01*
X-6730610Y-3462769D01*
X-6648412Y-3575631D01*
X-6539810Y-3663519D01*
X-6419090Y-3716829D01*
X-6292440Y-3733771D01*
X-6184344Y-3716449D01*
X-6175634Y-3718524D01*
X-6170941Y-3726151D01*
X-6172189Y-3733542D01*
X-6535472Y-4409354D01*
X-6542407Y-4415018D01*
X-6550059Y-4414702D01*
X-7203612Y-4157705D01*
X-7210057Y-4151489D01*
X-7210218Y-4142535D01*
X-7206143Y-4137305D01*
X-7188511Y-4124682D01*
X-7141677Y-4074530D01*
X-7100790Y-4011384D01*
X-7056305Y-3914579D01*
X-7021158Y-3806581D01*
X-6991065Y-3672368D01*
X-6972918Y-3540975D01*
X-6968503Y-3356255D01*
X-6964879Y-3348068D01*
X-6956806Y-3344836D01*
X-6778405Y-3344836D01*
X-6770132Y-3348263D01*
G37*
%TD.AperFunction*%
%TD*%
M02*
