%TF.GenerationSoftware,KiCad,Pcbnew,9.0.6-rc1-2-g790dee114b*%
%TF.CreationDate,2025-10-17T23:56:23-04:00*%
%TF.ProjectId,MetamerBoard,4d657461-6d65-4724-926f-6172642e6b69,rev?*%
%TF.SameCoordinates,Original*%
%TF.FileFunction,Profile,NP*%
%FSLAX46Y46*%
G04 Gerber Fmt 4.6, Leading zero omitted, Abs format (unit mm)*
G04 Created by KiCad (PCBNEW 9.0.6-rc1-2-g790dee114b) date 2025-10-17 23:56:23*
%MOMM*%
%LPD*%
G01*
G04 APERTURE LIST*
%TA.AperFunction,Profile*%
%ADD10C,0.066065*%
%TD*%
G04 APERTURE END LIST*
D10*
X-18731542Y32392132D02*
X-18021619Y32233534D01*
X-17227686Y31976752D01*
X-16359451Y31627961D01*
X-15426625Y31193336D01*
X-14438918Y30679052D01*
X-13406038Y30091284D01*
X-12337697Y29436208D01*
X-11243605Y28719998D01*
X-10133470Y27948830D01*
X-9017003Y27128879D01*
X-7903913Y26266320D01*
X-6803911Y25367328D01*
X-5726707Y24438079D01*
X-4682010Y23484747D01*
X-3679530Y22513507D01*
X8017505Y11014672D01*
X16066553Y3101887D01*
X25746400Y-6516020D01*
X26561380Y-7331007D01*
X-12953013Y-25364172D01*
X-13267083Y-25242880D01*
X-13344668Y-25209996D01*
X-13562079Y-25103812D01*
X-13716026Y-25019701D01*
X-13896297Y-24913029D01*
X-14100016Y-24782382D01*
X-14324305Y-24626348D01*
X-14566286Y-24443516D01*
X-14823083Y-24232472D01*
X-15091819Y-23991805D01*
X-15369615Y-23720103D01*
X-15653595Y-23415952D01*
X-15940882Y-23077941D01*
X-16228597Y-22704657D01*
X-16513865Y-22294688D01*
X-16522902Y-22281012D01*
X-16531424Y-22266817D01*
X-17684581Y-20145334D01*
X-18747256Y-17786801D01*
X-19721668Y-15229595D01*
X-20610037Y-12512095D01*
X-21414583Y-9672677D01*
X-22137524Y-6749721D01*
X-22781081Y-3781604D01*
X-23347472Y-806704D01*
X-23838917Y2136602D01*
X-24257635Y5009936D01*
X-24885769Y10393175D01*
X-25249629Y15035991D01*
X-25366970Y18631361D01*
X-25349665Y19965939D01*
X-25296096Y21279803D01*
X-25203779Y22563929D01*
X-25070232Y23809295D01*
X-24892970Y25006880D01*
X-24787170Y25584935D01*
X-24669510Y26147661D01*
X-24539680Y26693931D01*
X-24397370Y27222616D01*
X-24242269Y27732589D01*
X-24074066Y28222723D01*
X-23892451Y28691889D01*
X-23697115Y29138959D01*
X-23487745Y29562806D01*
X-23264033Y29962302D01*
X-23025667Y30336319D01*
X-22772338Y30683730D01*
X-22503734Y31003407D01*
X-22219545Y31294222D01*
X-21919462Y31555046D01*
X-21603173Y31784753D01*
X-21270368Y31982215D01*
X-20920737Y32146304D01*
X-20553970Y32275891D01*
X-20169755Y32369850D01*
X-19767783Y32427052D01*
X-19347743Y32446370D01*
X-18731542Y32392132D01*
M02*
