%TF.GenerationSoftware,KiCad,Pcbnew,9.0.6-rc1-2-g790dee114b*%
%TF.CreationDate,2025-10-17T23:20:01-04:00*%
%TF.ProjectId,MetamerBoard,4d657461-6d65-4724-926f-6172642e6b69,rev?*%
%TF.SameCoordinates,Original*%
%TF.FileFunction,Paste,Bot*%
%TF.FilePolarity,Positive*%
%FSLAX45Y45*%
G04 Gerber Fmt 4.5, Leading zero omitted, Abs format (unit mm)*
G04 Created by KiCad (PCBNEW 9.0.6-rc1-2-g790dee114b) date 2025-10-17 23:20:01*
%MOMM*%
%LPD*%
G01*
G04 APERTURE LIST*
G04 Aperture macros list*
%AMRoundRect*
0 Rectangle with rounded corners*
0 $1 Rounding radius*
0 $2 $3 $4 $5 $6 $7 $8 $9 X,Y pos of 4 corners*
0 Add a 4 corners polygon primitive as box body*
4,1,4,$2,$3,$4,$5,$6,$7,$8,$9,$2,$3,0*
0 Add four circle primitives for the rounded corners*
1,1,$1+$1,$2,$3*
1,1,$1+$1,$4,$5*
1,1,$1+$1,$6,$7*
1,1,$1+$1,$8,$9*
0 Add four rect primitives between the rounded corners*
20,1,$1+$1,$2,$3,$4,$5,0*
20,1,$1+$1,$4,$5,$6,$7,0*
20,1,$1+$1,$6,$7,$8,$9,0*
20,1,$1+$1,$8,$9,$2,$3,0*%
G04 Aperture macros list end*
%ADD10C,0.000000*%
%ADD11RoundRect,0.250000X1.807008X0.140436X-1.293978X1.269103X-1.807008X-0.140436X1.293978X-1.269103X0*%
%ADD12RoundRect,0.237500X-0.048290X-0.369771X0.372239X0.022378X0.048290X0.369771X-0.372239X-0.022378X0*%
%ADD13RoundRect,0.225000X0.225000X0.250000X-0.225000X0.250000X-0.225000X-0.250000X0.225000X-0.250000X0*%
%ADD14RoundRect,0.050000X0.300520X0.229810X0.229810X0.300520X-0.300520X-0.229810X-0.229810X-0.300520X0*%
%ADD15RoundRect,0.050000X0.300520X-0.229810X-0.229810X0.300520X-0.300520X0.229810X0.229810X-0.300520X0*%
%ADD16RoundRect,0.167500X0.236881X0.000000X0.000000X0.236881X-0.236881X0.000000X0.000000X-0.236881X0*%
%ADD17RoundRect,0.225000X0.335876X0.017678X0.017678X0.335876X-0.335876X-0.017678X-0.017678X-0.335876X0*%
%ADD18RoundRect,0.225000X-0.098265X-0.321666X0.309574X-0.131488X0.098265X0.321666X-0.309574X0.131488X0*%
%ADD19RoundRect,0.140000X-0.140000X-0.170000X0.140000X-0.170000X0.140000X0.170000X-0.140000X0.170000X0*%
%ADD20RoundRect,0.200000X0.275000X-0.200000X0.275000X0.200000X-0.275000X0.200000X-0.275000X-0.200000X0*%
%ADD21RoundRect,0.200000X-0.200000X-0.275000X0.200000X-0.275000X0.200000X0.275000X-0.200000X0.275000X0*%
%ADD22RoundRect,0.200000X-0.065042X-0.333758X0.297482X-0.164711X0.065042X0.333758X-0.297482X0.164711X0*%
%ADD23RoundRect,0.200000X0.190011X-0.281994X0.326819X0.093883X-0.190011X0.281994X-0.326819X-0.093883X0*%
%ADD24RoundRect,0.175000X0.481797X0.031574X0.333880X0.348782X-0.481797X-0.031574X-0.333880X-0.348782X0*%
%ADD25RoundRect,0.200000X-0.190011X0.281994X-0.326819X-0.093883X0.190011X-0.281994X0.326819X0.093883X0*%
%ADD26RoundRect,0.100000X0.100000X-0.225000X0.100000X0.225000X-0.100000X0.225000X-0.100000X-0.225000X0*%
%ADD27RoundRect,0.225000X-0.296936X-0.157969X0.125926X-0.311878X0.296936X0.157969X-0.125926X0.311878X0*%
%ADD28RoundRect,0.225000X-0.157969X0.296936X-0.311878X-0.125926X0.157969X-0.296936X0.311878X0.125926X0*%
%ADD29RoundRect,0.200000X-0.275000X0.200000X-0.275000X-0.200000X0.275000X-0.200000X0.275000X0.200000X0*%
%ADD30RoundRect,0.050000X-0.228532X0.029970X0.194330X-0.123939X0.228532X-0.029970X-0.194330X0.123939X0*%
%ADD31RoundRect,0.050000X-0.123939X-0.194330X-0.029970X-0.228532X0.123939X0.194330X0.029970X0.228532X0*%
%ADD32RoundRect,0.200000X-0.337522X-0.041279X-0.064723X-0.333820X0.337522X0.041279X0.064723X0.333820X0*%
%ADD33RoundRect,0.200000X-0.335876X-0.053033X-0.053033X-0.335876X0.335876X0.053033X0.053033X0.335876X0*%
G04 APERTURE END LIST*
D10*
%TO.C,U1*%
G36*
X14000184Y-10265615D02*
G01*
X14000184Y-10265615D01*
G75*
G02*
X14006593Y-10262627I4696J-1715D01*
G01*
X14112779Y-10301275D01*
X14112778Y-10301275D01*
G75*
G02*
X14115766Y-10307684I-1708J-4695D01*
G01*
X14077118Y-10413870D01*
X14077118Y-10413870D01*
G75*
G02*
X14070710Y-10416858I-4699J1710D01*
G01*
X13964525Y-10378210D01*
X13964525Y-10378210D01*
G75*
G02*
X13961536Y-10371801I1705J4700D01*
G01*
X14000185Y-10265616D01*
X14000184Y-10265615D01*
G37*
G36*
X14049093Y-10131239D02*
G01*
X14049093Y-10131239D01*
G75*
G02*
X14055502Y-10128251I4697J-1711D01*
G01*
X14161687Y-10166900D01*
X14161687Y-10166900D01*
G75*
G02*
X14164675Y-10173309I-1707J-4700D01*
G01*
X14126027Y-10279494D01*
X14126027Y-10279494D01*
G75*
G02*
X14119619Y-10282482I-4698J1714D01*
G01*
X14013434Y-10243834D01*
X14013434Y-10243833D01*
G75*
G02*
X14010445Y-10237424I1706J4703D01*
G01*
X14049093Y-10131240D01*
X14049093Y-10131239D01*
G37*
G36*
X13914717Y-10082330D02*
G01*
X13914717Y-10082330D01*
G75*
G02*
X13921126Y-10079342I4703J-1710D01*
G01*
X13921126Y-10079343D01*
X14027311Y-10117991D01*
X14027311Y-10117991D01*
G75*
G02*
X14030299Y-10124400I-1711J-4699D01*
G01*
X13991651Y-10230585D01*
X13991651Y-10230585D01*
G75*
G02*
X13985243Y-10233573I-4702J1715D01*
G01*
X13879057Y-10194925D01*
X13879058Y-10194925D01*
G75*
G02*
X13876069Y-10188516I1712J4695D01*
G01*
X13914717Y-10082331D01*
X13914717Y-10082330D01*
G37*
G36*
X13865808Y-10216706D02*
G01*
X13865808Y-10216706D01*
G75*
G02*
X13872217Y-10213718I4702J-1714D01*
G01*
X13978402Y-10252367D01*
X13978402Y-10252367D01*
G75*
G02*
X13981390Y-10258776I-1712J-4703D01*
G01*
X13981391Y-10258776D01*
X13942743Y-10364961D01*
X13942742Y-10364961D01*
G75*
G02*
X13936334Y-10367949I-4703J1711D01*
G01*
X13830149Y-10329301D01*
X13830149Y-10329301D01*
G75*
G02*
X13827160Y-10322893I1711J4701D01*
G01*
X13865808Y-10216707D01*
X13865808Y-10216706D01*
G37*
%TD*%
D11*
%TO.C,TP5*%
X13525389Y-9729470D03*
%TD*%
D12*
%TO.C,D18*%
X15013896Y-11026644D03*
X15141882Y-10907295D03*
%TD*%
D13*
%TO.C,C4*%
X13283389Y-11457469D03*
X13439389Y-11457469D03*
%TD*%
D14*
%TO.C,U3*%
X15676958Y-10835978D03*
X15648674Y-10807693D03*
X15620389Y-10779409D03*
X15592105Y-10751125D03*
X15563821Y-10722841D03*
D15*
X15471897Y-10722841D03*
X15443613Y-10751125D03*
X15415328Y-10779409D03*
X15387044Y-10807693D03*
X15358760Y-10835978D03*
D14*
X15358760Y-10927901D03*
X15387044Y-10956186D03*
X15415328Y-10984470D03*
X15443613Y-11012754D03*
X15471897Y-11041039D03*
D15*
X15563821Y-11041039D03*
X15592105Y-11012754D03*
X15620389Y-10984470D03*
X15648674Y-10956186D03*
X15676958Y-10927901D03*
D16*
X15517859Y-10823957D03*
X15459876Y-10881940D03*
X15575842Y-10881940D03*
X15517859Y-10939922D03*
%TD*%
D17*
%TO.C,C7*%
X15930543Y-10954624D03*
X15820235Y-10844315D03*
%TD*%
D18*
%TO.C,C5*%
X15979697Y-11642434D03*
X16121081Y-11576505D03*
%TD*%
D19*
%TO.C,C6*%
X15635389Y-11149470D03*
X15735389Y-11149470D03*
%TD*%
D20*
%TO.C,R8*%
X14145389Y-11487469D03*
X14145389Y-11651469D03*
%TD*%
%TO.C,R7*%
X13530389Y-11946469D03*
X13530389Y-11782469D03*
%TD*%
D21*
%TO.C,R2*%
X13638389Y-11944469D03*
X13802389Y-11944469D03*
%TD*%
D22*
%TO.C,R10*%
X16006072Y-11374124D03*
X16154706Y-11304815D03*
%TD*%
D23*
%TO.C,R6*%
X13442343Y-10786524D03*
X13498435Y-10632415D03*
%TD*%
D24*
%TO.C,D17*%
X14518454Y-12256124D03*
X14598752Y-12428322D03*
X14332026Y-12447878D03*
%TD*%
D21*
%TO.C,R12*%
X13688389Y-11254469D03*
X13852389Y-11254469D03*
%TD*%
D25*
%TO.C,R5*%
X13713435Y-10502415D03*
X13657343Y-10656524D03*
%TD*%
D26*
%TO.C,U2*%
X13710389Y-11634469D03*
X13645389Y-11634469D03*
X13580389Y-11634469D03*
X13580389Y-11444469D03*
X13645389Y-11444469D03*
X13710389Y-11444469D03*
%TD*%
D27*
%TO.C,C1*%
X13992093Y-10557792D03*
X14138685Y-10611147D03*
%TD*%
D23*
%TO.C,R3*%
X13837343Y-10881524D03*
X13893435Y-10727415D03*
%TD*%
D28*
%TO.C,C2*%
X13602067Y-10361174D03*
X13548711Y-10507766D03*
%TD*%
D29*
%TO.C,R1*%
X14145389Y-11772469D03*
X14145389Y-11936469D03*
%TD*%
D30*
%TO.C,U1*%
X13767144Y-10313819D03*
X13780825Y-10276231D03*
X13794506Y-10238643D03*
X13808187Y-10201055D03*
X13821867Y-10163468D03*
X13835548Y-10125880D03*
X13849229Y-10088292D03*
X13862910Y-10050705D03*
D31*
X13930200Y-10019327D03*
X13967787Y-10033008D03*
X14005375Y-10046688D03*
X14042963Y-10060369D03*
X14080551Y-10074050D03*
X14118138Y-10087731D03*
X14155726Y-10101412D03*
X14193314Y-10115092D03*
D30*
X14224692Y-10182382D03*
X14211011Y-10219970D03*
X14197330Y-10257558D03*
X14183649Y-10295146D03*
X14169968Y-10332733D03*
X14156288Y-10370321D03*
X14142607Y-10407909D03*
X14128926Y-10445496D03*
D31*
X14061636Y-10476874D03*
X14024048Y-10463193D03*
X13986461Y-10449513D03*
X13948873Y-10435832D03*
X13911285Y-10422151D03*
X13873698Y-10408470D03*
X13836110Y-10394789D03*
X13798522Y-10381109D03*
%TD*%
D32*
%TO.C,R9*%
X14749465Y-10949499D03*
X14861313Y-11069441D03*
%TD*%
D33*
%TO.C,R11*%
X16017406Y-11041487D03*
X16133372Y-11157452D03*
%TD*%
D23*
%TO.C,R4*%
X13720494Y-10836047D03*
X13776586Y-10681938D03*
%TD*%
D26*
%TO.C,U4*%
X14010389Y-11634469D03*
X13945389Y-11634469D03*
X13880389Y-11634469D03*
X13880389Y-11444469D03*
X13945389Y-11444469D03*
X14010389Y-11444469D03*
%TD*%
M02*
