M48
; DRILL file {KiCad 9.0.6-rc1-2-g790dee114b} date 2025-10-17T23:20:01-0400
; FORMAT={-:-/ absolute / inch / decimal}
; #@! TF.CreationDate,2025-10-17T23:20:01-04:00
; #@! TF.GenerationSoftware,Kicad,Pcbnew,9.0.6-rc1-2-g790dee114b
; #@! TF.FileFunction,MixedPlating,1,2
FMAT,2
INCH
; #@! TA.AperFunction,Plated,PTH,ViaDrill
T1C0.0079
; #@! TA.AperFunction,Plated,PTH,ViaDrill
T2C0.0118
; #@! TA.AperFunction,Plated,PTH,ComponentDrill
T3C0.0150
; #@! TA.AperFunction,Plated,PTH,ComponentDrill
T4C0.0433
; #@! TA.AperFunction,NonPlated,NPTH,ComponentDrill
T5C0.0454
%
G90
G05
T1
X5.4677Y-4.0192
X5.4947Y-4.0772
X5.5102Y-4.0347
X5.5257Y-3.9921
X5.5527Y-4.0502
T2
X4.9204Y-3.6279
X4.9253Y-3.6986
X4.976Y-4.1091
X4.9775Y-3.674
X4.9883Y-4.1789
X5.0415Y-4.1917
X5.0839Y-3.1152
X5.1124Y-3.1514
X5.1616Y-3.1435
X5.2147Y-5.0047
X5.2285Y-4.551
X5.2285Y-4.9388
X5.2639Y-5.0805
X5.3387Y-4.2281
X5.3427Y-5.1435
X5.3466Y-5.0962
X5.3496Y-3.7675
X5.3624Y-4.1199
X5.3722Y-4.6336
X5.3771Y-5.1081
X5.425Y-5.0612
X5.4578Y-5.0756
X5.4903Y-4.6356
X5.5526Y-4.3945
X5.5691Y-4.7419
X5.5907Y-4.3945
X5.635Y-4.4939
X5.6724Y-4.4939
X5.6872Y-4.8797
X5.6931Y-4.2813
X5.7344Y-4.2813
X5.7374Y-4.4132
X5.7389Y-3.6246
X5.7689Y-4.422
X5.7907Y-3.6747
X5.8397Y-4.1504
X5.8742Y-4.1592
X5.8791Y-4.3
X5.887Y-4.2646
X5.9141Y-3.7858
X5.9598Y-4.1386
X5.9726Y-3.8443
X5.9883Y-4.1159
X6.0257Y-4.2272
X6.0435Y-4.1957
X6.1094Y-4.2842
X6.195Y-4.4612
X6.2021Y-4.2352
X6.2645Y-4.1277
X6.323Y-4.1868
X6.3269Y-4.5175
X6.384Y-4.4151
X6.4732Y-4.3325
X6.5013Y-4.5049
X6.5316Y-4.3909
X6.5346Y-4.4398
X6.5913Y-4.4506
X6.5966Y-4.488
X6.6498Y-4.5372
X6.7167Y-4.5057
T3
X6.3142Y-4.6398
X6.3597Y-4.6191
X6.4052Y-4.5983
X6.4507Y-4.5776
X6.4962Y-4.5569
X6.5417Y-4.5361
T4
X5.847Y-4.5549
X5.847Y-4.6549
X5.947Y-4.5549
X5.947Y-4.6549
X6.047Y-4.5549
X6.047Y-4.6549
T5
X5.0464Y-3.1553
X6.0486Y-4.7281
M30
