%TF.GenerationSoftware,KiCad,Pcbnew,9.0.6-rc1-2-g790dee114b*%
%TF.CreationDate,2025-10-17T23:20:01-04:00*%
%TF.ProjectId,MetamerBoard,4d657461-6d65-4724-926f-6172642e6b69,rev?*%
%TF.SameCoordinates,Original*%
%TF.FileFunction,Legend,Bot*%
%TF.FilePolarity,Positive*%
%FSLAX45Y45*%
G04 Gerber Fmt 4.5, Leading zero omitted, Abs format (unit mm)*
G04 Created by KiCad (PCBNEW 9.0.6-rc1-2-g790dee114b) date 2025-10-17 23:20:01*
%MOMM*%
%LPD*%
G01*
G04 APERTURE LIST*
%ADD10C,0.250000*%
%ADD11C,0.200000*%
%ADD12C,0.150000*%
%ADD13C,0.190500*%
%ADD14C,0.254000*%
%ADD15C,0.100000*%
%ADD16C,0.120000*%
G04 APERTURE END LIST*
D10*
G36*
X13864686Y-8428711D02*
G01*
X13885359Y-8278914D01*
X13873380Y-8276203D01*
X13852703Y-8426004D01*
X13864686Y-8428711D01*
G37*
G36*
X13796290Y-8346099D02*
G01*
X13831802Y-8298972D01*
X13820879Y-8290741D01*
X13817594Y-8295100D01*
X13816974Y-8290727D01*
X13815543Y-8286944D01*
X13813306Y-8283634D01*
X13810184Y-8280724D01*
X13805942Y-8278238D01*
X13801722Y-8277084D01*
X13797380Y-8277146D01*
X13792751Y-8278483D01*
X13792367Y-8273432D01*
X13790829Y-8268923D01*
X13788104Y-8264810D01*
X13784017Y-8261006D01*
X13779239Y-8258178D01*
X13774590Y-8256858D01*
X13769912Y-8256883D01*
X13765026Y-8258286D01*
X13761464Y-8260328D01*
X13757682Y-8263572D01*
X13753624Y-8268303D01*
X13731685Y-8297416D01*
X13742609Y-8305648D01*
X13762184Y-8279670D01*
X13766769Y-8274243D01*
X13769525Y-8272029D01*
X13772660Y-8270777D01*
X13775700Y-8270951D01*
X13778921Y-8272618D01*
X13781146Y-8274898D01*
X13782427Y-8277635D01*
X13782805Y-8280988D01*
X13782240Y-8283942D01*
X13780429Y-8287940D01*
X13776837Y-8293342D01*
X13758526Y-8317642D01*
X13769449Y-8325873D01*
X13789025Y-8299896D01*
X13793609Y-8294469D01*
X13796366Y-8292254D01*
X13799501Y-8291003D01*
X13802540Y-8291176D01*
X13805761Y-8292844D01*
X13807984Y-8295122D01*
X13809265Y-8297858D01*
X13809645Y-8301214D01*
X13809080Y-8304168D01*
X13807270Y-8308166D01*
X13803677Y-8313568D01*
X13785366Y-8337868D01*
X13796290Y-8346099D01*
G37*
G36*
X13723966Y-8218215D02*
G01*
X13728790Y-8220022D01*
X13733574Y-8222995D01*
X13737842Y-8226859D01*
X13741030Y-8231146D01*
X13743244Y-8235915D01*
X13744514Y-8241269D01*
X13744692Y-8247814D01*
X13743595Y-8254095D01*
X13741196Y-8260233D01*
X13737375Y-8266327D01*
X13732795Y-8271441D01*
X13727889Y-8275193D01*
X13722600Y-8277742D01*
X13716829Y-8279164D01*
X13711664Y-8279369D01*
X13706602Y-8278498D01*
X13701539Y-8276507D01*
X13696389Y-8273265D01*
X13691228Y-8268693D01*
X13687584Y-8264031D01*
X13685229Y-8259228D01*
X13683966Y-8254735D01*
X13683475Y-8249893D01*
X13683799Y-8244618D01*
X13696851Y-8246372D01*
X13696687Y-8250776D01*
X13697327Y-8254812D01*
X13698539Y-8257762D01*
X13700413Y-8260416D01*
X13703030Y-8262817D01*
X13706764Y-8265052D01*
X13710281Y-8266090D01*
X13713711Y-8266095D01*
X13717663Y-8265002D01*
X13721382Y-8262872D01*
X13724947Y-8259554D01*
X13691187Y-8234114D01*
X13691658Y-8233489D01*
X13709189Y-8233489D01*
X13730987Y-8249915D01*
X13732280Y-8245450D01*
X13732178Y-8241355D01*
X13731258Y-8238054D01*
X13729481Y-8235139D01*
X13726743Y-8232527D01*
X13723630Y-8230673D01*
X13720526Y-8229740D01*
X13717339Y-8229645D01*
X13713079Y-8230803D01*
X13709189Y-8233489D01*
X13691658Y-8233489D01*
X13692201Y-8232768D01*
X13697636Y-8226543D01*
X13703010Y-8222153D01*
X13708379Y-8219299D01*
X13713836Y-8217785D01*
X13719017Y-8217473D01*
X13723966Y-8218215D01*
G37*
G36*
X13672051Y-8194249D02*
G01*
X13680477Y-8200599D01*
X13652491Y-8237739D01*
X13663414Y-8245970D01*
X13691401Y-8208830D01*
X13696082Y-8212358D01*
X13703608Y-8202371D01*
X13698927Y-8198843D01*
X13711862Y-8181678D01*
X13700938Y-8173446D01*
X13688003Y-8190612D01*
X13679577Y-8184262D01*
X13672051Y-8194249D01*
G37*
G36*
X13638268Y-8153133D02*
G01*
X13634078Y-8158693D01*
X13639094Y-8157875D01*
X13643840Y-8158230D01*
X13648451Y-8159740D01*
X13653041Y-8162515D01*
X13657375Y-8166460D01*
X13660619Y-8170887D01*
X13662873Y-8175866D01*
X13664156Y-8181511D01*
X13664310Y-8187227D01*
X13663270Y-8192886D01*
X13660971Y-8198601D01*
X13657255Y-8204469D01*
X13653038Y-8209227D01*
X13648417Y-8212926D01*
X13643345Y-8215666D01*
X13637747Y-8217492D01*
X13631968Y-8218195D01*
X13626444Y-8217606D01*
X13621036Y-8215719D01*
X13615624Y-8212404D01*
X13611780Y-8208858D01*
X13609021Y-8204898D01*
X13607241Y-8200451D01*
X13606422Y-8195393D01*
X13602755Y-8200260D01*
X13591788Y-8191996D01*
X13592959Y-8190441D01*
X13615131Y-8190441D01*
X13616248Y-8194703D01*
X13618372Y-8198329D01*
X13621587Y-8201446D01*
X13625615Y-8203705D01*
X13629785Y-8204596D01*
X13634279Y-8204175D01*
X13638587Y-8202593D01*
X13642435Y-8199998D01*
X13645904Y-8196267D01*
X13648588Y-8191828D01*
X13650045Y-8187378D01*
X13650382Y-8182806D01*
X13649550Y-8178367D01*
X13647545Y-8174602D01*
X13644264Y-8171353D01*
X13640381Y-8169129D01*
X13636298Y-8168104D01*
X13631866Y-8168234D01*
X13627640Y-8169551D01*
X13623567Y-8172238D01*
X13619549Y-8176583D01*
X13616594Y-8181484D01*
X13615197Y-8186048D01*
X13615131Y-8190441D01*
X13592959Y-8190441D01*
X13627300Y-8144869D01*
X13638268Y-8153133D01*
G37*
G36*
X13577821Y-8181471D02*
G01*
X13613334Y-8134344D01*
X13602410Y-8126113D01*
X13599125Y-8130473D01*
X13598506Y-8126099D01*
X13597075Y-8122316D01*
X13594838Y-8119006D01*
X13591716Y-8116097D01*
X13587473Y-8113610D01*
X13583253Y-8112456D01*
X13578912Y-8112518D01*
X13574283Y-8113855D01*
X13573899Y-8108804D01*
X13572361Y-8104295D01*
X13569636Y-8100182D01*
X13565548Y-8096378D01*
X13560771Y-8093551D01*
X13556122Y-8092231D01*
X13551444Y-8092255D01*
X13546557Y-8093658D01*
X13542996Y-8095701D01*
X13539214Y-8098944D01*
X13535155Y-8103676D01*
X13513217Y-8132788D01*
X13524141Y-8141020D01*
X13543716Y-8115043D01*
X13548300Y-8109616D01*
X13551057Y-8107401D01*
X13554192Y-8106149D01*
X13557232Y-8106323D01*
X13560453Y-8107990D01*
X13562678Y-8110271D01*
X13563958Y-8113008D01*
X13564337Y-8116361D01*
X13563771Y-8119315D01*
X13561961Y-8123312D01*
X13558369Y-8128714D01*
X13540058Y-8153014D01*
X13550981Y-8161246D01*
X13570556Y-8135268D01*
X13575141Y-8129841D01*
X13577897Y-8127627D01*
X13581033Y-8126375D01*
X13584072Y-8126549D01*
X13587293Y-8128216D01*
X13589515Y-8130494D01*
X13590796Y-8133231D01*
X13591177Y-8136586D01*
X13590612Y-8139540D01*
X13588801Y-8143538D01*
X13585209Y-8148940D01*
X13566898Y-8173240D01*
X13577821Y-8181471D01*
G37*
G36*
X13505498Y-8053587D02*
G01*
X13510321Y-8055395D01*
X13515106Y-8058367D01*
X13519373Y-8062231D01*
X13522561Y-8066518D01*
X13524775Y-8071287D01*
X13526045Y-8076642D01*
X13526224Y-8083186D01*
X13525127Y-8089468D01*
X13522728Y-8095606D01*
X13518907Y-8101699D01*
X13514327Y-8106814D01*
X13509420Y-8110565D01*
X13504132Y-8113115D01*
X13498361Y-8114537D01*
X13493196Y-8114741D01*
X13488133Y-8113870D01*
X13483071Y-8111880D01*
X13477920Y-8108637D01*
X13472760Y-8104065D01*
X13469116Y-8099404D01*
X13466761Y-8094600D01*
X13465497Y-8090107D01*
X13465007Y-8085265D01*
X13465331Y-8079990D01*
X13478383Y-8081744D01*
X13478218Y-8086148D01*
X13478858Y-8090184D01*
X13480070Y-8093135D01*
X13481945Y-8095788D01*
X13484562Y-8098190D01*
X13488295Y-8100424D01*
X13491813Y-8101463D01*
X13495242Y-8101467D01*
X13499195Y-8100375D01*
X13502914Y-8098244D01*
X13506479Y-8094926D01*
X13472719Y-8069486D01*
X13473190Y-8068862D01*
X13490721Y-8068862D01*
X13512519Y-8085288D01*
X13513811Y-8080823D01*
X13513710Y-8076727D01*
X13512789Y-8073426D01*
X13511013Y-8070511D01*
X13508274Y-8067899D01*
X13505162Y-8066045D01*
X13502057Y-8065112D01*
X13498870Y-8065017D01*
X13494611Y-8066176D01*
X13490721Y-8068862D01*
X13473190Y-8068862D01*
X13473733Y-8068140D01*
X13479168Y-8061916D01*
X13484542Y-8057526D01*
X13489911Y-8054672D01*
X13495368Y-8053157D01*
X13500549Y-8052845D01*
X13505498Y-8053587D01*
G37*
G36*
X13445570Y-8081813D02*
G01*
X13481083Y-8034686D01*
X13470159Y-8026455D01*
X13466929Y-8030741D01*
X13466385Y-8026787D01*
X13465317Y-8023333D01*
X13463285Y-8019979D01*
X13459806Y-8016695D01*
X13454769Y-8013805D01*
X13449489Y-8012469D01*
X13446405Y-8025864D01*
X13450132Y-8026686D01*
X13453263Y-8028402D01*
X13455828Y-8030820D01*
X13457404Y-8033366D01*
X13458144Y-8036109D01*
X13457918Y-8039644D01*
X13456357Y-8043922D01*
X13453002Y-8049223D01*
X13434647Y-8073581D01*
X13445570Y-8081813D01*
G37*
G36*
X13411977Y-7993682D02*
G01*
X13416072Y-8005232D01*
X13419697Y-8004368D01*
X13422874Y-8004724D01*
X13425816Y-8006251D01*
X13427518Y-8008041D01*
X13428245Y-8010008D01*
X13428155Y-8011700D01*
X13427392Y-8013242D01*
X13425884Y-8014450D01*
X13423798Y-8014754D01*
X13422827Y-8014642D01*
X13421135Y-8014330D01*
X13418669Y-8013879D01*
X13410972Y-8012467D01*
X13404852Y-8011705D01*
X13401074Y-8011874D01*
X13397274Y-8012929D01*
X13393954Y-8014938D01*
X13391018Y-8018005D01*
X13388453Y-8022384D01*
X13387148Y-8026964D01*
X13387043Y-8031883D01*
X13387906Y-8036089D01*
X13389672Y-8039981D01*
X13392411Y-8043639D01*
X13396273Y-8047111D01*
X13400624Y-8049814D01*
X13404742Y-8051303D01*
X13408731Y-8051743D01*
X13413026Y-8051323D01*
X13417188Y-8049977D01*
X13421299Y-8047635D01*
X13415559Y-8036635D01*
X13412055Y-8038574D01*
X13409612Y-8039180D01*
X13406566Y-8038963D01*
X13403446Y-8037348D01*
X13401109Y-8034926D01*
X13400153Y-8032404D01*
X13400272Y-8029796D01*
X13401380Y-8027518D01*
X13403161Y-8025899D01*
X13405534Y-8025029D01*
X13408437Y-8024975D01*
X13412429Y-8025660D01*
X13417898Y-8026784D01*
X13423911Y-8027682D01*
X13427422Y-8027639D01*
X13431061Y-8026708D01*
X13434146Y-8024919D01*
X13436787Y-8022202D01*
X13439207Y-8018062D01*
X13440414Y-8013759D01*
X13440469Y-8009158D01*
X13439223Y-8004381D01*
X13436584Y-8000033D01*
X13432331Y-7995992D01*
X13428832Y-7993807D01*
X13425323Y-7992465D01*
X13421744Y-7991890D01*
X13416855Y-7992136D01*
X13411977Y-7993682D01*
G37*
G36*
X13371736Y-7952288D02*
G01*
X13367547Y-7957847D01*
X13372563Y-7957030D01*
X13377309Y-7957384D01*
X13381920Y-7958894D01*
X13386510Y-7961669D01*
X13390843Y-7965614D01*
X13394087Y-7970042D01*
X13396342Y-7975020D01*
X13397625Y-7980665D01*
X13397779Y-7986381D01*
X13396739Y-7992040D01*
X13394440Y-7997755D01*
X13390723Y-8003623D01*
X13386507Y-8008382D01*
X13381885Y-8012080D01*
X13376814Y-8014820D01*
X13371215Y-8016646D01*
X13365436Y-8017349D01*
X13359913Y-8016760D01*
X13354504Y-8014874D01*
X13349092Y-8011558D01*
X13345248Y-8008012D01*
X13342490Y-8004052D01*
X13340709Y-7999605D01*
X13339891Y-7994548D01*
X13336224Y-7999414D01*
X13325256Y-7991150D01*
X13326427Y-7989596D01*
X13348600Y-7989596D01*
X13349717Y-7993857D01*
X13351840Y-7997483D01*
X13355056Y-8000600D01*
X13359084Y-8002859D01*
X13363254Y-8003751D01*
X13367748Y-8003329D01*
X13372055Y-8001747D01*
X13375904Y-7999152D01*
X13379372Y-7995421D01*
X13382056Y-7990982D01*
X13383513Y-7986532D01*
X13383850Y-7981960D01*
X13383019Y-7977521D01*
X13381014Y-7973757D01*
X13377733Y-7970507D01*
X13373850Y-7968283D01*
X13369767Y-7967258D01*
X13365334Y-7967388D01*
X13361109Y-7968706D01*
X13357036Y-7971392D01*
X13353018Y-7975738D01*
X13350062Y-7980638D01*
X13348666Y-7985202D01*
X13348600Y-7989596D01*
X13326427Y-7989596D01*
X13360769Y-7944023D01*
X13371736Y-7952288D01*
G37*
G36*
X13313762Y-7909637D02*
G01*
X13319426Y-7911834D01*
X13325017Y-7915331D01*
X13329920Y-7919742D01*
X13333592Y-7924581D01*
X13336160Y-7929908D01*
X13337669Y-7935829D01*
X13338004Y-7941911D01*
X13337104Y-7947741D01*
X13334949Y-7953440D01*
X13331418Y-7959109D01*
X13326993Y-7964005D01*
X13322127Y-7967635D01*
X13316754Y-7970130D01*
X13310762Y-7971535D01*
X13304608Y-7971764D01*
X13298752Y-7970797D01*
X13293076Y-7968622D01*
X13287487Y-7965135D01*
X13282595Y-7960723D01*
X13278939Y-7955867D01*
X13276395Y-7950504D01*
X13274920Y-7944525D01*
X13274872Y-7943551D01*
X13287841Y-7943551D01*
X13288916Y-7947868D01*
X13291214Y-7951739D01*
X13294914Y-7955280D01*
X13299337Y-7957860D01*
X13303693Y-7959004D01*
X13308142Y-7958849D01*
X13312403Y-7957470D01*
X13316377Y-7954857D01*
X13320152Y-7950795D01*
X13323284Y-7945583D01*
X13324668Y-7940863D01*
X13324594Y-7936428D01*
X13323283Y-7932131D01*
X13320980Y-7928419D01*
X13317590Y-7925187D01*
X13313549Y-7922820D01*
X13309346Y-7921629D01*
X13304854Y-7921553D01*
X13300570Y-7922705D01*
X13296415Y-7925335D01*
X13292268Y-7929783D01*
X13289405Y-7934532D01*
X13287990Y-7939073D01*
X13287841Y-7943551D01*
X13274872Y-7943551D01*
X13274618Y-7938379D01*
X13275536Y-7932526D01*
X13277684Y-7926848D01*
X13281170Y-7921245D01*
X13285647Y-7916288D01*
X13290531Y-7912646D01*
X13295887Y-7910173D01*
X13301826Y-7908820D01*
X13307933Y-7908638D01*
X13313762Y-7909637D01*
G37*
D11*
G36*
X14272787Y-9027762D02*
G01*
X14263349Y-9019844D01*
X14268740Y-9000697D01*
X14244290Y-8980181D01*
X14226629Y-8989031D01*
X14217191Y-8981113D01*
X14229799Y-8974990D01*
X14254640Y-8974990D01*
X14271969Y-8989531D01*
X14279431Y-8962696D01*
X14254640Y-8974990D01*
X14229799Y-8974990D01*
X14295166Y-8943244D01*
X14272787Y-9027762D01*
G37*
G36*
X14267588Y-8925862D02*
G01*
X14258151Y-8917943D01*
X14210896Y-8943596D01*
X14229917Y-8889565D01*
X14180522Y-8918109D01*
X14197063Y-8866684D01*
X14187625Y-8858765D01*
X14162004Y-8941226D01*
X14211034Y-8913109D01*
X14192034Y-8966424D01*
X14267588Y-8925862D01*
G37*
G36*
X14104777Y-8872910D02*
G01*
X14097945Y-8881053D01*
X14136326Y-8913259D01*
X14136731Y-8872590D01*
X14136957Y-8863901D01*
X14137378Y-8857905D01*
X14138216Y-8853347D01*
X14139547Y-8849825D01*
X14141300Y-8847135D01*
X14143666Y-8844897D01*
X14146315Y-8843429D01*
X14149321Y-8842668D01*
X14152385Y-8842739D01*
X14155466Y-8843767D01*
X14158678Y-8845903D01*
X14161298Y-8848703D01*
X14162832Y-8851700D01*
X14163409Y-8854993D01*
X14163095Y-8858362D01*
X14161948Y-8861540D01*
X14159896Y-8864613D01*
X14168390Y-8871741D01*
X14171049Y-8867658D01*
X14172835Y-8863581D01*
X14173829Y-8859458D01*
X14174064Y-8855229D01*
X14173420Y-8850586D01*
X14171803Y-8846300D01*
X14169163Y-8842275D01*
X14165360Y-8838450D01*
X14160779Y-8835201D01*
X14156344Y-8833159D01*
X14151974Y-8832166D01*
X14147576Y-8832149D01*
X14143181Y-8833021D01*
X14139251Y-8834639D01*
X14135702Y-8837016D01*
X14132481Y-8840220D01*
X14129696Y-8844406D01*
X14127691Y-8849493D01*
X14126524Y-8855671D01*
X14126141Y-8861718D01*
X14126038Y-8872780D01*
X14126103Y-8890804D01*
X14104777Y-8872910D01*
G37*
G36*
X14080922Y-8866564D02*
G01*
X14122218Y-8817349D01*
X14132172Y-8825702D01*
X14134199Y-8813527D01*
X14120189Y-8801772D01*
X14072060Y-8859129D01*
X14080922Y-8866564D01*
G37*
G36*
X14076424Y-8766401D02*
G01*
X14080689Y-8768055D01*
X14084633Y-8770712D01*
X14087932Y-8774133D01*
X14090301Y-8778045D01*
X14091796Y-8782541D01*
X14092390Y-8787762D01*
X14092039Y-8793250D01*
X14090730Y-8798877D01*
X14088381Y-8804718D01*
X14084866Y-8810840D01*
X14080014Y-8817308D01*
X14074520Y-8823172D01*
X14069123Y-8827673D01*
X14063793Y-8830986D01*
X14058483Y-8833246D01*
X14053135Y-8834544D01*
X14047890Y-8834866D01*
X14043202Y-8834174D01*
X14038939Y-8832521D01*
X14034997Y-8829866D01*
X14031696Y-8826443D01*
X14029326Y-8822530D01*
X14027830Y-8818033D01*
X14027442Y-8814619D01*
X14037601Y-8814619D01*
X14038227Y-8817607D01*
X14039494Y-8820099D01*
X14041424Y-8822199D01*
X14043827Y-8823735D01*
X14046501Y-8824550D01*
X14049552Y-8824648D01*
X14053111Y-8823933D01*
X14057266Y-8822239D01*
X14061674Y-8819496D01*
X14066402Y-8815506D01*
X14071505Y-8810022D01*
X14076063Y-8803985D01*
X14079161Y-8798639D01*
X14081052Y-8793875D01*
X14081936Y-8789581D01*
X14082022Y-8785952D01*
X14081395Y-8782965D01*
X14080128Y-8780472D01*
X14078199Y-8778372D01*
X14075796Y-8776837D01*
X14073121Y-8776022D01*
X14070070Y-8775924D01*
X14066511Y-8776638D01*
X14062436Y-8778255D01*
X14058073Y-8780944D01*
X14053346Y-8784923D01*
X14048193Y-8790460D01*
X14043678Y-8796438D01*
X14040570Y-8801787D01*
X14038634Y-8806605D01*
X14037687Y-8810990D01*
X14037601Y-8814619D01*
X14027442Y-8814619D01*
X14027236Y-8812813D01*
X14027585Y-8807319D01*
X14028888Y-8801696D01*
X14031224Y-8795871D01*
X14034719Y-8789774D01*
X14039540Y-8783346D01*
X14045066Y-8777445D01*
X14050486Y-8772920D01*
X14055830Y-8769594D01*
X14061146Y-8767328D01*
X14066492Y-8766030D01*
X14071736Y-8765709D01*
X14076424Y-8766401D01*
G37*
G36*
X13976950Y-8765650D02*
G01*
X13970117Y-8773793D01*
X14008499Y-8805999D01*
X14008904Y-8765330D01*
X14009130Y-8756641D01*
X14009551Y-8750645D01*
X14010389Y-8746087D01*
X14011720Y-8742566D01*
X14013473Y-8739876D01*
X14015839Y-8737637D01*
X14018487Y-8736169D01*
X14021494Y-8735408D01*
X14024558Y-8735479D01*
X14027638Y-8736507D01*
X14030851Y-8738643D01*
X14033470Y-8741444D01*
X14035004Y-8744440D01*
X14035582Y-8747733D01*
X14035268Y-8751102D01*
X14034121Y-8754281D01*
X14032068Y-8757354D01*
X14040563Y-8764481D01*
X14043221Y-8760398D01*
X14045008Y-8756321D01*
X14046002Y-8752198D01*
X14046236Y-8747969D01*
X14045593Y-8743326D01*
X14043976Y-8739040D01*
X14041336Y-8735015D01*
X14037532Y-8731190D01*
X14032952Y-8727941D01*
X14028517Y-8725899D01*
X14024147Y-8724906D01*
X14019748Y-8724889D01*
X14015354Y-8725761D01*
X14011424Y-8727379D01*
X14007875Y-8729756D01*
X14004654Y-8732960D01*
X14001869Y-8737146D01*
X13999864Y-8742233D01*
X13998697Y-8748412D01*
X13998314Y-8754458D01*
X13998210Y-8765520D01*
X13998275Y-8783544D01*
X13976950Y-8765650D01*
G37*
G36*
X13976039Y-8760397D02*
G01*
X13947727Y-8736640D01*
X13938684Y-8747417D01*
X13930302Y-8740384D01*
X13939345Y-8729607D01*
X13938309Y-8728737D01*
X13954359Y-8728737D01*
X13967400Y-8739680D01*
X13969917Y-8710195D01*
X13954359Y-8728737D01*
X13938309Y-8728737D01*
X13933118Y-8724382D01*
X13939951Y-8716239D01*
X13946178Y-8721464D01*
X13981938Y-8678846D01*
X13976039Y-8760397D01*
G37*
G36*
X13941090Y-8651897D02*
G01*
X13932229Y-8644462D01*
X13884200Y-8701700D01*
X13893062Y-8709135D01*
X13941090Y-8651897D01*
G37*
G36*
X13843075Y-8653316D02*
G01*
X13836243Y-8661459D01*
X13874625Y-8693665D01*
X13875030Y-8652996D01*
X13875255Y-8644307D01*
X13875676Y-8638311D01*
X13876514Y-8633753D01*
X13877846Y-8630232D01*
X13879599Y-8627542D01*
X13881964Y-8625303D01*
X13884613Y-8623835D01*
X13887620Y-8623074D01*
X13890684Y-8623145D01*
X13893764Y-8624173D01*
X13896976Y-8626309D01*
X13899596Y-8629110D01*
X13901130Y-8632106D01*
X13901707Y-8635399D01*
X13901394Y-8638768D01*
X13900246Y-8641947D01*
X13898194Y-8645020D01*
X13906688Y-8652147D01*
X13909347Y-8648064D01*
X13911134Y-8643987D01*
X13912127Y-8639864D01*
X13912362Y-8635635D01*
X13911718Y-8630992D01*
X13910102Y-8626706D01*
X13907461Y-8622681D01*
X13903658Y-8618856D01*
X13899078Y-8615608D01*
X13894642Y-8613565D01*
X13890273Y-8612572D01*
X13885874Y-8612555D01*
X13881480Y-8613427D01*
X13877549Y-8615045D01*
X13874000Y-8617422D01*
X13870780Y-8620626D01*
X13867994Y-8624812D01*
X13865990Y-8629899D01*
X13864822Y-8636078D01*
X13864439Y-8642124D01*
X13864336Y-8653186D01*
X13864401Y-8671211D01*
X13843075Y-8653316D01*
G37*
G36*
X13825007Y-8559945D02*
G01*
X13816354Y-8570258D01*
X13822442Y-8570531D01*
X13827861Y-8571751D01*
X13832733Y-8573876D01*
X13837151Y-8576926D01*
X13841337Y-8581127D01*
X13844305Y-8585598D01*
X13846191Y-8590403D01*
X13847041Y-8595644D01*
X13846835Y-8600957D01*
X13845589Y-8606077D01*
X13843257Y-8611099D01*
X13839718Y-8616097D01*
X13835569Y-8620257D01*
X13831110Y-8623301D01*
X13826284Y-8625340D01*
X13821000Y-8626413D01*
X13815617Y-8626446D01*
X13810540Y-8625407D01*
X13805660Y-8623280D01*
X13800893Y-8619962D01*
X13797147Y-8616136D01*
X13794266Y-8611682D01*
X13792213Y-8606500D01*
X13791017Y-8600452D01*
X13782292Y-8610851D01*
X13784394Y-8615850D01*
X13787091Y-8620407D01*
X13790401Y-8624567D01*
X13794364Y-8628359D01*
X13799354Y-8631987D01*
X13804484Y-8634660D01*
X13809801Y-8636448D01*
X13815365Y-8637385D01*
X13821245Y-8637460D01*
X13827617Y-8636613D01*
X13833456Y-8634820D01*
X13838854Y-8632084D01*
X13843880Y-8628355D01*
X13848580Y-8623532D01*
X13852758Y-8617760D01*
X13855727Y-8611932D01*
X13857595Y-8605987D01*
X13858417Y-8599850D01*
X13858189Y-8593431D01*
X13857125Y-8588044D01*
X13855209Y-8582921D01*
X13852404Y-8578001D01*
X13848631Y-8573239D01*
X13843774Y-8568607D01*
X13839142Y-8565192D01*
X13834495Y-8562657D01*
X13829799Y-8560923D01*
X13825007Y-8559945D01*
G37*
G36*
X13755430Y-8593649D02*
G01*
X13745993Y-8585730D01*
X13751384Y-8566583D01*
X13726934Y-8546067D01*
X13709272Y-8554918D01*
X13699835Y-8546999D01*
X13712443Y-8540876D01*
X13737284Y-8540876D01*
X13754613Y-8555417D01*
X13762074Y-8528583D01*
X13737284Y-8540876D01*
X13712443Y-8540876D01*
X13777810Y-8509131D01*
X13755430Y-8593649D01*
G37*
G36*
X13707249Y-8461851D02*
G01*
X13711617Y-8463022D01*
X13715734Y-8464778D01*
X13721735Y-8468366D01*
X13728558Y-8473562D01*
X13740578Y-8483648D01*
X13692549Y-8540886D01*
X13680702Y-8530945D01*
X13674494Y-8525221D01*
X13670127Y-8520171D01*
X13667811Y-8516598D01*
X13665883Y-8512519D01*
X13664356Y-8507868D01*
X13663255Y-8501996D01*
X13663220Y-8500535D01*
X13674449Y-8500535D01*
X13675095Y-8505451D01*
X13676436Y-8509431D01*
X13678718Y-8513506D01*
X13682095Y-8517735D01*
X13686771Y-8522161D01*
X13690521Y-8525308D01*
X13724884Y-8484355D01*
X13721135Y-8481209D01*
X13715967Y-8477364D01*
X13711212Y-8474739D01*
X13706795Y-8473148D01*
X13702637Y-8472453D01*
X13699115Y-8472520D01*
X13695399Y-8473231D01*
X13691429Y-8474654D01*
X13687719Y-8476646D01*
X13684280Y-8479265D01*
X13681085Y-8482566D01*
X13677964Y-8486954D01*
X13675876Y-8491369D01*
X13674717Y-8495870D01*
X13674449Y-8500535D01*
X13663220Y-8500535D01*
X13663123Y-8496391D01*
X13663920Y-8490973D01*
X13665654Y-8485665D01*
X13668386Y-8480402D01*
X13672223Y-8475131D01*
X13676477Y-8470728D01*
X13681095Y-8467180D01*
X13686113Y-8464422D01*
X13691486Y-8462466D01*
X13696954Y-8461421D01*
X13702584Y-8461269D01*
X13707249Y-8461851D01*
G37*
G36*
X13652047Y-8415531D02*
G01*
X13656415Y-8416702D01*
X13660532Y-8418458D01*
X13666532Y-8422046D01*
X13673356Y-8427242D01*
X13685375Y-8437327D01*
X13637347Y-8494565D01*
X13625500Y-8484624D01*
X13619292Y-8478901D01*
X13614925Y-8473851D01*
X13612609Y-8470278D01*
X13610680Y-8466199D01*
X13609154Y-8461548D01*
X13608052Y-8455676D01*
X13608018Y-8454214D01*
X13619247Y-8454214D01*
X13619892Y-8459131D01*
X13621233Y-8463110D01*
X13623516Y-8467185D01*
X13626893Y-8471415D01*
X13631569Y-8475841D01*
X13635318Y-8478987D01*
X13669682Y-8438035D01*
X13665932Y-8434889D01*
X13660765Y-8431044D01*
X13656010Y-8428419D01*
X13651593Y-8426828D01*
X13647434Y-8426133D01*
X13643913Y-8426200D01*
X13640197Y-8426911D01*
X13636226Y-8428334D01*
X13632517Y-8430326D01*
X13629077Y-8432945D01*
X13625882Y-8436246D01*
X13622762Y-8440634D01*
X13620673Y-8445048D01*
X13619515Y-8449549D01*
X13619247Y-8454214D01*
X13608018Y-8454214D01*
X13607921Y-8450071D01*
X13608718Y-8444653D01*
X13610452Y-8439345D01*
X13613184Y-8434081D01*
X13617021Y-8428811D01*
X13621275Y-8424408D01*
X13625892Y-8420860D01*
X13630911Y-8418102D01*
X13636284Y-8416146D01*
X13641752Y-8415101D01*
X13647382Y-8414948D01*
X13652047Y-8415531D01*
G37*
G36*
X13602054Y-8373107D02*
G01*
X13605681Y-8373873D01*
X13609799Y-8375541D01*
X13614521Y-8378312D01*
X13619961Y-8382438D01*
X13630173Y-8391007D01*
X13582145Y-8448245D01*
X13573284Y-8440810D01*
X13592977Y-8417340D01*
X13591443Y-8416053D01*
X13555442Y-8425839D01*
X13544904Y-8416997D01*
X13583262Y-8407427D01*
X13580666Y-8403181D01*
X13579186Y-8398788D01*
X13578927Y-8396035D01*
X13589401Y-8396035D01*
X13589764Y-8398204D01*
X13590605Y-8400245D01*
X13591913Y-8402406D01*
X13594442Y-8405541D01*
X13596591Y-8407485D01*
X13599323Y-8409777D01*
X13614480Y-8391715D01*
X13611493Y-8389209D01*
X13607133Y-8386094D01*
X13603453Y-8384445D01*
X13600284Y-8383921D01*
X13597454Y-8384329D01*
X13594815Y-8385649D01*
X13592265Y-8388034D01*
X13590504Y-8390697D01*
X13589614Y-8393360D01*
X13589401Y-8396035D01*
X13578927Y-8396035D01*
X13578750Y-8394147D01*
X13579377Y-8389534D01*
X13581089Y-8385144D01*
X13583986Y-8380877D01*
X13587230Y-8377606D01*
X13590605Y-8375278D01*
X13594153Y-8373778D01*
X13597941Y-8373051D01*
X13602054Y-8373107D01*
G37*
G36*
X13539669Y-8316010D02*
G01*
X13543934Y-8317664D01*
X13547878Y-8320321D01*
X13551177Y-8323742D01*
X13553546Y-8327653D01*
X13555041Y-8332150D01*
X13555635Y-8337371D01*
X13555284Y-8342859D01*
X13553975Y-8348486D01*
X13551626Y-8354327D01*
X13548111Y-8360449D01*
X13543259Y-8366917D01*
X13537765Y-8372781D01*
X13532368Y-8377282D01*
X13527038Y-8380595D01*
X13521728Y-8382855D01*
X13516380Y-8384153D01*
X13511135Y-8384475D01*
X13506447Y-8383783D01*
X13502184Y-8382130D01*
X13498242Y-8379475D01*
X13494941Y-8376052D01*
X13492571Y-8372139D01*
X13491075Y-8367642D01*
X13490687Y-8364228D01*
X13500846Y-8364228D01*
X13501472Y-8367216D01*
X13502739Y-8369708D01*
X13504669Y-8371808D01*
X13507072Y-8373344D01*
X13509746Y-8374159D01*
X13512797Y-8374257D01*
X13516356Y-8373542D01*
X13520511Y-8371848D01*
X13524919Y-8369105D01*
X13529647Y-8365115D01*
X13534750Y-8359631D01*
X13539308Y-8353594D01*
X13542406Y-8348248D01*
X13544297Y-8343484D01*
X13545181Y-8339190D01*
X13545267Y-8335561D01*
X13544640Y-8332574D01*
X13543373Y-8330081D01*
X13541444Y-8327981D01*
X13539041Y-8326446D01*
X13536366Y-8325631D01*
X13533315Y-8325533D01*
X13529756Y-8326247D01*
X13525681Y-8327864D01*
X13521318Y-8330553D01*
X13516591Y-8334532D01*
X13511438Y-8340069D01*
X13506923Y-8346047D01*
X13503815Y-8351396D01*
X13501879Y-8356214D01*
X13500932Y-8360599D01*
X13500846Y-8364228D01*
X13490687Y-8364228D01*
X13490481Y-8362422D01*
X13490830Y-8356928D01*
X13492133Y-8351305D01*
X13494469Y-8345480D01*
X13497964Y-8339383D01*
X13502785Y-8332955D01*
X13508311Y-8327054D01*
X13513731Y-8322529D01*
X13519075Y-8319203D01*
X13524391Y-8316937D01*
X13529737Y-8315639D01*
X13534981Y-8315318D01*
X13539669Y-8316010D01*
G37*
G36*
X13474158Y-8357633D02*
G01*
X13474636Y-8324659D01*
X13501415Y-8318880D01*
X13491461Y-8310528D01*
X13474619Y-8314397D01*
X13475419Y-8297067D01*
X13465121Y-8288426D01*
X13464510Y-8316162D01*
X13432633Y-8322789D01*
X13442758Y-8331286D01*
X13464455Y-8326510D01*
X13463863Y-8348995D01*
X13474158Y-8357633D01*
G37*
G36*
X13453730Y-8267727D02*
G01*
X13462157Y-8274798D01*
X13464477Y-8271117D01*
X13465955Y-8267392D01*
X13466658Y-8263564D01*
X13466600Y-8259563D01*
X13465762Y-8255705D01*
X13464074Y-8251978D01*
X13461448Y-8248316D01*
X13457729Y-8244677D01*
X13453601Y-8241762D01*
X13449554Y-8239922D01*
X13445517Y-8239028D01*
X13441403Y-8239025D01*
X13437758Y-8239753D01*
X13434369Y-8241197D01*
X13431173Y-8243401D01*
X13428133Y-8246465D01*
X13426004Y-8249466D01*
X13424566Y-8252520D01*
X13423758Y-8255669D01*
X13423713Y-8260323D01*
X13424842Y-8264773D01*
X13421659Y-8264022D01*
X13418527Y-8263962D01*
X13415377Y-8264585D01*
X13412025Y-8265953D01*
X13408768Y-8268183D01*
X13405562Y-8271418D01*
X13402628Y-8275581D01*
X13400739Y-8279738D01*
X13399783Y-8283956D01*
X13399722Y-8288319D01*
X13400584Y-8292633D01*
X13402423Y-8296812D01*
X13405349Y-8300934D01*
X13409545Y-8305049D01*
X13413962Y-8308184D01*
X13418181Y-8310122D01*
X13422286Y-8311031D01*
X13426372Y-8310994D01*
X13430173Y-8310204D01*
X13433854Y-8308725D01*
X13437463Y-8306504D01*
X13441034Y-8303452D01*
X13432629Y-8296400D01*
X13429871Y-8298309D01*
X13427121Y-8299481D01*
X13424328Y-8299994D01*
X13421168Y-8299760D01*
X13418151Y-8298698D01*
X13415190Y-8296726D01*
X13412820Y-8294258D01*
X13411287Y-8291598D01*
X13410499Y-8288683D01*
X13410613Y-8285240D01*
X13411809Y-8281744D01*
X13414271Y-8278062D01*
X13416896Y-8275562D01*
X13419635Y-8274066D01*
X13422566Y-8273436D01*
X13425663Y-8273667D01*
X13428823Y-8274829D01*
X13432150Y-8277084D01*
X13433875Y-8278531D01*
X13440104Y-8271107D01*
X13438896Y-8270093D01*
X13436035Y-8267161D01*
X13434365Y-8264307D01*
X13433663Y-8261449D01*
X13433806Y-8258809D01*
X13434730Y-8256173D01*
X13436552Y-8253454D01*
X13438707Y-8251415D01*
X13441041Y-8250147D01*
X13443622Y-8249566D01*
X13446211Y-8249755D01*
X13448821Y-8250706D01*
X13451534Y-8252538D01*
X13453951Y-8255051D01*
X13455367Y-8257580D01*
X13455946Y-8260200D01*
X13455497Y-8263707D01*
X13454497Y-8266464D01*
X13453730Y-8267727D01*
G37*
G36*
X13399808Y-8198652D02*
G01*
X13404073Y-8200306D01*
X13408016Y-8202963D01*
X13411316Y-8206384D01*
X13413684Y-8210296D01*
X13415180Y-8214792D01*
X13415773Y-8220013D01*
X13415422Y-8225501D01*
X13414113Y-8231128D01*
X13411765Y-8236969D01*
X13408249Y-8243092D01*
X13403397Y-8249559D01*
X13397903Y-8255423D01*
X13392507Y-8259924D01*
X13387176Y-8263237D01*
X13381866Y-8265497D01*
X13376518Y-8266795D01*
X13371274Y-8267117D01*
X13366586Y-8266425D01*
X13362322Y-8264772D01*
X13358380Y-8262117D01*
X13355079Y-8258694D01*
X13352710Y-8254781D01*
X13351214Y-8250284D01*
X13350825Y-8246871D01*
X13360984Y-8246871D01*
X13361610Y-8249858D01*
X13362877Y-8252350D01*
X13364807Y-8254450D01*
X13367210Y-8255986D01*
X13369885Y-8256801D01*
X13372935Y-8256899D01*
X13376495Y-8256184D01*
X13380649Y-8254490D01*
X13385057Y-8251747D01*
X13389785Y-8247757D01*
X13394889Y-8242273D01*
X13399447Y-8236236D01*
X13402544Y-8230890D01*
X13404435Y-8226126D01*
X13405319Y-8221832D01*
X13405405Y-8218203D01*
X13404779Y-8215216D01*
X13403512Y-8212723D01*
X13401582Y-8210624D01*
X13399179Y-8209088D01*
X13396504Y-8208273D01*
X13393454Y-8208175D01*
X13389895Y-8208890D01*
X13385820Y-8210506D01*
X13381456Y-8213196D01*
X13376729Y-8217174D01*
X13371576Y-8222711D01*
X13367061Y-8228689D01*
X13363953Y-8234039D01*
X13362017Y-8238856D01*
X13361070Y-8243241D01*
X13360984Y-8246871D01*
X13350825Y-8246871D01*
X13350620Y-8245064D01*
X13350968Y-8239570D01*
X13352271Y-8233948D01*
X13354607Y-8228122D01*
X13358103Y-8222026D01*
X13362923Y-8215597D01*
X13368449Y-8209696D01*
X13373869Y-8205171D01*
X13379214Y-8201845D01*
X13384529Y-8199579D01*
X13389875Y-8198281D01*
X13395119Y-8197960D01*
X13399808Y-8198652D01*
G37*
D12*
X15037389Y-11239359D02*
X15173389Y-11239359D01*
X15173389Y-11268359D01*
X15037389Y-11268359D01*
X15037389Y-11239359D01*
D10*
G36*
X14558695Y-9038173D02*
G01*
X14598939Y-8995017D01*
X14588936Y-8985689D01*
X14585276Y-8989614D01*
X14585148Y-8985624D01*
X14584447Y-8982078D01*
X14582776Y-8978530D01*
X14579660Y-8974901D01*
X14574953Y-8971500D01*
X14569841Y-8969619D01*
X14565374Y-8982619D01*
X14568994Y-8983825D01*
X14571929Y-8985859D01*
X14574227Y-8988532D01*
X14575529Y-8991229D01*
X14575977Y-8994034D01*
X14575383Y-8997526D01*
X14573384Y-9001617D01*
X14569493Y-9006539D01*
X14548692Y-9028845D01*
X14558695Y-9038173D01*
G37*
G36*
X14536304Y-8940420D02*
G01*
X14541148Y-8941675D01*
X14545756Y-8943977D01*
X14550204Y-8947433D01*
X14554044Y-8951722D01*
X14556767Y-8956319D01*
X14558470Y-8961293D01*
X14559173Y-8966751D01*
X14558667Y-8973279D01*
X14556919Y-8979411D01*
X14553892Y-8985264D01*
X14549455Y-8990925D01*
X14544365Y-8995533D01*
X14539094Y-8998751D01*
X14533567Y-9000734D01*
X14527680Y-9001545D01*
X14522521Y-9001208D01*
X14517578Y-8999813D01*
X14512751Y-8997304D01*
X14507968Y-8993540D01*
X14503313Y-8988455D01*
X14500177Y-8983437D01*
X14498336Y-8978415D01*
X14497549Y-8973814D01*
X14497568Y-8968947D01*
X14498442Y-8963735D01*
X14511239Y-8966844D01*
X14510615Y-8971206D01*
X14510829Y-8975287D01*
X14511726Y-8978348D01*
X14513313Y-8981183D01*
X14515665Y-8983845D01*
X14519144Y-8986457D01*
X14522534Y-8987858D01*
X14525944Y-8988221D01*
X14529990Y-8987547D01*
X14533911Y-8985817D01*
X14537803Y-8982890D01*
X14508239Y-8955321D01*
X14524856Y-8955321D01*
X14544817Y-8973936D01*
X14546569Y-8969630D01*
X14546896Y-8965547D01*
X14546326Y-8962168D01*
X14544864Y-8959083D01*
X14542414Y-8956198D01*
X14539512Y-8954030D01*
X14536522Y-8952777D01*
X14533362Y-8952350D01*
X14529005Y-8953057D01*
X14524856Y-8955321D01*
X14508239Y-8955321D01*
X14506887Y-8954061D01*
X14508036Y-8952828D01*
X14514092Y-8947206D01*
X14519895Y-8943401D01*
X14525533Y-8941124D01*
X14531119Y-8940189D01*
X14536304Y-8940420D01*
G37*
G36*
X14518843Y-8920325D02*
G01*
X14508839Y-8910997D01*
X14468595Y-8954154D01*
X14478598Y-8963482D01*
X14518843Y-8920325D01*
G37*
G36*
X14530808Y-8906679D02*
G01*
X14534091Y-8905904D01*
X14536929Y-8903795D01*
X14538838Y-8900813D01*
X14539379Y-8897488D01*
X14538604Y-8894206D01*
X14536495Y-8891368D01*
X14533517Y-8889462D01*
X14530193Y-8888922D01*
X14526909Y-8889691D01*
X14524068Y-8891802D01*
X14522163Y-8894780D01*
X14521622Y-8898113D01*
X14522393Y-8901392D01*
X14524502Y-8904229D01*
X14527480Y-8906135D01*
X14530808Y-8906679D01*
G37*
G36*
X14493999Y-8838382D02*
G01*
X14459898Y-8874951D01*
X14464994Y-8874648D01*
X14469692Y-8875489D01*
X14474131Y-8877470D01*
X14478413Y-8880712D01*
X14482314Y-8885092D01*
X14485082Y-8889838D01*
X14486806Y-8895028D01*
X14487495Y-8900778D01*
X14487053Y-8906483D01*
X14485430Y-8912005D01*
X14482548Y-8917449D01*
X14478240Y-8922897D01*
X14473549Y-8927187D01*
X14468565Y-8930381D01*
X14463232Y-8932574D01*
X14457468Y-8933800D01*
X14451646Y-8933894D01*
X14446212Y-8932728D01*
X14441026Y-8930283D01*
X14435985Y-8926416D01*
X14432513Y-8922480D01*
X14430158Y-8918265D01*
X14428817Y-8913691D01*
X14428482Y-8908640D01*
X14424172Y-8913262D01*
X14414781Y-8904506D01*
X14437773Y-8904506D01*
X14438444Y-8908865D01*
X14440183Y-8912699D01*
X14443061Y-8916141D01*
X14446838Y-8918814D01*
X14450896Y-8920141D01*
X14455412Y-8920194D01*
X14459867Y-8919076D01*
X14463969Y-8916900D01*
X14467808Y-8913553D01*
X14470940Y-8909419D01*
X14472851Y-8905143D01*
X14473660Y-8900626D01*
X14473294Y-8896121D01*
X14471689Y-8892164D01*
X14468759Y-8888583D01*
X14465124Y-8885960D01*
X14461164Y-8884508D01*
X14456737Y-8884169D01*
X14452394Y-8885035D01*
X14448061Y-8887280D01*
X14443611Y-8891181D01*
X14440160Y-8895746D01*
X14438296Y-8900140D01*
X14437773Y-8904506D01*
X14414781Y-8904506D01*
X14414169Y-8903934D01*
X14483996Y-8829054D01*
X14493999Y-8838382D01*
G37*
G36*
X14409387Y-8830346D02*
G01*
X14412253Y-8842260D01*
X14415948Y-8841781D01*
X14419070Y-8842467D01*
X14421837Y-8844293D01*
X14423342Y-8846251D01*
X14423860Y-8848283D01*
X14423594Y-8849957D01*
X14422673Y-8851410D01*
X14421047Y-8852454D01*
X14418941Y-8852538D01*
X14417987Y-8852325D01*
X14416337Y-8851838D01*
X14413932Y-8851132D01*
X14406424Y-8848923D01*
X14400418Y-8847526D01*
X14396642Y-8847298D01*
X14392753Y-8847951D01*
X14389242Y-8849602D01*
X14386001Y-8852345D01*
X14382992Y-8856432D01*
X14381215Y-8860850D01*
X14380597Y-8865732D01*
X14381015Y-8870005D01*
X14382365Y-8874059D01*
X14384707Y-8877984D01*
X14388184Y-8881841D01*
X14392229Y-8884983D01*
X14396169Y-8886895D01*
X14400090Y-8887750D01*
X14404405Y-8887781D01*
X14408685Y-8886877D01*
X14413019Y-8884978D01*
X14408460Y-8873438D01*
X14404772Y-8875000D01*
X14402279Y-8875348D01*
X14399273Y-8874814D01*
X14396339Y-8872881D01*
X14394268Y-8870228D01*
X14393580Y-8867620D01*
X14393971Y-8865039D01*
X14395312Y-8862889D01*
X14397253Y-8861465D01*
X14399703Y-8860848D01*
X14402596Y-8861097D01*
X14406494Y-8862196D01*
X14411815Y-8863886D01*
X14417702Y-8865407D01*
X14421199Y-8865731D01*
X14424915Y-8865186D01*
X14428169Y-8863729D01*
X14431080Y-8861303D01*
X14433920Y-8857439D01*
X14435570Y-8853285D01*
X14436106Y-8848716D01*
X14435366Y-8843834D01*
X14433196Y-8839235D01*
X14429389Y-8834771D01*
X14426137Y-8832232D01*
X14422787Y-8830530D01*
X14419288Y-8829585D01*
X14414400Y-8829318D01*
X14409387Y-8830346D01*
G37*
G36*
X14369034Y-8785464D02*
G01*
X14374727Y-8787067D01*
X14380130Y-8789843D01*
X14385325Y-8793906D01*
X14389740Y-8798805D01*
X14392887Y-8804001D01*
X14394883Y-8809568D01*
X14395765Y-8815614D01*
X14395463Y-8821698D01*
X14393958Y-8827401D01*
X14391219Y-8832844D01*
X14387115Y-8838114D01*
X14382202Y-8842520D01*
X14376983Y-8845621D01*
X14371379Y-8847542D01*
X14365274Y-8848312D01*
X14359129Y-8847897D01*
X14353406Y-8846323D01*
X14347989Y-8843566D01*
X14342795Y-8839514D01*
X14338390Y-8834615D01*
X14335263Y-8829404D01*
X14333293Y-8823804D01*
X14332503Y-8818085D01*
X14345403Y-8818085D01*
X14346020Y-8822491D01*
X14347902Y-8826581D01*
X14351211Y-8830489D01*
X14355340Y-8833518D01*
X14359553Y-8835111D01*
X14363994Y-8835422D01*
X14368375Y-8834495D01*
X14372600Y-8832312D01*
X14376779Y-8828667D01*
X14380440Y-8823811D01*
X14382309Y-8819262D01*
X14382699Y-8814843D01*
X14381844Y-8810433D01*
X14379942Y-8806501D01*
X14376909Y-8802931D01*
X14373137Y-8800155D01*
X14369082Y-8798531D01*
X14364622Y-8797986D01*
X14360242Y-8798684D01*
X14355834Y-8800866D01*
X14351245Y-8804856D01*
X14347901Y-8809279D01*
X14346019Y-8813648D01*
X14345403Y-8818085D01*
X14332503Y-8818085D01*
X14332451Y-8817704D01*
X14332793Y-8811559D01*
X14334318Y-8805835D01*
X14337048Y-8800412D01*
X14341101Y-8795204D01*
X14346071Y-8790743D01*
X14351309Y-8787630D01*
X14356894Y-8785732D01*
X14362942Y-8785006D01*
X14369034Y-8785464D01*
G37*
G36*
X14316288Y-8812125D02*
G01*
X14319043Y-8770995D01*
X14352848Y-8765533D01*
X14340969Y-8754456D01*
X14319693Y-8758184D01*
X14321825Y-8736603D01*
X14309535Y-8725143D01*
X14306958Y-8759726D01*
X14266732Y-8765913D01*
X14278816Y-8777182D01*
X14306213Y-8772640D01*
X14304003Y-8800669D01*
X14316288Y-8812125D01*
G37*
G36*
X14259886Y-8759529D02*
G01*
X14329714Y-8684649D01*
X14319711Y-8675321D01*
X14286700Y-8710720D01*
X14286158Y-8706253D01*
X14284806Y-8702209D01*
X14282635Y-8698499D01*
X14279569Y-8695062D01*
X14274959Y-8691519D01*
X14270468Y-8689448D01*
X14265985Y-8688637D01*
X14261369Y-8689018D01*
X14257305Y-8690494D01*
X14252702Y-8693480D01*
X14247401Y-8698427D01*
X14222732Y-8724882D01*
X14232735Y-8734210D01*
X14256547Y-8708675D01*
X14260101Y-8705407D01*
X14263026Y-8703663D01*
X14265491Y-8703023D01*
X14268150Y-8703203D01*
X14270714Y-8704180D01*
X14273274Y-8706065D01*
X14275995Y-8709396D01*
X14277304Y-8712847D01*
X14277362Y-8716589D01*
X14276404Y-8719661D01*
X14273938Y-8723805D01*
X14269293Y-8729387D01*
X14249883Y-8750201D01*
X14259886Y-8759529D01*
G37*
G36*
X14219002Y-8640720D02*
G01*
X14214255Y-8645810D01*
X14219328Y-8645522D01*
X14224011Y-8646371D01*
X14228439Y-8648355D01*
X14232714Y-8651594D01*
X14236611Y-8655971D01*
X14239375Y-8660713D01*
X14241096Y-8665900D01*
X14241783Y-8671648D01*
X14241338Y-8677348D01*
X14239712Y-8682868D01*
X14236829Y-8688311D01*
X14232519Y-8693758D01*
X14227828Y-8698050D01*
X14222846Y-8701246D01*
X14217516Y-8703440D01*
X14211757Y-8704671D01*
X14205936Y-8704766D01*
X14200505Y-8703603D01*
X14195323Y-8701162D01*
X14190287Y-8697298D01*
X14186834Y-8693370D01*
X14184505Y-8689143D01*
X14183199Y-8684534D01*
X14182914Y-8679419D01*
X14178758Y-8683876D01*
X14169674Y-8675405D01*
X14192093Y-8675405D01*
X14192758Y-8679759D01*
X14194491Y-8683588D01*
X14197363Y-8687024D01*
X14201133Y-8689692D01*
X14205187Y-8691014D01*
X14209700Y-8691065D01*
X14214150Y-8689942D01*
X14218248Y-8687763D01*
X14222088Y-8684415D01*
X14225221Y-8680281D01*
X14227135Y-8676007D01*
X14227948Y-8671496D01*
X14227586Y-8666994D01*
X14225985Y-8663041D01*
X14223061Y-8659466D01*
X14219432Y-8656849D01*
X14215478Y-8655402D01*
X14211057Y-8655068D01*
X14206717Y-8655937D01*
X14202385Y-8658183D01*
X14197935Y-8662085D01*
X14194483Y-8666649D01*
X14192618Y-8671042D01*
X14192093Y-8675405D01*
X14169674Y-8675405D01*
X14168715Y-8674510D01*
X14208959Y-8631354D01*
X14219002Y-8640720D01*
G37*
G36*
X14155925Y-8662584D02*
G01*
X14196169Y-8619427D01*
X14186166Y-8610099D01*
X14182505Y-8614025D01*
X14182378Y-8610035D01*
X14181676Y-8606489D01*
X14180006Y-8602941D01*
X14176889Y-8599311D01*
X14172183Y-8595911D01*
X14167071Y-8594029D01*
X14162604Y-8607029D01*
X14166224Y-8608236D01*
X14169159Y-8610270D01*
X14171456Y-8612943D01*
X14172759Y-8615640D01*
X14173207Y-8618445D01*
X14172613Y-8621937D01*
X14170613Y-8626028D01*
X14166723Y-8630950D01*
X14145922Y-8653256D01*
X14155925Y-8662584D01*
G37*
G36*
X14121986Y-8630935D02*
G01*
X14162230Y-8587778D01*
X14152227Y-8578450D01*
X14148566Y-8582376D01*
X14148438Y-8578386D01*
X14147737Y-8574840D01*
X14146066Y-8571292D01*
X14142950Y-8567662D01*
X14138243Y-8564262D01*
X14133131Y-8562380D01*
X14128665Y-8575381D01*
X14132285Y-8576587D01*
X14135219Y-8578621D01*
X14137517Y-8581294D01*
X14138819Y-8583991D01*
X14139268Y-8586796D01*
X14138674Y-8590288D01*
X14136674Y-8594379D01*
X14132783Y-8599301D01*
X14111982Y-8621607D01*
X14121986Y-8630935D01*
G37*
G36*
X14128290Y-8556129D02*
G01*
X14118287Y-8546801D01*
X14078043Y-8589958D01*
X14088046Y-8599286D01*
X14128290Y-8556129D01*
G37*
G36*
X14140256Y-8542483D02*
G01*
X14143539Y-8541709D01*
X14146377Y-8539599D01*
X14148286Y-8536618D01*
X14148826Y-8533293D01*
X14148052Y-8530010D01*
X14145943Y-8527172D01*
X14142965Y-8525267D01*
X14139641Y-8524727D01*
X14136357Y-8525495D01*
X14133516Y-8527606D01*
X14131611Y-8530585D01*
X14131070Y-8533917D01*
X14131841Y-8537196D01*
X14133950Y-8540033D01*
X14136928Y-8541940D01*
X14140256Y-8542483D01*
G37*
G36*
X14073066Y-8516722D02*
G01*
X14075932Y-8528636D01*
X14079628Y-8528157D01*
X14082750Y-8528843D01*
X14085516Y-8530669D01*
X14087022Y-8532627D01*
X14087539Y-8534659D01*
X14087273Y-8536333D01*
X14086352Y-8537786D01*
X14084727Y-8538830D01*
X14082620Y-8538914D01*
X14081667Y-8538701D01*
X14080016Y-8538214D01*
X14077611Y-8537508D01*
X14070103Y-8535299D01*
X14064097Y-8533901D01*
X14060322Y-8533674D01*
X14056432Y-8534327D01*
X14052921Y-8535978D01*
X14049680Y-8538721D01*
X14046671Y-8542808D01*
X14044895Y-8547226D01*
X14044276Y-8552108D01*
X14044695Y-8556381D01*
X14046045Y-8560435D01*
X14048386Y-8564360D01*
X14051863Y-8568217D01*
X14055909Y-8571359D01*
X14059848Y-8573270D01*
X14063769Y-8574126D01*
X14068084Y-8574156D01*
X14072364Y-8573253D01*
X14076698Y-8571354D01*
X14072139Y-8559814D01*
X14068452Y-8561376D01*
X14065958Y-8561724D01*
X14062953Y-8561190D01*
X14060018Y-8559257D01*
X14057947Y-8556604D01*
X14057260Y-8553996D01*
X14057650Y-8551414D01*
X14058991Y-8549265D01*
X14060932Y-8547841D01*
X14063383Y-8547224D01*
X14066275Y-8547473D01*
X14070174Y-8548572D01*
X14075495Y-8550261D01*
X14081381Y-8551783D01*
X14084878Y-8552107D01*
X14088594Y-8551562D01*
X14091849Y-8550105D01*
X14094759Y-8547679D01*
X14097599Y-8543815D01*
X14099249Y-8539661D01*
X14099785Y-8535092D01*
X14099046Y-8530210D01*
X14096876Y-8525611D01*
X14093068Y-8521147D01*
X14089816Y-8518608D01*
X14086467Y-8516906D01*
X14082968Y-8515961D01*
X14078079Y-8515694D01*
X14073066Y-8516722D01*
G37*
G36*
X14026769Y-8540933D02*
G01*
X14029961Y-8540201D01*
X14032620Y-8538249D01*
X14034381Y-8535461D01*
X14034885Y-8532230D01*
X14034156Y-8529034D01*
X14032205Y-8526374D01*
X14029416Y-8524615D01*
X14026182Y-8524113D01*
X14022990Y-8524839D01*
X14020330Y-8526789D01*
X14018570Y-8529578D01*
X14018065Y-8532817D01*
X14018794Y-8536005D01*
X14020745Y-8538664D01*
X14023534Y-8540426D01*
X14026769Y-8540933D01*
G37*
G36*
X14002734Y-8519731D02*
G01*
X14042978Y-8476574D01*
X14032975Y-8467246D01*
X14029252Y-8471238D01*
X14029093Y-8466824D01*
X14028065Y-8462912D01*
X14026186Y-8459387D01*
X14023386Y-8456167D01*
X14019426Y-8453250D01*
X14015350Y-8451662D01*
X14011026Y-8451269D01*
X14006283Y-8452115D01*
X14006429Y-8447051D01*
X14005370Y-8442407D01*
X14003090Y-8438031D01*
X13999423Y-8433821D01*
X13994966Y-8430509D01*
X13990482Y-8428711D01*
X13985826Y-8428246D01*
X13980820Y-8429131D01*
X13977065Y-8430790D01*
X13972964Y-8433620D01*
X13968433Y-8437901D01*
X13943572Y-8464562D01*
X13953575Y-8473890D01*
X13975759Y-8450101D01*
X13980885Y-8445183D01*
X13983858Y-8443269D01*
X13987107Y-8442351D01*
X13990112Y-8442842D01*
X13993141Y-8444837D01*
X13995115Y-8447337D01*
X13996103Y-8450193D01*
X13996129Y-8453567D01*
X13995258Y-8456446D01*
X13993039Y-8460233D01*
X13988902Y-8465229D01*
X13968151Y-8487482D01*
X13978154Y-8496810D01*
X14000338Y-8473021D01*
X14005464Y-8468104D01*
X14008437Y-8466189D01*
X14011686Y-8465272D01*
X14014691Y-8465762D01*
X14017720Y-8467757D01*
X14019692Y-8470255D01*
X14020680Y-8473111D01*
X14020708Y-8476488D01*
X14019837Y-8479366D01*
X14017619Y-8483153D01*
X14013481Y-8488150D01*
X13992730Y-8510403D01*
X14002734Y-8519731D01*
G37*
G36*
X13939329Y-8383732D02*
G01*
X13944174Y-8384987D01*
X13948782Y-8387289D01*
X13953229Y-8390745D01*
X13957070Y-8395034D01*
X13959792Y-8399631D01*
X13961496Y-8404606D01*
X13962199Y-8410063D01*
X13961693Y-8416591D01*
X13959945Y-8422723D01*
X13956917Y-8428577D01*
X13952480Y-8434238D01*
X13947391Y-8438845D01*
X13942119Y-8442063D01*
X13936593Y-8444046D01*
X13930705Y-8444857D01*
X13925547Y-8444520D01*
X13920603Y-8443125D01*
X13915776Y-8440616D01*
X13910993Y-8436853D01*
X13906339Y-8431767D01*
X13903202Y-8426750D01*
X13901362Y-8421727D01*
X13900575Y-8417126D01*
X13900593Y-8412260D01*
X13901467Y-8407047D01*
X13914264Y-8410156D01*
X13913640Y-8414518D01*
X13913855Y-8418599D01*
X13914752Y-8421660D01*
X13916339Y-8424495D01*
X13918690Y-8427157D01*
X13922170Y-8429770D01*
X13925560Y-8431170D01*
X13928970Y-8431533D01*
X13933015Y-8430860D01*
X13936936Y-8429129D01*
X13940828Y-8426203D01*
X13911264Y-8398633D01*
X13927881Y-8398633D01*
X13947843Y-8417248D01*
X13949595Y-8412943D01*
X13949922Y-8408859D01*
X13949352Y-8405480D01*
X13947889Y-8402395D01*
X13945439Y-8399511D01*
X13942538Y-8397342D01*
X13939548Y-8396090D01*
X13936388Y-8395662D01*
X13932030Y-8396369D01*
X13927881Y-8398633D01*
X13911264Y-8398633D01*
X13909912Y-8397373D01*
X13911062Y-8396140D01*
X13917117Y-8390518D01*
X13922921Y-8386714D01*
X13928559Y-8384437D01*
X13934144Y-8383501D01*
X13939329Y-8383732D01*
G37*
D13*
G36*
X14636987Y-11548106D02*
G01*
X14660097Y-11616000D01*
X14672590Y-11616000D01*
X14695180Y-11548106D01*
X14684720Y-11548106D01*
X14670040Y-11593872D01*
X14665876Y-11607272D01*
X14661605Y-11593872D01*
X14646874Y-11548106D01*
X14636987Y-11548106D01*
G37*
G36*
X14585005Y-11613320D02*
G01*
X14590547Y-11615307D01*
X14596239Y-11616495D01*
X14602132Y-11616894D01*
X14607947Y-11616506D01*
X14612957Y-11615408D01*
X14617286Y-11613663D01*
X14621037Y-11611295D01*
X14624284Y-11608281D01*
X14626898Y-11604782D01*
X14629016Y-11600608D01*
X14630617Y-11595649D01*
X14631645Y-11589767D01*
X14632013Y-11582807D01*
X14631762Y-11577390D01*
X14631041Y-11572483D01*
X14629882Y-11568030D01*
X14628212Y-11563751D01*
X14626179Y-11560034D01*
X14623791Y-11556816D01*
X14620968Y-11553981D01*
X14617786Y-11551620D01*
X14614211Y-11549712D01*
X14610388Y-11548345D01*
X14606207Y-11547503D01*
X14601611Y-11547213D01*
X14596969Y-11547421D01*
X14592817Y-11548018D01*
X14588829Y-11549039D01*
X14585005Y-11550489D01*
X14585005Y-11559720D01*
X14588779Y-11557923D01*
X14592659Y-11556621D01*
X14596724Y-11555827D01*
X14601299Y-11555551D01*
X14605921Y-11556011D01*
X14609968Y-11557342D01*
X14613544Y-11559526D01*
X14616551Y-11562525D01*
X14618901Y-11566214D01*
X14620716Y-11570826D01*
X14621789Y-11575923D01*
X14622172Y-11582002D01*
X14621772Y-11588713D01*
X14620675Y-11594113D01*
X14619000Y-11598433D01*
X14616812Y-11601865D01*
X14613898Y-11604731D01*
X14610396Y-11606798D01*
X14606185Y-11608095D01*
X14601090Y-11608556D01*
X14596780Y-11608298D01*
X14592710Y-11607537D01*
X14588777Y-11606314D01*
X14585005Y-11604685D01*
X14585005Y-11613320D01*
G37*
G36*
X14526417Y-11613320D02*
G01*
X14531959Y-11615307D01*
X14537650Y-11616495D01*
X14543544Y-11616894D01*
X14549359Y-11616506D01*
X14554368Y-11615408D01*
X14558698Y-11613663D01*
X14562449Y-11611295D01*
X14565696Y-11608281D01*
X14568310Y-11604782D01*
X14570428Y-11600608D01*
X14572029Y-11595649D01*
X14573057Y-11589767D01*
X14573424Y-11582807D01*
X14573174Y-11577390D01*
X14572452Y-11572483D01*
X14571293Y-11568030D01*
X14569624Y-11563751D01*
X14567591Y-11560034D01*
X14565203Y-11556816D01*
X14562379Y-11553981D01*
X14559198Y-11551620D01*
X14555623Y-11549712D01*
X14551799Y-11548345D01*
X14547619Y-11547503D01*
X14543023Y-11547213D01*
X14538380Y-11547421D01*
X14534229Y-11548018D01*
X14530241Y-11549039D01*
X14526417Y-11550489D01*
X14526417Y-11559720D01*
X14530190Y-11557923D01*
X14534071Y-11556621D01*
X14538136Y-11555827D01*
X14542711Y-11555551D01*
X14547333Y-11556011D01*
X14551379Y-11557342D01*
X14554956Y-11559526D01*
X14557963Y-11562525D01*
X14560313Y-11566214D01*
X14562127Y-11570826D01*
X14563200Y-11575923D01*
X14563584Y-11582002D01*
X14563184Y-11588713D01*
X14562087Y-11594113D01*
X14560412Y-11598433D01*
X14558224Y-11601865D01*
X14555310Y-11604731D01*
X14551807Y-11606798D01*
X14547596Y-11608095D01*
X14542502Y-11608556D01*
X14538191Y-11608298D01*
X14534122Y-11607537D01*
X14530189Y-11606314D01*
X14526417Y-11604685D01*
X14526417Y-11613320D01*
G37*
G36*
X14645521Y-11821706D02*
G01*
X14649389Y-11819940D01*
X14653333Y-11818631D01*
X14657450Y-11817820D01*
X14662076Y-11817537D01*
X14667281Y-11818040D01*
X14671707Y-11819473D01*
X14675599Y-11821808D01*
X14678812Y-11824930D01*
X14681327Y-11828748D01*
X14683237Y-11833422D01*
X14684375Y-11838544D01*
X14684773Y-11844389D01*
X14684444Y-11850481D01*
X14683526Y-11855625D01*
X14681884Y-11860292D01*
X14679622Y-11864033D01*
X14676611Y-11867063D01*
X14672829Y-11869309D01*
X14668433Y-11870652D01*
X14662909Y-11871138D01*
X14660773Y-11871035D01*
X14658484Y-11870747D01*
X14656274Y-11870300D01*
X14654371Y-11869723D01*
X14654371Y-11847911D01*
X14668269Y-11847911D01*
X14668269Y-11840168D01*
X14645210Y-11840168D01*
X14645210Y-11875051D01*
X14649714Y-11876828D01*
X14654557Y-11878136D01*
X14659475Y-11878917D01*
X14664212Y-11879178D01*
X14668821Y-11878922D01*
X14672993Y-11878183D01*
X14676784Y-11876991D01*
X14680351Y-11875283D01*
X14683512Y-11873125D01*
X14686308Y-11870500D01*
X14688676Y-11867475D01*
X14690693Y-11863930D01*
X14692347Y-11859794D01*
X14693483Y-11855473D01*
X14694202Y-11850550D01*
X14694455Y-11844942D01*
X14694179Y-11839385D01*
X14693385Y-11834398D01*
X14692115Y-11829914D01*
X14690299Y-11825628D01*
X14688102Y-11821896D01*
X14685526Y-11818658D01*
X14682514Y-11815832D01*
X14679127Y-11813493D01*
X14675323Y-11811623D01*
X14671284Y-11810295D01*
X14666919Y-11809479D01*
X14662178Y-11809199D01*
X14657665Y-11809399D01*
X14653464Y-11809981D01*
X14649403Y-11810997D01*
X14645521Y-11812475D01*
X14645521Y-11821706D01*
G37*
G36*
X14586831Y-11878284D02*
G01*
X14598905Y-11878284D01*
X14618740Y-11835920D01*
X14624467Y-11822302D01*
X14624467Y-11856556D01*
X14624467Y-11878284D01*
X14633108Y-11878284D01*
X14633108Y-11810390D01*
X14621187Y-11810390D01*
X14602292Y-11850530D01*
X14595471Y-11866075D01*
X14595471Y-11829681D01*
X14595471Y-11810390D01*
X14586831Y-11810390D01*
X14586831Y-11878284D01*
G37*
G36*
X14575040Y-11878284D02*
G01*
X14560463Y-11878284D01*
X14554147Y-11877962D01*
X14548859Y-11877065D01*
X14543976Y-11875553D01*
X14539907Y-11873608D01*
X14536322Y-11871122D01*
X14533398Y-11868234D01*
X14530993Y-11864922D01*
X14529075Y-11861246D01*
X14527649Y-11857286D01*
X14526656Y-11852936D01*
X14526094Y-11848408D01*
X14525927Y-11844216D01*
X14535636Y-11844216D01*
X14536082Y-11850932D01*
X14537306Y-11856308D01*
X14539184Y-11860591D01*
X14541659Y-11863979D01*
X14544745Y-11866613D01*
X14548531Y-11868556D01*
X14553166Y-11869798D01*
X14558848Y-11870244D01*
X14565772Y-11870244D01*
X14565772Y-11818133D01*
X14557806Y-11818133D01*
X14552393Y-11818499D01*
X14548021Y-11819510D01*
X14544183Y-11821326D01*
X14541103Y-11823953D01*
X14538754Y-11827381D01*
X14536990Y-11832003D01*
X14536005Y-11837280D01*
X14535636Y-11844216D01*
X14525927Y-11844216D01*
X14525902Y-11843584D01*
X14526278Y-11836624D01*
X14527327Y-11830803D01*
X14528953Y-11825949D01*
X14531096Y-11821913D01*
X14533737Y-11818575D01*
X14536975Y-11815781D01*
X14540851Y-11813540D01*
X14545469Y-11811855D01*
X14550965Y-11810776D01*
X14557499Y-11810390D01*
X14575040Y-11810390D01*
X14575040Y-11878284D01*
G37*
D12*
G36*
X14304128Y-10256661D02*
G01*
X14299993Y-10255501D01*
X14296188Y-10255101D01*
X14292515Y-10255425D01*
X14289211Y-10256468D01*
X14286224Y-10258214D01*
X14283536Y-10260706D01*
X14281331Y-10263807D01*
X14279494Y-10267805D01*
X14278189Y-10272421D01*
X14277821Y-10276225D01*
X14278236Y-10279792D01*
X14279356Y-10282827D01*
X14281161Y-10285484D01*
X14283658Y-10287793D01*
X14286663Y-10289676D01*
X14290345Y-10291295D01*
X14324111Y-10303584D01*
X14326607Y-10296727D01*
X14293385Y-10284635D01*
X14290578Y-10283445D01*
X14288399Y-10282189D01*
X14286593Y-10280677D01*
X14285340Y-10279005D01*
X14284563Y-10277090D01*
X14284274Y-10274886D01*
X14284497Y-10272529D01*
X14285308Y-10269656D01*
X14286525Y-10267015D01*
X14287945Y-10265056D01*
X14289560Y-10263655D01*
X14291395Y-10262732D01*
X14294140Y-10262168D01*
X14297361Y-10262330D01*
X14301213Y-10263362D01*
X14334359Y-10275427D01*
X14336854Y-10268572D01*
X14304128Y-10256661D01*
G37*
G36*
X14302102Y-10207746D02*
G01*
X14290593Y-10239368D01*
X14296762Y-10241613D01*
X14301472Y-10228672D01*
X14338488Y-10242145D01*
X14327490Y-10251795D01*
X14332321Y-10256345D01*
X14346526Y-10243370D01*
X14348685Y-10237438D01*
X14304178Y-10221239D01*
X14308271Y-10209992D01*
X14302102Y-10207746D01*
G37*
D14*
%TO.C,P1*%
X16011639Y-11721436D02*
G75*
G02*
X16006559Y-11721436I-2540J0D01*
G01*
X16006559Y-11721436D02*
G75*
G02*
X16011639Y-11721436I2540J0D01*
G01*
D15*
%TO.C,D18*%
X15106156Y-10967957D02*
X15078876Y-10938703D01*
X15092516Y-10953330D02*
X15066906Y-10977212D01*
D16*
%TO.C,U3*%
X15766053Y-10983056D02*
X15732112Y-11016997D01*
X15725748Y-10976692D01*
X15766053Y-10983056D01*
G36*
X15766053Y-10983056D02*
G01*
X15732112Y-11016997D01*
X15725748Y-10976692D01*
X15766053Y-10983056D01*
G37*
X15745547Y-10881940D02*
X15713728Y-10850120D01*
X15713728Y-10913759D02*
X15745547Y-10881940D01*
X15549679Y-10686071D02*
X15517859Y-10654251D01*
X15517859Y-11109628D02*
X15549679Y-11077808D01*
X15517859Y-10654251D02*
X15486039Y-10686071D01*
X15486039Y-11077808D02*
X15517859Y-11109628D01*
X15321990Y-10850120D02*
X15290171Y-10881940D01*
X15290171Y-10881940D02*
X15321990Y-10913759D01*
D12*
%TO.C,D17*%
X14324702Y-12290200D02*
X14352595Y-12350016D01*
X14399020Y-12255545D02*
X14324702Y-12290200D01*
X14420214Y-12495025D02*
X14448107Y-12554842D01*
X14420214Y-12495025D02*
X14448107Y-12554842D01*
X14448107Y-12554842D02*
X14420214Y-12495025D01*
X14448107Y-12554842D02*
X14522424Y-12520187D01*
X14514204Y-12329826D02*
X14539561Y-12384204D01*
X14452895Y-12227408D02*
G75*
G02*
X14446895Y-12227408I-3000J0D01*
G01*
X14446895Y-12227408D02*
G75*
G02*
X14452895Y-12227408I3000J0D01*
G01*
D11*
%TO.C,J1*%
X14343389Y-12116469D02*
X14343389Y-11569469D01*
X14343389Y-12116469D02*
X15865389Y-12116469D01*
X14851389Y-11236469D02*
X15865389Y-11236469D01*
X15865389Y-12116469D02*
X15865389Y-11236469D01*
D16*
%TO.C,U2*%
X13529389Y-11609469D02*
X13529389Y-11469469D01*
X13761389Y-11610469D02*
X13761389Y-11469469D01*
X13789389Y-11671469D02*
X13756389Y-11647469D01*
X13789389Y-11623469D01*
X13789389Y-11671469D01*
G36*
X13789389Y-11671469D02*
G01*
X13756389Y-11647469D01*
X13789389Y-11623469D01*
X13789389Y-11671469D01*
G37*
D11*
%TO.C,U1*%
X13733167Y-10370623D02*
X13739152Y-10354179D01*
X13733167Y-10370623D02*
X13749612Y-10376609D01*
X13867409Y-10001794D02*
X13873395Y-9985350D01*
X13873395Y-9985350D02*
X13889840Y-9991335D01*
X14101996Y-10504866D02*
X14118441Y-10510851D01*
X14118441Y-10510851D02*
X14124426Y-10494407D01*
X14242225Y-10119592D02*
X14258669Y-10125578D01*
X14252684Y-10142022D02*
X14258669Y-10125578D01*
D10*
X13696566Y-10286241D02*
G75*
G02*
X13671566Y-10286241I-12500J0D01*
G01*
X13671566Y-10286241D02*
G75*
G02*
X13696566Y-10286241I12500J0D01*
G01*
D16*
%TO.C,U4*%
X13829389Y-11609469D02*
X13829389Y-11469469D01*
X14061389Y-11610469D02*
X14061389Y-11469469D01*
X14089389Y-11671469D02*
X14056389Y-11647469D01*
X14089389Y-11623469D01*
X14089389Y-11671469D01*
G36*
X14089389Y-11671469D02*
G01*
X14056389Y-11647469D01*
X14089389Y-11623469D01*
X14089389Y-11671469D01*
G37*
%TD*%
M02*
