%TF.GenerationSoftware,KiCad,Pcbnew,9.0.6-rc1-2-g790dee114b*%
%TF.CreationDate,2025-10-17T23:20:01-04:00*%
%TF.ProjectId,MetamerBoard,4d657461-6d65-4724-926f-6172642e6b69,rev?*%
%TF.SameCoordinates,Original*%
%TF.FileFunction,Soldermask,Bot*%
%TF.FilePolarity,Negative*%
%FSLAX45Y45*%
G04 Gerber Fmt 4.5, Leading zero omitted, Abs format (unit mm)*
G04 Created by KiCad (PCBNEW 9.0.6-rc1-2-g790dee114b) date 2025-10-17 23:20:01*
%MOMM*%
%LPD*%
G01*
G04 APERTURE LIST*
G04 Aperture macros list*
%AMRoundRect*
0 Rectangle with rounded corners*
0 $1 Rounding radius*
0 $2 $3 $4 $5 $6 $7 $8 $9 X,Y pos of 4 corners*
0 Add a 4 corners polygon primitive as box body*
4,1,4,$2,$3,$4,$5,$6,$7,$8,$9,$2,$3,0*
0 Add four circle primitives for the rounded corners*
1,1,$1+$1,$2,$3*
1,1,$1+$1,$4,$5*
1,1,$1+$1,$6,$7*
1,1,$1+$1,$8,$9*
0 Add four rect primitives between the rounded corners*
20,1,$1+$1,$2,$3,$4,$5,0*
20,1,$1+$1,$4,$5,$6,$7,0*
20,1,$1+$1,$6,$7,$8,$9,0*
20,1,$1+$1,$8,$9,$2,$3,0*%
G04 Aperture macros list end*
%ADD10RoundRect,0.268750X1.879104X0.174055X-1.327597X1.341199X-1.879104X-0.174055X1.327597X-1.341199X0*%
%ADD11C,1.150000*%
%ADD12C,1.166000*%
%ADD13RoundRect,0.275000X-0.050140X-0.422772X0.425240X0.020527X0.050140X0.422772X-0.425240X-0.020527X0*%
%ADD14RoundRect,0.244000X0.244000X0.269000X-0.244000X0.269000X-0.244000X-0.269000X0.244000X-0.269000X0*%
%ADD15RoundRect,0.075000X1.166726X0.000000X0.000000X1.166726X-1.166726X0.000000X0.000000X-1.166726X0*%
%ADD16RoundRect,0.087500X0.353553X0.229810X0.229810X0.353553X-0.353553X-0.229810X-0.229810X-0.353553X0*%
%ADD17RoundRect,0.087500X0.353553X-0.229810X-0.229810X0.353553X-0.353553X0.229810X0.229810X-0.353553X0*%
%ADD18RoundRect,0.244000X0.362746X0.017678X0.017678X0.362746X-0.362746X-0.017678X-0.017678X-0.362746X0*%
%ADD19RoundRect,0.244000X-0.107455X-0.346916X0.334823X-0.140678X0.107455X0.346916X-0.334823X0.140678X0*%
%ADD20RoundRect,0.159000X-0.159000X-0.189000X0.159000X-0.189000X0.159000X0.189000X-0.159000X0.189000X0*%
%ADD21RoundRect,0.219000X0.294000X-0.219000X0.294000X0.219000X-0.294000X0.219000X-0.294000X-0.219000X0*%
%ADD22C,1.448000*%
%ADD23RoundRect,0.219000X-0.219000X-0.294000X0.219000X-0.294000X0.219000X0.294000X-0.219000X0.294000X0*%
%ADD24RoundRect,0.219000X-0.074232X-0.359008X0.322731X-0.173901X0.074232X0.359008X-0.322731X0.173901X0*%
%ADD25RoundRect,0.219000X0.201367X-0.306347X0.351172X0.105239X-0.201367X0.306347X-0.351172X-0.105239X0*%
%ADD26RoundRect,0.212500X0.531631X0.013436X0.352019X0.398617X-0.531631X-0.013436X-0.352019X-0.398617X0*%
%ADD27RoundRect,0.219000X-0.201367X0.306347X-0.351172X-0.105239X0.201367X-0.306347X0.351172X0.105239X0*%
%ADD28RoundRect,0.075000X-0.825000X-0.825000X0.825000X-0.825000X0.825000X0.825000X-0.825000X0.825000X0*%
%ADD29C,1.800000*%
%ADD30RoundRect,0.137500X0.137500X-0.262500X0.137500X0.262500X-0.137500X0.262500X-0.137500X-0.262500X0*%
%ADD31RoundRect,0.244000X-0.321288X-0.169324X0.137282X-0.336230X0.321288X0.169324X-0.137282X0.336230X0*%
%ADD32RoundRect,0.244000X-0.169324X0.321288X-0.336230X-0.137282X0.169324X-0.321288X0.336230X0.137282X0*%
%ADD33RoundRect,0.219000X-0.294000X0.219000X-0.294000X-0.219000X0.294000X-0.219000X0.294000X0.219000X0*%
%ADD34RoundRect,0.050000X-0.228532X0.029970X0.194330X-0.123939X0.228532X-0.029970X-0.194330X0.123939X0*%
%ADD35RoundRect,0.050000X-0.123939X-0.194330X-0.029970X-0.228532X0.123939X0.194330X0.029970X0.228532X0*%
%ADD36RoundRect,0.056000X-1.722622X-0.803272X0.803272X-1.722622X1.722622X0.803272X-0.803272X1.722622X0*%
%ADD37RoundRect,0.219000X-0.364376X-0.040341X-0.065660X-0.360674X0.364376X0.040341X0.065660X0.360674X0*%
%ADD38RoundRect,0.219000X-0.362746X-0.053033X-0.053033X-0.362746X0.362746X0.053033X0.053033X0.362746X0*%
%ADD39C,0.650000*%
G04 APERTURE END LIST*
D10*
%TO.C,TP5*%
X13525389Y-9729470D03*
%TD*%
D11*
%TO.C,TP6*%
X13895389Y-11094470D03*
%TD*%
%TO.C,TP7*%
X13545389Y-10974470D03*
%TD*%
%TO.C,TP3*%
X14002003Y-12668061D03*
%TD*%
D12*
%TO.C,P1*%
X16615954Y-11521803D03*
X16500389Y-11574469D03*
X16384824Y-11627135D03*
X16269259Y-11679801D03*
X16153693Y-11732467D03*
X16038128Y-11785133D03*
%TD*%
D13*
%TO.C,D18*%
X15013896Y-11026644D03*
X15141882Y-10907295D03*
%TD*%
D14*
%TO.C,C4*%
X13283389Y-11457469D03*
X13439389Y-11457469D03*
%TD*%
D15*
%TO.C,U3*%
X15517859Y-10881940D03*
D16*
X15676958Y-10835978D03*
X15648674Y-10807693D03*
X15620389Y-10779409D03*
X15592105Y-10751125D03*
X15563821Y-10722841D03*
D17*
X15471897Y-10722841D03*
X15443613Y-10751125D03*
X15415328Y-10779409D03*
X15387044Y-10807693D03*
X15358760Y-10835978D03*
D16*
X15358760Y-10927901D03*
X15387044Y-10956186D03*
X15415328Y-10984470D03*
X15443613Y-11012754D03*
X15471897Y-11041039D03*
D17*
X15563821Y-11041039D03*
X15592105Y-11012754D03*
X15620389Y-10984470D03*
X15648674Y-10956186D03*
X15676958Y-10927901D03*
%TD*%
D18*
%TO.C,C7*%
X15930543Y-10954624D03*
X15820235Y-10844315D03*
%TD*%
D19*
%TO.C,C5*%
X15979697Y-11642434D03*
X16121081Y-11576505D03*
%TD*%
D20*
%TO.C,C6*%
X15635389Y-11149470D03*
X15735389Y-11149470D03*
%TD*%
D21*
%TO.C,R8*%
X14145389Y-11487469D03*
X14145389Y-11651469D03*
%TD*%
D22*
%TO.C,*%
X12817889Y-8014469D03*
%TD*%
%TO.C,*%
X15363389Y-12009469D03*
%TD*%
D21*
%TO.C,R7*%
X13530389Y-11946469D03*
X13530389Y-11782469D03*
%TD*%
D23*
%TO.C,R2*%
X13638389Y-11944469D03*
X13802389Y-11944469D03*
%TD*%
D24*
%TO.C,R10*%
X16006072Y-11374124D03*
X16154706Y-11304815D03*
%TD*%
D25*
%TO.C,R6*%
X13442343Y-10786524D03*
X13498435Y-10632415D03*
%TD*%
D26*
%TO.C,D17*%
X14518454Y-12256124D03*
X14598752Y-12428322D03*
X14332026Y-12447878D03*
%TD*%
D23*
%TO.C,R12*%
X13688389Y-11254469D03*
X13852389Y-11254469D03*
%TD*%
D27*
%TO.C,R5*%
X13713435Y-10502415D03*
X13657343Y-10656524D03*
%TD*%
D28*
%TO.C,J1*%
X14851389Y-11569469D03*
D29*
X14851389Y-11823469D03*
X15105389Y-11569469D03*
X15105389Y-11823469D03*
X15359389Y-11569469D03*
X15359389Y-11823469D03*
%TD*%
D30*
%TO.C,U2*%
X13710389Y-11634469D03*
X13645389Y-11634469D03*
X13580389Y-11634469D03*
X13580389Y-11444469D03*
X13645389Y-11444469D03*
X13710389Y-11444469D03*
%TD*%
D31*
%TO.C,C1*%
X13992093Y-10557792D03*
X14138685Y-10611147D03*
%TD*%
D25*
%TO.C,R3*%
X13837343Y-10881524D03*
X13893435Y-10727415D03*
%TD*%
D32*
%TO.C,C2*%
X13602067Y-10361174D03*
X13548711Y-10507766D03*
%TD*%
D33*
%TO.C,R1*%
X14145389Y-11772469D03*
X14145389Y-11936469D03*
%TD*%
D34*
%TO.C,U1*%
X13767144Y-10313819D03*
X13780825Y-10276231D03*
X13794506Y-10238643D03*
X13808187Y-10201055D03*
X13821867Y-10163468D03*
X13835548Y-10125880D03*
X13849229Y-10088292D03*
X13862910Y-10050705D03*
D35*
X13930200Y-10019327D03*
X13967787Y-10033008D03*
X14005375Y-10046688D03*
X14042963Y-10060369D03*
X14080551Y-10074050D03*
X14118138Y-10087731D03*
X14155726Y-10101412D03*
X14193314Y-10115092D03*
D34*
X14224692Y-10182382D03*
X14211011Y-10219970D03*
X14197330Y-10257558D03*
X14183649Y-10295146D03*
X14169968Y-10332733D03*
X14156288Y-10370321D03*
X14142607Y-10407909D03*
X14128926Y-10445496D03*
D35*
X14061636Y-10476874D03*
X14024048Y-10463193D03*
X13986461Y-10449513D03*
X13948873Y-10435832D03*
X13911285Y-10422151D03*
X13873698Y-10408470D03*
X13836110Y-10394789D03*
X13798522Y-10381109D03*
D36*
X13995918Y-10248101D03*
%TD*%
D37*
%TO.C,R9*%
X14749465Y-10949499D03*
X14861313Y-11069441D03*
%TD*%
D38*
%TO.C,R11*%
X16017406Y-11041487D03*
X16133372Y-11157452D03*
%TD*%
D25*
%TO.C,R4*%
X13720494Y-10836047D03*
X13776586Y-10681938D03*
%TD*%
D30*
%TO.C,U4*%
X14010389Y-11634469D03*
X13945389Y-11634469D03*
X13880389Y-11634469D03*
X13880389Y-11444469D03*
X13945389Y-11444469D03*
X14010389Y-11444469D03*
%TD*%
D39*
X13995918Y-10248101D03*
X13956586Y-10356165D03*
X13887853Y-10208768D03*
X14103982Y-10287433D03*
X14035250Y-10140036D03*
G36*
X17316417Y-11538665D02*
G01*
X17411703Y-11555876D01*
X17417950Y-11559004D01*
X17418267Y-11559310D01*
X17433895Y-11574938D01*
X17437243Y-11581070D01*
X17436745Y-11588040D01*
X17432558Y-11593633D01*
X17430275Y-11594987D01*
X13499835Y-13388720D01*
X13492919Y-13389712D01*
X13490220Y-13389007D01*
X13477463Y-13384080D01*
X13471918Y-13379828D01*
X13469552Y-13373254D01*
X13469536Y-13372885D01*
X13467733Y-13312891D01*
X13469499Y-13306131D01*
X13474640Y-13301399D01*
X13481523Y-13300198D01*
X13484943Y-13301092D01*
X13485268Y-13301229D01*
X13486613Y-13301787D01*
X13487964Y-13302340D01*
X13489326Y-13302889D01*
X13490665Y-13303421D01*
X13492036Y-13303957D01*
X13492481Y-13304129D01*
X13492481Y-13304129D01*
X17308450Y-11562630D01*
X17308450Y-11562630D01*
X17305460Y-11559651D01*
X17302101Y-11553524D01*
X17302587Y-11546554D01*
X17306765Y-11540953D01*
X17313307Y-11538501D01*
X17316417Y-11538665D01*
G37*
G36*
X12856442Y-7609905D02*
G01*
X12916418Y-7615184D01*
X12918034Y-7615435D01*
X12987664Y-7630990D01*
X12988776Y-7631294D01*
X13067212Y-7656662D01*
X13068019Y-7656954D01*
X13154134Y-7691549D01*
X13154748Y-7691815D01*
X13247480Y-7735021D01*
X13247969Y-7735262D01*
X13346290Y-7786457D01*
X13346697Y-7786678D01*
X13449589Y-7845229D01*
X13449771Y-7845335D01*
X13449817Y-7845362D01*
X13449984Y-7845463D01*
X13556412Y-7910721D01*
X13556573Y-7910822D01*
X13556667Y-7910881D01*
X13556815Y-7910977D01*
X13665887Y-7982377D01*
X13666170Y-7982568D01*
X13776468Y-8059188D01*
X13776587Y-8059272D01*
X13777377Y-8059834D01*
X13777524Y-8059940D01*
X13888560Y-8141487D01*
X13888815Y-8141680D01*
X13997471Y-8225880D01*
X13997601Y-8225982D01*
X14002504Y-8229887D01*
X14002625Y-8229985D01*
X14107615Y-8315789D01*
X14107738Y-8315892D01*
X14112077Y-8319532D01*
X14112207Y-8319642D01*
X14217091Y-8410120D01*
X14217227Y-8410240D01*
X14218254Y-8411152D01*
X14218377Y-8411263D01*
X14321813Y-8505653D01*
X14321948Y-8505777D01*
X14322405Y-8506207D01*
X14322540Y-8506336D01*
X14422379Y-8603063D01*
X14422517Y-8603200D01*
X14426044Y-8606726D01*
X14429658Y-8610339D01*
X14433282Y-8613960D01*
X14436913Y-8617588D01*
X14436915Y-8617590D01*
X14440554Y-8621225D01*
X14444202Y-8624868D01*
X14447858Y-8628518D01*
X14451522Y-8632175D01*
X14451523Y-8632175D01*
X14455194Y-8635839D01*
X14458876Y-8639511D01*
X14458876Y-8639512D01*
X14462563Y-8643189D01*
X14462563Y-8643189D01*
X14466260Y-8646876D01*
X14469966Y-8650569D01*
X14469966Y-8650570D01*
X14473678Y-8654269D01*
X14477401Y-8657978D01*
X14477401Y-8657979D01*
X14481129Y-8661692D01*
X14484868Y-8665415D01*
X14484869Y-8665417D01*
X14488611Y-8669144D01*
X14492368Y-8672883D01*
X14492368Y-8672883D01*
X14496130Y-8676627D01*
X14499901Y-8680380D01*
X14499901Y-8680380D01*
X14503679Y-8684138D01*
X14503679Y-8684138D01*
X14507465Y-8687903D01*
X14511261Y-8691678D01*
X14515064Y-8695459D01*
X14518874Y-8699246D01*
X14522694Y-8703043D01*
X14526523Y-8706847D01*
X14526523Y-8706847D01*
X14530358Y-8710656D01*
X14530358Y-8710656D01*
X14534204Y-8714476D01*
X14534204Y-8714476D01*
X14538057Y-8718300D01*
X14538057Y-8718301D01*
X14541918Y-8722134D01*
X14545786Y-8725973D01*
X14549664Y-8729822D01*
X14553551Y-8733678D01*
X14553551Y-8733678D01*
X14557444Y-8737540D01*
X14561346Y-8741410D01*
X14565257Y-8745288D01*
X14569176Y-8749173D01*
X14573105Y-8753067D01*
X14573105Y-8753067D01*
X14577041Y-8756968D01*
X14577041Y-8756968D01*
X14580985Y-8760875D01*
X14584936Y-8764790D01*
X14584936Y-8764790D01*
X14588897Y-8768712D01*
X14588898Y-8768714D01*
X14592868Y-8772646D01*
X14592868Y-8772646D01*
X14596845Y-8776582D01*
X14596845Y-8776583D01*
X14600830Y-8780528D01*
X14604824Y-8784481D01*
X14608828Y-8788442D01*
X14612839Y-8792412D01*
X14612839Y-8792412D01*
X14616858Y-8796387D01*
X14620886Y-8800371D01*
X14624923Y-8804364D01*
X14624923Y-8804364D01*
X14628967Y-8808362D01*
X14628967Y-8808362D01*
X14633019Y-8812369D01*
X14637082Y-8816384D01*
X14637082Y-8816384D01*
X14641152Y-8820406D01*
X14641152Y-8820406D01*
X14645230Y-8824436D01*
X14645230Y-8824436D01*
X14649317Y-8828473D01*
X14649317Y-8828474D01*
X14653411Y-8832518D01*
X14657516Y-8836572D01*
X14657516Y-8836573D01*
X14661629Y-8840635D01*
X14661629Y-8840635D01*
X14665749Y-8844702D01*
X14665750Y-8844703D01*
X14669878Y-8848779D01*
X14669878Y-8848779D01*
X14674014Y-8852862D01*
X14678162Y-8856955D01*
X14678163Y-8856956D01*
X14682315Y-8861054D01*
X14686479Y-8865162D01*
X14690651Y-8869278D01*
X14690651Y-8869278D01*
X14694830Y-8873400D01*
X14699020Y-8877531D01*
X14699020Y-8877532D01*
X14703217Y-8881670D01*
X14707422Y-8885816D01*
X14711637Y-8889972D01*
X14711637Y-8889972D01*
X14715860Y-8894135D01*
X14715860Y-8894135D01*
X14720090Y-8898304D01*
X14720090Y-8898304D01*
X14724331Y-8902483D01*
X14724331Y-8902483D01*
X14728578Y-8906668D01*
X14732835Y-8910862D01*
X14737102Y-8915064D01*
X14737102Y-8915065D01*
X14741375Y-8919274D01*
X14745659Y-8923492D01*
X14745659Y-8923492D01*
X14745659Y-8923492D01*
X14749950Y-8927719D01*
X14749950Y-8927719D01*
X14754249Y-8931952D01*
X14758559Y-8936194D01*
X14758560Y-8936195D01*
X14762876Y-8940443D01*
X14767202Y-8944702D01*
X14767202Y-8944702D01*
X14771535Y-8948967D01*
X14775879Y-8953241D01*
X14775879Y-8953241D01*
X14780231Y-8957523D01*
X14780231Y-8957523D01*
X14784591Y-8961813D01*
X14784591Y-8961813D01*
X14788959Y-8966110D01*
X14793338Y-8970416D01*
X14793338Y-8970416D01*
X14793338Y-8970416D01*
X14797724Y-8974731D01*
X14797724Y-8974731D01*
X14802118Y-8979052D01*
X14806523Y-8983382D01*
X14806523Y-8983383D01*
X14806523Y-8983383D01*
X14810935Y-8987721D01*
X14810935Y-8987721D01*
X14815355Y-8992067D01*
X14819786Y-8996422D01*
X14819787Y-8996423D01*
X14824225Y-9000785D01*
X14824225Y-9000785D01*
X14828671Y-9005155D01*
X14828671Y-9005155D01*
X14833126Y-9009533D01*
X14837591Y-9013919D01*
X14837591Y-9013921D01*
X14837592Y-9013920D01*
X14842066Y-9018317D01*
X14842066Y-9018317D01*
X14846547Y-9022719D01*
X14846547Y-9022720D01*
X14846547Y-9022720D01*
X14851039Y-9027132D01*
X14851039Y-9027132D01*
X14855537Y-9031549D01*
X14855538Y-9031551D01*
X14855538Y-9031551D01*
X14860044Y-9035977D01*
X14860046Y-9035979D01*
X14864564Y-9040416D01*
X14864564Y-9040416D01*
X14869089Y-9044860D01*
X14869090Y-9044861D01*
X14873623Y-9049312D01*
X14878165Y-9053773D01*
X14882719Y-9058243D01*
X14882720Y-9058244D01*
X14887279Y-9062719D01*
X14891849Y-9067205D01*
X14896428Y-9071700D01*
X14896428Y-9071700D01*
X14901015Y-9076201D01*
X14901015Y-9076202D01*
X14901015Y-9076202D01*
X14905611Y-9080712D01*
X14910216Y-9085231D01*
X14914828Y-9089757D01*
X14914830Y-9089759D01*
X14919453Y-9094295D01*
X14919453Y-9094295D01*
X14924083Y-9098836D01*
X14924084Y-9098838D01*
X14924084Y-9098838D01*
X14928725Y-9103391D01*
X14928725Y-9103391D01*
X14933373Y-9107950D01*
X14933374Y-9107952D01*
X14938030Y-9112520D01*
X14938030Y-9112520D01*
X14942698Y-9117098D01*
X14942698Y-9117098D01*
X14947374Y-9121683D01*
X14952059Y-9126278D01*
X14952060Y-9126279D01*
X14956752Y-9130880D01*
X14956752Y-9130880D01*
X14961455Y-9135492D01*
X14961455Y-9135492D01*
X14966166Y-9140111D01*
X14966167Y-9140112D01*
X14970886Y-9144739D01*
X14970888Y-9144741D01*
X14973247Y-9147055D01*
X14973247Y-9147055D01*
X14975615Y-9149375D01*
X14975615Y-9149376D01*
X14977983Y-9151697D01*
X14977985Y-9151698D01*
X14980352Y-9154020D01*
X14982725Y-9156346D01*
X14982725Y-9156346D01*
X14985100Y-9158674D01*
X14987477Y-9161003D01*
X14987477Y-9161004D01*
X14989856Y-9163336D01*
X14989856Y-9163336D01*
X14992238Y-9165670D01*
X14992238Y-9165670D01*
X14994617Y-9168001D01*
X14994620Y-9168007D01*
X14994621Y-9168006D01*
X14997004Y-9170343D01*
X14999394Y-9172685D01*
X14999394Y-9172685D01*
X15001785Y-9175028D01*
X15001787Y-9175029D01*
X15004176Y-9177372D01*
X15006572Y-9179719D01*
X15006572Y-9179720D01*
X15008969Y-9182069D01*
X15008969Y-9182069D01*
X15011368Y-9184420D01*
X15011368Y-9184420D01*
X15013769Y-9186773D01*
X15013769Y-9186773D01*
X15016174Y-9189129D01*
X15016174Y-9189129D01*
X15018579Y-9191486D01*
X15018581Y-9191487D01*
X15020987Y-9193845D01*
X15020987Y-9193846D01*
X15023396Y-9196207D01*
X15023396Y-9196207D01*
X15025810Y-9198572D01*
X15025810Y-9198572D01*
X15028225Y-9200938D01*
X15028225Y-9200938D01*
X15030642Y-9203305D01*
X15030644Y-9203307D01*
X15033059Y-9205675D01*
X15033059Y-9205675D01*
X15035483Y-9208049D01*
X15035485Y-9208050D01*
X15037907Y-9210423D01*
X15037907Y-9210424D01*
X15040333Y-9212801D01*
X15040333Y-9212801D01*
X15042760Y-9215179D01*
X15045190Y-9217559D01*
X15045191Y-9217561D01*
X15045192Y-9217560D01*
X15047624Y-9219944D01*
X15050060Y-9222330D01*
X15050062Y-9222332D01*
X15052498Y-9224719D01*
X15052498Y-9224719D01*
X15054937Y-9227107D01*
X15054937Y-9227108D01*
X15057379Y-9229500D01*
X15059823Y-9231894D01*
X15059823Y-9231894D01*
X15062269Y-9234290D01*
X15064717Y-9236688D01*
X15067169Y-9239089D01*
X15067171Y-9239090D01*
X15069621Y-9241491D01*
X15072078Y-9243897D01*
X15072080Y-9243898D01*
X15074536Y-9246304D01*
X15074536Y-9246304D01*
X15076995Y-9248713D01*
X15076997Y-9248714D01*
X15079455Y-9251123D01*
X15081922Y-9253538D01*
X15081924Y-9253539D01*
X15084389Y-9255953D01*
X15084389Y-9255954D01*
X15086858Y-9258371D01*
X15086858Y-9258372D01*
X15089329Y-9260792D01*
X15089331Y-9260793D01*
X15091800Y-9263213D01*
X15091800Y-9263213D01*
X15094278Y-9265639D01*
X15094280Y-9265640D01*
X15096755Y-9268065D01*
X15099237Y-9270495D01*
X15099239Y-9270496D01*
X15101718Y-9272924D01*
X15104202Y-9275356D01*
X15104203Y-9275359D01*
X15104204Y-9275359D01*
X15106689Y-9277793D01*
X15109177Y-9280228D01*
X15109180Y-9280233D01*
X15109181Y-9280232D01*
X15111671Y-9282671D01*
X15114166Y-9285114D01*
X15116662Y-9287557D01*
X15116662Y-9287558D01*
X15116662Y-9287558D01*
X15119162Y-9290005D01*
X15119162Y-9290005D01*
X15121660Y-9292450D01*
X15121661Y-9292453D01*
X15121662Y-9292453D01*
X15124165Y-9294904D01*
X15124165Y-9294904D01*
X15126669Y-9297356D01*
X15129178Y-9299812D01*
X15129180Y-9299813D01*
X15131689Y-9302270D01*
X15131689Y-9302270D01*
X15134198Y-9304726D01*
X15134199Y-9304729D01*
X15134200Y-9304729D01*
X15136713Y-9307190D01*
X15139231Y-9309654D01*
X15139231Y-9309655D01*
X15141750Y-9312120D01*
X15141750Y-9312121D01*
X15144271Y-9314589D01*
X15146796Y-9317060D01*
X15146796Y-9317060D01*
X15149319Y-9319530D01*
X15149320Y-9319532D01*
X15149321Y-9319532D01*
X15151849Y-9322007D01*
X15151851Y-9322008D01*
X15154377Y-9324483D01*
X15156912Y-9326964D01*
X15156914Y-9326965D01*
X15159448Y-9329446D01*
X15159448Y-9329446D01*
X15161982Y-9331926D01*
X15161983Y-9331929D01*
X15161984Y-9331928D01*
X15164525Y-9334416D01*
X15164525Y-9334416D01*
X15167066Y-9336903D01*
X15167066Y-9336904D01*
X15169610Y-9339394D01*
X15169612Y-9339395D01*
X15172155Y-9341886D01*
X15174703Y-9344380D01*
X15174705Y-9344382D01*
X15177257Y-9346879D01*
X15177257Y-9346879D01*
X15179806Y-9349374D01*
X15179809Y-9349378D01*
X15179810Y-9349377D01*
X15182364Y-9351879D01*
X15184923Y-9354384D01*
X15184923Y-9354384D01*
X15187482Y-9356889D01*
X15190046Y-9359398D01*
X15190046Y-9359398D01*
X15192611Y-9361908D01*
X15192613Y-9361909D01*
X15195178Y-9364420D01*
X15195178Y-9364421D01*
X15197746Y-9366935D01*
X15200315Y-9369449D01*
X15200319Y-9369452D01*
X15202891Y-9371970D01*
X15202892Y-9371972D01*
X15202893Y-9371971D01*
X15205468Y-9374493D01*
X15208048Y-9377018D01*
X15208048Y-9377018D01*
X15210629Y-9379543D01*
X15210629Y-9379544D01*
X15213212Y-9382072D01*
X15213214Y-9382073D01*
X15215798Y-9384603D01*
X15215798Y-9384603D01*
X15218384Y-9387135D01*
X15220975Y-9389670D01*
X15220977Y-9389671D01*
X15223567Y-9392207D01*
X15226161Y-9394745D01*
X15226162Y-9394747D01*
X15226163Y-9394747D01*
X15228760Y-9397289D01*
X15228760Y-9397289D01*
X15231358Y-9399832D01*
X15231358Y-9399832D01*
X15233961Y-9402379D01*
X15233963Y-9402380D01*
X15236565Y-9404927D01*
X15236565Y-9404928D01*
X15239170Y-9407478D01*
X15239170Y-9407478D01*
X15241778Y-9410030D01*
X15241779Y-9410032D01*
X15241780Y-9410031D01*
X15244388Y-9412585D01*
X15247000Y-9415140D01*
X15247003Y-9415145D01*
X15247004Y-9415144D01*
X15249618Y-9417703D01*
X15252237Y-9420266D01*
X15252237Y-9420266D01*
X15254857Y-9422830D01*
X15257478Y-9425395D01*
X15257479Y-9425397D01*
X15257480Y-9425396D01*
X15260102Y-9427964D01*
X15262732Y-9430537D01*
X15262734Y-9430538D01*
X15265361Y-9433109D01*
X15265361Y-9433110D01*
X15267993Y-9435686D01*
X15267993Y-9435686D01*
X15270627Y-9438264D01*
X15270627Y-9438264D01*
X15273262Y-9440843D01*
X15275900Y-9443424D01*
X15275901Y-9443426D01*
X15275902Y-9443426D01*
X15278541Y-9446009D01*
X15278543Y-9446011D01*
X15281187Y-9448598D01*
X15281187Y-9448598D01*
X15283832Y-9451187D01*
X15286478Y-9453776D01*
X15286479Y-9453778D01*
X15286480Y-9453777D01*
X15289131Y-9456372D01*
X15289131Y-9456372D01*
X15291783Y-9458968D01*
X15291783Y-9458968D01*
X15294438Y-9461566D01*
X15294438Y-9461566D01*
X15297096Y-9464167D01*
X15297098Y-9464168D01*
X15299756Y-9466770D01*
X15299756Y-9466770D01*
X15302418Y-9469375D01*
X15302418Y-9469375D01*
X15305078Y-9471978D01*
X15305081Y-9471983D01*
X15305082Y-9471982D01*
X15307747Y-9474591D01*
X15310418Y-9477204D01*
X15310418Y-9477204D01*
X15313089Y-9479818D01*
X15313089Y-9479818D01*
X15313092Y-9479821D01*
X15315761Y-9482434D01*
X15318438Y-9485054D01*
X15318438Y-9485054D01*
X15321115Y-9487674D01*
X15323795Y-9490296D01*
X15323796Y-9490298D01*
X15323797Y-9490298D01*
X15326480Y-9492924D01*
X15326480Y-9492924D01*
X15329166Y-9495552D01*
X15329166Y-9495552D01*
X15331853Y-9498181D01*
X15331855Y-9498183D01*
X15334542Y-9500814D01*
X15337234Y-9503448D01*
X15337235Y-9503450D01*
X15337236Y-9503450D01*
X15339930Y-9506087D01*
X15339930Y-9506087D01*
X15342625Y-9508725D01*
X15342625Y-9508725D01*
X15345325Y-9511365D01*
X15345326Y-9511368D01*
X15345327Y-9511368D01*
X15348029Y-9514012D01*
X15348031Y-9514013D01*
X15350733Y-9516658D01*
X15350733Y-9516659D01*
X15353438Y-9519307D01*
X15356148Y-9521959D01*
X15356148Y-9521959D01*
X15358859Y-9524612D01*
X15358859Y-9524612D01*
X15361572Y-9527267D01*
X15361572Y-9527267D01*
X15364288Y-9529925D01*
X15364290Y-9529926D01*
X15367004Y-9532584D01*
X15367004Y-9532584D01*
X15369727Y-9535248D01*
X15369729Y-9535249D01*
X15372450Y-9537912D01*
X15372450Y-9537913D01*
X15375175Y-9540580D01*
X15375177Y-9540581D01*
X15377901Y-9543249D01*
X15380633Y-9545922D01*
X15380633Y-9545922D01*
X15383365Y-9548596D01*
X15383367Y-9548597D01*
X15386099Y-9551271D01*
X15386099Y-9551272D01*
X15388835Y-9553950D01*
X15391574Y-9556630D01*
X15391575Y-9556632D01*
X15391576Y-9556632D01*
X15394317Y-9559315D01*
X15394317Y-9559315D01*
X15397060Y-9562000D01*
X15399804Y-9564685D01*
X15399807Y-9564690D01*
X15399808Y-9564689D01*
X15402553Y-9567377D01*
X15402553Y-9567377D01*
X15405304Y-9570068D01*
X15405307Y-9570072D01*
X15405308Y-9570072D01*
X15408061Y-9572767D01*
X15408061Y-9572767D01*
X15410816Y-9575464D01*
X15413575Y-9578164D01*
X15413575Y-9578164D01*
X15416336Y-9580866D01*
X15416338Y-9580867D01*
X15419099Y-9583570D01*
X15419099Y-9583571D01*
X15421863Y-9586277D01*
X15424632Y-9588986D01*
X15424632Y-9588987D01*
X15427402Y-9591698D01*
X15427404Y-9591699D01*
X15430173Y-9594411D01*
X15432949Y-9597127D01*
X15432949Y-9597128D01*
X15435726Y-9599846D01*
X15435726Y-9599846D01*
X15438506Y-9602567D01*
X15438508Y-9602568D01*
X15441285Y-9605288D01*
X15444068Y-9608011D01*
X15444071Y-9608016D01*
X15444072Y-9608015D01*
X15446857Y-9610742D01*
X15449647Y-9613473D01*
X15449647Y-9613473D01*
X15452439Y-9616206D01*
X15452439Y-9616206D01*
X15455231Y-9618939D01*
X15455233Y-9618940D01*
X15458027Y-9621676D01*
X15458029Y-9621678D01*
X15458029Y-9621678D01*
X15460825Y-9624416D01*
X15463624Y-9627155D01*
X15463627Y-9627159D01*
X15463628Y-9627158D01*
X15466430Y-9629902D01*
X15466430Y-9629902D01*
X15469237Y-9632650D01*
X15469237Y-9632650D01*
X15469238Y-9632651D01*
X15472043Y-9635397D01*
X15472044Y-9635399D01*
X15472045Y-9635399D01*
X15474853Y-9638149D01*
X15477664Y-9640900D01*
X15477667Y-9640904D01*
X15477668Y-9640903D01*
X15480482Y-9643659D01*
X15480482Y-9643659D01*
X15483301Y-9646419D01*
X15483301Y-9646419D01*
X15483304Y-9646422D01*
X15486118Y-9649178D01*
X15486118Y-9649178D01*
X15488941Y-9651941D01*
X15488942Y-9651943D01*
X15488943Y-9651942D01*
X15491766Y-9654707D01*
X15494592Y-9657472D01*
X15494594Y-9657477D01*
X15494595Y-9657476D01*
X15497422Y-9660245D01*
X15497422Y-9660245D01*
X15500254Y-9663017D01*
X15500255Y-9663019D01*
X15500256Y-9663019D01*
X15503090Y-9665794D01*
X15505926Y-9668571D01*
X15508766Y-9671351D01*
X15508768Y-9671352D01*
X15511607Y-9674132D01*
X15511607Y-9674133D01*
X15514451Y-9676917D01*
X15514451Y-9676918D01*
X15517298Y-9679705D01*
X15517298Y-9679705D01*
X15520144Y-9682492D01*
X15520145Y-9682494D01*
X15520146Y-9682494D01*
X15522997Y-9685286D01*
X15522997Y-9685286D01*
X15525850Y-9688079D01*
X15531564Y-9693675D01*
X15531565Y-9693675D01*
X15537287Y-9699279D01*
X15543020Y-9704894D01*
X15543020Y-9704894D01*
X15548763Y-9710518D01*
X15548763Y-9710518D01*
X15554515Y-9716151D01*
X15554515Y-9716151D01*
X15560277Y-9721794D01*
X15560277Y-9721794D01*
X15566049Y-9727447D01*
X15566049Y-9727447D01*
X15571830Y-9733109D01*
X15571830Y-9733109D01*
X15577620Y-9738780D01*
X15577621Y-9738781D01*
X15577621Y-9738781D01*
X15583421Y-9744462D01*
X15589231Y-9750153D01*
X15592066Y-9752930D01*
X15592080Y-9752943D01*
X15592136Y-9752999D01*
X15592138Y-9753003D01*
X15592139Y-9753002D01*
X16396548Y-10543793D01*
X16396567Y-10543812D01*
X16397403Y-10544637D01*
X16397430Y-10544664D01*
X17365001Y-11506043D01*
X17365021Y-11506080D01*
X17365029Y-11506071D01*
X17433895Y-11574938D01*
X17437243Y-11581070D01*
X17436745Y-11588040D01*
X17432558Y-11593633D01*
X17430275Y-11594987D01*
X17410176Y-11604159D01*
X17403260Y-11605152D01*
X17402824Y-11605081D01*
X17307543Y-11587871D01*
X17301296Y-11584742D01*
X17297732Y-11578733D01*
X17297983Y-11571750D01*
X17301969Y-11566012D01*
X17304599Y-11564388D01*
X17308450Y-11562630D01*
X17308450Y-11562630D01*
X16799548Y-11055458D01*
X16680975Y-10937781D01*
X16680975Y-10937781D01*
X16594683Y-10852255D01*
X16594683Y-10852255D01*
X16524453Y-10782719D01*
X16524453Y-10782719D01*
X16466057Y-10724947D01*
X16466057Y-10724947D01*
X16415517Y-10674983D01*
X16369046Y-10629068D01*
X16326541Y-10587095D01*
X16287906Y-10548963D01*
X16287906Y-10548962D01*
X16253059Y-10514584D01*
X16221917Y-10483873D01*
X16190984Y-10453379D01*
X16163663Y-10426455D01*
X16136504Y-10399701D01*
X16136504Y-10399701D01*
X16112879Y-10376432D01*
X16089375Y-10353292D01*
X16065999Y-10330280D01*
X16046059Y-10310659D01*
X16026213Y-10291131D01*
X16006456Y-10271697D01*
X16006456Y-10271697D01*
X15986792Y-10252359D01*
X15970474Y-10236314D01*
X15954219Y-10220333D01*
X15938028Y-10204418D01*
X15921900Y-10188566D01*
X15905832Y-10172779D01*
X15889828Y-10157055D01*
X15889828Y-10157055D01*
X15877071Y-10144524D01*
X15864353Y-10132033D01*
X15851675Y-10119582D01*
X15839037Y-10107172D01*
X15826439Y-10094802D01*
X15813881Y-10082474D01*
X15801362Y-10070185D01*
X15788883Y-10057937D01*
X15776444Y-10045729D01*
X15767140Y-10036598D01*
X15767140Y-10036598D01*
X15757859Y-10027492D01*
X15748600Y-10018408D01*
X15748600Y-10018408D01*
X15739363Y-10009346D01*
X15730148Y-10000306D01*
X15720955Y-9991288D01*
X15720955Y-9991288D01*
X15711785Y-9982295D01*
X15711784Y-9982294D01*
X15702637Y-9973322D01*
X15693511Y-9964372D01*
X15684407Y-9955445D01*
X15684407Y-9955444D01*
X15675325Y-9946539D01*
X15666265Y-9937655D01*
X15666265Y-9937655D01*
X15657227Y-9928795D01*
X15648210Y-9919956D01*
X15648210Y-9919956D01*
X15639216Y-9911140D01*
X15639216Y-9911139D01*
X15633232Y-9905274D01*
X15627258Y-9899418D01*
X15627258Y-9899418D01*
X15627256Y-9899417D01*
X15621293Y-9893571D01*
X15621293Y-9893571D01*
X15615339Y-9887736D01*
X15609394Y-9881910D01*
X15609393Y-9881909D01*
X15603460Y-9876093D01*
X15597535Y-9870289D01*
X15597533Y-9870286D01*
X15597533Y-9870287D01*
X15591619Y-9864489D01*
X15585712Y-9858701D01*
X15585712Y-9858701D01*
X15579815Y-9852925D01*
X15579813Y-9852923D01*
X15573928Y-9847156D01*
X15573928Y-9847156D01*
X15568051Y-9841399D01*
X15568049Y-9841397D01*
X15562183Y-9835649D01*
X15562183Y-9835649D01*
X15556326Y-9829911D01*
X15550478Y-9824182D01*
X15544640Y-9818463D01*
X15538811Y-9812753D01*
X15532992Y-9807053D01*
X15532991Y-9807052D01*
X15527183Y-9801362D01*
X15521383Y-9795681D01*
X15515593Y-9790010D01*
X15509812Y-9784348D01*
X15504041Y-9778696D01*
X15498280Y-9773054D01*
X15492528Y-9767421D01*
X15492527Y-9767420D01*
X15486786Y-9761797D01*
X15481053Y-9756183D01*
X15475330Y-9750579D01*
X15475329Y-9750578D01*
X15469618Y-9744984D01*
X15466764Y-9742191D01*
X15466763Y-9742189D01*
X15463913Y-9739399D01*
X15461065Y-9736610D01*
X15461065Y-9736609D01*
X15458220Y-9733823D01*
X15455375Y-9731039D01*
X15455375Y-9731038D01*
X15455373Y-9731037D01*
X15452535Y-9728257D01*
X15449695Y-9725477D01*
X15449694Y-9725476D01*
X15446859Y-9722701D01*
X15446859Y-9722700D01*
X15444025Y-9719926D01*
X15441193Y-9717153D01*
X15438365Y-9714383D01*
X15435537Y-9711615D01*
X15435535Y-9711614D01*
X15432712Y-9708850D01*
X15429890Y-9706087D01*
X15429890Y-9706086D01*
X15427072Y-9703327D01*
X15424253Y-9700568D01*
X15424252Y-9700567D01*
X15421438Y-9697813D01*
X15421437Y-9697811D01*
X15418627Y-9695059D01*
X15415816Y-9692307D01*
X15415816Y-9692307D01*
X15413009Y-9689559D01*
X15413009Y-9689559D01*
X15410202Y-9686812D01*
X15410201Y-9686811D01*
X15407399Y-9684069D01*
X15407399Y-9684068D01*
X15404598Y-9681326D01*
X15404596Y-9681325D01*
X15401798Y-9678585D01*
X15401798Y-9678585D01*
X15399004Y-9675851D01*
X15399001Y-9675848D01*
X15396210Y-9673115D01*
X15396210Y-9673115D01*
X15393419Y-9670383D01*
X15390630Y-9667652D01*
X15390630Y-9667652D01*
X15387844Y-9664925D01*
X15387844Y-9664925D01*
X15385062Y-9662202D01*
X15385060Y-9662200D01*
X15385060Y-9662201D01*
X15382279Y-9659477D01*
X15382279Y-9659477D01*
X15379499Y-9656757D01*
X15376722Y-9654039D01*
X15376722Y-9654038D01*
X15373947Y-9651323D01*
X15373945Y-9651321D01*
X15371174Y-9648608D01*
X15371174Y-9648607D01*
X15368405Y-9645898D01*
X15368405Y-9645897D01*
X15365637Y-9643188D01*
X15365636Y-9643187D01*
X15362873Y-9640482D01*
X15360109Y-9637778D01*
X15360107Y-9637776D01*
X15357349Y-9635076D01*
X15354592Y-9632376D01*
X15351836Y-9629680D01*
X15351835Y-9629678D01*
X15351835Y-9629679D01*
X15349081Y-9626983D01*
X15349081Y-9626983D01*
X15346331Y-9624292D01*
X15346329Y-9624290D01*
X15343583Y-9621601D01*
X15343583Y-9621601D01*
X15340835Y-9618913D01*
X15340833Y-9618911D01*
X15338092Y-9616228D01*
X15338092Y-9616227D01*
X15335350Y-9613544D01*
X15332610Y-9610862D01*
X15332610Y-9610862D01*
X15329876Y-9608186D01*
X15329874Y-9608184D01*
X15329874Y-9608185D01*
X15327139Y-9605508D01*
X15327139Y-9605508D01*
X15324406Y-9602833D01*
X15324406Y-9602833D01*
X15321677Y-9600162D01*
X15321677Y-9600162D01*
X15321673Y-9600159D01*
X15318949Y-9597491D01*
X15318949Y-9597491D01*
X15316225Y-9594826D01*
X15313503Y-9592161D01*
X15310781Y-9589499D01*
X15310781Y-9589498D01*
X15310778Y-9589495D01*
X15308062Y-9586837D01*
X15308062Y-9586837D01*
X15305348Y-9584180D01*
X15305348Y-9584180D01*
X15302634Y-9581525D01*
X15299923Y-9578872D01*
X15299923Y-9578872D01*
X15297215Y-9576222D01*
X15297214Y-9576220D01*
X15297214Y-9576221D01*
X15294507Y-9573571D01*
X15294507Y-9573571D01*
X15291804Y-9570926D01*
X15289104Y-9568283D01*
X15289102Y-9568281D01*
X15289102Y-9568282D01*
X15286402Y-9565639D01*
X15286402Y-9565639D01*
X15283706Y-9563001D01*
X15283704Y-9562999D01*
X15281012Y-9560363D01*
X15278319Y-9557729D01*
X15278317Y-9557727D01*
X15275628Y-9555095D01*
X15275628Y-9555094D01*
X15272943Y-9552467D01*
X15272941Y-9552465D01*
X15272941Y-9552466D01*
X15270256Y-9549838D01*
X15270256Y-9549838D01*
X15267574Y-9547212D01*
X15264892Y-9544588D01*
X15264889Y-9544585D01*
X15262212Y-9541965D01*
X15262212Y-9541965D01*
X15259540Y-9539350D01*
X15259538Y-9539348D01*
X15259538Y-9539349D01*
X15256864Y-9536732D01*
X15256864Y-9536732D01*
X15254193Y-9534118D01*
X15254193Y-9534117D01*
X15251524Y-9531506D01*
X15251524Y-9531506D01*
X15248858Y-9528897D01*
X15248857Y-9528895D01*
X15248857Y-9528896D01*
X15246194Y-9526288D01*
X15243531Y-9523683D01*
X15240871Y-9521080D01*
X15240871Y-9521079D01*
X15238214Y-9518480D01*
X15235559Y-9515882D01*
X15235557Y-9515880D01*
X15232905Y-9513284D01*
X15232905Y-9513284D01*
X15230256Y-9510692D01*
X15230254Y-9510690D01*
X15227609Y-9508100D01*
X15224962Y-9505511D01*
X15222320Y-9502925D01*
X15222318Y-9502923D01*
X15222318Y-9502924D01*
X15219678Y-9500339D01*
X15217038Y-9497757D01*
X15217036Y-9497755D01*
X15214402Y-9495177D01*
X15211768Y-9492599D01*
X15211768Y-9492599D01*
X15209136Y-9490023D01*
X15209136Y-9490022D01*
X15206508Y-9487451D01*
X15203879Y-9484879D01*
X15203877Y-9484877D01*
X15201256Y-9482311D01*
X15201254Y-9482309D01*
X15201254Y-9482310D01*
X15198631Y-9479742D01*
X15198631Y-9479742D01*
X15196014Y-9477180D01*
X15196012Y-9477178D01*
X15196012Y-9477179D01*
X15193396Y-9474617D01*
X15193396Y-9474617D01*
X15190778Y-9472056D01*
X15190774Y-9472053D01*
X15188164Y-9469498D01*
X15188164Y-9469497D01*
X15185554Y-9466944D01*
X15185554Y-9466944D01*
X15182945Y-9464391D01*
X15182943Y-9464389D01*
X15180338Y-9461839D01*
X15180338Y-9461839D01*
X15177734Y-9459290D01*
X15177732Y-9459289D01*
X15175134Y-9456745D01*
X15175134Y-9456745D01*
X15172533Y-9454200D01*
X15172532Y-9454199D01*
X15169936Y-9451659D01*
X15169936Y-9451658D01*
X15167341Y-9449119D01*
X15164748Y-9446581D01*
X15164748Y-9446581D01*
X15162160Y-9444048D01*
X15162158Y-9444046D01*
X15162158Y-9444047D01*
X15159570Y-9441514D01*
X15159568Y-9441512D01*
X15156985Y-9438983D01*
X15156985Y-9438983D01*
X15154400Y-9436452D01*
X15154400Y-9436452D01*
X15151820Y-9433928D01*
X15151820Y-9433927D01*
X15151816Y-9433924D01*
X15149244Y-9431405D01*
X15149244Y-9431405D01*
X15146665Y-9428883D01*
X15146661Y-9428879D01*
X15144090Y-9426362D01*
X15144090Y-9426361D01*
X15141519Y-9423845D01*
X15141518Y-9423844D01*
X15138949Y-9421330D01*
X15138949Y-9421330D01*
X15136384Y-9418819D01*
X15136382Y-9418817D01*
X15136382Y-9418818D01*
X15133817Y-9416306D01*
X15133817Y-9416306D01*
X15131256Y-9413799D01*
X15128696Y-9411294D01*
X15128694Y-9411292D01*
X15128694Y-9411293D01*
X15126136Y-9408789D01*
X15123582Y-9406288D01*
X15123580Y-9406286D01*
X15123580Y-9406287D01*
X15121026Y-9403786D01*
X15121026Y-9403786D01*
X15118476Y-9401290D01*
X15118476Y-9401290D01*
X15115927Y-9398795D01*
X15115927Y-9398794D01*
X15113380Y-9396301D01*
X15113380Y-9396301D01*
X15113378Y-9396300D01*
X15110835Y-9393810D01*
X15110835Y-9393810D01*
X15108294Y-9391323D01*
X15105754Y-9388837D01*
X15103218Y-9386354D01*
X15103216Y-9386352D01*
X15103216Y-9386353D01*
X15100681Y-9383871D01*
X15100681Y-9383870D01*
X15098148Y-9381391D01*
X15098148Y-9381391D01*
X15095619Y-9378915D01*
X15093091Y-9376440D01*
X15093089Y-9376438D01*
X15093089Y-9376439D01*
X15090563Y-9373966D01*
X15090563Y-9373965D01*
X15088039Y-9371494D01*
X15088037Y-9371493D01*
X15085519Y-9369026D01*
X15082998Y-9366559D01*
X15082998Y-9366559D01*
X15080481Y-9364096D01*
X15080477Y-9364092D01*
X15077966Y-9361633D01*
X15077966Y-9361632D01*
X15075454Y-9359174D01*
X15075454Y-9359173D01*
X15072944Y-9356716D01*
X15072942Y-9356715D01*
X15070436Y-9354261D01*
X15070436Y-9354260D01*
X15067930Y-9351806D01*
X15067930Y-9351806D01*
X15065427Y-9349357D01*
X15065425Y-9349355D01*
X15062928Y-9346909D01*
X15062926Y-9346907D01*
X15062926Y-9346907D01*
X15060426Y-9344459D01*
X15060426Y-9344459D01*
X15057931Y-9342016D01*
X15057929Y-9342015D01*
X15055437Y-9339575D01*
X15055435Y-9339573D01*
X15052943Y-9337132D01*
X15052943Y-9337132D01*
X15050455Y-9334697D01*
X15050451Y-9334693D01*
X15047968Y-9332261D01*
X15045484Y-9329828D01*
X15043000Y-9327396D01*
X15043000Y-9327395D01*
X15040519Y-9324966D01*
X15040517Y-9324965D01*
X15038041Y-9322540D01*
X15035565Y-9320115D01*
X15033092Y-9317693D01*
X15030619Y-9315272D01*
X15030617Y-9315270D01*
X15028152Y-9312855D01*
X15028150Y-9312853D01*
X15028150Y-9312853D01*
X15025684Y-9310438D01*
X15023218Y-9308023D01*
X15020755Y-9305611D01*
X15020755Y-9305610D01*
X15018297Y-9303203D01*
X15018296Y-9303201D01*
X15018295Y-9303202D01*
X15015838Y-9300794D01*
X15013381Y-9298389D01*
X15013379Y-9298387D01*
X15010927Y-9295985D01*
X15010927Y-9295985D01*
X15008476Y-9293584D01*
X15008474Y-9293583D01*
X15006029Y-9291187D01*
X15006027Y-9291185D01*
X15006027Y-9291186D01*
X15003579Y-9288787D01*
X15003579Y-9288787D01*
X15001136Y-9286395D01*
X15001132Y-9286391D01*
X14998693Y-9284000D01*
X14998693Y-9284000D01*
X14996254Y-9281612D01*
X14993818Y-9279225D01*
X14993817Y-9279223D01*
X14993816Y-9279224D01*
X14991383Y-9276839D01*
X14991383Y-9276839D01*
X14988947Y-9274454D01*
X14988947Y-9274454D01*
X14988943Y-9274451D01*
X14986516Y-9272073D01*
X14984088Y-9269694D01*
X14984088Y-9269694D01*
X14981661Y-9267316D01*
X14981661Y-9267316D01*
X14979237Y-9264941D01*
X14979237Y-9264941D01*
X14976815Y-9262568D01*
X14976815Y-9262567D01*
X14974395Y-9260196D01*
X14974395Y-9260196D01*
X14971977Y-9257828D01*
X14971977Y-9257828D01*
X14969564Y-9255464D01*
X14969562Y-9255461D01*
X14969562Y-9255462D01*
X14967150Y-9253097D01*
X14964738Y-9250734D01*
X14964738Y-9250734D01*
X14964736Y-9250733D01*
X14962329Y-9248373D01*
X14962329Y-9248373D01*
X14959925Y-9246018D01*
X14959924Y-9246016D01*
X14959923Y-9246017D01*
X14957519Y-9243661D01*
X14957519Y-9243661D01*
X14955117Y-9241307D01*
X14955117Y-9241306D01*
X14952718Y-9238955D01*
X14952718Y-9238955D01*
X14950320Y-9236606D01*
X14947925Y-9234258D01*
X14947925Y-9234259D01*
X14945532Y-9231914D01*
X14945532Y-9231913D01*
X14945528Y-9231910D01*
X14943139Y-9229567D01*
X14943139Y-9229567D01*
X14940753Y-9227230D01*
X14940749Y-9227226D01*
X14938367Y-9224891D01*
X14938367Y-9224890D01*
X14935983Y-9222553D01*
X14935983Y-9222553D01*
X14933601Y-9220219D01*
X14933601Y-9220219D01*
X14931221Y-9217886D01*
X14931221Y-9217886D01*
X14928844Y-9215556D01*
X14928844Y-9215556D01*
X14928840Y-9215553D01*
X14926468Y-9213227D01*
X14926468Y-9213226D01*
X14924096Y-9210901D01*
X14924094Y-9210900D01*
X14921725Y-9208577D01*
X14921725Y-9208577D01*
X14919359Y-9206257D01*
X14919357Y-9206255D01*
X14919357Y-9206256D01*
X14916990Y-9203935D01*
X14916990Y-9203935D01*
X14912265Y-9199303D01*
X14912263Y-9199301D01*
X14907549Y-9194678D01*
X14902841Y-9190062D01*
X14902840Y-9190061D01*
X14898143Y-9185454D01*
X14898142Y-9185453D01*
X14898142Y-9185454D01*
X14893452Y-9180854D01*
X14888770Y-9176263D01*
X14888768Y-9176261D01*
X14884097Y-9171679D01*
X14884097Y-9171679D01*
X14879434Y-9167106D01*
X14879432Y-9167104D01*
X14874780Y-9162540D01*
X14870134Y-9157982D01*
X14865496Y-9153432D01*
X14865496Y-9153432D01*
X14865494Y-9153431D01*
X14860868Y-9148892D01*
X14860867Y-9148891D01*
X14856250Y-9144359D01*
X14851638Y-9139835D01*
X14851637Y-9139834D01*
X14847037Y-9135319D01*
X14847036Y-9135318D01*
X14847036Y-9135319D01*
X14842443Y-9130811D01*
X14837859Y-9126312D01*
X14837857Y-9126310D01*
X14833285Y-9121821D01*
X14828717Y-9117338D01*
X14828715Y-9117336D01*
X14824159Y-9112863D01*
X14824158Y-9112862D01*
X14819610Y-9108396D01*
X14819610Y-9108396D01*
X14815070Y-9103938D01*
X14815070Y-9103937D01*
X14810538Y-9099488D01*
X14810537Y-9099487D01*
X14806015Y-9095046D01*
X14801501Y-9090613D01*
X14801499Y-9090611D01*
X14796995Y-9086186D01*
X14796995Y-9086186D01*
X14792499Y-9081769D01*
X14792498Y-9081769D01*
X14788012Y-9077361D01*
X14788011Y-9077360D01*
X14788011Y-9077361D01*
X14783533Y-9072960D01*
X14779064Y-9068570D01*
X14779061Y-9068568D01*
X14774599Y-9064182D01*
X14774599Y-9064182D01*
X14770147Y-9059806D01*
X14770146Y-9059806D01*
X14765702Y-9055438D01*
X14761266Y-9051078D01*
X14761265Y-9051077D01*
X14756840Y-9046726D01*
X14756839Y-9046725D01*
X14756839Y-9046726D01*
X14752420Y-9042381D01*
X14752420Y-9042381D01*
X14748011Y-9038047D01*
X14748009Y-9038045D01*
X14743611Y-9033719D01*
X14743610Y-9033718D01*
X14743610Y-9033719D01*
X14739218Y-9029398D01*
X14739218Y-9029398D01*
X14734835Y-9025087D01*
X14734834Y-9025086D01*
X14734834Y-9025087D01*
X14730459Y-9020783D01*
X14730459Y-9020783D01*
X14726093Y-9016487D01*
X14726092Y-9016487D01*
X14721735Y-9012200D01*
X14721735Y-9012200D01*
X14717386Y-9007921D01*
X14717385Y-9007920D01*
X14713045Y-9003649D01*
X14708713Y-8999386D01*
X14708711Y-8999384D01*
X14704390Y-8995130D01*
X14700075Y-8990882D01*
X14700075Y-8990881D01*
X14695769Y-8986643D01*
X14695768Y-8986642D01*
X14691471Y-8982411D01*
X14691470Y-8982410D01*
X14687182Y-8978187D01*
X14687181Y-8978186D01*
X14682902Y-8973971D01*
X14682902Y-8973971D01*
X14678631Y-8969764D01*
X14678630Y-8969762D01*
X14678630Y-8969763D01*
X14674367Y-8965563D01*
X14674367Y-8965563D01*
X14670112Y-8961370D01*
X14670111Y-8961370D01*
X14665866Y-8957187D01*
X14665865Y-8957186D01*
X14661628Y-8953010D01*
X14657399Y-8948842D01*
X14657398Y-8948841D01*
X14653178Y-8944681D01*
X14653177Y-8944680D01*
X14648965Y-8940527D01*
X14648965Y-8940527D01*
X14644762Y-8936384D01*
X14644759Y-8936380D01*
X14640567Y-8932246D01*
X14636381Y-8928117D01*
X14636381Y-8928117D01*
X14632204Y-8923997D01*
X14632203Y-8923995D01*
X14632203Y-8923996D01*
X14628033Y-8919882D01*
X14628032Y-8919881D01*
X14623872Y-8915776D01*
X14623872Y-8915775D01*
X14623871Y-8915774D01*
X14619721Y-8911678D01*
X14619721Y-8911678D01*
X14615575Y-8907588D01*
X14615572Y-8907585D01*
X14611441Y-8903505D01*
X14607312Y-8899430D01*
X14607310Y-8899428D01*
X14603195Y-8895363D01*
X14599086Y-8891307D01*
X14599084Y-8891303D01*
X14599083Y-8891304D01*
X14594981Y-8887251D01*
X14594981Y-8887251D01*
X14590889Y-8883208D01*
X14590888Y-8883207D01*
X14590888Y-8883208D01*
X14586803Y-8879172D01*
X14586802Y-8879171D01*
X14582726Y-8875143D01*
X14582726Y-8875142D01*
X14582725Y-8875141D01*
X14578658Y-8871122D01*
X14578658Y-8871122D01*
X14574600Y-8867111D01*
X14574598Y-8867108D01*
X14574598Y-8867109D01*
X14570547Y-8863103D01*
X14566504Y-8859105D01*
X14562469Y-8855115D01*
X14562468Y-8855114D01*
X14558443Y-8851133D01*
X14558441Y-8851130D01*
X14554425Y-8847157D01*
X14550416Y-8843190D01*
X14550416Y-8843189D01*
X14546414Y-8839229D01*
X14546412Y-8839228D01*
X14542422Y-8835278D01*
X14542422Y-8835278D01*
X14538437Y-8831333D01*
X14538436Y-8831332D01*
X14534461Y-8827396D01*
X14534460Y-8827395D01*
X14530494Y-8823467D01*
X14530493Y-8823465D01*
X14530493Y-8823466D01*
X14526534Y-8819544D01*
X14526534Y-8819544D01*
X14522583Y-8815629D01*
X14522583Y-8815629D01*
X14522582Y-8815629D01*
X14518641Y-8811724D01*
X14518640Y-8811722D01*
X14518640Y-8811723D01*
X14514706Y-8807824D01*
X14514705Y-8807823D01*
X14510780Y-8803932D01*
X14510779Y-8803930D01*
X14506862Y-8800047D01*
X14502952Y-8796170D01*
X14502951Y-8796169D01*
X14499051Y-8792301D01*
X14499050Y-8792299D01*
X14495158Y-8788439D01*
X14495157Y-8788438D01*
X14491273Y-8784584D01*
X14491272Y-8784583D01*
X14487397Y-8780737D01*
X14487397Y-8780737D01*
X14483530Y-8776899D01*
X14483528Y-8776896D01*
X14483528Y-8776897D01*
X14479669Y-8773065D01*
X14479669Y-8773064D01*
X14475817Y-8769240D01*
X14475817Y-8769240D01*
X14471973Y-8765422D01*
X14471970Y-8765419D01*
X14468139Y-8761612D01*
X14464313Y-8757812D01*
X14464312Y-8757809D01*
X14464311Y-8757810D01*
X14460492Y-8754014D01*
X14456683Y-8750228D01*
X14456682Y-8750226D01*
X14456682Y-8750227D01*
X14452879Y-8746446D01*
X14452878Y-8746444D01*
X14449085Y-8742673D01*
X14449084Y-8742671D01*
X14445299Y-8738907D01*
X14445297Y-8738904D01*
X14441523Y-8735148D01*
X14437754Y-8731399D01*
X14437753Y-8731396D01*
X14437752Y-8731397D01*
X14433991Y-8727653D01*
X14430237Y-8723916D01*
X14430236Y-8723914D01*
X14426492Y-8720187D01*
X14426490Y-8720184D01*
X14422756Y-8716465D01*
X14419028Y-8712751D01*
X14419027Y-8712749D01*
X14419027Y-8712750D01*
X14415306Y-8709042D01*
X14415306Y-8709041D01*
X14415304Y-8709039D01*
X14411595Y-8705341D01*
X14407889Y-8701648D01*
X14407887Y-8701645D01*
X14404193Y-8697962D01*
X14400507Y-8694286D01*
X14400506Y-8694283D01*
X14400505Y-8694284D01*
X14396825Y-8690612D01*
X14393153Y-8686948D01*
X14393153Y-8686947D01*
X14393151Y-8686945D01*
X14389490Y-8683291D01*
X14385834Y-8679641D01*
X14385833Y-8679639D01*
X14382186Y-8675998D01*
X14382184Y-8675995D01*
X14378547Y-8672362D01*
X14378546Y-8672360D01*
X14374916Y-8668733D01*
X14371292Y-8665111D01*
X14371292Y-8665111D01*
X14371289Y-8665109D01*
X14367677Y-8661498D01*
X14367675Y-8661496D01*
X14365864Y-8659684D01*
X14365864Y-8659684D01*
X14354966Y-8648826D01*
X14345565Y-8639522D01*
X14336134Y-8630247D01*
X14326634Y-8620961D01*
X14315540Y-8610187D01*
X14304370Y-8599416D01*
X14293165Y-8588686D01*
X14281863Y-8577937D01*
X14270558Y-8567259D01*
X14257567Y-8555076D01*
X14244487Y-8542903D01*
X14231377Y-8530796D01*
X14218196Y-8518712D01*
X14203310Y-8505176D01*
X14188345Y-8491679D01*
X14171652Y-8476754D01*
X14154870Y-8461884D01*
X14136339Y-8445619D01*
X14116021Y-8427968D01*
X14093923Y-8408981D01*
X14068281Y-8387217D01*
X14039104Y-8362793D01*
X13999417Y-8330137D01*
X13973532Y-8309114D01*
X13921340Y-8267654D01*
X13868631Y-8226837D01*
X13815420Y-8186674D01*
X13786651Y-8165445D01*
X13786594Y-8165419D01*
X13760709Y-8146514D01*
X13736328Y-8128936D01*
X13715498Y-8114087D01*
X13696405Y-8100612D01*
X13679107Y-8088518D01*
X13663546Y-8077731D01*
X13648041Y-8067069D01*
X13634293Y-8057689D01*
X13620552Y-8048380D01*
X13608554Y-8040310D01*
X13596626Y-8032338D01*
X13584662Y-8024395D01*
X13572760Y-8016546D01*
X13572760Y-8016546D01*
X13562599Y-8009885D01*
X13552454Y-8003275D01*
X13542294Y-7996695D01*
X13532202Y-7990194D01*
X13522135Y-7983749D01*
X13513752Y-7978413D01*
X13505366Y-7973101D01*
X13505366Y-7973101D01*
X13497048Y-7967859D01*
X13497048Y-7967859D01*
X13488701Y-7962625D01*
X13488701Y-7962625D01*
X13480424Y-7957464D01*
X13472144Y-7952326D01*
X13463870Y-7947221D01*
X13455620Y-7942157D01*
X13455620Y-7942156D01*
X13447429Y-7937156D01*
X13447429Y-7937156D01*
X13440851Y-7933160D01*
X13440851Y-7933160D01*
X13434331Y-7929216D01*
X13434331Y-7929217D01*
X13427784Y-7925274D01*
X13427784Y-7925274D01*
X13421275Y-7921373D01*
X13414791Y-7917502D01*
X13408323Y-7913660D01*
X13408323Y-7913660D01*
X13401838Y-7909826D01*
X13401838Y-7909826D01*
X13395392Y-7906033D01*
X13395392Y-7906033D01*
X13388963Y-7902267D01*
X13382549Y-7898528D01*
X13382549Y-7898528D01*
X13376177Y-7894831D01*
X13376177Y-7894831D01*
X13369776Y-7891135D01*
X13369776Y-7891135D01*
X13363439Y-7887494D01*
X13357074Y-7883855D01*
X13357074Y-7883855D01*
X13350751Y-7880258D01*
X13350751Y-7880258D01*
X13344469Y-7876702D01*
X13344469Y-7876702D01*
X13338158Y-7873149D01*
X13331891Y-7869639D01*
X13331891Y-7869638D01*
X13327223Y-7867035D01*
X13327223Y-7867035D01*
X13322547Y-7864438D01*
X13317861Y-7861847D01*
X13317861Y-7861847D01*
X13313225Y-7859292D01*
X13313225Y-7859292D01*
X13308580Y-7856744D01*
X13303930Y-7854202D01*
X13303930Y-7854202D01*
X13299328Y-7851698D01*
X13299328Y-7851698D01*
X13294699Y-7849189D01*
X13294699Y-7849189D01*
X13290122Y-7846719D01*
X13290122Y-7846719D01*
X13285533Y-7844254D01*
X13280940Y-7841797D01*
X13276378Y-7839367D01*
X13276378Y-7839367D01*
X13271848Y-7836965D01*
X13271848Y-7836965D01*
X13267290Y-7834558D01*
X13262786Y-7832190D01*
X13262786Y-7832190D01*
X13258252Y-7829818D01*
X13258252Y-7829818D01*
X13253750Y-7827474D01*
X13249283Y-7825158D01*
X13249283Y-7825159D01*
X13244788Y-7822839D01*
X13240347Y-7820558D01*
X13235899Y-7818284D01*
X13231439Y-7816017D01*
X13227037Y-7813790D01*
X13222606Y-7811558D01*
X13222606Y-7811558D01*
X13218223Y-7809362D01*
X13213848Y-7807181D01*
X13213848Y-7807182D01*
X13209457Y-7805004D01*
X13209457Y-7805004D01*
X13205101Y-7802855D01*
X13200783Y-7800735D01*
X13196433Y-7798612D01*
X13196433Y-7798612D01*
X13192132Y-7796523D01*
X13187842Y-7794452D01*
X13187842Y-7794452D01*
X13183533Y-7792384D01*
X13183533Y-7792384D01*
X13179262Y-7790345D01*
X13175029Y-7788335D01*
X13170789Y-7786333D01*
X13166560Y-7784349D01*
X13162323Y-7782373D01*
X13162323Y-7782373D01*
X13159541Y-7781082D01*
X13156730Y-7779782D01*
X13153949Y-7778503D01*
X13153949Y-7778503D01*
X13151185Y-7777235D01*
X13148410Y-7775969D01*
X13145628Y-7774704D01*
X13145628Y-7774704D01*
X13142887Y-7773463D01*
X13142887Y-7773463D01*
X13140115Y-7772215D01*
X13140115Y-7772214D01*
X13137386Y-7770989D01*
X13134627Y-7769756D01*
X13131896Y-7768542D01*
X13131896Y-7768542D01*
X13129169Y-7767333D01*
X13126470Y-7766144D01*
X13126470Y-7766144D01*
X13123741Y-7764947D01*
X13123741Y-7764947D01*
X13121038Y-7763767D01*
X13121038Y-7763767D01*
X13118360Y-7762602D01*
X13118360Y-7762602D01*
X13115669Y-7761438D01*
X13112974Y-7760277D01*
X13110293Y-7759129D01*
X13110293Y-7759129D01*
X13107622Y-7757990D01*
X13107622Y-7757990D01*
X13104982Y-7756870D01*
X13102327Y-7755749D01*
X13102327Y-7755749D01*
X13099661Y-7754629D01*
X13099661Y-7754629D01*
X13097044Y-7753535D01*
X13094392Y-7752433D01*
X13094392Y-7752432D01*
X13091788Y-7751355D01*
X13089170Y-7750279D01*
X13086539Y-7749202D01*
X13086539Y-7749202D01*
X13083937Y-7748143D01*
X13081366Y-7747102D01*
X13078778Y-7746061D01*
X13078778Y-7746061D01*
X13076176Y-7745020D01*
X13073627Y-7744005D01*
X13071056Y-7742988D01*
X13068487Y-7741978D01*
X13068487Y-7741978D01*
X13065962Y-7740990D01*
X13063416Y-7740001D01*
X13063416Y-7740001D01*
X13060860Y-7739013D01*
X13060860Y-7739013D01*
X13058362Y-7738054D01*
X13055820Y-7737085D01*
X13053333Y-7736142D01*
X13053333Y-7736142D01*
X13050816Y-7735193D01*
X13048317Y-7734258D01*
X13048317Y-7734258D01*
X13045856Y-7733343D01*
X13045856Y-7733343D01*
X13043362Y-7732422D01*
X13040886Y-7731515D01*
X13038420Y-7730616D01*
X13038420Y-7730616D01*
X13035969Y-7729730D01*
X13033550Y-7728861D01*
X13033550Y-7728861D01*
X13031087Y-7727983D01*
X13031087Y-7727983D01*
X13028686Y-7727133D01*
X13026238Y-7726273D01*
X13026238Y-7726273D01*
X13023852Y-7725441D01*
X13023852Y-7725441D01*
X13021432Y-7724603D01*
X13019026Y-7723778D01*
X13019026Y-7723777D01*
X13016639Y-7722965D01*
X13014289Y-7722171D01*
X13014289Y-7722171D01*
X13011899Y-7721370D01*
X13009534Y-7720584D01*
X13007183Y-7719810D01*
X13004857Y-7719050D01*
X13002497Y-7718285D01*
X13000174Y-7717540D01*
X12997877Y-7716809D01*
X12997877Y-7716809D01*
X12995533Y-7716070D01*
X12993262Y-7715362D01*
X12990953Y-7714648D01*
X12988658Y-7713945D01*
X12986403Y-7713261D01*
X12984137Y-7712581D01*
X12981853Y-7711902D01*
X12981853Y-7711902D01*
X12979640Y-7711252D01*
X12979640Y-7711252D01*
X12977366Y-7710591D01*
X12977366Y-7710591D01*
X12975160Y-7709956D01*
X12972948Y-7709327D01*
X12972948Y-7709327D01*
X12970701Y-7708695D01*
X12968516Y-7708089D01*
X12966298Y-7707479D01*
X12964150Y-7706897D01*
X12961937Y-7706304D01*
X12961937Y-7706304D01*
X12959808Y-7705740D01*
X12957611Y-7705167D01*
X12957611Y-7705167D01*
X12955499Y-7704623D01*
X12953332Y-7704072D01*
X12951215Y-7703541D01*
X12949079Y-7703014D01*
X12946971Y-7702500D01*
X12944881Y-7702000D01*
X12942776Y-7701502D01*
X12940691Y-7701017D01*
X12938637Y-7700548D01*
X12936547Y-7700078D01*
X12934503Y-7699626D01*
X12932460Y-7699183D01*
X12930419Y-7698747D01*
X12928382Y-7698321D01*
X12926384Y-7697911D01*
X12924358Y-7697503D01*
X12922393Y-7697117D01*
X12920375Y-7696727D01*
X12918417Y-7696357D01*
X12916437Y-7695991D01*
X12914473Y-7695638D01*
X12912531Y-7695296D01*
X12910597Y-7694964D01*
X12908672Y-7694642D01*
X12906749Y-7694330D01*
X12904832Y-7694027D01*
X12902932Y-7693736D01*
X12901075Y-7693460D01*
X12899166Y-7693184D01*
X12897318Y-7692927D01*
X12896365Y-7692798D01*
X12896365Y-7692798D01*
X12895455Y-7692676D01*
X12894522Y-7692554D01*
X12893598Y-7692436D01*
X12892676Y-7692320D01*
X12891772Y-7692208D01*
X12890839Y-7692096D01*
X12890839Y-7692096D01*
X12889950Y-7691991D01*
X12889950Y-7691991D01*
X12889012Y-7691882D01*
X12888132Y-7691783D01*
X12888132Y-7691783D01*
X12887205Y-7691680D01*
X12887205Y-7691680D01*
X12886311Y-7691583D01*
X12885432Y-7691490D01*
X12885432Y-7691490D01*
X12884530Y-7691398D01*
X12883621Y-7691307D01*
X12882720Y-7691219D01*
X12881827Y-7691134D01*
X12880969Y-7691055D01*
X12880969Y-7691055D01*
X12880079Y-7690976D01*
X12879185Y-7690898D01*
X12878327Y-7690826D01*
X12878327Y-7690826D01*
X12877426Y-7690753D01*
X12876576Y-7690686D01*
X12875682Y-7690619D01*
X12875682Y-7690619D01*
X12874841Y-7690558D01*
X12873967Y-7690497D01*
X12873101Y-7690438D01*
X12872243Y-7690384D01*
X12871369Y-7690331D01*
X12870548Y-7690283D01*
X12870548Y-7690283D01*
X12869669Y-7690234D01*
X12868818Y-7690190D01*
X12867988Y-7690149D01*
X12867123Y-7690109D01*
X12867123Y-7690109D01*
X12866304Y-7690073D01*
X12865446Y-7690039D01*
X12864627Y-7690009D01*
X12863789Y-7689979D01*
X12862951Y-7689954D01*
X12862133Y-7689931D01*
X12861298Y-7689910D01*
X12860473Y-7689893D01*
X12859684Y-7689879D01*
X12859684Y-7689879D01*
X12858836Y-7689866D01*
X12858035Y-7689857D01*
X12857220Y-7689850D01*
X12856407Y-7689846D01*
X12855600Y-7689844D01*
X12849938Y-7689889D01*
X12845418Y-7689990D01*
X12840934Y-7690145D01*
X12836472Y-7690358D01*
X12830918Y-7690704D01*
X12825403Y-7691138D01*
X12820185Y-7691635D01*
X12819750Y-7691551D01*
X12799574Y-7694243D01*
X12799379Y-7694362D01*
X12798064Y-7694640D01*
X12797448Y-7694736D01*
X12797187Y-7694834D01*
X12794688Y-7695287D01*
X12794486Y-7695266D01*
X12788041Y-7696539D01*
X12782285Y-7697773D01*
X12774359Y-7699607D01*
X12774045Y-7699728D01*
X12771831Y-7700260D01*
X12756831Y-7704560D01*
X12742069Y-7709596D01*
X12742067Y-7709596D01*
X12727570Y-7715358D01*
X12723677Y-7717105D01*
X12723431Y-7717141D01*
X12705211Y-7725767D01*
X12705166Y-7725828D01*
X12703496Y-7726897D01*
X12699794Y-7728869D01*
X12699406Y-7728949D01*
X12697090Y-7730298D01*
X12696676Y-7730529D01*
X12696094Y-7730839D01*
X12695708Y-7731103D01*
X12688543Y-7735277D01*
X12688456Y-7735332D01*
X12684058Y-7737998D01*
X12679540Y-7740833D01*
X12675060Y-7743742D01*
X12671487Y-7746132D01*
X12667946Y-7748564D01*
X12664415Y-7751052D01*
X12660921Y-7753577D01*
X12657437Y-7756157D01*
X12653979Y-7758783D01*
X12650541Y-7761456D01*
X12647120Y-7764179D01*
X12643719Y-7766953D01*
X12640343Y-7769769D01*
X12636989Y-7772630D01*
X12634486Y-7774810D01*
X12631991Y-7777017D01*
X12629513Y-7779245D01*
X12627040Y-7781507D01*
X12624590Y-7783784D01*
X12622142Y-7786094D01*
X12619701Y-7788437D01*
X12617284Y-7790793D01*
X12614875Y-7793178D01*
X12612471Y-7795594D01*
X12610084Y-7798031D01*
X12607708Y-7800495D01*
X12605347Y-7802979D01*
X12602989Y-7805497D01*
X12600651Y-7808032D01*
X12598314Y-7810604D01*
X12595993Y-7813196D01*
X12593695Y-7815799D01*
X12591390Y-7818448D01*
X12589109Y-7821107D01*
X12586832Y-7823800D01*
X12584574Y-7826510D01*
X12582322Y-7829249D01*
X12580080Y-7832015D01*
X12577853Y-7834800D01*
X12575634Y-7837614D01*
X12573428Y-7840449D01*
X12571233Y-7843309D01*
X12569045Y-7846201D01*
X12566887Y-7849089D01*
X12564708Y-7852046D01*
X12562571Y-7854985D01*
X12560421Y-7857981D01*
X12558299Y-7860976D01*
X12556183Y-7864003D01*
X12554084Y-7867045D01*
X12551981Y-7870132D01*
X12549895Y-7873235D01*
X12547828Y-7876349D01*
X12545764Y-7879497D01*
X12543714Y-7882665D01*
X12541680Y-7885849D01*
X12539641Y-7889080D01*
X12537632Y-7892305D01*
X12535623Y-7895569D01*
X12533635Y-7898841D01*
X12531641Y-7902162D01*
X12529676Y-7905477D01*
X12527706Y-7908841D01*
X12525757Y-7912210D01*
X12523822Y-7915596D01*
X12521884Y-7919028D01*
X12519970Y-7922459D01*
X12518060Y-7925926D01*
X12516156Y-7929422D01*
X12514279Y-7932913D01*
X12512405Y-7936438D01*
X12510529Y-7940010D01*
X12508684Y-7943565D01*
X12506841Y-7947156D01*
X12505007Y-7950777D01*
X12503180Y-7954423D01*
X12501377Y-7958065D01*
X12499569Y-7961760D01*
X12497785Y-7965450D01*
X12495999Y-7969185D01*
X12494238Y-7972914D01*
X12492479Y-7976682D01*
X12490728Y-7980474D01*
X12488990Y-7984284D01*
X12487263Y-7988115D01*
X12485557Y-7991939D01*
X12483844Y-7995829D01*
X12482149Y-7999721D01*
X12480466Y-8003627D01*
X12478799Y-8007540D01*
X12477123Y-8011526D01*
X12475479Y-8015476D01*
X12473846Y-8019444D01*
X12472203Y-8023486D01*
X12470585Y-8027509D01*
X12468972Y-8031566D01*
X12467366Y-8035655D01*
X12465786Y-8039719D01*
X12464200Y-8043847D01*
X12462636Y-8047964D01*
X12461084Y-8052094D01*
X12459527Y-8056290D01*
X12457990Y-8060473D01*
X12456455Y-8064704D01*
X12454945Y-8068909D01*
X12453444Y-8073139D01*
X12451935Y-8077434D01*
X12450452Y-8081712D01*
X12448983Y-8085994D01*
X12447502Y-8090357D01*
X12446052Y-8094679D01*
X12444613Y-8099019D01*
X12443177Y-8103398D01*
X12441738Y-8107835D01*
X12440336Y-8112213D01*
X12438917Y-8116685D01*
X12437523Y-8121135D01*
X12436149Y-8125568D01*
X12434769Y-8130075D01*
X12433402Y-8134588D01*
X12432043Y-8139127D01*
X12430696Y-8143673D01*
X12429372Y-8148197D01*
X12428047Y-8152774D01*
X12426732Y-8157373D01*
X12425420Y-8162005D01*
X12424121Y-8166652D01*
X12422846Y-8171267D01*
X12421560Y-8175969D01*
X12420304Y-8180617D01*
X12419039Y-8185352D01*
X12417802Y-8190035D01*
X12416558Y-8194804D01*
X12415340Y-8199523D01*
X12414116Y-8204324D01*
X12412917Y-8209077D01*
X12411721Y-8213881D01*
X12411721Y-8213881D01*
X12410526Y-8218731D01*
X12409356Y-8223534D01*
X12408181Y-8228419D01*
X12407031Y-8233256D01*
X12405883Y-8238141D01*
X12404737Y-8243075D01*
X12403616Y-8247962D01*
X12403616Y-8247962D01*
X12402491Y-8252924D01*
X12401388Y-8257843D01*
X12400282Y-8262839D01*
X12399198Y-8267792D01*
X12399198Y-8267792D01*
X12398110Y-8272820D01*
X12397041Y-8277829D01*
X12395985Y-8282828D01*
X12395985Y-8282828D01*
X12394928Y-8287903D01*
X12393886Y-8292962D01*
X12392859Y-8298006D01*
X12391498Y-8304795D01*
X12390145Y-8311651D01*
X12388824Y-8318458D01*
X12388825Y-8318458D01*
X12387506Y-8325365D01*
X12386211Y-8332263D01*
X12384940Y-8339150D01*
X12384940Y-8339150D01*
X12383673Y-8346136D01*
X12382434Y-8353075D01*
X12381207Y-8360079D01*
X12379990Y-8367141D01*
X12378801Y-8374157D01*
X12377617Y-8381270D01*
X12376455Y-8388374D01*
X12375316Y-8395468D01*
X12374187Y-8402619D01*
X12373069Y-8409830D01*
X12371973Y-8417031D01*
X12370898Y-8424223D01*
X12370898Y-8424223D01*
X12369830Y-8431505D01*
X12368783Y-8438777D01*
X12367756Y-8446041D01*
X12367756Y-8446041D01*
X12366737Y-8453392D01*
X12365739Y-8460733D01*
X12364760Y-8468069D01*
X12363793Y-8475456D01*
X12363793Y-8475456D01*
X12362839Y-8482898D01*
X12361908Y-8490300D01*
X12361908Y-8490300D01*
X12360986Y-8497786D01*
X12360083Y-8505265D01*
X12359196Y-8512764D01*
X12358325Y-8520285D01*
X12357470Y-8527826D01*
X12356631Y-8535389D01*
X12355810Y-8542945D01*
X12355002Y-8550551D01*
X12355002Y-8550551D01*
X12354208Y-8558205D01*
X12353433Y-8565824D01*
X12353433Y-8565824D01*
X12352670Y-8573520D01*
X12351925Y-8581206D01*
X12351195Y-8588913D01*
X12350480Y-8596643D01*
X12349609Y-8606329D01*
X12348763Y-8616012D01*
X12347940Y-8625759D01*
X12347138Y-8635569D01*
X12346365Y-8645341D01*
X12345611Y-8655207D01*
X12344885Y-8665037D01*
X12344180Y-8674926D01*
X12344180Y-8674926D01*
X12343498Y-8684875D01*
X12343498Y-8684875D01*
X12342842Y-8694790D01*
X12342208Y-8704762D01*
X12341596Y-8714791D01*
X12341008Y-8724817D01*
X12340446Y-8734837D01*
X12340446Y-8734838D01*
X12339903Y-8744943D01*
X12339387Y-8755015D01*
X12339387Y-8755015D01*
X12338891Y-8765171D01*
X12338419Y-8775321D01*
X12337970Y-8785496D01*
X12337544Y-8795665D01*
X12337545Y-8795665D01*
X12337142Y-8805886D01*
X12336686Y-8818214D01*
X12336265Y-8830510D01*
X12335875Y-8842869D01*
X12335875Y-8842869D01*
X12335518Y-8855295D01*
X12335193Y-8867717D01*
X12334900Y-8880169D01*
X12334639Y-8892650D01*
X12334410Y-8905128D01*
X12334410Y-8905128D01*
X12334212Y-8917698D01*
X12334046Y-8930231D01*
X12333911Y-8942854D01*
X12333808Y-8955473D01*
X12333727Y-8970192D01*
X12333727Y-8970192D01*
X12333688Y-8985009D01*
X12333684Y-8991351D01*
X12333687Y-8996059D01*
X12333690Y-8998430D01*
X12333695Y-9000821D01*
X12333695Y-9000821D01*
X12333702Y-9003202D01*
X12333710Y-9005596D01*
X12333731Y-9010417D01*
X12333757Y-9015271D01*
X12333789Y-9020160D01*
X12333827Y-9025083D01*
X12333871Y-9030041D01*
X12333921Y-9035045D01*
X12333977Y-9040055D01*
X12334038Y-9045109D01*
X12334106Y-9050212D01*
X12334179Y-9055322D01*
X12334259Y-9060480D01*
X12334344Y-9065667D01*
X12334435Y-9070888D01*
X12334532Y-9076140D01*
X12334636Y-9081429D01*
X12334745Y-9086745D01*
X12334860Y-9092096D01*
X12334860Y-9092096D01*
X12334981Y-9097479D01*
X12335108Y-9102893D01*
X12335241Y-9108338D01*
X12335380Y-9113816D01*
X12335525Y-9119325D01*
X12335676Y-9124865D01*
X12335833Y-9130436D01*
X12335996Y-9136050D01*
X12335996Y-9136050D01*
X12336165Y-9141673D01*
X12336340Y-9147348D01*
X12336340Y-9147348D01*
X12336521Y-9153031D01*
X12336709Y-9158759D01*
X12336902Y-9164514D01*
X12336902Y-9164514D01*
X12337101Y-9170313D01*
X12337307Y-9176119D01*
X12337518Y-9181964D01*
X12337518Y-9181964D01*
X12337736Y-9187843D01*
X12337959Y-9193748D01*
X12338189Y-9199686D01*
X12338425Y-9205652D01*
X12338667Y-9211648D01*
X12338915Y-9217673D01*
X12339169Y-9223727D01*
X12339429Y-9229810D01*
X12339696Y-9235924D01*
X12339968Y-9242074D01*
X12339968Y-9242074D01*
X12340247Y-9248234D01*
X12340532Y-9254433D01*
X12340823Y-9260669D01*
X12340823Y-9260669D01*
X12341120Y-9266915D01*
X12341423Y-9273198D01*
X12341733Y-9279519D01*
X12341733Y-9279519D01*
X12342049Y-9285850D01*
X12342371Y-9292217D01*
X12342699Y-9298612D01*
X12343034Y-9305045D01*
X12343034Y-9305045D01*
X12343547Y-9314719D01*
X12344074Y-9324466D01*
X12344615Y-9334273D01*
X12345171Y-9344144D01*
X12345740Y-9354070D01*
X12346324Y-9364061D01*
X12346921Y-9374122D01*
X12347533Y-9384214D01*
X12347533Y-9384214D01*
X12348159Y-9394379D01*
X12348799Y-9404615D01*
X12349454Y-9414884D01*
X12350121Y-9425220D01*
X12350804Y-9435615D01*
X12351503Y-9446066D01*
X12352213Y-9456572D01*
X12352940Y-9467135D01*
X12353680Y-9477751D01*
X12354435Y-9488435D01*
X12354435Y-9488435D01*
X12355203Y-9499149D01*
X12356251Y-9513533D01*
X12357324Y-9528011D01*
X12358424Y-9542585D01*
X12359551Y-9557266D01*
X12359550Y-9557266D01*
X12360700Y-9572008D01*
X12361877Y-9586856D01*
X12363082Y-9601808D01*
X12364309Y-9616819D01*
X12365564Y-9631931D01*
X12367169Y-9650943D01*
X12368818Y-9670109D01*
X12370504Y-9689369D01*
X12372232Y-9708775D01*
X12374002Y-9728309D01*
X12376181Y-9751914D01*
X12378422Y-9775720D01*
X12380718Y-9799655D01*
X12383478Y-9827846D01*
X12386316Y-9856213D01*
X12389662Y-9888931D01*
X12393558Y-9926091D01*
X12398046Y-9967764D01*
X12403657Y-10018318D01*
X12411018Y-10082286D01*
X12423608Y-10186341D01*
X12430177Y-10238664D01*
X12443973Y-10343220D01*
X12458522Y-10447673D01*
X12465782Y-10497494D01*
X12465780Y-10497540D01*
X12477081Y-10573236D01*
X12486322Y-10633204D01*
X12495128Y-10688821D01*
X12502672Y-10735358D01*
X12510395Y-10781999D01*
X12517509Y-10824106D01*
X12523960Y-10861608D01*
X12530533Y-10899192D01*
X12537227Y-10936824D01*
X12543175Y-10969745D01*
X12549222Y-11002728D01*
X12555368Y-11035768D01*
X12561596Y-11068763D01*
X12567014Y-11097084D01*
X12572505Y-11125435D01*
X12578057Y-11153739D01*
X12583688Y-11182097D01*
X12589377Y-11210394D01*
X12595143Y-11238714D01*
X12600978Y-11267023D01*
X12605894Y-11290604D01*
X12610859Y-11314173D01*
X12615873Y-11337729D01*
X12620942Y-11361295D01*
X12626049Y-11384791D01*
X12626049Y-11384791D01*
X12631216Y-11408321D01*
X12636421Y-11431776D01*
X12641688Y-11455262D01*
X12646998Y-11478695D01*
X12652352Y-11502075D01*
X12657761Y-11525451D01*
X12663227Y-11548824D01*
X12667625Y-11567454D01*
X12672060Y-11586085D01*
X12676528Y-11604693D01*
X12681029Y-11623277D01*
X12685567Y-11641859D01*
X12685567Y-11641859D01*
X12690125Y-11660367D01*
X12690125Y-11660367D01*
X12694728Y-11678898D01*
X12699352Y-11697350D01*
X12704020Y-11715823D01*
X12708708Y-11734216D01*
X12713435Y-11752603D01*
X12718195Y-11770957D01*
X12722992Y-11789301D01*
X12727811Y-11807565D01*
X12732676Y-11825843D01*
X12737559Y-11844032D01*
X12742483Y-11862211D01*
X12747439Y-11880351D01*
X12752436Y-11898475D01*
X12757460Y-11916540D01*
X12762507Y-11934532D01*
X12767596Y-11952510D01*
X12772726Y-11970472D01*
X12777874Y-11988334D01*
X12783062Y-12006178D01*
X12788293Y-12024005D01*
X12793540Y-12041728D01*
X12797505Y-12055013D01*
X12801486Y-12068267D01*
X12805489Y-12081493D01*
X12809508Y-12094690D01*
X12813548Y-12107860D01*
X12817606Y-12120999D01*
X12821691Y-12134132D01*
X12825779Y-12147189D01*
X12829894Y-12160237D01*
X12834029Y-12173257D01*
X12838182Y-12186243D01*
X12842363Y-12199222D01*
X12846546Y-12212121D01*
X12846546Y-12212121D01*
X12850765Y-12225036D01*
X12854987Y-12237869D01*
X12859243Y-12250714D01*
X12863505Y-12263483D01*
X12867792Y-12276237D01*
X12872107Y-12288984D01*
X12876424Y-12301643D01*
X12880779Y-12314319D01*
X12885135Y-12326907D01*
X12889519Y-12339485D01*
X12893932Y-12352052D01*
X12898345Y-12364529D01*
X12902795Y-12377015D01*
X12907259Y-12389447D01*
X12911730Y-12401809D01*
X12916241Y-12414188D01*
X12916241Y-12414188D01*
X12920752Y-12426470D01*
X12920752Y-12426470D01*
X12925290Y-12438739D01*
X12929861Y-12450999D01*
X12929861Y-12450999D01*
X12934429Y-12463160D01*
X12939027Y-12475307D01*
X12943655Y-12487438D01*
X12948295Y-12499510D01*
X12952941Y-12511502D01*
X12957628Y-12523507D01*
X12962315Y-12535417D01*
X12967044Y-12547341D01*
X12971767Y-12559158D01*
X12976537Y-12570994D01*
X12981300Y-12582721D01*
X12986096Y-12594436D01*
X12990922Y-12606130D01*
X12995747Y-12617725D01*
X13000603Y-12629300D01*
X13005492Y-12640863D01*
X13010382Y-12652329D01*
X13015288Y-12663741D01*
X13020234Y-12675147D01*
X13025185Y-12686474D01*
X13030155Y-12697748D01*
X13035164Y-12709015D01*
X13040166Y-12720171D01*
X13045216Y-12731338D01*
X13050258Y-12742393D01*
X13055342Y-12753445D01*
X13060447Y-12764447D01*
X13065546Y-12775340D01*
X13070692Y-12786237D01*
X13075854Y-12797072D01*
X13081017Y-12807814D01*
X13086228Y-12818559D01*
X13089706Y-12825680D01*
X13093178Y-12832743D01*
X13096674Y-12839811D01*
X13100176Y-12846852D01*
X13103703Y-12853897D01*
X13103703Y-12853897D01*
X13107210Y-12860861D01*
X13107210Y-12860861D01*
X13110752Y-12867851D01*
X13114292Y-12874794D01*
X13117830Y-12881690D01*
X13121388Y-12888582D01*
X13124955Y-12895449D01*
X13128531Y-12902290D01*
X13132126Y-12909126D01*
X13135711Y-12915897D01*
X13139313Y-12922660D01*
X13142939Y-12929423D01*
X13146548Y-12936111D01*
X13150188Y-12942814D01*
X13153831Y-12949478D01*
X13157480Y-12956111D01*
X13161127Y-12962696D01*
X13164808Y-12969300D01*
X13168470Y-12975827D01*
X13172170Y-12982377D01*
X13175867Y-12988878D01*
X13179556Y-12995322D01*
X13183270Y-13001767D01*
X13187009Y-13008211D01*
X13190725Y-13014573D01*
X13194484Y-13020965D01*
X13198217Y-13027267D01*
X13201975Y-13033571D01*
X13205755Y-13039867D01*
X13205768Y-13039888D01*
X13205839Y-13039994D01*
X13205927Y-13040127D01*
X13205939Y-13040145D01*
X13205988Y-13040221D01*
X13205990Y-13040224D01*
X13206026Y-13040278D01*
X13206027Y-13040277D01*
X13206137Y-13040440D01*
X13206158Y-13040472D01*
X13206162Y-13040483D01*
X13206170Y-13040496D01*
X13206173Y-13040494D01*
X13206189Y-13040517D01*
X13206252Y-13040612D01*
X13206278Y-13040650D01*
X13206278Y-13040650D01*
X13206292Y-13040672D01*
X13206329Y-13040727D01*
X13206353Y-13040762D01*
X13206386Y-13040812D01*
X13206496Y-13040976D01*
X13206496Y-13040976D01*
X13206539Y-13041039D01*
X13206600Y-13041130D01*
X13206661Y-13041222D01*
X13206661Y-13041222D01*
X13206665Y-13041228D01*
X13206666Y-13041228D01*
X13206757Y-13041363D01*
X13206786Y-13041405D01*
X13206817Y-13041451D01*
X13206835Y-13041479D01*
X13206876Y-13041539D01*
X13206906Y-13041584D01*
X13206945Y-13041641D01*
X13206980Y-13041692D01*
X13206986Y-13041702D01*
X13207042Y-13041785D01*
X13207057Y-13041807D01*
X13207095Y-13041863D01*
X13207151Y-13041945D01*
X13207151Y-13041945D01*
X13207198Y-13042014D01*
X13207223Y-13042052D01*
X13207258Y-13042103D01*
X13207258Y-13042103D01*
X13207336Y-13042219D01*
X13207347Y-13042236D01*
X13207381Y-13042285D01*
X13207438Y-13042369D01*
X13207440Y-13042372D01*
X13207443Y-13042376D01*
X13207495Y-13042453D01*
X13207513Y-13042480D01*
X13207589Y-13042591D01*
X13207604Y-13042614D01*
X13207644Y-13042672D01*
X13207671Y-13042712D01*
X13207709Y-13042767D01*
X13207762Y-13042846D01*
X13207806Y-13042909D01*
X13207843Y-13042963D01*
X13207874Y-13043010D01*
X13207931Y-13043093D01*
X13207951Y-13043122D01*
X13208000Y-13043195D01*
X13208000Y-13043195D01*
X13208061Y-13043284D01*
X13208085Y-13043319D01*
X13208152Y-13043417D01*
X13208183Y-13043462D01*
X13208208Y-13043498D01*
X13208278Y-13043602D01*
X13208304Y-13043641D01*
X13208354Y-13043713D01*
X13208363Y-13043739D01*
X13208369Y-13043734D01*
X13208485Y-13043904D01*
X13208520Y-13043955D01*
X13208626Y-13044112D01*
X13208746Y-13044285D01*
X13208757Y-13044318D01*
X13208765Y-13044312D01*
X13208903Y-13044513D01*
X13208912Y-13044527D01*
X13209034Y-13044704D01*
X13209188Y-13044929D01*
X13209197Y-13044941D01*
X13209337Y-13045145D01*
X13209337Y-13045145D01*
X13209483Y-13045358D01*
X13209634Y-13045577D01*
X13209634Y-13045577D01*
X13209793Y-13045807D01*
X13209955Y-13046041D01*
X13209962Y-13046051D01*
X13210121Y-13046283D01*
X13210277Y-13046507D01*
X13210277Y-13046507D01*
X13210450Y-13046756D01*
X13210450Y-13046756D01*
X13210621Y-13047003D01*
X13210648Y-13047041D01*
X13210797Y-13047257D01*
X13210969Y-13047504D01*
X13210978Y-13047517D01*
X13211147Y-13047761D01*
X13211338Y-13048036D01*
X13211518Y-13048293D01*
X13211531Y-13048312D01*
X13211703Y-13048558D01*
X13211885Y-13048820D01*
X13212091Y-13049113D01*
X13212105Y-13049134D01*
X13212287Y-13049394D01*
X13212480Y-13049670D01*
X13212690Y-13049969D01*
X13212704Y-13049989D01*
X13212890Y-13050255D01*
X13213214Y-13050716D01*
X13213214Y-13050716D01*
X13213529Y-13051163D01*
X13213529Y-13051163D01*
X13213857Y-13051629D01*
X13214187Y-13052097D01*
X13214529Y-13052580D01*
X13214876Y-13053071D01*
X13215222Y-13053560D01*
X13215584Y-13054069D01*
X13215586Y-13054075D01*
X13215588Y-13054074D01*
X13215958Y-13054595D01*
X13216321Y-13055106D01*
X13216702Y-13055639D01*
X13216702Y-13055639D01*
X13217079Y-13056167D01*
X13217604Y-13056902D01*
X13218133Y-13057639D01*
X13218683Y-13058403D01*
X13218684Y-13058404D01*
X13219232Y-13059167D01*
X13219805Y-13059960D01*
X13219805Y-13059960D01*
X13220373Y-13060747D01*
X13220373Y-13060747D01*
X13220961Y-13061558D01*
X13221705Y-13062583D01*
X13222482Y-13063648D01*
X13222482Y-13063648D01*
X13223258Y-13064709D01*
X13223258Y-13064709D01*
X13224065Y-13065812D01*
X13225030Y-13067126D01*
X13226038Y-13068490D01*
X13227249Y-13070126D01*
X13227249Y-13070126D01*
X13228465Y-13071764D01*
X13229929Y-13073725D01*
X13231585Y-13075932D01*
X13231586Y-13075932D01*
X13233523Y-13078500D01*
X13235897Y-13081624D01*
X13239007Y-13085684D01*
X13244032Y-13092164D01*
X13248905Y-13098377D01*
X13258810Y-13110694D01*
X13266025Y-13119446D01*
X13266062Y-13119469D01*
X13266278Y-13119721D01*
X13268491Y-13122378D01*
X13272430Y-13127051D01*
X13276187Y-13131457D01*
X13279425Y-13135217D01*
X13282424Y-13138669D01*
X13285452Y-13142125D01*
X13288240Y-13145279D01*
X13291035Y-13148416D01*
X13293594Y-13151266D01*
X13296145Y-13154085D01*
X13298732Y-13156922D01*
X13301027Y-13159420D01*
X13303333Y-13161914D01*
X13305682Y-13164438D01*
X13308023Y-13166934D01*
X13310394Y-13169443D01*
X13312773Y-13171943D01*
X13314857Y-13174118D01*
X13316930Y-13176269D01*
X13319043Y-13178446D01*
X13321154Y-13180605D01*
X13323254Y-13182740D01*
X13325419Y-13184927D01*
X13327554Y-13187067D01*
X13329718Y-13189221D01*
X13331912Y-13191391D01*
X13333716Y-13193161D01*
X13335576Y-13194977D01*
X13337393Y-13196740D01*
X13339269Y-13198549D01*
X13341107Y-13200310D01*
X13343008Y-13202118D01*
X13344867Y-13203877D01*
X13346760Y-13205654D01*
X13348657Y-13207425D01*
X13350547Y-13209177D01*
X13352486Y-13210962D01*
X13354387Y-13212701D01*
X13356331Y-13214465D01*
X13358265Y-13216208D01*
X13360196Y-13217936D01*
X13362155Y-13219677D01*
X13364135Y-13221422D01*
X13365695Y-13222788D01*
X13367259Y-13224150D01*
X13368856Y-13225532D01*
X13370431Y-13226886D01*
X13372052Y-13228272D01*
X13372052Y-13228272D01*
X13373622Y-13229604D01*
X13375229Y-13230961D01*
X13376843Y-13232313D01*
X13378467Y-13233665D01*
X13380066Y-13234988D01*
X13381698Y-13236328D01*
X13383331Y-13237661D01*
X13384933Y-13238958D01*
X13386590Y-13240292D01*
X13388211Y-13241586D01*
X13389857Y-13242891D01*
X13391506Y-13244190D01*
X13393172Y-13245492D01*
X13394801Y-13246757D01*
X13396460Y-13248033D01*
X13398134Y-13249312D01*
X13399797Y-13250573D01*
X13401484Y-13251842D01*
X13403134Y-13253073D01*
X13404813Y-13254316D01*
X13406505Y-13255558D01*
X13408180Y-13256778D01*
X13409889Y-13258012D01*
X13411546Y-13259198D01*
X13413267Y-13260419D01*
X13414953Y-13261605D01*
X13416677Y-13262807D01*
X13418368Y-13263975D01*
X13420073Y-13265142D01*
X13421799Y-13266312D01*
X13423501Y-13267456D01*
X13425234Y-13268609D01*
X13426940Y-13269733D01*
X13428683Y-13270869D01*
X13430393Y-13271973D01*
X13432135Y-13273086D01*
X13433882Y-13274193D01*
X13435608Y-13275272D01*
X13437340Y-13276346D01*
X13438662Y-13277156D01*
X13439974Y-13277954D01*
X13441258Y-13278729D01*
X13441258Y-13278729D01*
X13442592Y-13279526D01*
X13443908Y-13280306D01*
X13445218Y-13281076D01*
X13446509Y-13281829D01*
X13447854Y-13282605D01*
X13449169Y-13283357D01*
X13450480Y-13284101D01*
X13451824Y-13284855D01*
X13453137Y-13285585D01*
X13454450Y-13286308D01*
X13455796Y-13287043D01*
X13457102Y-13287748D01*
X13458439Y-13288463D01*
X13459778Y-13289172D01*
X13461106Y-13289868D01*
X13462429Y-13290553D01*
X13463777Y-13291244D01*
X13465107Y-13291919D01*
X13466441Y-13292588D01*
X13467769Y-13293247D01*
X13469123Y-13293911D01*
X13470463Y-13294562D01*
X13471796Y-13295200D01*
X13473130Y-13295832D01*
X13474483Y-13296465D01*
X13475841Y-13297092D01*
X13477167Y-13297698D01*
X13478521Y-13298308D01*
X13479856Y-13298902D01*
X13481217Y-13299499D01*
X13482556Y-13300078D01*
X13483920Y-13300661D01*
X13485256Y-13301224D01*
X13486613Y-13301787D01*
X13487964Y-13302340D01*
X13489326Y-13302889D01*
X13490665Y-13303421D01*
X13492036Y-13303957D01*
X13492481Y-13304129D01*
X13492481Y-13304129D01*
X13500172Y-13300620D01*
X13507088Y-13299627D01*
X13513443Y-13302531D01*
X13517219Y-13308410D01*
X13517714Y-13311528D01*
X13519513Y-13371393D01*
X13517747Y-13378153D01*
X13512607Y-13382885D01*
X13512267Y-13383046D01*
X13499835Y-13388720D01*
X13492919Y-13389713D01*
X13490220Y-13389007D01*
X13468229Y-13380514D01*
X13468229Y-13380514D01*
X13468229Y-13380514D01*
X13463869Y-13378830D01*
X13463497Y-13378680D01*
X13456227Y-13375598D01*
X13455624Y-13375323D01*
X13434435Y-13364975D01*
X13433932Y-13364714D01*
X13418973Y-13356541D01*
X13418603Y-13356331D01*
X13400949Y-13345885D01*
X13400570Y-13345651D01*
X13380584Y-13332834D01*
X13380197Y-13332575D01*
X13358193Y-13317267D01*
X13358020Y-13317145D01*
X13357955Y-13317098D01*
X13357734Y-13316934D01*
X13333980Y-13298987D01*
X13333746Y-13298806D01*
X13333708Y-13298775D01*
X13333544Y-13298643D01*
X13308442Y-13278013D01*
X13308273Y-13277872D01*
X13308004Y-13277643D01*
X13307773Y-13277441D01*
X13281502Y-13253914D01*
X13281346Y-13253772D01*
X13281199Y-13253635D01*
X13280957Y-13253405D01*
X13253975Y-13227015D01*
X13253809Y-13226850D01*
X13253225Y-13226257D01*
X13252998Y-13226020D01*
X13225668Y-13196749D01*
X13225471Y-13196532D01*
X13224603Y-13195557D01*
X13224415Y-13195342D01*
X13196613Y-13162631D01*
X13196388Y-13162358D01*
X13196098Y-13161997D01*
X13195950Y-13161809D01*
X13167714Y-13125175D01*
X13167357Y-13124687D01*
X13139095Y-13084071D01*
X13138928Y-13083825D01*
X13138246Y-13082794D01*
X13137961Y-13082340D01*
X13137382Y-13081376D01*
X13137118Y-13080915D01*
X13022151Y-12869408D01*
X13021740Y-12868580D01*
X12915815Y-12633486D01*
X12915533Y-12632807D01*
X12818328Y-12377707D01*
X12818129Y-12377144D01*
X12729462Y-12105915D01*
X12729318Y-12105442D01*
X12648999Y-11821980D01*
X12648940Y-11821763D01*
X12648916Y-11821673D01*
X12648869Y-11821487D01*
X12576680Y-11529617D01*
X12576599Y-11529267D01*
X12512342Y-11232914D01*
X12512306Y-11232741D01*
X12512247Y-11232446D01*
X12512220Y-11232311D01*
X12455881Y-10936398D01*
X12455856Y-10936259D01*
X12455454Y-10934008D01*
X12455430Y-10933870D01*
X12406707Y-10642064D01*
X12406682Y-10641911D01*
X12406243Y-10639061D01*
X12406228Y-10638961D01*
X12364651Y-10353650D01*
X12364605Y-10353299D01*
X12301867Y-9815621D01*
X12301842Y-9815391D01*
X12301797Y-9814929D01*
X12301776Y-9814691D01*
X12265448Y-9351152D01*
X12265417Y-9350588D01*
X12253701Y-8991617D01*
X12253696Y-8991052D01*
X12255417Y-8858278D01*
X12255421Y-8858108D01*
X12255433Y-8857654D01*
X12255439Y-8857480D01*
X12260769Y-8726733D01*
X12260778Y-8726545D01*
X12260784Y-8726443D01*
X12260797Y-8726247D01*
X12269988Y-8598397D01*
X12270004Y-8598200D01*
X12270021Y-8598006D01*
X12270044Y-8597769D01*
X12283339Y-8473787D01*
X12283402Y-8473294D01*
X12301059Y-8354006D01*
X12301099Y-8353753D01*
X12301106Y-8353707D01*
X12301135Y-8353544D01*
X12311613Y-8296296D01*
X12311640Y-8296153D01*
X12311702Y-8295838D01*
X12311735Y-8295675D01*
X12323395Y-8239910D01*
X12323431Y-8239742D01*
X12323449Y-8239663D01*
X12323486Y-8239501D01*
X12336376Y-8185265D01*
X12336410Y-8185125D01*
X12336416Y-8185102D01*
X12336472Y-8184886D01*
X12350597Y-8132412D01*
X12350665Y-8132169D01*
X12350671Y-8132148D01*
X12350713Y-8132005D01*
X12366088Y-8081455D01*
X12366149Y-8081258D01*
X12366172Y-8081188D01*
X12366245Y-8080968D01*
X12382904Y-8032424D01*
X12383069Y-8031973D01*
X12401044Y-7985539D01*
X12401143Y-7985291D01*
X12401151Y-7985271D01*
X12401253Y-7985031D01*
X12420561Y-7940840D01*
X12420806Y-7940313D01*
X12441472Y-7898476D01*
X12441771Y-7897909D01*
X12463813Y-7858547D01*
X12464175Y-7857942D01*
X12487614Y-7821165D01*
X12488051Y-7820523D01*
X12512904Y-7786440D01*
X12513430Y-7785769D01*
X12539716Y-7754486D01*
X12540341Y-7753796D01*
X12568082Y-7725408D01*
X12568816Y-7724716D01*
X12598033Y-7699321D01*
X12598880Y-7698647D01*
X12629553Y-7676371D01*
X12630033Y-7676039D01*
X12630146Y-7675965D01*
X12630625Y-7675665D01*
X12662836Y-7656554D01*
X12663895Y-7655993D01*
X12697757Y-7640101D01*
X12698895Y-7639634D01*
X12734401Y-7627089D01*
X12734952Y-7626909D01*
X12734964Y-7626905D01*
X12735599Y-7626732D01*
X12772768Y-7617642D01*
X12773300Y-7617524D01*
X12773392Y-7617506D01*
X12774059Y-7617393D01*
X12813024Y-7611848D01*
X12814201Y-7611737D01*
X12854785Y-7609871D01*
X12856442Y-7609905D01*
G37*
M02*
