%TF.GenerationSoftware,KiCad,Pcbnew,9.0.6-rc1-2-g790dee114b*%
%TF.CreationDate,2025-10-17T23:20:01-04:00*%
%TF.ProjectId,MetamerBoard,4d657461-6d65-4724-926f-6172642e6b69,rev?*%
%TF.SameCoordinates,Original*%
%TF.FileFunction,Profile,NP*%
%FSLAX45Y45*%
G04 Gerber Fmt 4.5, Leading zero omitted, Abs format (unit mm)*
G04 Created by KiCad (PCBNEW 9.0.6-rc1-2-g790dee114b) date 2025-10-17 23:20:01*
%MOMM*%
%LPD*%
G01*
G04 APERTURE LIST*
%TA.AperFunction,Profile*%
%ADD10C,0.066065*%
%TD*%
G04 APERTURE END LIST*
D10*
X12917235Y-7615256D02*
X12988227Y-7631116D01*
X13067620Y-7656794D01*
X13154444Y-7691673D01*
X13247726Y-7735136D01*
X13346497Y-7786564D01*
X13449785Y-7845341D01*
X13556619Y-7910849D01*
X13666028Y-7982470D01*
X13777042Y-8059586D01*
X13888689Y-8141582D01*
X13999998Y-8227837D01*
X14109998Y-8317737D01*
X14217718Y-8410662D01*
X14322188Y-8505995D01*
X14422436Y-8603119D01*
X15592139Y-9753002D01*
X16397044Y-10544281D01*
X17365029Y-11506071D01*
X17446527Y-11587570D01*
X13495088Y-13390887D01*
X13463681Y-13378757D01*
X13455922Y-13375469D01*
X13434181Y-13364851D01*
X13418786Y-13356440D01*
X13400759Y-13345772D01*
X13380387Y-13332708D01*
X13357958Y-13317104D01*
X13333760Y-13298821D01*
X13308081Y-13277717D01*
X13281207Y-13253650D01*
X13253427Y-13226480D01*
X13225029Y-13196065D01*
X13196301Y-13162264D01*
X13167529Y-13124935D01*
X13139002Y-13083938D01*
X13138099Y-13082571D01*
X13137247Y-13081151D01*
X13021931Y-12869003D01*
X12915663Y-12633150D01*
X12818222Y-12377429D01*
X12729385Y-12105679D01*
X12648931Y-11821737D01*
X12576637Y-11529442D01*
X12512281Y-11232630D01*
X12455642Y-10935140D01*
X12406497Y-10640809D01*
X12364625Y-10353476D01*
X12301812Y-9815152D01*
X12265426Y-9350870D01*
X12253692Y-8991333D01*
X12255422Y-8857876D01*
X12260779Y-8726489D01*
X12270011Y-8598077D01*
X12283366Y-8473540D01*
X12301092Y-8353781D01*
X12311672Y-8295976D01*
X12323438Y-8239703D01*
X12336421Y-8185076D01*
X12350652Y-8132208D01*
X12366162Y-8081211D01*
X12382982Y-8032197D01*
X12401144Y-7985281D01*
X12420677Y-7940574D01*
X12441614Y-7898189D01*
X12463986Y-7858239D01*
X12487822Y-7820838D01*
X12513155Y-7786096D01*
X12540016Y-7754129D01*
X12568434Y-7725047D01*
X12598443Y-7698965D01*
X12630072Y-7675994D01*
X12663352Y-7656248D01*
X12698315Y-7639839D01*
X12734992Y-7626880D01*
X12773413Y-7617484D01*
X12813611Y-7611764D01*
X12855615Y-7609832D01*
X12917235Y-7615256D01*
M02*
